<?xml version="1.0" encoding="UTF-8"?>
<svg id="Layer_1" data-name="Layer 1" xmlns="http://www.w3.org/2000/svg" xmlns:xlink="http://www.w3.org/1999/xlink" viewBox="0 0 182.07 222.07">
  <defs>
    <style>
      .cls-1 {
        fill: #082744;
      }

      .cls-2 {
        fill: url(#linear-gradient);
      }
    </style>
    <linearGradient id="linear-gradient" x1="0" y1="146.01" x2="181.61" y2="146.01" gradientUnits="userSpaceOnUse">
      <stop offset="0" stop-color="#b3945d"/>
      <stop offset=".5" stop-color="#dfc393"/>
      <stop offset="1" stop-color="#a08047"/>
    </linearGradient>
  </defs>
  <path class="cls-1" d="M120.16,73.94c0-.91,0-1.46,0-2,0-11.89,0-23.77,0-35.66,0-4.3,1.33-8.13,4.23-11.32,2.66-2.93,5.89-4.63,10-4.59,9.57.08,19.15.02,28.72.03.38,0,.76.06,1.33.1.06.53.16,1.05.16,1.57,0,17.28.03,34.56-.01,51.83-.01,4.09-1.35,7.79-3.96,10.96-2.73,3.33-6.24,5.15-10.61,5.15-19.2,0-38.41.01-57.61-.01-2.08,0-3.93-.91-5.72-1.91-.52-.29-1.02-.62-1.44-.88-.19.02-.26.01-.3.04-3.23,2.37-6.88,2.82-10.79,2.8-19.31-.08-38.63-.28-57.94.06-10.33.18-15.91-8.28-16.1-15.84-.05-2.2-.02-4.4-.02-6.6,0-12.05.02-24.1-.03-36.15,0-1.36.41-2.22,1.5-3.02,3.09-2.3,6.09-4.71,9.14-7.07.42-.32.86-.62,1.6-1.16.04,1.03.1,1.71.1,2.4,0,17,0,34,0,51.01,0,.55-.02,1.1.01,1.65.09,1.65.94,2.53,2.56,2.64.49.03.99.02,1.49.02,19.48,0,38.96,0,58.44,0,.33,0,.66,0,.99,0,2.44-.06,3.36-1.25,2.86-4-5.16-.14-10.37-.04-15.57-.06-5.22-.02-10.43,0-15.81,0-.06-.71-.13-1.23-.13-1.75,0-11.94,0-23.88,0-35.82,0-5.06,1.79-9.36,5.6-12.73,2.34-2.06,5.02-3.25,8.24-3.23,9.57.05,19.15,0,28.72.01.38,0,.76.06,1.32.11.05.77.14,1.51.14,2.25,0,16.89,0,33.78,0,50.68,0,.71-.03,1.44.07,2.14.22,1.53,1.13,2.31,2.66,2.39.44.02.88.01,1.32.01,17.61,0,35.22,0,52.82,0,.33,0,.66,0,.99,0,2.61-.04,3.49-1.15,2.97-4.03h-31.97ZM152.28,32.89c-.6-.04-1.02-.1-1.45-.1-2.09-.01-4.18,0-6.27,0-3.08,0-6.16-.02-9.23.02-1.73.02-2.51.74-2.78,2.42-.06.38-.07.77-.07,1.15,0,7.86,0,15.72,0,23.58,0,.58.11,1.15.16,1.67,2.33.36,18.33.25,19.64-.12v-28.62ZM78.89,61.7v-28.92c-1.41,0-2.72,0-4.02,0-4.13,0-8.25-.02-12.38.01-1.87.01-2.72.86-2.87,2.69-.03.33-.02.66-.02.99,0,7.81,0,15.62,0,23.43,0,.58.07,1.16.11,1.8h19.17Z"/>
  <path class="cls-1" d="M181.69,20.75c0,.59,0,1.18,0,1.77,0,18.65-.01,37.31.03,55.96,0,1.34-.37,2.23-1.46,3.05-3.09,2.3-6.09,4.71-9.14,7.07-.46.35-.94.67-1.67,1.19-.06-.92-.12-1.51-.12-2.09,0-18.71,0-37.42-.03-56.13,0-1.28.37-2.13,1.42-2.91,3.09-2.3,6.09-4.71,9.14-7.07.47-.36.96-.7,1.43-1.05.14.07.27.14.41.21Z"/>
  <path class="cls-1" d="M79.5,17.33c-2.85-2.85-5.53-5.52-8.33-8.31-2.88,2.79-5.66,5.49-8.3,8.04-2.91-2.91-5.7-5.7-8.66-8.66,2.66-2.66,5.57-5.45,8.62-8.4,2.8,2.78,5.51,5.47,8.35,8.28,2.86-2.77,5.64-5.46,8.28-8.03,2.92,2.9,5.72,5.67,8.69,8.62-2.7,2.69-5.61,5.49-8.66,8.45Z"/>
  <path class="cls-1" d="M44.55,221.28h-3.69c-.05-.54-.14-1.01-.14-1.48-.01-3.85-.02-7.7,0-11.56.01-2.59,1.22-4.1,3.48-4.48,2.75-.46,4.69.49,5.52,2.99.99,2.97,1.79,6.01,2.67,9.02.12.42.17.89.4,1.25.2.33.59.55.9.82.24-.32.57-.62.68-.98.12-.4.06-.87.06-1.31,0-3.14,0-6.27,0-9.41,0-.64.07-1.29.12-1.99h3.65c.05.58.13,1.06.13,1.54,0,3.74.02,7.48,0,11.23-.02,3.34-1.77,4.96-5.08,4.79-1.92-.1-3.23-1.05-3.88-2.81-.51-1.39-.9-2.83-1.32-4.25-.49-1.69-.95-3.39-1.43-5.08-.1-.37-.14-.8-.35-1.09-.26-.36-.67-.6-1.01-.89-.23.4-.54.77-.67,1.2-.11.35-.03.76-.03,1.15,0,3.14,0,6.27,0,9.41,0,.59,0,1.19,0,1.97Z"/>
  <path class="cls-1" d="M178.27,204.44h3.65c.05.64.12,1.17.12,1.71,0,3.69-.06,7.37.02,11.06.08,3.54-2.1,5.1-5.36,4.8-1.48-.14-2.62-.82-3.28-2.17-.38-.78-.68-1.62-.93-2.46-.76-2.58-1.48-5.18-2.22-7.77-.11-.37-.16-.78-.37-1.08-.19-.28-.58-.62-.84-.59-.26.03-.56.46-.68.78-.12.35-.05.76-.05,1.15,0,3.25,0,6.49,0,9.74,0,.6,0,1.19,0,1.94h-3.68c-.05-.42-.14-.89-.15-1.35-.01-3.91,0-7.81,0-11.72,0-.38-.04-.8.09-1.15.24-.66.47-1.38.9-1.91,1.69-2.03,6.36-1.52,7.6.8.36.67.6,1.42.82,2.15.82,2.79,1.59,5.6,2.42,8.4.18.59.24,1.49,1.13,1.37.92-.12.68-1,.68-1.62.02-3.41,0-6.82.02-10.23,0-.59.06-1.17.1-1.85Z"/>
  <path class="cls-1" d="M93.9,212.89c0-1.21-.05-2.42.02-3.62.04-.76.16-1.55.45-2.24.72-1.7,1.94-2.73,3.92-2.7,2.58.04,5.16.04,7.74,0,1.9-.03,3.11.94,3.84,2.56.29.64.49,1.37.5,2.06.05,2.74.16,5.5-.02,8.23-.21,3.16-2.13,4.8-5.33,4.85-1.92.03-3.84.04-5.77,0-3.37-.06-5.28-1.97-5.36-5.35-.03-1.26,0-2.53,0-3.79ZM106.49,213h0c0-1.1.04-2.19-.01-3.29-.06-1.26-.57-1.81-1.82-1.86-1.64-.06-3.29-.06-4.93,0-1.27.04-1.89.54-1.93,1.77-.08,2.3-.08,4.6,0,6.9.04,1.15.66,1.66,1.83,1.69,1.7.05,3.4.06,5.1,0,1.17-.04,1.68-.58,1.74-1.75.06-1.15.01-2.3.01-3.45Z"/>
  <path class="cls-1" d="M147.02,212.97c0-1.26-.08-2.53.03-3.79.08-.91.28-1.86.68-2.67.7-1.42,1.89-2.21,3.57-2.19,2.52.04,5.06.13,7.57-.02,2.47-.15,4.35,1.79,4.44,3.74.16,3.34.2,6.7-.02,10.03-.15,2.24-2.08,3.8-4.43,3.91-2.41.11-4.83.13-7.24,0-2.66-.14-4.42-2.03-4.57-4.73-.08-1.42-.01-2.85-.01-4.28h-.02ZM159.61,213.05c0-1.04.03-2.08,0-3.13-.05-1.45-.57-2.03-1.97-2.07-1.59-.05-3.18-.05-4.77,0-1.4.05-1.97.63-2,2.06-.05,2.08-.05,4.17,0,6.25.03,1.44.6,2.02,1.99,2.07,1.59.05,3.18.05,4.77,0,1.41-.04,1.94-.6,1.99-2.05.04-1.04,0-2.08,0-3.13Z"/>
  <path class="cls-1" d="M115.24,208.19v13.38h-3.57c-.36-1.29-.42-15.19-.07-17.04.33-.05.7-.15,1.06-.16,2.92-.01,5.83-.05,8.75.01,1.91.04,3.96.24,4.61,2.42.67,2.26.76,4.59-1.19,6.22.48,1.45,1.01,2.81,1.38,4.2.37,1.37.59,2.78.9,4.33h-4c-.28-1.43-.54-2.82-.81-4.21-.38-1.98-.81-2.34-2.87-2.35-.81,0-1.62,0-2.56,0v-3.62c1.35-.03,2.65-.02,3.95-.09,1.27-.07,1.65-.55,1.58-1.79-.05-.8-.45-1.29-1.2-1.31-1.91-.05-3.82-.02-5.95-.02Z"/>
  <path class="cls-1" d="M.55,221.26v-3.58c.61-.04,1.14-.11,1.67-.12,2.25-.01,4.51,0,6.76-.01.49,0,.99-.01,1.47-.12.71-.16,1.18-.6,1.19-1.37.01-.77-.39-1.25-1.12-1.41-.48-.11-.97-.15-1.46-.16-1.32-.03-2.64.03-3.95-.04-3.69-.22-5.79-3.29-4.75-6.85.6-2.03,2.03-3.29,4.01-3.41,3.38-.2,6.78-.06,10.3-.06v3.68c-.77,0-1.47,0-2.16,0-2.03,0-4.07,0-6.1,0-.44,0-.89-.01-1.31.09-.73.17-1.11.7-1.06,1.45.04.69.44,1.13,1.11,1.24.43.07.87.06,1.31.07,1.26.01,2.53-.04,3.79.04,3.54.23,5.47,2.39,5.27,5.81-.15,2.56-1.72,4.48-4.45,4.68-3.43.25-6.89.06-10.51.06Z"/>
  <path class="cls-1" d="M32.56,204.17v17.04h-3.62c-.3-2.17.02-4.41-.2-6.74h-7.7c-.05,2.19-.1,4.41-.15,6.75h-3.78c-.17-5.66-.1-11.32-.03-17.09h3.85v6.19h7.83v-6.16h3.8Z"/>
  <path class="cls-1" d="M81.18,204.45v6.2c2.64.31,5.12.16,7.86.09v-6.27h3.61c.39,1.32.45,15.19.07,17.09h-3.54c-.39-2.16.03-4.41-.28-6.84-2.54-.06-5.02-.06-7.7,0v6.82h-3.55c-.4-1.13-.49-15.07-.08-17.09h3.61Z"/>
  <path class="cls-1" d="M137.38,217.74c3.14.36,5.99-.02,8.93.26v3.53c-.47.06-.89.16-1.31.16-3.52.01-7.04,0-10.56,0-.96,0-1.97-.03-2.41-1.05-.43-1-.33-2.06.28-2.99.3-.46.67-.87,1.04-1.28,1.93-2.19,3.86-4.36,5.79-6.55.35-.4.66-.83,1.24-1.56-2.7-.25-5.09,0-7.56-.18v-3.62c.59-.04,1.08-.1,1.56-.1,2.86,0,5.72,0,8.58,0,1.05,0,2.23-.1,2.74,1.05.55,1.25.29,2.49-.63,3.53-2.07,2.35-4.16,4.69-6.23,7.04-.43.48-.82.99-1.45,1.75Z"/>
  <path class="cls-1" d="M142.81,17.08c-3.02-2.87-5.84-5.55-8.63-8.2.65-1.28,7.03-7.62,8.46-8.53,2.81,2.81,5.59,5.59,8.56,8.56-2.72,2.64-5.6,5.45-8.39,8.17Z"/>
  <path class="cls-1" d="M75.4,204.04c.09.25.14.32.12.35-1.5,2.86-3,5.71-4.51,8.56-.07.14-.2.29-.34.35-1.6.75-1.61,2.14-1.53,3.62.07,1.41.01,2.82.01,4.34h-3.83v-6.85c-2.01-.88-2.8-2.66-3.69-4.37-.76-1.46-1.54-2.91-2.29-4.38-.22-.42-.38-.88-.69-1.61,1.35,0,2.48-.08,3.6.04.38.04.81.5,1.04.88.57.93,1.04,1.93,1.56,2.9.28.53.53,1.09.84,1.6.38.63.53,1.57,1.48,1.6.98.03,1.16-.88,1.52-1.53.74-1.35,1.44-2.72,2.15-4.08.15-.29.27-.63.49-.85.25-.25.6-.53.92-.55,1.08-.07,2.16-.03,3.16-.03Z"/>
  <path class="cls-1" d="M131.11,221.6h-3.57v-17.11h3.47c.38,1.22.47,14.89.1,17.11Z"/>
  <path class="cls-1" d="M38.43,221.27h-3.31c-.42-1.19-.51-15.17-.09-17.12h3.3c.35,1.27.44,14.91.1,17.12Z"/>
  <path class="cls-2" d="M88.44,101.64c0-.56-.07-1.13-.12-1.98-.77.56-1.25.9-1.72,1.27-2.95,2.3-5.86,4.66-8.88,6.87-1.21.89-1.59,1.87-1.58,3.32.05,13.92.03,27.84.03,41.76,0,.61.02,1.21-.03,1.81-.12,1.38-.93,2.31-2.28,2.39-1.81.1-3.63.1-5.44,0-1.33-.06-2.22-1.01-2.39-2.33-.07-.54-.03-1.1-.03-1.65,0-12.16.01-24.32-.02-36.48,0-1.48-.1-2.98-.38-4.43-1.49-7.74-7.39-12.64-15.22-12.67-8.86-.03-17.72,0-26.58,0-.63,0-1.27.09-2.02.14,0,.85,0,1.5,0,2.16,0,7.04,0,14.09,0,21.13,0,1.15-.02,2.32.13,3.46.81,6.05,3.75,10.64,9.47,13.11,1.38.6,2.96.85,4.47.99,1.55.15,2.38,1.31,2.46,2.6.02.27.01.55.01.83,0,3.08.01,6.16,0,9.24-.01,2.76-.8,3.57-3.53,3.57-6.11,0-12.22-.06-18.32.02-2.82.04-4.17-.46-4.15-4.14.08-16.89.04-33.78.03-50.68,0-.69-.06-1.37-.11-2.34-.66.45-1.07.69-1.45.99-3.17,2.46-6.32,4.96-9.52,7.38C.35,108.72,0,109.49,0,110.65c.04,14.03.01,28.06.04,42.09,0,1.47.13,2.98.46,4.41,1.5,6.45,6.99,12.23,15.08,12.05,6.71-.15,13.42-.03,20.14-.03,4.15,0,7.6-1.58,10.37-4.63,2.86-3.15,4.22-6.92,4.31-11.14.07-3.08.01-6.16.02-9.24,0-3.28-.85-6.32-2.6-9.08-2.5-3.92-5.99-6.39-10.69-6.94-2.39-.28-2.98-.85-2.99-3.2-.02-3.8-.01-7.59,0-11.39,0-.47.1-.94.17-1.56h1.91c3.14,0,6.27,0,9.41,0,1.76,0,3.52-.03,5.28.02,1.84.05,2.68.92,2.76,2.77.02.55.01,1.1.01,1.65,0,11.94,0,23.88,0,35.82,0,4.5,1.25,8.58,4.23,12.03,2.78,3.21,6.28,4.92,10.57,4.9,1.6,0,3.19-.01,4.79,0,5.71.05,9.87-2.61,12.76-7.4,1.68-2.8,2.42-5.87,2.41-9.14-.02-9.08,0-18.16,0-27.24,0-7.92,0-15.85,0-23.77ZM181.55,124.11c-.3-8.65-6.97-15.1-15.56-15.11-4.73,0-9.47,0-14.2,0-.59,0-1.18-.05-1.96-.09v-3.05c0-1.05.04-2.09-.01-3.14-.05-.94.26-1.93-.33-2.95-.57.42-1.06.77-1.54,1.14-3,2.33-5.96,4.71-9,6.97-1.08.8-1.5,1.66-1.5,3.02.03,13.98,0,27.95-.01,41.93,0,.5.02.99,0,1.49-.1,1.79-1.02,2.73-2.79,2.81-.93.04-1.87,0-2.81,0-1.27,0-2.12-.65-2.47-1.81-.23-.77-.3-1.62-.3-2.43-.02-17-.01-34.01-.01-51.01v-2.29c-.82.57-1.31.89-1.77,1.24-3,2.33-5.95,4.72-9.01,6.97-1.15.85-1.55,1.77-1.54,3.18.05,13.98.03,27.96.03,41.93,0,.61.02,1.21-.03,1.81-.13,1.36-.96,2.2-2.32,2.37-.49.06-.99.03-1.48.04-4.79,0-9.58,0-14.36,0-.63,0-1.26.07-1.96.12.01,4,1.33,7.2,4.12,9.76,1.56,1.43,3.41,2.18,5.55,2.16,2.7-.02,5.39.01,8.09-.02.82,0,1.64-.12,2.46-.23,2.29-.3,4.23-1.44,6.13-2.7.42.27.79.5,1.16.73,2.28,1.47,4.77,2.21,7.49,2.21,11.78,0,23.55,0,35.33,0,4.08,0,7.5-1.58,10.22-4.59,2.88-3.18,4.4-6.95,4.42-11.26.03-6.88.01-13.76.01-20.64,0-2.86.07-5.73-.03-8.58ZM165.33,157.15c-4.46,0-8.91,0-13.37,0h-2.02v-35.51c.58-.06,1.15-.17,1.73-.17,4.73-.01,9.46,0,14.2,0,.44,0,.88.01,1.32.08,1.16.18,1.88.86,2.09,2.02.1.59.11,1.2.11,1.81,0,9.24,0,18.49,0,27.73,0,3.43-.62,4.04-4.04,4.04ZM92.96,177.7v11.91h88.53v-11.9c-1.47-.43-87-.43-88.53,0ZM.06,177.7v11.84c2.32.38,48.71.26,49.93-.11v-11.74c-1.56-.4-48.41-.39-49.93.01ZM96.26,149.96v1.63c.13.08.26.16.39.24.43-.31.86-.6,1.28-.92,3.17-2.47,6.3-4.97,9.51-7.38.9-.68,1.2-1.41,1.18-2.5-.06-3.35-.02-6.71-.02-10.06,0-9.73,0-19.46,0-29.19,0-.62-.07-1.23-.12-2.12-.72.52-1.17.82-1.6,1.15-3.08,2.39-6.13,4.84-9.26,7.17-1.05.78-1.39,1.64-1.39,2.91.04,13.03.02,26.06.02,39.09ZM71.12,183.46c-2.86-2.85-5.53-5.52-8.33-8.31-3.02,2.94-5.91,5.75-8.79,8.56,2.95,2.92,5.74,5.7,8.7,8.63,2.81-2.71,5.6-5.39,8.43-8.11,2.85,2.82,5.53,5.48,8.33,8.27,3.02-2.93,5.91-5.74,8.57-8.33-2.96-2.97-5.77-5.79-8.65-8.7-2.64,2.56-5.42,5.25-8.26,8Z"/>
</svg>