<svg xmlns="http://www.w3.org/2000/svg" version="1.1" viewBox="-5.0 -10.0 110.0 135.0">
 <path d="m49.992 0c-10.945 0-20.859 1.543-28.305 4.1562-3.7227 1.3047-6.8398 2.8633-9.2227 4.8398-2.3828 1.9766-4.1602 4.5859-4.1602 7.6602v68.625-0.003906c0.003906 1.0156 0.5 1.9648 1.3242 2.5469 0.73047 1.1953 1.7109 2.2695 2.832 3.1992 2.3828 1.9766 5.4961 3.5391 9.2227 4.8477 7.4492 2.6133 17.359 4.1328 28.305 4.1328 10.945 0 20.852-1.5195 28.301-4.1328 3.7227-1.3047 6.8438-2.8711 9.2266-4.8477 2.3203-1.9219 4.0781-4.4727 4.168-7.4414v-0.011719h0.003906c0.003906-0.074218 0.007812-0.14844 0.007812-0.22656v-66.688c0-3.0703-1.793-5.6836-4.1758-7.6602-2.3828-1.9766-5.5039-3.5352-9.2266-4.8398-7.4492-2.6133-17.355-4.1562-28.301-4.1562zm0 6.2539c10.355 0 19.738 1.4961 26.25 3.7773 3.2539 1.1406 5.7656 2.5039 7.2891 3.7656 1.5195 1.2617 1.918 2.1914 1.918 2.8555 0 0.66406-0.39453 1.6016-1.918 2.8633-1.5195 1.2617-4.0312 2.6172-7.2891 3.7578-6.5117 2.2852-15.895 3.7852-26.25 3.7852-10.355 0-19.715-1.5-26.227-3.7852-3.2539-1.1406-5.7969-2.5-7.3164-3.7578-1.5195-1.2617-1.8867-2.1992-1.8867-2.8633 0-0.66406 0.36328-1.5938 1.8867-2.8555 1.5195-1.2617 4.0625-2.625 7.3164-3.7656 6.5117-2.2852 15.871-3.7773 26.227-3.7773zm35.453 19.586v13.055c0 0.66406-0.39453 1.5938-1.918 2.8555-1.5195 1.2617-4.0312 2.6172-7.2891 3.7578-6.5117 2.2852-15.895 3.7852-26.25 3.7852s-19.715-1.5-26.227-3.7852c-3.2539-1.1406-5.7969-2.5-7.3164-3.7578-1.5195-1.2617-1.8867-2.1914-1.8867-2.8555v-13.043c2.0195 1.2852 4.4062 2.375 7.1211 3.3281 7.4492 2.6133 17.359 4.1328 28.305 4.1328s20.852-1.5195 28.301-4.1328c2.7266-0.95703 5.1289-2.0469 7.1523-3.3398zm0 22.215v13.047c0 0.66406-0.39453 1.6016-1.918 2.8633-1.5195 1.2617-4.0312 2.6172-7.2891 3.7578-6.5117 2.2852-15.895 3.7852-26.25 3.7852s-19.715-1.5-26.227-3.7852c-3.2539-1.1406-5.7969-2.5-7.3164-3.7578-1.5195-1.2617-1.8867-2.1992-1.8867-2.8633v-13.035c2.0195 1.2852 4.4062 2.375 7.1211 3.3281 7.4492 2.6133 17.359 4.1484 28.305 4.1484s20.852-1.5391 28.301-4.1484c2.7266-0.95703 5.1289-2.0469 7.1523-3.3398zm0 22.234v13.055c0 0.66406-0.39453 1.5938-1.918 2.8555-1.5195 1.2617-4.0312 2.625-7.2891 3.7656-6.5117 2.2852-15.895 3.7773-26.25 3.7773s-19.715-1.4961-26.227-3.7773c-3.2539-1.1406-5.7969-2.5039-7.3164-3.7656-1.5195-1.2617-1.8867-2.1914-1.8867-2.8555v-13.043c2.0195 1.2852 4.4062 2.3789 7.1211 3.332 7.4492 2.6133 17.359 4.125 28.305 4.125s20.852-1.5117 28.301-4.125c2.7266-0.95703 5.1289-2.0547 7.1523-3.3438z"/>
</svg>