<svg width="150" height="150" viewBox="0 0 150 150" fill="none" xmlns="http://www.w3.org/2000/svg">
<path d="M24.3612 85.3828V90.5399" stroke="#BABABA" stroke-linecap="round" stroke-linejoin="round"/>
<path d="M21.7892 87.9551H26.9463" stroke="#BABABA" stroke-linecap="round" stroke-linejoin="round"/>
<path d="M124.072 46.9004V52.0575" stroke="#BABABA" stroke-linecap="round" stroke-linejoin="round"/>
<path d="M121.496 49.4727H126.641" stroke="#BABABA" stroke-linecap="round" stroke-linejoin="round"/>
<path d="M18.583 27V32.1452" stroke="#BABABA" stroke-linecap="round" stroke-linejoin="round"/>
<path d="M15.999 29.5742H21.1562" stroke="#BABABA" stroke-linecap="round" stroke-linejoin="round"/>
<path d="M58.619 17.3452C59.2666 17.3452 59.7916 16.8202 59.7916 16.1726C59.7916 15.525 59.2666 15 58.619 15C57.9714 15 57.4464 15.525 57.4464 16.1726C57.4464 16.8202 57.9714 17.3452 58.619 17.3452Z" fill="#CFCFCF"/>
<path d="M44.3116 27.2401L110.669 26.9342C112.535 26.9256 114.024 28.3744 114.032 30.133L114.456 122.002C114.464 123.761 112.988 125.223 111.122 125.232L44.7647 125.537C42.8988 125.546 41.41 124.097 41.4018 122.339L40.9784 30.4697C40.9703 28.7111 42.4457 27.2487 44.3116 27.2401Z" fill="#E4E6EA" stroke="#D0D4DA"/>
<path d="M41.8287 23.2051H106.456C108.252 23.2051 109.704 24.6527 109.704 26.4329V118.638C109.704 120.418 108.252 121.866 106.456 121.866H41.8287C40.0326 121.866 38.5811 120.418 38.5811 118.638V26.4329C38.5811 24.6527 40.0326 23.2051 41.8287 23.2051Z" fill="white" stroke="#D0D4DA"/>
<path d="M121.893 89.0308C122.541 89.0308 123.066 88.5058 123.066 87.8582C123.066 87.2105 122.541 86.6855 121.893 86.6855C121.246 86.6855 120.721 87.2105 120.721 87.8582C120.721 88.5058 121.246 89.0308 121.893 89.0308Z" fill="#CFCFCF"/>
<circle cx="41.5737" cy="83.2524" r="1.64389" stroke="#D0D4DA" stroke-width="1.09592"/>
<circle cx="41.5737" cy="63.5258" r="1.64389" stroke="#D0D4DA" stroke-width="1.09592"/>
<circle cx="41.5737" cy="42.7036" r="1.64389" stroke="#D0D4DA" stroke-width="1.09592"/>
<circle cx="41.5737" cy="104.075" r="1.64389" stroke="#D0D4DA" stroke-width="1.09592"/>
<path d="M38.2868 38.3203C36.0949 38.3203 34.999 40.1454 34.999 42.1553C34.999 44.778 39.9307 47.0877 41.5746 42.704" stroke="#D0D4DA" stroke-width="1.09592" stroke-linecap="round"/>
<path d="M38.2868 59.1426C36.0949 59.1426 34.999 60.9677 34.999 62.9776C34.999 65.6002 39.9307 67.91 41.5746 63.5262" stroke="#D0D4DA" stroke-width="1.09592" stroke-linecap="round"/>
<path d="M38.2868 99.6914C36.0949 99.6914 34.999 101.516 34.999 103.526C34.999 106.149 39.9307 108.459 41.5746 104.075" stroke="#D0D4DA" stroke-width="1.09592" stroke-linecap="round"/>
<path d="M38.2868 78.8691C36.0949 78.8691 34.999 80.6942 34.999 82.7041C34.999 85.3268 39.9307 87.6365 41.5746 83.2528" stroke="#D0D4DA" stroke-width="1.09592" stroke-linecap="round"/>
<path d="M114.01 96C110.054 95.9979 106.186 97.1691 102.895 99.3654C99.605 101.562 97.0399 104.685 95.5245 108.339C94.0091 111.993 93.6115 116.015 94.382 119.895C95.1525 123.776 97.0565 127.34 99.8531 130.138C102.65 132.936 106.213 134.842 110.093 135.615C113.973 136.387 117.995 135.992 121.65 134.479C125.305 132.965 128.43 130.402 130.628 127.113C132.826 123.823 133.999 119.956 133.999 116C133.999 110.698 131.893 105.612 128.145 101.862C124.397 98.1112 119.312 96.0029 114.01 96Z" fill="white" stroke="#D0D4DA" stroke-linecap="round" stroke-linejoin="round"/>
<path d="M112.051 105.049C112.023 104.478 112.478 104 113.05 104H114.948C115.52 104 115.975 104.478 115.947 105.049L115.157 121.049C115.131 121.582 114.691 122 114.158 122H113.84C113.307 122 112.867 121.582 112.841 121.049L112.051 105.049Z" fill="#9BA2AE"/>
<circle cx="113.999" cy="126" r="2" fill="#9BA2AE"/>
</svg>
