<svg width="150" height="150" viewBox="0 0 150 150" fill="none" xmlns="http://www.w3.org/2000/svg">
<rect x="14.5" y="32.5" width="98" height="59" rx="3.5" fill="#E4E6EA" stroke="#D0D4DA"/>
<path d="M11.1368 101.715C11.7647 101.715 12.2737 101.206 12.2737 100.578C12.2737 99.9504 11.7647 99.4414 11.1368 99.4414C10.509 99.4414 10 99.9504 10 100.578C10 101.206 10.509 101.715 11.1368 101.715Z" fill="#CFCFCF"/>
<path d="M58.8843 116.494V121.042" stroke="#BABABA" stroke-linecap="round" stroke-linejoin="round"/>
<path d="M56.6106 118.768H61.158" stroke="#BABABA" stroke-linecap="round" stroke-linejoin="round"/>
<path d="M24.4082 39.5H118.592C120.734 39.5 122.5 41.3027 122.5 43.5631V110.437C122.5 112.697 120.734 114.5 118.592 114.5H24.4082C22.2659 114.5 20.5 112.697 20.5 110.437V43.5631C20.5 41.3027 22.2659 39.5 24.4082 39.5Z" fill="white" stroke="#D0D4DA"/>
<path d="M80.4641 58H30.5359C30.2399 58 30 58.2399 30 58.5359V77.4641C30 77.7601 30.2399 78 30.5359 78H80.4641C80.7601 78 81 77.7601 81 77.4641V58.5359C81 58.2399 80.7601 58 80.4641 58Z" fill="#F2F3F5"/>
<path d="M80.4641 58H30.5359C30.2399 58 30 58.2399 30 58.5359V77.4641C30 77.7601 30.2399 78 30.5359 78H80.4641C80.7601 78 81 77.7601 81 77.4641V58.5359C81 58.2399 80.7601 58 80.4641 58Z" stroke="#E4E6EA"/>
<path d="M80.4641 86H30.5359C30.2399 86 30 86.2399 30 86.5359V105.464C30 105.76 30.2399 106 30.5359 106H80.4641C80.7601 106 81 105.76 81 105.464V86.5359C81 86.2399 80.7601 86 80.4641 86Z" fill="#F2F3F5"/>
<path d="M80.4641 86H30.5359C30.2399 86 30 86.2399 30 86.5359V105.464C30 105.76 30.2399 106 30.5359 106H80.4641C80.7601 106 81 105.76 81 105.464V86.5359C81 86.2399 80.7601 86 80.4641 86Z" stroke="#E4E6EA"/>
<path d="M89 58.5359V105.464C89 105.76 89.2399 106 89.5359 106H112.464C112.76 106 113 105.76 113 105.464V58.5359C113 58.2399 112.76 58 112.464 58H89.5359C89.2399 58 89 58.2399 89 58.5359Z" fill="#F2F3F5"/>
<path d="M89 58.5359V105.464C89 105.76 89.2399 106 89.5359 106H112.464C112.76 106 113 105.76 113 105.464V58.5359C113 58.2399 112.76 58 112.464 58H89.5359C89.2399 58 89 58.2399 89 58.5359Z" stroke="#E4E6EA"/>
<path d="M122.5 42.9163V49.4094L20.5 49.4996L20.5 42.9163L20.5 42.9148C20.4987 42.4758 20.5951 42.0391 20.7857 41.6291C20.9764 41.2189 21.2585 40.8419 21.6192 40.5215C21.98 40.2009 22.4118 39.9439 22.8912 39.7676C23.3706 39.5913 23.8863 39.5 24.4083 39.5H118.592C119.114 39.5 119.629 39.5913 120.109 39.7676L120.281 39.2985L120.109 39.7676C120.588 39.9439 121.02 40.2009 121.381 40.5215C121.742 40.8419 122.024 41.2189 122.214 41.6291C122.405 42.0391 122.501 42.4758 122.5 42.9148V42.9163Z" fill="#E4E6EA" stroke="#D0D4DA"/>
<path d="M28.5 46C29.3284 46 30 45.3284 30 44.5C30 43.6716 29.3284 43 28.5 43C27.6716 43 27 43.6716 27 44.5C27 45.3284 27.6716 46 28.5 46Z" fill="#CFCFCF"/>
<path d="M34.5 46C35.3284 46 36 45.3284 36 44.5C36 43.6716 35.3284 43 34.5 43C33.6716 43 33 43.6716 33 44.5C33 45.3284 33.6716 46 34.5 46Z" fill="#CFCFCF"/>
<path d="M40.5 46C41.3284 46 42 45.3284 42 44.5C42 43.6716 41.3284 43 40.5 43C39.6716 43 39 43.6716 39 44.5C39 45.3284 39.6716 46 40.5 46Z" fill="#CFCFCF"/>
<path d="M128.485 27.9592C129.112 27.9592 129.621 27.4502 129.621 26.8224C129.621 26.1945 129.112 25.6855 128.485 25.6855C127.857 25.6855 127.348 26.1945 127.348 26.8224C127.348 27.4502 127.857 27.9592 128.485 27.9592Z" fill="#CFCFCF"/>
<path d="M59.1368 27.9592C59.7647 27.9592 60.2737 27.4502 60.2737 26.8224C60.2737 26.1945 59.7647 25.6855 59.1368 25.6855C58.509 25.6855 58 26.1945 58 26.8224C58 27.4502 58.509 27.9592 59.1368 27.9592Z" fill="#CFCFCF"/>
<path d="M87.5586 20V24.5474" stroke="#BABABA" stroke-linecap="round" stroke-linejoin="round"/>
<path d="M85.2852 22.2734H89.8325" stroke="#BABABA" stroke-linecap="round" stroke-linejoin="round"/>
<path d="M14.5474 21V25.5474" stroke="#BABABA" stroke-linecap="round" stroke-linejoin="round"/>
<path d="M12.2737 23.2734H16.8211" stroke="#BABABA" stroke-linecap="round" stroke-linejoin="round"/>
<path d="M114.011 84C110.055 83.9979 106.187 85.1691 102.896 87.3654C99.606 89.5617 97.0409 92.6846 95.5255 96.3389C94.0101 99.9932 93.6125 104.015 94.383 107.895C95.1535 111.776 97.0575 115.34 99.8541 118.138C102.651 120.936 106.214 122.842 110.094 123.615C113.974 124.387 117.996 123.992 121.651 122.479C125.306 120.965 128.431 118.402 130.629 115.113C132.827 111.823 134 107.956 134 104C134 98.6975 131.894 93.6121 128.146 89.8617C124.398 86.1112 119.313 84.0029 114.011 84Z" fill="white" stroke="#D0D4DA" stroke-linecap="round" stroke-linejoin="round"/>
<path d="M112.052 93.0493C112.024 92.4784 112.479 92 113.051 92H114.949C115.521 92 115.976 92.4784 115.948 93.0493L115.158 109.049C115.132 109.582 114.692 110 114.159 110H113.841C113.308 110 112.868 109.582 112.842 109.049L112.052 93.0493Z" fill="#9BA2AE"/>
<circle cx="114" cy="114" r="2" fill="#9BA2AE"/>
</svg>
