<svg width="150" height="150" viewBox="0 0 150 150" fill="none" xmlns="http://www.w3.org/2000/svg">
<path d="M72.9002 123.419C73.5796 123.419 74.1303 122.868 74.1303 122.189C74.1303 121.51 73.5796 120.959 72.9002 120.959C72.2209 120.959 71.6702 121.51 71.6702 122.189C71.6702 122.868 72.2209 123.419 72.9002 123.419Z" fill="#CFCFCF"/>
<path d="M29.7101 24V29.3972" stroke="#BABABA" stroke-linecap="round" stroke-linejoin="round"/>
<path d="M26.9991 26.6953H32.4089" stroke="#BABABA" stroke-linecap="round" stroke-linejoin="round"/>
<path d="M81.6104 23.4601C82.2897 23.4601 82.8404 22.9094 82.8404 22.2301C82.8404 21.5507 82.2897 21 81.6104 21C80.931 21 80.3803 21.5507 80.3803 22.2301C80.3803 22.9094 80.931 23.4601 81.6104 23.4601Z" fill="#CFCFCF"/>
<path d="M17.6982 119.24V124.637" stroke="#BABABA" stroke-linecap="round" stroke-linejoin="round"/>
<path d="M14.9991 121.939H20.3963" stroke="#BABABA" stroke-linecap="round" stroke-linejoin="round"/>
<path d="M110.448 116.706H110.443H30.8535C30.3933 116.706 29.9386 116.606 29.521 116.412C29.1033 116.219 28.7326 115.937 28.4346 115.587C28.1365 115.236 27.9182 114.825 27.7947 114.381C27.6712 113.938 27.6454 113.473 27.7192 113.019C27.7192 113.019 27.7192 113.019 27.7192 113.019L37.8984 51.2913L37.8988 51.289C38.0175 50.5474 38.397 49.8727 38.969 49.3861C39.541 48.8995 40.2679 48.6331 41.0188 48.6348H41.0199H120.61C121.069 48.6348 121.523 48.735 121.94 48.9283C122.357 49.1216 122.727 49.4034 123.024 49.7541C123.322 50.1048 123.539 50.5161 123.661 50.9592C123.783 51.4023 123.807 51.8667 123.731 52.3201L123.731 52.3214L113.602 114.05L113.602 114.051C113.48 114.797 113.095 115.475 112.517 115.963C111.938 116.45 111.204 116.714 110.448 116.706Z" fill="#E4E6EA" stroke="#D0D4DA"/>
<path d="M111.422 46.5216L64.1797 25.4285C62.7872 24.8068 61.1542 25.4316 60.5325 26.8242L45.5595 60.3594C44.9378 61.752 45.5626 63.3849 46.9552 64.0066L94.1979 85.0998C95.5905 85.7215 97.2234 85.0967 97.8451 83.7041L112.818 50.1689C113.44 48.7763 112.815 47.1434 111.422 46.5216Z" fill="white" stroke="#D0D4DA" stroke-linecap="round" stroke-linejoin="round"/>
<path d="M26.9462 57.1112H26.9463L26.946 57.0992C26.9359 56.6765 27.0103 56.256 27.1648 55.8624C27.3193 55.4688 27.5507 55.11 27.8457 54.807C28.1406 54.5039 28.4931 54.2628 28.8823 54.0978C29.2714 53.9328 29.6895 53.8471 30.1121 53.8457H59.2426C59.8264 53.848 60.3982 54.0111 60.8954 54.3171C61.3929 54.6232 61.7963 55.0605 62.0614 55.5809L62.0617 55.5814L66.2155 63.7134C66.2158 63.7139 66.216 63.7143 66.2162 63.7147C66.5636 64.3997 67.0937 64.9753 67.7479 65.3778C68.4024 65.7806 69.1556 65.9944 69.9242 65.9957H69.925H110.09C110.93 65.9957 111.735 66.3291 112.328 66.9227C112.922 67.5163 113.255 68.3213 113.255 69.1607V113.506C113.255 114.346 112.922 115.153 112.328 115.749C111.735 116.344 110.93 116.68 110.089 116.683C110.089 116.683 110.089 116.683 110.088 116.683H30.113C30.1126 116.683 30.1122 116.683 30.1119 116.683C29.2714 116.68 28.4664 116.344 27.873 115.749C27.2795 115.153 26.9462 114.346 26.9462 113.506V57.1112Z" fill="#F2F3F5" stroke="#D0D4DA"/>
<path d="M112.01 86C108.054 85.9979 104.186 87.1691 100.896 89.3654C97.6052 91.5617 95.0401 94.6846 93.5247 98.3389C92.0093 101.993 91.6116 106.015 92.3821 109.895C93.1526 113.776 95.0566 117.34 97.8532 120.138C100.65 122.936 104.213 124.842 108.093 125.615C111.973 126.387 115.995 125.992 119.65 124.479C123.305 122.965 126.43 120.402 128.628 117.113C130.826 113.823 131.999 109.956 131.999 106C131.999 100.698 129.893 95.6121 126.145 91.8617C122.397 88.1112 117.312 86.0029 112.01 86Z" fill="white" stroke="#D0D4DA" stroke-linecap="round" stroke-linejoin="round"/>
<circle cx="109.481" cy="103.481" r="7.82996" transform="rotate(-43.2426 109.481 103.481)" stroke="#9BA2AE" stroke-width="2"/>
<path d="M114.541 111.1C114.203 110.781 114.204 110.243 114.543 109.925L115.596 108.934C115.935 108.616 116.471 108.648 116.769 109.005L123.472 117.02C123.747 117.348 123.718 117.833 123.406 118.126L123.238 118.284C122.927 118.577 122.44 118.576 122.13 118.282L114.541 111.1Z" fill="#9BA2AE"/>
<path d="M116.71 33V38.4097" stroke="#BABABA" stroke-linecap="round" stroke-linejoin="round"/>
<path d="M113.999 35.709H119.409" stroke="#BABABA" stroke-linecap="round" stroke-linejoin="round"/>
<path d="M126.091 85.9353L126.309 80.1148L131.325 83.0754L126.091 85.9353Z" stroke="#BABABA"/>
<circle cx="13.4991" cy="62.5" r="1.5" stroke="#BABABA" stroke-linecap="round" stroke-linejoin="round"/>
</svg>
