<svg width="150" height="150" viewBox="0 0 150 150" fill="none" xmlns="http://www.w3.org/2000/svg">
<path d="M42.9991 116H36.9991L38.4991 120.5L39.5248 123.577C39.6768 124.033 40.3215 124.033 40.4735 123.577L41.4991 120.5L42.9991 116Z" fill="#F8F9FA"/>
<path d="M36.9991 116H42.9991V93H36.9991V116Z" fill="white"/>
<path d="M42.9991 86C42.9991 84.8954 42.1037 84 40.9991 84H38.9991C37.8946 84 36.9991 84.8954 36.9991 86V93H42.9991V86Z" fill="#F8F9FA"/>
<path d="M42.9991 116H36.9991M42.9991 116L41.4991 120.5L40.4735 123.577C40.3215 124.033 39.6768 124.033 39.5248 123.577L38.4991 120.5L36.9991 116M42.9991 116V93M36.9991 116V93M36.9991 93V86C36.9991 84.8954 37.8946 84 38.9991 84H40.9991C42.1037 84 42.9991 84.8954 42.9991 86V93M36.9991 93H42.9991" stroke="#D0D4DA"/>
<path d="M49.557 39.5H111.441C112.587 39.5 113.499 40.4089 113.499 41.5106V121.489C113.499 122.591 112.587 123.5 111.441 123.5H49.557C48.4116 123.5 47.4991 122.591 47.4991 121.489V41.5106C47.4991 40.4089 48.4116 39.5 49.557 39.5Z" fill="#E4E6EA" stroke="#D0D4DA"/>
<path d="M52.5584 42.5H108.44C109.576 42.5 110.499 43.4232 110.499 44.5641V118.436C110.499 119.577 109.576 120.5 108.44 120.5H52.5584C51.422 120.5 50.4991 119.577 50.4991 118.436V44.5641C50.4991 43.4232 51.422 42.5 52.5584 42.5Z" fill="white" stroke="#D0D4DA"/>
<circle cx="93.9991" cy="69" r="4" fill="white" stroke="#D0D4DA" stroke-linecap="round" stroke-linejoin="round"/>
<circle cx="65.9991" cy="97" r="3" stroke="#D0D4DA" stroke-linecap="round" stroke-linejoin="round"/>
<path d="M65.5526 94.0319C65.5702 94.3075 65.8079 94.5166 66.0835 94.499C66.3591 94.4814 66.5682 94.2437 66.5506 93.9681L65.5526 94.0319ZM85.3663 69.3394C85.5538 69.1366 85.5413 68.8203 85.3385 68.6328L82.0339 65.5784C81.8311 65.391 81.5148 65.4034 81.3273 65.6062C81.1399 65.809 81.1523 66.1253 81.3551 66.3128L84.2926 69.0278L81.5776 71.9653C81.3901 72.168 81.4026 72.4844 81.6054 72.6718C81.8082 72.8592 82.1245 72.8468 82.3119 72.644L85.3663 69.3394ZM66.5506 93.9681C66.2969 90.0002 66.9284 84.0104 69.625 78.953C72.3057 73.9252 77.0234 69.8142 85.0188 69.4996L84.9795 68.5004C76.5794 68.8309 71.5656 73.1877 68.7425 78.4825C65.9353 83.7476 65.2907 89.9353 65.5526 94.0319L66.5506 93.9681Z" fill="#D0D4DA"/>
<path d="M58.9991 56L66.4132 63.4141" stroke="#D0D4DA" stroke-linecap="round" stroke-linejoin="round"/>
<path d="M58.9991 63.4141L66.4132 56" stroke="#D0D4DA" stroke-linecap="round" stroke-linejoin="round"/>
<path d="M87.9991 96L95.4132 103.414" stroke="#D0D4DA" stroke-linecap="round" stroke-linejoin="round"/>
<path d="M87.9991 103.414L95.4132 96" stroke="#D0D4DA" stroke-linecap="round" stroke-linejoin="round"/>
<path d="M68.2137 43.311C68.0998 44.2072 68.7983 45 69.7017 45H91.2966C92.2 45 92.8985 44.2072 92.7846 43.311L92.1185 38.066C92.0646 37.6412 91.7462 37.2979 91.3266 37.2122L80.8995 35.0818C80.6353 35.0278 80.363 35.0278 80.0988 35.0818L69.6716 37.2122C69.2521 37.2979 68.9337 37.6412 68.8798 38.066L68.2137 43.311Z" fill="#F8F9FA" stroke="#D0D4DA" stroke-linecap="round" stroke-linejoin="round"/>
<path d="M99.9991 25V29" stroke="#BABABA" stroke-linecap="round" stroke-linejoin="round"/>
<path d="M97.9991 27H101.999" stroke="#BABABA" stroke-linecap="round" stroke-linejoin="round"/>
<path d="M120.999 110V114" stroke="#BABABA" stroke-linecap="round" stroke-linejoin="round"/>
<path d="M118.999 112H122.999" stroke="#BABABA" stroke-linecap="round" stroke-linejoin="round"/>
<path d="M24.9991 54V58" stroke="#BABABA" stroke-linecap="round" stroke-linejoin="round"/>
<path d="M22.9991 56H26.9991" stroke="#BABABA" stroke-linecap="round" stroke-linejoin="round"/>
<path d="M30.9991 115C31.5514 115 31.9991 114.552 31.9991 114C31.9991 113.448 31.5514 113 30.9991 113C30.4469 113 29.9991 113.448 29.9991 114C29.9991 114.552 30.4469 115 30.9991 115Z" fill="#CFCFCF"/>
<path d="M66.0913 136.935L66.3086 131.115L71.3246 134.075L66.0913 136.935Z" stroke="#BABABA"/>
<path d="M34.1367 25.8091C34.1367 25.8091 34.1366 25.809 34.1366 25.8089C34.1367 25.809 34.1367 25.809 34.1367 25.8091ZM28.728 26.9461L34.1244 25.82L32.5472 31.1023L28.728 26.9461Z" stroke="#BABABA"/>
<circle cx="136.499" cy="90.5" r="1.5" stroke="#BABABA" stroke-linecap="round" stroke-linejoin="round"/>
<path d="M116.01 94C112.054 93.9979 108.186 95.1691 104.896 97.3654C101.605 99.5617 99.0401 102.685 97.5247 106.339C96.0093 109.993 95.6116 114.015 96.3821 117.895C97.1526 121.776 99.0566 125.34 101.853 128.138C104.65 130.936 108.213 132.842 112.093 133.615C115.973 134.387 119.995 133.992 123.65 132.479C127.305 130.965 130.43 128.402 132.628 125.113C134.826 121.823 135.999 117.956 135.999 114C135.999 108.698 133.893 103.612 130.145 99.8617C126.397 96.1112 121.312 94.0029 116.01 94Z" fill="white" stroke="#D0D4DA" stroke-linecap="round" stroke-linejoin="round"/>
<path d="M114.051 103.049C114.023 102.478 114.478 102 115.05 102H116.949C117.52 102 117.976 102.478 117.947 103.049L117.157 119.049C117.131 119.582 116.692 120 116.158 120H115.84C115.307 120 114.867 119.582 114.841 119.049L114.051 103.049Z" fill="#9BA2AE"/>
<circle cx="115.999" cy="124" r="2" fill="#9BA2AE"/>
</svg>
