<svg width="150" height="150" viewBox="0 0 150 150" fill="none" xmlns="http://www.w3.org/2000/svg">
<rect x="42.2742" y="27.5" width="65.1936" height="32.6774" rx="3.5" fill="#E4E6EA" stroke="#D0D4DA"/>
<rect x="36.4678" y="34.4668" width="76.8064" height="32.6774" rx="3.5" fill="#E4E6EA" stroke="#D0D4DA"/>
<path d="M114.742 98.5H50.617H35.0012C31.9635 98.5 29.5 96.0374 29.5 93V83.5709V49.2581C29.5 46.2205 31.9624 43.7581 35 43.7581H114.742C117.78 43.7581 120.242 46.2205 120.242 49.2581V93C120.242 96.0376 117.78 98.5 114.742 98.5Z" fill="white" stroke="#D0D4DA"/>
<path d="M44.7764 73.2787C45.1832 72.3542 45.3865 71.892 45.7486 71.5909C45.8673 71.4922 45.997 71.4075 46.1351 71.3387C46.5566 71.1285 47.0616 71.1285 48.0715 71.1285H58.7024C59.7124 71.1285 60.2174 71.1285 60.6389 71.3387C60.777 71.4075 60.9067 71.4922 61.0253 71.5909C61.3874 71.892 61.5908 72.3542 61.9976 73.2787L65.0502 80.2165C65.492 81.2205 65.7129 81.7225 65.5575 82.112C65.5083 82.2353 65.435 82.3476 65.3419 82.4423C65.048 82.7414 64.4995 82.7414 63.4026 82.7414H43.3713C42.2744 82.7414 41.726 82.7414 41.4321 82.4423C41.339 82.3476 41.2657 82.2353 41.2165 82.112C41.0611 81.7225 41.282 81.2205 41.7238 80.2165L44.7764 73.2787Z" stroke="#E4E6EA" stroke-width="2" stroke-linejoin="round"/>
<path d="M49.5547 63.3866C49.5547 61.2487 51.2705 59.5156 53.387 59.5156C55.5035 59.5156 57.2192 61.2487 57.2192 63.3866C57.2192 65.5245 55.5035 67.2576 53.387 67.2576C51.2705 67.2576 49.5547 65.5245 49.5547 63.3866Z" stroke="#E4E6EA" stroke-width="2" stroke-linejoin="round"/>
<path d="M76.6128 81.5801H93.1139M76.6128 70.6639H111.452M76.6128 60.6769H111.452" stroke="#E4E6EA" stroke-width="2" stroke-linecap="round" stroke-linejoin="round"/>
<path d="M116.011 78C112.055 77.9979 108.187 79.1691 104.896 81.3654C101.606 83.5617 99.0409 86.6846 97.5255 90.3389C96.0101 93.9932 95.6125 98.0149 96.383 101.895C97.1535 105.776 99.0575 109.34 101.854 112.138C104.651 114.936 108.214 116.842 112.094 117.615C115.974 118.387 119.996 117.992 123.651 116.479C127.306 114.965 130.431 112.402 132.629 109.113C134.827 105.823 136 101.956 136 98C136 92.6975 133.894 87.6121 130.146 83.8617C126.398 80.1112 121.313 78.0029 116.011 78Z" fill="white" stroke="#D0D4DA" stroke-linecap="round" stroke-linejoin="round"/>
<path d="M124.421 89.5781L116 97.9992M116 97.9992L107.579 106.42M116 97.9992L124.421 106.42M116 97.9992L107.579 89.5781" stroke="#9BA2AE" stroke-width="2" stroke-linecap="round" stroke-linejoin="round"/>
<path d="M70.2301 115.46C70.9094 115.46 71.4601 114.909 71.4601 114.23C71.4601 113.551 70.9094 113 70.2301 113C69.5507 113 69 113.551 69 114.23C69 114.909 69.5507 115.46 70.2301 115.46Z" fill="#CFCFCF"/>
<circle cx="87.5" cy="22.5" r="1.5" stroke="#BABABA" stroke-linecap="round" stroke-linejoin="round"/>
<path d="M24.6992 115V120.397" stroke="#BABABA" stroke-linecap="round" stroke-linejoin="round"/>
<path d="M22 117.699H27.3972" stroke="#BABABA" stroke-linecap="round" stroke-linejoin="round"/>
<path d="M124.711 29V34.4097" stroke="#BABABA" stroke-linecap="round" stroke-linejoin="round"/>
<path d="M122 31.709H127.41" stroke="#BABABA" stroke-linecap="round" stroke-linejoin="round"/>
<path d="M136.092 62.9353L136.309 57.1148L141.326 60.0754L136.092 62.9353Z" stroke="#BABABA"/>
<path d="M15.2392 41.0039L15.3628 37.6953L18.2141 39.3782L15.2392 41.0039Z" stroke="#BABABA"/>
<circle cx="18.5" cy="65.5" r="1.5" stroke="#BABABA" stroke-linecap="round" stroke-linejoin="round"/>
</svg>
