<svg width="22" height="21" viewBox="0 0 22 21" fill="none" xmlns="http://www.w3.org/2000/svg">
<path d="M9.89985 0.100006L19.7988 1.51501L21.2128 11.415L12.0208 20.607C11.8333 20.7945 11.579 20.8998 11.3138 20.8998C11.0487 20.8998 10.7944 20.7945 10.6068 20.607L0.706849 10.707C0.519378 10.5195 0.414063 10.2652 0.414062 10C0.414063 9.73484 0.519378 9.48053 0.706849 9.29301L9.89985 0.100006ZM10.6068 2.22201L2.82785 10L11.3138 18.485L19.0918 10.707L18.0318 3.28201L10.6068 2.22201ZM12.7268 8.58601C12.3517 8.21072 12.141 7.70179 12.1411 7.17115C12.1411 6.90841 12.1929 6.64825 12.2935 6.40552C12.3941 6.1628 12.5415 5.94226 12.7273 5.75651C12.9132 5.57075 13.1338 5.42342 13.3765 5.32291C13.6193 5.22241 13.8795 5.1707 14.1422 5.17075C14.6728 5.17084 15.1817 5.38172 15.5568 5.75701C15.932 6.13229 16.1427 6.64123 16.1426 7.17186C16.1425 7.70249 15.9316 8.21136 15.5563 8.58651C15.1811 8.96165 14.6721 9.17236 14.1415 9.17226C13.6109 9.17217 13.102 8.96129 12.7268 8.58601Z" fill="#546E7A"/>
</svg>
