<?xml version="1.0" encoding="utf-8"?>
<!-- Generator: Adobe Illustrator 25.4.1, SVG Export Plug-In . SVG Version: 6.00 Build 0)  -->
<svg version="1.1" id="Layer_1" xmlns="http://www.w3.org/2000/svg" xmlns:xlink="http://www.w3.org/1999/xlink" x="0px" y="0px"
	 viewBox="0 0 313.53 321.29" style="enable-background:new 0 0 313.53 321.29;" xml:space="preserve">
<style type="text/css">
	.st0{fill:url(#SVGID_1_);}
	.st1{fill:url(#SVGID_00000103979980958427722460000015611196002093569920_);}
	.st2{opacity:0.3;fill:url(#SVGID_00000113325776835241956620000007897181607030737541_);}
</style>
<g>
	
		<linearGradient id="SVGID_1_" gradientUnits="userSpaceOnUse" x1="1399.9529" y1="1028.1106" x2="1619.1172" y2="1028.1106" gradientTransform="matrix(-0.9778 0.2093 0.2093 0.9778 1411.2062 -1160.5864)">
		<stop  offset="0" style="stop-color:#AE4593"/>
		<stop  offset="1" style="stop-color:#10BAE7"/>
	</linearGradient>
	<path class="st0" d="M212.99,28.22c0,0,49.56,46.95,38.65,132.68c-6.81,53.5-50.29,133.56-185.02,132.29c0,0,51.5-7.07,85.85-26.46
		c0,0-6.94-12.18-48.31-11.36c-54.25,1.08-47.08-12.79-36.21-39.5c15.29-37.6,31.12-56.81,135.91-19c0,0-44.24-31.11-56.18-82.67
		C139.37,78.33,159.99,24.96,212.99,28.22z"/>
	
		<linearGradient id="SVGID_00000095311539430640536460000015096514399428643728_" gradientUnits="userSpaceOnUse" x1="35.5588" y1="1190.2026" x2="335.0743" y2="1263.7491" gradientTransform="matrix(-0.6884 -0.633 -0.6769 0.7361 1046.7444 -656.5538)">
		<stop  offset="0" style="stop-color:#AE4593"/>
		<stop  offset="1" style="stop-color:#10BAE7"/>
	</linearGradient>
	<path style="fill:url(#SVGID_00000095311539430640536460000015096514399428643728_);" d="M235.98,41.5
		c0,0,28.14,27.98,17.73,106.02c-8.69,65.11-99.9,142.6-196.19,131.13c0,0,60.6-0.4,92.28-22.24c0,0-4.01-9.48-38.82-2.62
		c-45.65,9-37.57-4.05-24.48-28.72c18.41-34.74,34.53-53.66,116.77-36.6c0,0-32.47-20.28-34.82-63.02
		C166.81,95.7,192.04,46.56,235.98,41.5z"/>
	
		<linearGradient id="SVGID_00000124872942879798055060000001571809687958564013_" gradientUnits="userSpaceOnUse" x1="1308.012" y1="944.3707" x2="1437.3619" y2="1007.9571" gradientTransform="matrix(-0.9778 0.2093 0.2093 0.9778 1411.2062 -1160.5864)">
		<stop  offset="5.010000e-04" style="stop-color:#574595"/>
		<stop  offset="0.0923" style="stop-color:#5963A2"/>
		<stop  offset="0.196" style="stop-color:#5B7EAC"/>
		<stop  offset="0.3053" style="stop-color:#5F94B2"/>
		<stop  offset="0.4191" style="stop-color:#64A5B3"/>
		<stop  offset="0.539" style="stop-color:#68B2B3"/>
		<stop  offset="0.6676" style="stop-color:#6CBBB3"/>
		<stop  offset="0.8112" style="stop-color:#6FC0B2"/>
		<stop  offset="1" style="stop-color:#70C2B2"/>
	</linearGradient>
	<path style="opacity:0.3;fill:url(#SVGID_00000124872942879798055060000001571809687958564013_);" d="M242.89,37.96
		c0,0,37.64,50.93,9.8,130.59c-17.38,49.71-85.95,107.82-202.12,116.16c0,0,60.39-12.73,86.11-29.1c0,0-4.12-12.44-43.7-17.11
		c-51.9-6.12-42.23-18.3-26.45-42.12c22.23-33.55,41.21-49.64,133.32-0.08c0,0-35.81-35.24-36.68-85.59
		C162.57,75.65,193.08,27.88,242.89,37.96z"/>
</g>
</svg>
