<svg xmlns="http://www.w3.org/2000/svg" version="1.1" viewBox="-5.0 -10.0 110.0 135.0">
 <path d="m32.664 31.602c1.7695 0 3.5625-0.44922 5.1992-1.3984 2.4141-1.3945 4.1406-3.6445 4.8633-6.3398 0.72266-2.6953 0.35156-5.5078-1.0469-7.9219-2.8789-4.9844-9.2734-6.6953-14.258-3.8164s-6.6992 9.2734-3.8242 14.258c1.9336 3.3477 5.4492 5.2188 9.0625 5.2188zm-3.9219-17.195c1.2266-0.70703 2.5664-1.043 3.8906-1.043 2.6992 0 5.3242 1.3984 6.7695 3.8984 1.043 1.8047 1.3203 3.9102 0.78125 5.9258-0.53906 2.0156-1.8281 3.6992-3.6367 4.7383-1.2266 0.70703-2.5664 1.043-3.8906 1.043-2.6992 0-5.3281-1.4023-6.7773-3.9023-2.1523-3.7266-0.86719-8.5078 2.8594-10.66zm0.30078 4.7383c0-1.4062 0.94531-2.6133 2.2812-3.1016v-0.15625c0-0.72656 0.58984-1.3164 1.3164-1.3164s1.3164 0.58984 1.3164 1.3164v0.15625c0.79688 0.28906 1.4727 0.83594 1.8828 1.5664 0.35547 0.63672 0.12891 1.4375-0.50781 1.793-0.63672 0.35547-1.4375 0.12891-1.793-0.50781-0.15234-0.27344-0.50781-0.44922-0.89844-0.44922-0.51562 0-0.96484 0.32813-0.96484 0.69922 0 0.39844 0 0.46875 1.2344 0.73047 1.1641 0.24609 3.3281 0.69922 3.3281 3.3086 0 1.4062-0.94531 2.6133-2.2812 3.1016v0.15625c0 0.72656-0.58984 1.3164-1.3164 1.3164s-1.3164-0.58984-1.3164-1.3164v-0.15625c-0.79688-0.28906-1.4727-0.83594-1.8828-1.5664-0.35547-0.63672-0.12891-1.4375 0.50781-1.793 0.63281-0.35547 1.4375-0.12891 1.793 0.50781 0.125 0.22266 0.45312 0.44922 0.89844 0.44922 0.52344 0 0.96484-0.32031 0.96484-0.69922 0-0.39844 0-0.46875-1.2344-0.73047-1.1641-0.24609-3.3281-0.69922-3.3281-3.3086zm10.789 31.121c-0.72656 0-1.3164 0.58984-1.3164 1.3164v24.176c0 0.72656 0.58984 1.3164 1.3164 1.3164h9.9219c0.72656 0 1.3164-0.58984 1.3164-1.3164v-24.176c0-0.72656-0.58984-1.3164-1.3164-1.3164zm8.6055 24.176h-7.2852v-21.539h7.2852zm41.559 7.6289c0 0.72656-0.58984 1.3164-1.3164 1.3164h-70.152v4.5742c0 0.72656-0.58984 1.3164-1.3164 1.3164-0.72656 0-1.3164-0.58984-1.3164-1.3164v-4.5742h-4.5742c-0.72656 0-1.3164-0.58984-1.3164-1.3164 0-0.72656 0.58984-1.3164 1.3164-1.3164h4.5742v-68.719c0-0.72656 0.58984-1.3164 1.3164-1.3164 0.72656 0 1.3164 0.58984 1.3164 1.3164v68.715h70.152c0.72656 0 1.3164 0.58984 1.3164 1.3164zm-66.477-24.215c-0.72656 0-1.3164 0.58984-1.3164 1.3164v16.582c0 0.72656 0.58984 1.3164 1.3164 1.3164h9.9258c0.72656 0 1.3164-0.58984 1.3164-1.3164v-16.582c0-0.72656-0.58984-1.3164-1.3164-1.3164zm8.6094 16.586h-7.2891v-13.949h7.2891zm-9.5391-23.141c-0.51562-0.51562-0.51562-1.3477 0-1.8633l14.941-14.941c0.49219-0.49219 1.2852-0.51562 1.8086-0.050782l5.4023 4.8164 14.602-14.602c0.49219-0.49219 1.2852-0.51562 1.8086-0.050781l5.4023 4.8164 12.641-12.641h-2.0273c-0.72656 0-1.3164-0.58984-1.3164-1.3164s0.58984-1.3164 1.3164-1.3164h5.207c0.72656 0 1.3164 0.58984 1.3164 1.3164v5.207c0 0.72656-0.58984 1.3164-1.3164 1.3164s-1.3164-0.58984-1.3164-1.3164v-2.0273l-13.52 13.52c-0.49219 0.49219-1.2852 0.51562-1.8086 0.050781l-5.4023-4.8164-14.602 14.602c-0.49219 0.49219-1.2852 0.51562-1.8086 0.050782l-5.4023-4.8164-14.062 14.062c-0.25781 0.25781-0.59375 0.38672-0.92969 0.38672-0.33594 0-0.67578-0.12891-0.92969-0.38672zm33.551-9.3281c-0.72656 0-1.3164 0.58984-1.3164 1.3164v32.465c0 0.72656 0.58984 1.3164 1.3164 1.3164h9.9258c0.72656 0 1.3164-0.58984 1.3164-1.3164v-32.465c0-0.72656-0.58984-1.3164-1.3164-1.3164zm8.6055 32.469h-7.2891v-29.832h7.2891zm17.625-41.762h-9.9219c-0.72656 0-1.3164 0.58984-1.3164 1.3164v41.762c0 0.72656 0.58984 1.3164 1.3164 1.3164h9.9219c0.72656 0 1.3164-0.58984 1.3164-1.3164v-41.762c0-0.72656-0.58984-1.3164-1.3164-1.3164zm-1.3164 41.762h-7.2852v-39.129h7.2852z"/>
</svg>