<svg width="14" height="14" viewBox="0 0 14 14" fill="none" xmlns="http://www.w3.org/2000/svg">
<path d="M5.0245 6.0115C5.72825 7.24786 6.75214 8.27175 7.9885 8.9755L8.6515 8.047C8.75812 7.8977 8.91576 7.79266 9.0946 7.75175C9.27344 7.71084 9.46108 7.7369 9.622 7.825C10.6827 8.40469 11.8542 8.75333 13.0592 8.848C13.2473 8.8629 13.4229 8.94815 13.5509 9.08674C13.6789 9.22533 13.75 9.40708 13.75 9.59575V12.9423C13.75 13.1279 13.6812 13.3071 13.5568 13.4449C13.4324 13.5828 13.2612 13.6696 13.0765 13.6885C12.679 13.7297 12.2785 13.75 11.875 13.75C5.455 13.75 0.25 8.545 0.25 2.125C0.25 1.7215 0.27025 1.321 0.3115 0.9235C0.330441 0.738773 0.417238 0.567641 0.555092 0.443225C0.692946 0.31881 0.872055 0.24996 1.05775 0.25H4.40425C4.59292 0.249976 4.77467 0.321064 4.91326 0.449088C5.05185 0.577112 5.13709 0.752668 5.152 0.94075C5.24667 2.14584 5.59531 3.31726 6.175 4.378C6.2631 4.53892 6.28916 4.72656 6.24825 4.9054C6.20734 5.08424 6.1023 5.24188 5.953 5.3485L5.0245 6.0115ZM3.133 5.51875L4.558 4.501C4.15359 3.62807 3.87651 2.70163 3.73525 1.75H1.7575C1.753 1.8745 1.75075 1.99975 1.75075 2.125C1.75 7.717 6.283 12.25 11.875 12.25C12.0002 12.25 12.1255 12.2478 12.25 12.2425V10.2648C11.2984 10.1235 10.3719 9.84641 9.499 9.442L8.48125 10.867C8.0715 10.7078 7.6735 10.5198 7.29025 10.3045L7.24675 10.2797C5.77568 9.44254 4.55746 8.22432 3.72025 6.75325L3.6955 6.70975C3.48018 6.3265 3.29221 5.9285 3.133 5.51875Z" fill="#546E7A"/>
</svg>
