<svg width="40" height="40" viewBox="0 0 40 40" fill="none" xmlns="http://www.w3.org/2000/svg">
<rect width="40" height="40" fill="white"/>
<path d="M19 36.5V3H21L27 9.5V36.5H19Z" fill="#D4EDFB"/>
<path d="M4 6C4 4.89543 4.89543 4 6 4H21.4429L28 10.5571V32C28 33.1046 27.1046 34 26 34H6C4.89543 34 4 33.1046 4 32V6Z" stroke="#546E7A" stroke-width="2" stroke-linecap="round"/>
<mask id="path-3-inside-1" fill="white">
<rect x="14" y="8" width="2" height="7" rx="1" transform="rotate(90 14 8)"/>
</mask>
<rect x="14" y="8" width="2" height="7" rx="1" transform="rotate(90 14 8)" stroke="#546E7A" stroke-width="2" stroke-linecap="round" mask="url(#path-3-inside-1)"/>
<mask id="path-4-inside-2" fill="white">
<rect x="25" y="13" width="2" height="18" rx="1" transform="rotate(90 25 13)"/>
</mask>
<rect x="25" y="13" width="2" height="18" rx="1" transform="rotate(90 25 13)" stroke="#546E7A" stroke-width="2" stroke-linecap="round" mask="url(#path-4-inside-2)"/>
<mask id="path-5-inside-3" fill="white">
<rect x="25" y="19" width="2" height="18" rx="1" transform="rotate(90 25 19)"/>
</mask>
<rect x="25" y="19" width="2" height="18" rx="1" transform="rotate(90 25 19)" stroke="#546E7A" stroke-width="2" stroke-linecap="round" mask="url(#path-5-inside-3)"/>
<mask id="path-6-inside-4" fill="white">
<rect x="16" y="25" width="2" height="9" rx="1" transform="rotate(90 16 25)"/>
</mask>
<rect x="16" y="25" width="2" height="9" rx="1" transform="rotate(90 16 25)" stroke="#546E7A" stroke-width="2" stroke-linecap="round" mask="url(#path-6-inside-4)"/>
<path d="M27.0516 26.5347L18.7683 20.3105H13.293L24.3841 28.8278L27.0516 26.5347Z" fill="#D4EDFB"/>
<path d="M30.5505 33.7589H12.3105V37.0175H35.8968V20.9658L30.5505 24.5865V33.7589Z" fill="#D4EDFB"/>
<mask id="path-9-inside-5" fill="white">
<rect x="11" y="19" width="26.2069" height="19" rx="1"/>
</mask>
<g filter="url(#filter0_i)">
<rect x="11" y="19" width="26.2069" height="19" rx="1" fill="white"/>
</g>
<rect x="11" y="19" width="26.2069" height="19" rx="1" stroke="#546E7A" stroke-width="4" stroke-linecap="round" mask="url(#path-9-inside-5)"/>
<g filter="url(#filter1_i)">
<path d="M24.3349 29.483L12.3105 20.3105H35.8968L24.3349 29.483Z" fill="white"/>
</g>
<path d="M24.3349 29.483L12.3105 20.3105H35.8968L24.3349 29.483Z" stroke="#546E7A" stroke-width="2" stroke-linecap="round" stroke-linejoin="round"/>
<defs>
<filter id="filter0_i" x="11" y="19" width="26.2069" height="19" filterUnits="userSpaceOnUse" color-interpolation-filters="sRGB">
<feFlood flood-opacity="0" result="BackgroundImageFix"/>
<feBlend mode="normal" in="SourceGraphic" in2="BackgroundImageFix" result="shape"/>
<feColorMatrix in="SourceAlpha" type="matrix" values="0 0 0 0 0 0 0 0 0 0 0 0 0 0 0 0 0 0 127 0" result="hardAlpha"/>
<feOffset dx="-4" dy="-4"/>
<feComposite in2="hardAlpha" operator="arithmetic" k2="-1" k3="1"/>
<feColorMatrix type="matrix" values="0 0 0 0 0.831373 0 0 0 0 0.929412 0 0 0 0 0.984314 0 0 0 1 0"/>
<feBlend mode="normal" in2="shape" result="effect1_innerShadow"/>
</filter>
<filter id="filter1_i" x="11.3105" y="19.3105" width="25.5863" height="11.1724" filterUnits="userSpaceOnUse" color-interpolation-filters="sRGB">
<feFlood flood-opacity="0" result="BackgroundImageFix"/>
<feBlend mode="normal" in="SourceGraphic" in2="BackgroundImageFix" result="shape"/>
<feColorMatrix in="SourceAlpha" type="matrix" values="0 0 0 0 0 0 0 0 0 0 0 0 0 0 0 0 0 0 127 0" result="hardAlpha"/>
<feOffset dx="-4" dy="-4"/>
<feComposite in2="hardAlpha" operator="arithmetic" k2="-1" k3="1"/>
<feColorMatrix type="matrix" values="0 0 0 0 0.831373 0 0 0 0 0.929412 0 0 0 0 0.984314 0 0 0 1 0"/>
<feBlend mode="normal" in2="shape" result="effect1_innerShadow"/>
</filter>
</defs>
</svg>
