<svg width="14" height="15" viewBox="0 0 14 15" fill="none" xmlns="http://www.w3.org/2000/svg">
<path d="M9.121 4.81779L4.879 9.06054C4.80737 9.12972 4.75023 9.21248 4.71093 9.30398C4.67162 9.39549 4.65093 9.4939 4.65006 9.59349C4.6492 9.69307 4.66817 9.79183 4.70589 9.884C4.7436 9.97618 4.79929 10.0599 4.86971 10.1303C4.94012 10.2008 5.02386 10.2564 5.11604 10.2942C5.20821 10.3319 5.30697 10.3508 5.40655 10.35C5.50614 10.3491 5.60455 10.3284 5.69605 10.2891C5.78756 10.2498 5.87032 10.1927 5.9395 10.121L10.1823 5.87904C10.6042 5.45705 10.8413 4.8847 10.8413 4.28791C10.8413 3.69112 10.6042 3.11878 10.1823 2.69679C9.76026 2.2748 9.18791 2.03772 8.59113 2.03772C7.99434 2.03772 7.42199 2.2748 7 2.69679L2.75725 6.93954C2.40181 7.28613 2.11872 7.69986 1.92442 8.15671C1.73012 8.61356 1.62846 9.10445 1.62535 9.6009C1.62224 10.0973 1.71774 10.5895 1.9063 11.0487C2.09486 11.508 2.37274 11.9252 2.72381 12.2762C3.07489 12.6273 3.49216 12.9051 3.95144 13.0936C4.41072 13.2821 4.90286 13.3775 5.3993 13.3743C5.89575 13.3711 6.38662 13.2694 6.84345 13.075C7.30027 12.8807 7.71396 12.5975 8.0605 12.242L12.3033 8.00004L13.3638 9.06054L9.121 13.3033C8.63347 13.7908 8.05468 14.1776 7.41769 14.4414C6.7807 14.7053 6.09798 14.8411 5.4085 14.8411C4.71903 14.8411 4.0363 14.7053 3.39931 14.4414C2.76232 14.1776 2.18353 13.7908 1.696 13.3033C1.20847 12.8158 0.821737 12.237 0.557886 11.6C0.294036 10.963 0.158234 10.2803 0.158234 9.59079C0.158234 8.90131 0.294036 8.21859 0.557886 7.5816C0.821737 6.94461 1.20847 6.36582 1.696 5.87829L5.9395 1.63629C6.64676 0.953195 7.59402 0.575216 8.57726 0.58376C9.56049 0.592304 10.501 0.986688 11.1963 1.68197C11.8916 2.37725 12.286 3.3178 12.2945 4.30103C12.3031 5.28427 11.9251 6.23153 11.242 6.93879L7 11.183C6.791 11.392 6.54289 11.5577 6.26984 11.6708C5.99679 11.7839 5.70415 11.842 5.40861 11.842C5.11308 11.842 4.82044 11.7837 4.54742 11.6706C4.2744 11.5575 4.02633 11.3917 3.81738 11.1827C3.60843 10.9737 3.44269 10.7256 3.32962 10.4525C3.21656 10.1795 3.15839 9.88681 3.15842 9.59127C3.15846 9.29574 3.2167 9.00311 3.32983 8.73008C3.44296 8.45706 3.60875 8.20899 3.81775 8.00004L8.0605 3.75729L9.121 4.81779Z" fill="#546E7A"/>
</svg>
