<svg width="40" height="40" viewBox="0 0 40 40" fill="none" xmlns="http://www.w3.org/2000/svg">
<rect x="4" y="4" width="16" height="5" fill="#D4EDFB"/>
<path d="M33.7857 4L18 20.5V37L24.0714 35.8214V22.8571L35 11.0714V4H33.7857Z" fill="#D4EDFB"/>
<path d="M4 4H36V9.80619L24.7916 21.8301C24.4465 22.2003 24.2545 22.6877 24.2545 23.1938L24.2545 35.8026L15.7455 37.7459V23.1938C15.7455 22.6876 15.5535 22.2003 15.2084 21.8301L4 9.80619L4 4Z" stroke="#546E7A" stroke-width="2" stroke-linecap="round"/>
<path d="M3 9C3 8.44772 3.44772 8 4 8H26C26.5523 8 27 8.44772 27 9C27 9.55228 26.5523 10 26 10H4C3.44772 10 3 9.55228 3 9Z" fill="#546E7A"/>
</svg>
