<svg width="148" height="40" viewBox="0 0 148 40" fill="none" xmlns="http://www.w3.org/2000/svg">
<path d="M5 15.799L13.201 24L19 18.201L10.799 10L5 15.799Z" fill="#0E90D9"/>
<path d="M35 15.799L26.799 24L21 18.201L29.201 10L35 15.799Z" fill="#0E90D9"/>
<circle cx="20" cy="26" r="4" fill="#546E7A"/>
<path d="M45.4854 26.5V13.7031H49.6689C51.0576 13.7031 52.1006 13.9902 52.7979 14.5645C53.501 15.1387 53.8525 15.9883 53.8525 17.1133C53.8525 17.7109 53.6826 18.2412 53.3428 18.7041C53.0029 19.1611 52.54 19.5156 51.9541 19.7676C52.6455 19.9609 53.1904 20.3301 53.5889 20.875C53.9932 21.4141 54.1953 22.0586 54.1953 22.8086C54.1953 23.957 53.8232 24.8594 53.0791 25.5156C52.335 26.1719 51.2832 26.5 49.9238 26.5H45.4854ZM47.1729 20.5146V25.1201H49.959C50.7441 25.1201 51.3623 24.918 51.8135 24.5137C52.2705 24.1035 52.499 23.541 52.499 22.8262C52.499 21.2852 51.6611 20.5146 49.9854 20.5146H47.1729ZM47.1729 19.1611H49.7217C50.46 19.1611 51.0488 18.9766 51.4883 18.6074C51.9336 18.2383 52.1562 17.7373 52.1562 17.1045C52.1562 16.4014 51.9512 15.8916 51.541 15.5752C51.1309 15.2529 50.5068 15.0918 49.6689 15.0918H47.1729V19.1611ZM62.3164 26.5C62.2227 26.3125 62.1465 25.9785 62.0879 25.498C61.332 26.2832 60.4297 26.6758 59.3809 26.6758C58.4434 26.6758 57.6729 26.4121 57.0693 25.8848C56.4717 25.3516 56.1729 24.6777 56.1729 23.8633C56.1729 22.873 56.5479 22.1055 57.2979 21.5605C58.0537 21.0098 59.1143 20.7344 60.4795 20.7344H62.0615V19.9873C62.0615 19.4189 61.8916 18.9678 61.5518 18.6338C61.2119 18.2939 60.7109 18.124 60.0488 18.124C59.4688 18.124 58.9824 18.2705 58.5898 18.5635C58.1973 18.8564 58.001 19.2109 58.001 19.627H56.3662C56.3662 19.1523 56.5332 18.6953 56.8672 18.2559C57.207 17.8105 57.6641 17.459 58.2383 17.2012C58.8184 16.9434 59.4541 16.8145 60.1455 16.8145C61.2412 16.8145 62.0996 17.0898 62.7207 17.6406C63.3418 18.1855 63.6641 18.9385 63.6875 19.8994V24.2764C63.6875 25.1494 63.7988 25.8438 64.0215 26.3594V26.5H62.3164ZM59.6182 25.2607C60.1279 25.2607 60.6113 25.1289 61.0684 24.8652C61.5254 24.6016 61.8564 24.2588 62.0615 23.8369V21.8857H60.7871C58.7949 21.8857 57.7988 22.4688 57.7988 23.6348C57.7988 24.1445 57.9688 24.543 58.3086 24.8301C58.6484 25.1172 59.085 25.2607 59.6182 25.2607ZM65.8496 21.666C65.8496 20.1836 66.1924 19.0059 66.8779 18.1328C67.5635 17.2539 68.4717 16.8145 69.6025 16.8145C70.7627 16.8145 71.668 17.2246 72.3184 18.0449L72.3975 16.9902H73.8828V26.2715C73.8828 27.502 73.5166 28.4717 72.7842 29.1807C72.0576 29.8896 71.0791 30.2441 69.8486 30.2441C69.1631 30.2441 68.4922 30.0977 67.8359 29.8047C67.1797 29.5117 66.6787 29.1104 66.333 28.6006L67.1768 27.625C67.874 28.4863 68.7266 28.917 69.7344 28.917C70.5254 28.917 71.1406 28.6943 71.5801 28.249C72.0254 27.8037 72.248 27.1768 72.248 26.3682V25.5508C71.5977 26.3008 70.71 26.6758 69.585 26.6758C68.4717 26.6758 67.5693 26.2275 66.8779 25.3311C66.1924 24.4346 65.8496 23.2129 65.8496 21.666ZM67.4844 21.8506C67.4844 22.9229 67.7041 23.7666 68.1436 24.3818C68.583 24.9912 69.1982 25.2959 69.9893 25.2959C71.0146 25.2959 71.7676 24.8301 72.248 23.8984V19.5566C71.75 18.6484 71.0029 18.1943 70.0068 18.1943C69.2158 18.1943 68.5977 18.502 68.1523 19.1172C67.707 19.7324 67.4844 20.6436 67.4844 21.8506ZM78.1104 26.5H76.4844V16.9902H78.1104V26.5ZM76.3525 14.4678C76.3525 14.2041 76.4316 13.9814 76.5898 13.7998C76.7539 13.6182 76.9941 13.5273 77.3105 13.5273C77.627 13.5273 77.8672 13.6182 78.0312 13.7998C78.1953 13.9814 78.2773 14.2041 78.2773 14.4678C78.2773 14.7314 78.1953 14.9512 78.0312 15.127C77.8672 15.3027 77.627 15.3906 77.3105 15.3906C76.9941 15.3906 76.7539 15.3027 76.5898 15.127C76.4316 14.9512 76.3525 14.7314 76.3525 14.4678ZM86.2578 23.9775C86.2578 23.5381 86.0908 23.1982 85.7568 22.958C85.4287 22.7119 84.8516 22.501 84.0254 22.3252C83.2051 22.1494 82.5518 21.9385 82.0654 21.6924C81.585 21.4463 81.2275 21.1533 80.9932 20.8135C80.7646 20.4736 80.6504 20.0693 80.6504 19.6006C80.6504 18.8213 80.9785 18.1621 81.6348 17.623C82.2969 17.084 83.1406 16.8145 84.166 16.8145C85.2441 16.8145 86.1172 17.0928 86.7852 17.6494C87.459 18.2061 87.7959 18.918 87.7959 19.7852H86.1611C86.1611 19.3398 85.9707 18.9561 85.5898 18.6338C85.2148 18.3115 84.7402 18.1504 84.166 18.1504C83.5742 18.1504 83.1113 18.2793 82.7773 18.5371C82.4434 18.7949 82.2764 19.1318 82.2764 19.5479C82.2764 19.9404 82.4316 20.2363 82.7422 20.4355C83.0527 20.6348 83.6123 20.8252 84.4209 21.0068C85.2354 21.1885 85.8945 21.4053 86.3984 21.6572C86.9023 21.9092 87.2744 22.2139 87.5146 22.5713C87.7607 22.9229 87.8838 23.3535 87.8838 23.8633C87.8838 24.7129 87.5439 25.3955 86.8643 25.9111C86.1846 26.4209 85.3027 26.6758 84.2188 26.6758C83.457 26.6758 82.7832 26.541 82.1973 26.2715C81.6113 26.002 81.1514 25.627 80.8174 25.1465C80.4893 24.6602 80.3252 24.1357 80.3252 23.5732H81.9512C81.9805 24.1182 82.1973 24.5518 82.6016 24.874C83.0117 25.1904 83.5508 25.3486 84.2188 25.3486C84.834 25.3486 85.3262 25.2256 85.6953 24.9795C86.0703 24.7275 86.2578 24.3936 86.2578 23.9775ZM92.208 14.6875V16.9902H93.9834V18.2471H92.208V24.1445C92.208 24.5254 92.2871 24.8125 92.4453 25.0059C92.6035 25.1934 92.873 25.2871 93.2539 25.2871C93.4414 25.2871 93.6992 25.252 94.0273 25.1816V26.5C93.5996 26.6172 93.1836 26.6758 92.7793 26.6758C92.0527 26.6758 91.5049 26.4561 91.1357 26.0166C90.7666 25.5771 90.582 24.9531 90.582 24.1445V18.2471H88.8506V16.9902H90.582V14.6875H92.208ZM95.2842 21.6572C95.2842 20.7256 95.4658 19.8877 95.8291 19.1436C96.1982 18.3994 96.708 17.8252 97.3584 17.4209C98.0146 17.0166 98.7617 16.8145 99.5996 16.8145C100.895 16.8145 101.94 17.2627 102.737 18.1592C103.54 19.0557 103.941 20.248 103.941 21.7363V21.8506C103.941 22.7764 103.763 23.6084 103.405 24.3467C103.054 25.0791 102.547 25.6504 101.885 26.0605C101.229 26.4707 100.473 26.6758 99.6172 26.6758C98.3281 26.6758 97.2822 26.2275 96.4795 25.3311C95.6826 24.4346 95.2842 23.248 95.2842 21.7715V21.6572ZM96.9189 21.8506C96.9189 22.9053 97.1621 23.752 97.6484 24.3906C98.1406 25.0293 98.7969 25.3486 99.6172 25.3486C100.443 25.3486 101.1 25.0264 101.586 24.3818C102.072 23.7314 102.315 22.8232 102.315 21.6572C102.315 20.6143 102.066 19.7705 101.568 19.126C101.076 18.4756 100.42 18.1504 99.5996 18.1504C98.7969 18.1504 98.1494 18.4697 97.6572 19.1084C97.165 19.7471 96.9189 20.6611 96.9189 21.8506ZM120.113 22.4395C119.955 23.793 119.454 24.8389 118.61 25.5771C117.772 26.3096 116.656 26.6758 115.262 26.6758C113.75 26.6758 112.537 26.1338 111.623 25.0498C110.715 23.9658 110.261 22.5156 110.261 20.6992V19.4688C110.261 18.2793 110.472 17.2334 110.894 16.3311C111.321 15.4287 111.925 14.7373 112.704 14.2568C113.483 13.7705 114.386 13.5273 115.411 13.5273C116.771 13.5273 117.86 13.9082 118.681 14.6699C119.501 15.4258 119.979 16.4746 120.113 17.8164H118.417C118.271 16.7969 117.951 16.0586 117.459 15.6016C116.973 15.1445 116.29 14.916 115.411 14.916C114.333 14.916 113.486 15.3145 112.871 16.1113C112.262 16.9082 111.957 18.042 111.957 19.5127V20.752C111.957 22.1406 112.247 23.2451 112.827 24.0654C113.407 24.8857 114.219 25.2959 115.262 25.2959C116.199 25.2959 116.917 25.085 117.415 24.6631C117.919 24.2354 118.253 23.4941 118.417 22.4395H120.113ZM127.118 21.3232H124.112V26.5H122.416V13.7031H126.652C128.094 13.7031 129.201 14.0312 129.975 14.6875C130.754 15.3438 131.144 16.2988 131.144 17.5527C131.144 18.3496 130.927 19.0439 130.493 19.6357C130.065 20.2275 129.468 20.6699 128.7 20.9629L131.706 26.3945V26.5H129.896L127.118 21.3232ZM124.112 19.9434H126.705C127.543 19.9434 128.208 19.7266 128.7 19.293C129.198 18.8594 129.447 18.2793 129.447 17.5527C129.447 16.7617 129.21 16.1553 128.735 15.7334C128.267 15.3115 127.587 15.0977 126.696 15.0918H124.112V19.9434ZM135.696 13.7031L139.88 24.1445L144.063 13.7031H146.252V26.5H144.564V21.5166L144.723 16.1377L140.521 26.5H139.229L135.037 16.1641L135.204 21.5166V26.5H133.517V13.7031H135.696Z" fill="#263238"/>
</svg>
