<svg width="585" height="48" viewBox="0 0 585 48" fill="none" xmlns="http://www.w3.org/2000/svg">
<path d="M251.923 31.37C251.413 31.165 251.419 30.86 251.957 30.681L271.043 24.319C271.572 24.143 271.875 24.439 271.727 24.957L266.273 44.043C266.123 44.572 265.798 44.596 265.556 44.113L261 35L251.923 31.37ZM256.813 31.17L262.449 33.425L265.489 39.507L269.035 27.097L256.812 31.17H256.813Z" fill="white"/>
<path d="M162.366 10.682C163.304 12.3305 164.67 13.6957 166.318 14.634L167.202 13.396C167.344 13.1969 167.554 13.0569 167.793 13.0023C168.031 12.9478 168.281 12.9825 168.496 13.1C169.91 13.8729 171.472 14.3378 173.079 14.464C173.33 14.4839 173.564 14.5975 173.735 14.7823C173.905 14.9671 174 15.2094 174 15.461V19.923C174 20.1706 173.908 20.4094 173.742 20.5932C173.576 20.777 173.348 20.8927 173.102 20.918C172.572 20.973 172.038 21 171.5 21C162.94 21 156 14.06 156 5.5C156 4.962 156.027 4.428 156.082 3.898C156.107 3.6517 156.223 3.42352 156.407 3.25763C156.591 3.09175 156.829 2.99995 157.077 3H161.539C161.791 2.99997 162.033 3.09475 162.218 3.26545C162.402 3.43615 162.516 3.67022 162.536 3.921C162.662 5.52779 163.127 7.08968 163.9 8.504C164.017 8.71856 164.052 8.96874 163.998 9.2072C163.943 9.44565 163.803 9.65584 163.604 9.798L162.366 10.682ZM159.844 10.025L161.744 8.668C161.205 7.50409 160.835 6.26884 160.647 5H158.01C158.004 5.166 158.001 5.333 158.001 5.5C158 12.956 164.044 19 171.5 19C171.667 19 171.834 18.997 172 18.99V16.353C170.731 16.1646 169.496 15.7952 168.332 15.256L166.975 17.156C166.429 16.9437 165.898 16.6931 165.387 16.406L165.329 16.373C163.368 15.2567 161.743 13.6324 160.627 11.671L160.594 11.613C160.307 11.102 160.056 10.5713 159.844 10.025Z" fill="#0E90D9"/>
<path d="M126 3V5H125L120 12.5V21H114V12.5L109 5H108V3H126ZM111.404 5L116 11.894V19H118V11.894L122.596 5H111.404Z" fill="#0E90D9"/>
<g clip-path="url(#clip0)">
<path d="M204 10H203V4.003C203 3.449 203.455 3 203.992 3H222.008C222.139 2.99973 222.269 3.02556 222.39 3.07601C222.512 3.12645 222.622 3.2005 222.714 3.29384C222.806 3.38717 222.879 3.49794 222.928 3.61969C222.977 3.74144 223.002 3.87174 223 4.003V10H222V20.001C222 20.1318 221.975 20.2614 221.925 20.3824C221.876 20.5034 221.803 20.6134 221.71 20.7062C221.618 20.7989 221.509 20.8726 221.388 20.923C221.267 20.9735 221.138 20.9996 221.007 21H204.993C204.862 20.9996 204.733 20.9735 204.612 20.923C204.491 20.8726 204.382 20.7989 204.29 20.7062C204.197 20.6134 204.124 20.5034 204.075 20.3824C204.025 20.2614 204 20.1318 204 20.001V10ZM220 10H206V19H220V10ZM205 5V8H221V5H205ZM210 12H216V14H210V12Z" fill="#0E90D9"/>
</g>
<g clip-path="url(#clip1)">
<path d="M228 10H227V4.003C227 3.449 227.455 3 227.992 3H246.008C246.139 2.99973 246.269 3.02556 246.39 3.07601C246.512 3.12645 246.622 3.2005 246.714 3.29384C246.806 3.38717 246.879 3.49794 246.928 3.61969C246.977 3.74144 247.002 3.87174 247 4.003V10H246V20.001C246 20.1318 245.975 20.2614 245.925 20.3824C245.876 20.5034 245.803 20.6134 245.71 20.7062C245.618 20.7989 245.509 20.8726 245.388 20.923C245.267 20.9735 245.138 20.9996 245.007 21H228.993C228.862 20.9996 228.733 20.9735 228.612 20.923C228.491 20.8726 228.382 20.7989 228.29 20.7062C228.197 20.6134 228.124 20.5034 228.075 20.3824C228.025 20.2614 228 20.1318 228 20.001V10ZM244 10H230V19H244V10ZM229 5V8H245V5H229ZM234 12H240V14H234V12Z" fill="#B0BEC5"/>
</g>
<path d="M251 11.638C251 10.773 251.11 9.935 251.316 9.134C251.868 9.16304 252.418 9.03875 252.904 8.77486C253.391 8.51098 253.794 8.11779 254.071 7.63874C254.348 7.1597 254.487 6.61346 254.472 6.06042C254.458 5.50738 254.291 4.96907 253.99 4.505C255.199 3.31557 256.691 2.4535 258.325 2C258.576 2.49347 258.959 2.90786 259.431 3.19731C259.903 3.48675 260.445 3.63995 260.999 3.63995C261.553 3.63995 262.095 3.48675 262.567 3.19731C263.039 2.90786 263.422 2.49347 263.673 2C265.307 2.4535 266.799 3.31557 268.008 4.505C267.706 4.96915 267.539 5.50767 267.525 6.06096C267.51 6.61426 267.649 7.16076 267.926 7.64001C268.203 8.11926 268.607 8.51256 269.094 8.77641C269.58 9.04026 270.13 9.16437 270.683 9.135C270.889 9.935 270.999 10.773 270.999 11.638C270.999 12.503 270.889 13.341 270.683 14.142C270.131 14.1128 269.581 14.2369 269.094 14.5007C268.608 14.7645 268.204 15.1577 267.927 15.6368C267.65 16.1159 267.511 16.6622 267.525 17.2153C267.54 17.7685 267.707 18.3069 268.008 18.771C266.799 19.9604 265.307 20.8225 263.673 21.276C263.422 20.7825 263.039 20.3681 262.567 20.0787C262.095 19.7893 261.553 19.6361 260.999 19.6361C260.445 19.6361 259.903 19.7893 259.431 20.0787C258.959 20.3681 258.576 20.7825 258.325 21.276C256.691 20.8225 255.199 19.9604 253.99 18.771C254.292 18.3069 254.459 17.7683 254.473 17.2151C254.488 16.6618 254.349 16.1153 254.072 15.636C253.795 15.1568 253.391 14.7634 252.904 14.4996C252.418 14.2358 251.868 14.1116 251.315 14.141C251.11 13.342 251 12.504 251 11.638ZM255.804 14.638C256.434 15.729 256.614 16.984 256.368 18.162C256.776 18.452 257.21 18.703 257.665 18.912C258.582 18.0909 259.769 17.6372 261 17.638C262.26 17.638 263.438 18.109 264.335 18.912C264.79 18.703 265.224 18.452 265.632 18.162C265.379 16.958 265.58 15.7031 266.196 14.638C266.811 13.5724 267.797 12.7712 268.966 12.388C269.012 11.8891 269.012 11.3869 268.966 10.888C267.797 10.5051 266.81 9.70381 266.195 8.638C265.579 7.57293 265.378 6.31803 265.631 5.114C265.223 4.82392 264.789 4.57282 264.334 4.364C263.418 5.18493 262.23 5.63861 261 5.638C259.769 5.63885 258.582 5.18516 257.665 4.364C257.21 4.57282 256.776 4.82392 256.368 5.114C256.621 6.31803 256.42 7.57293 255.804 8.638C255.189 9.70362 254.203 10.5048 253.034 10.888C252.988 11.3869 252.988 11.8891 253.034 12.388C254.203 12.771 255.19 13.5722 255.805 14.638H255.804ZM261 14.638C260.204 14.638 259.441 14.3219 258.879 13.7593C258.316 13.1967 258 12.4337 258 11.638C258 10.8424 258.316 10.0793 258.879 9.51668C259.441 8.95407 260.204 8.638 261 8.638C261.796 8.638 262.559 8.95407 263.121 9.51668C263.684 10.0793 264 10.8424 264 11.638C264 12.4337 263.684 13.1967 263.121 13.7593C262.559 14.3219 261.796 14.638 261 14.638ZM261 12.638C261.265 12.638 261.52 12.5327 261.707 12.3451C261.895 12.1576 262 11.9032 262 11.638C262 11.3728 261.895 11.1184 261.707 10.9309C261.52 10.7434 261.265 10.638 261 10.638C260.735 10.638 260.48 10.7434 260.293 10.9309C260.105 11.1184 260 11.3728 260 11.638C260 11.9032 260.105 12.1576 260.293 12.3451C260.48 12.5327 260.735 12.638 261 12.638Z" fill="#0E90D9"/>
<path d="M275 11.638C275 10.773 275.11 9.935 275.316 9.134C275.868 9.16304 276.418 9.03875 276.904 8.77486C277.391 8.51098 277.794 8.11779 278.071 7.63874C278.348 7.1597 278.487 6.61346 278.472 6.06042C278.458 5.50738 278.291 4.96907 277.99 4.505C279.199 3.31557 280.691 2.4535 282.325 2C282.576 2.49347 282.959 2.90786 283.431 3.19731C283.903 3.48675 284.445 3.63995 284.999 3.63995C285.553 3.63995 286.095 3.48675 286.567 3.19731C287.039 2.90786 287.422 2.49347 287.673 2C289.307 2.4535 290.799 3.31557 292.008 4.505C291.706 4.96915 291.539 5.50767 291.525 6.06096C291.51 6.61426 291.649 7.16076 291.926 7.64001C292.203 8.11926 292.607 8.51256 293.094 8.77641C293.58 9.04026 294.13 9.16437 294.683 9.135C294.889 9.935 294.999 10.773 294.999 11.638C294.999 12.503 294.889 13.341 294.683 14.142C294.131 14.1128 293.581 14.2369 293.094 14.5007C292.608 14.7645 292.204 15.1577 291.927 15.6368C291.65 16.1159 291.511 16.6622 291.525 17.2153C291.54 17.7685 291.707 18.3069 292.008 18.771C290.799 19.9604 289.307 20.8225 287.673 21.276C287.422 20.7825 287.039 20.3681 286.567 20.0787C286.095 19.7893 285.553 19.6361 284.999 19.6361C284.445 19.6361 283.903 19.7893 283.431 20.0787C282.959 20.3681 282.576 20.7825 282.325 21.276C280.691 20.8225 279.199 19.9604 277.99 18.771C278.292 18.3069 278.459 17.7683 278.473 17.2151C278.488 16.6618 278.349 16.1153 278.072 15.636C277.795 15.1568 277.391 14.7634 276.904 14.4996C276.418 14.2358 275.868 14.1116 275.315 14.141C275.11 13.342 275 12.504 275 11.638ZM279.804 14.638C280.434 15.729 280.614 16.984 280.368 18.162C280.776 18.452 281.21 18.703 281.665 18.912C282.582 18.0909 283.769 17.6372 285 17.638C286.26 17.638 287.438 18.109 288.335 18.912C288.79 18.703 289.224 18.452 289.632 18.162C289.379 16.958 289.58 15.7031 290.196 14.638C290.811 13.5724 291.797 12.7712 292.966 12.388C293.012 11.8891 293.012 11.3869 292.966 10.888C291.797 10.5051 290.81 9.70381 290.195 8.638C289.579 7.57293 289.378 6.31803 289.631 5.114C289.223 4.82392 288.789 4.57282 288.334 4.364C287.418 5.18493 286.23 5.63861 285 5.638C283.769 5.63885 282.582 5.18516 281.665 4.364C281.21 4.57282 280.776 4.82392 280.368 5.114C280.621 6.31803 280.42 7.57293 279.804 8.638C279.189 9.70362 278.203 10.5048 277.034 10.888C276.988 11.3869 276.988 11.8891 277.034 12.388C278.203 12.771 279.19 13.5722 279.805 14.638H279.804ZM285 14.638C284.204 14.638 283.441 14.3219 282.879 13.7593C282.316 13.1967 282 12.4337 282 11.638C282 10.8424 282.316 10.0793 282.879 9.51668C283.441 8.95407 284.204 8.638 285 8.638C285.796 8.638 286.559 8.95407 287.121 9.51668C287.684 10.0793 288 10.8424 288 11.638C288 12.4337 287.684 13.1967 287.121 13.7593C286.559 14.3219 285.796 14.638 285 14.638ZM285 12.638C285.265 12.638 285.52 12.5327 285.707 12.3451C285.895 12.1576 286 11.9032 286 11.638C286 11.3728 285.895 11.1184 285.707 10.9309C285.52 10.7434 285.265 10.638 285 10.638C284.735 10.638 284.48 10.7434 284.293 10.9309C284.105 11.1184 284 11.3728 284 11.638C284 11.9032 284.105 12.1576 284.293 12.3451C284.48 12.5327 284.735 12.638 285 12.638Z" fill="#B0BEC5"/>
<path d="M306.973 17.999H311.027C311.159 16.797 311.772 15.805 312.767 14.722C312.88 14.6 313.599 13.855 313.684 13.749C314.39 12.8666 314.833 11.8027 314.961 10.6798C315.089 9.55683 314.898 8.42053 314.408 7.40173C313.919 6.38294 313.152 5.52308 312.195 4.92117C311.239 4.31927 310.132 3.9998 309.001 3.99956C307.871 3.99932 306.764 4.31831 305.807 4.91981C304.85 5.5213 304.082 6.38084 303.593 7.39942C303.103 8.41801 302.911 9.55423 303.038 10.6772C303.166 11.8002 303.608 12.8643 304.314 13.747C304.4 13.854 305.121 14.6 305.232 14.721C306.228 15.805 306.841 16.797 306.973 17.999ZM311 19.999H307V20.999H311V19.999ZM302.754 14.999C301.812 13.8223 301.222 12.4035 301.051 10.906C300.881 9.40846 301.137 7.8932 301.789 6.53474C302.442 5.17627 303.466 4.02987 304.742 3.22758C306.017 2.42529 307.494 1.99976 309.001 2C310.508 2.00024 311.985 2.42625 313.261 3.22894C314.536 4.03164 315.559 5.17838 316.212 6.53705C316.864 7.89572 317.119 9.41106 316.948 10.9085C316.777 12.406 316.186 13.8246 315.244 15.001C314.624 15.773 313 16.999 313 18.499V20.999C313 21.5294 312.789 22.0381 312.414 22.4132C312.039 22.7883 311.531 22.999 311 22.999H307C306.47 22.999 305.961 22.7883 305.586 22.4132C305.211 22.0381 305 21.5294 305 20.999V18.499C305 16.999 303.375 15.773 302.754 14.999ZM310 10.003H312.5L308 16.003V12.003H305.5L310 5.99899V10.004V10.003Z" fill="#0E90D9"/>
<path d="M357 2C362.523 2 367 6.477 367 12C367 17.523 362.523 22 357 22C351.477 22 347 17.523 347 12C347 6.477 351.477 2 357 2ZM357 4C352.582 4 349 7.582 349 12C349 16.418 352.582 20 357 20C361.418 20 365 16.418 365 12C365 7.582 361.418 4 357 4ZM360.833 7.337C361.07 7.171 361.392 7.199 361.596 7.404C361.8 7.608 361.826 7.93 361.659 8.164C359.479 11.21 358.279 12.842 358.061 13.061C357.475 13.646 356.525 13.646 355.939 13.061C355.354 12.475 355.354 11.525 355.939 10.939C356.313 10.566 357.944 9.365 360.833 7.337ZM362.5 11C363.052 11 363.5 11.448 363.5 12C363.5 12.552 363.052 13 362.5 13C361.948 13 361.5 12.552 361.5 12C361.5 11.448 361.948 11 362.5 11ZM351.5 11C352.052 11 352.5 11.448 352.5 12C352.5 12.552 352.052 13 351.5 13C350.948 13 350.5 12.552 350.5 12C350.5 11.448 350.948 11 351.5 11ZM353.818 7.404C354.208 7.794 354.208 8.427 353.818 8.818C353.428 9.208 352.794 9.208 352.404 8.818C352.014 8.428 352.014 7.794 352.404 7.404C352.794 7.014 353.427 7.014 353.818 7.404ZM357 5.5C357.552 5.5 358 5.948 358 6.5C358 7.052 357.552 7.5 357 7.5C356.448 7.5 356 7.052 356 6.5C356 5.948 356.448 5.5 357 5.5Z" fill="#0E90D9"/>
<path d="M396 3H414C414.265 3 414.52 3.10536 414.707 3.29289C414.895 3.48043 415 3.73478 415 4V20C415 20.2652 414.895 20.5196 414.707 20.7071C414.52 20.8946 414.265 21 414 21H396C395.735 21 395.48 20.8946 395.293 20.7071C395.105 20.5196 395 20.2652 395 20V4C395 3.73478 395.105 3.48043 395.293 3.29289C395.48 3.10536 395.735 3 396 3ZM413 7.238L405.072 14.338L397 7.216V19H413V7.238ZM397.511 5L405.061 11.662L412.502 5H397.511Z" fill="#0E90D9"/>
<path d="M420 3H438C438.265 3 438.52 3.10536 438.707 3.29289C438.895 3.48043 439 3.73478 439 4V20C439 20.2652 438.895 20.5196 438.707 20.7071C438.52 20.8946 438.265 21 438 21H420C419.735 21 419.48 20.8946 419.293 20.7071C419.105 20.5196 419 20.2652 419 20V4C419 3.73478 419.105 3.48043 419.293 3.29289C419.48 3.10536 419.735 3 420 3ZM437 7.238L429.072 14.338L421 7.216V19H437V7.238ZM421.511 5L429.061 11.662L436.502 5H421.511Z" fill="#B0BEC5"/>
<path d="M494.33 3.27099C494.954 3.04837 495.628 3.00745 496.275 3.15299C496.921 3.29854 497.513 3.62457 497.981 4.09319C498.45 4.5618 498.776 5.15374 498.921 5.80019C499.066 6.44664 499.025 7.12105 498.802 7.74499L509.647 18.59L507.525 20.711L496.68 9.86699C496.056 10.0896 495.382 10.1305 494.735 9.98499C494.089 9.83945 493.497 9.51341 493.029 9.0448C492.56 8.57619 492.234 7.98425 492.089 7.3378C491.944 6.69135 491.985 6.01694 492.208 5.39299L494.444 7.62999C494.582 7.77326 494.748 7.88753 494.931 7.96615C495.114 8.04476 495.311 8.08614 495.51 8.08787C495.709 8.0896 495.907 8.05165 496.091 7.97623C496.275 7.9008 496.443 7.78943 496.584 7.64859C496.724 7.50775 496.836 7.34027 496.911 7.15592C496.987 6.97158 497.025 6.77406 497.023 6.57489C497.021 6.37572 496.98 6.17889 496.901 5.99589C496.823 5.81288 496.708 5.64736 496.565 5.50899L494.329 3.26999L494.33 3.27099ZM504.697 5.15499L507.879 3.38699L509.293 4.80099L507.525 7.98299L505.757 8.33699L503.637 10.458L502.222 9.04399L504.343 6.92299L504.697 5.15499ZM497.626 12.933L499.747 15.055L494.797 20.005C494.524 20.2754 494.158 20.4308 493.774 20.439C493.389 20.4473 493.017 20.3078 492.732 20.0494C492.448 19.791 492.274 19.4333 492.245 19.0501C492.217 18.6669 492.337 18.2875 492.58 17.99L492.677 17.883L497.627 12.933H497.626Z" fill="#0E90D9"/>
<path d="M518.33 3.27099C518.954 3.04837 519.628 3.00745 520.275 3.15299C520.921 3.29854 521.513 3.62457 521.981 4.09319C522.45 4.5618 522.776 5.15374 522.921 5.80019C523.066 6.44664 523.025 7.12105 522.802 7.74499L533.647 18.59L531.525 20.711L520.68 9.86699C520.056 10.0896 519.382 10.1305 518.735 9.98499C518.089 9.83945 517.497 9.51341 517.029 9.0448C516.56 8.57619 516.234 7.98425 516.089 7.3378C515.944 6.69135 515.985 6.01694 516.208 5.39299L518.444 7.62999C518.582 7.77326 518.748 7.88753 518.931 7.96615C519.114 8.04476 519.311 8.08614 519.51 8.08787C519.709 8.0896 519.907 8.05165 520.091 7.97623C520.275 7.9008 520.443 7.78943 520.584 7.64859C520.724 7.50775 520.836 7.34027 520.911 7.15592C520.987 6.97158 521.025 6.77406 521.023 6.57489C521.021 6.37572 520.98 6.17889 520.901 5.99589C520.823 5.81288 520.708 5.64736 520.565 5.50899L518.329 3.26999L518.33 3.27099ZM528.697 5.15499L531.879 3.38699L533.293 4.80099L531.525 7.98299L529.757 8.33699L527.637 10.458L526.222 9.04399L528.343 6.92299L528.697 5.15499ZM521.626 12.933L523.747 15.055L518.797 20.005C518.524 20.2754 518.158 20.4308 517.774 20.439C517.389 20.4473 517.017 20.3078 516.732 20.0494C516.448 19.791 516.274 19.4333 516.245 19.0501C516.217 18.6669 516.337 18.2875 516.58 17.99L516.677 17.883L521.627 12.933H521.626Z" fill="#B0BEC5"/>
<path d="M330.973 17.999H335.027C335.159 16.797 335.772 15.805 336.767 14.722C336.88 14.6 337.599 13.855 337.684 13.749C338.39 12.8666 338.833 11.8027 338.961 10.6798C339.089 9.55683 338.898 8.42053 338.408 7.40173C337.919 6.38294 337.152 5.52308 336.195 4.92117C335.239 4.31927 334.132 3.9998 333.001 3.99956C331.871 3.99932 330.764 4.31831 329.807 4.91981C328.85 5.5213 328.082 6.38084 327.593 7.39942C327.103 8.41801 326.911 9.55423 327.038 10.6772C327.166 11.8002 327.608 12.8643 328.314 13.747C328.4 13.854 329.121 14.6 329.232 14.721C330.228 15.805 330.841 16.797 330.973 17.999ZM335 19.999H331V20.999H335V19.999ZM326.754 14.999C325.812 13.8223 325.222 12.4035 325.051 10.906C324.881 9.40846 325.137 7.8932 325.789 6.53474C326.442 5.17627 327.466 4.02987 328.742 3.22758C330.017 2.42529 331.494 1.99976 333.001 2C334.508 2.00024 335.985 2.42625 337.261 3.22894C338.536 4.03164 339.559 5.17838 340.212 6.53705C340.864 7.89572 341.119 9.41106 340.948 10.9085C340.777 12.406 340.186 13.8246 339.244 15.001C338.624 15.773 337 16.999 337 18.499V20.999C337 21.5294 336.789 22.0381 336.414 22.4132C336.039 22.7883 335.531 22.999 335 22.999H331C330.47 22.999 329.961 22.7883 329.586 22.4132C329.211 22.0381 329 21.5294 329 20.999V18.499C329 16.999 327.375 15.773 326.754 14.999ZM334 10.003H336.5L332 16.003V12.003H329.5L334 5.99899V10.004V10.003Z" fill="#B0BEC5"/>
<path d="M381 2C386.523 2 391 6.477 391 12C391 17.523 386.523 22 381 22C375.477 22 371 17.523 371 12C371 6.477 375.477 2 381 2ZM381 4C376.582 4 373 7.582 373 12C373 16.418 376.582 20 381 20C385.418 20 389 16.418 389 12C389 7.582 385.418 4 381 4ZM384.833 7.337C385.07 7.171 385.392 7.199 385.596 7.404C385.8 7.608 385.826 7.93 385.659 8.164C383.479 11.21 382.279 12.842 382.061 13.061C381.475 13.646 380.525 13.646 379.939 13.061C379.354 12.475 379.354 11.525 379.939 10.939C380.313 10.566 381.944 9.365 384.833 7.337ZM386.5 11C387.052 11 387.5 11.448 387.5 12C387.5 12.552 387.052 13 386.5 13C385.948 13 385.5 12.552 385.5 12C385.5 11.448 385.948 11 386.5 11ZM375.5 11C376.052 11 376.5 11.448 376.5 12C376.5 12.552 376.052 13 375.5 13C374.948 13 374.5 12.552 374.5 12C374.5 11.448 374.948 11 375.5 11ZM377.818 7.404C378.208 7.794 378.208 8.427 377.818 8.818C377.428 9.208 376.794 9.208 376.404 8.818C376.014 8.428 376.014 7.794 376.404 7.404C376.794 7.014 377.427 7.014 377.818 7.404ZM381 5.5C381.552 5.5 382 5.948 382 6.5C382 7.052 381.552 7.5 381 7.5C380.448 7.5 380 7.052 380 6.5C380 5.948 380.448 5.5 381 5.5Z" fill="#B0BEC5"/>
<path d="M445 23C445 20.8783 445.843 18.8434 447.343 17.3431C448.843 15.8429 450.878 15 453 15C455.122 15 457.157 15.8429 458.657 17.3431C460.157 18.8434 461 20.8783 461 23H459C459 21.4087 458.368 19.8826 457.243 18.7574C456.117 17.6321 454.591 17 453 17C451.409 17 449.883 17.6321 448.757 18.7574C447.632 19.8826 447 21.4087 447 23H445ZM453 14C449.685 14 447 11.315 447 8C447 4.685 449.685 2 453 2C456.315 2 459 4.685 459 8C459 11.315 456.315 14 453 14ZM453 12C455.21 12 457 10.21 457 8C457 5.79 455.21 4 453 4C450.79 4 449 5.79 449 8C449 10.21 450.79 12 453 12Z" fill="#546E7A"/>
<path d="M469 23C469 20.8783 469.843 18.8434 471.343 17.3431C472.843 15.8429 474.878 15 477 15C479.122 15 481.157 15.8429 482.657 17.3431C484.157 18.8434 485 20.8783 485 23H483C483 21.4087 482.368 19.8826 481.243 18.7574C480.117 17.6321 478.591 17 477 17C475.409 17 473.883 17.6321 472.757 18.7574C471.632 19.8826 471 21.4087 471 23H469ZM477 14C473.685 14 471 11.315 471 8C471 4.685 473.685 2 477 2C480.315 2 483 4.685 483 8C483 11.315 480.315 14 477 14ZM477 12C479.21 12 481 10.21 481 8C481 5.79 479.21 4 477 4C474.79 4 473 5.79 473 8C473 10.21 474.79 12 477 12Z" fill="#C1C2C3"/>
<path d="M186.366 10.682C187.304 12.3305 188.67 13.6957 190.318 14.634L191.202 13.396C191.344 13.1969 191.554 13.0569 191.793 13.0023C192.031 12.9478 192.281 12.9825 192.496 13.1C193.91 13.8729 195.472 14.3378 197.079 14.464C197.33 14.4839 197.564 14.5975 197.735 14.7823C197.905 14.9671 198 15.2094 198 15.461V19.923C198 20.1706 197.908 20.4094 197.742 20.5932C197.576 20.777 197.348 20.8927 197.102 20.918C196.572 20.973 196.038 21 195.5 21C186.94 21 180 14.06 180 5.5C180 4.962 180.027 4.428 180.082 3.898C180.107 3.6517 180.223 3.42352 180.407 3.25763C180.591 3.09175 180.829 2.99995 181.077 3H185.539C185.791 2.99997 186.033 3.09475 186.218 3.26545C186.402 3.43615 186.516 3.67022 186.536 3.921C186.662 5.52779 187.127 7.08968 187.9 8.504C188.017 8.71856 188.052 8.96874 187.998 9.2072C187.943 9.44565 187.803 9.65584 187.604 9.798L186.366 10.682ZM183.844 10.025L185.744 8.668C185.205 7.50409 184.835 6.26884 184.647 5H182.01C182.004 5.166 182.001 5.333 182.001 5.5C182 12.956 188.044 19 195.5 19C195.667 19 195.834 18.997 196 18.99V16.353C194.731 16.1646 193.496 15.7952 192.332 15.256L190.975 17.156C190.429 16.9437 189.898 16.6931 189.387 16.406L189.329 16.373C187.368 15.2567 185.743 13.6324 184.627 11.671L184.594 11.613C184.307 11.102 184.056 10.5713 183.844 10.025Z" fill="#B0BEC5"/>
<path d="M150 3V5H149L144 12.5V21H138V12.5L133 5H132V3H150ZM135.404 5L140 11.894V19H142V11.894L146.596 5H135.404Z" fill="#B0BEC5"/>
<path d="M213 46C207.477 46 203 41.523 203 36C203 30.477 207.477 26 213 26C218.523 26 223 30.477 223 36C223 41.523 218.523 46 213 46ZM213 44C215.122 44 217.157 43.1571 218.657 41.6569C220.157 40.1566 221 38.1217 221 36C221 33.8783 220.157 31.8434 218.657 30.3431C217.157 28.8429 215.122 28 213 28C210.878 28 208.843 28.8429 207.343 30.3431C205.843 31.8434 205 33.8783 205 36C205 38.1217 205.843 40.1566 207.343 41.6569C208.843 43.1571 210.878 44 213 44ZM209.5 38H215C215.133 38 215.26 37.9473 215.354 37.8536C215.447 37.7598 215.5 37.6326 215.5 37.5C215.5 37.3674 215.447 37.2402 215.354 37.1464C215.26 37.0527 215.133 37 215 37H211C210.337 37 209.701 36.7366 209.232 36.2678C208.763 35.7989 208.5 35.163 208.5 34.5C208.5 33.837 208.763 33.2011 209.232 32.7322C209.701 32.2634 210.337 32 211 32H212V30H214V32H216.5V34H211C210.867 34 210.74 34.0527 210.646 34.1464C210.553 34.2402 210.5 34.3674 210.5 34.5C210.5 34.6326 210.553 34.7598 210.646 34.8536C210.74 34.9473 210.867 35 211 35H215C215.663 35 216.299 35.2634 216.768 35.7322C217.237 36.2011 217.5 36.837 217.5 37.5C217.5 38.163 217.237 38.7989 216.768 39.2678C216.299 39.7366 215.663 40 215 40H214V42H212V40H209.5V38Z" fill="#546E7A"/>
<path d="M243 35V32L247 36L243 40V37H238V42H241L237 46L233 42H236V37H231V40L227 36L231 32V35H236V30H233L237 26L241 30H238V35H243Z" fill="#546E7A"/>
<path d="M386 27H390C390.265 27 390.52 27.1054 390.707 27.2929C390.895 27.4804 391 27.7348 391 28V44C391 44.2652 390.895 44.5196 390.707 44.7071C390.52 44.8946 390.265 45 390 45H372C371.735 45 371.48 44.8946 371.293 44.7071C371.105 44.5196 371 44.2652 371 44V28C371 27.7348 371.105 27.4804 371.293 27.2929C371.48 27.1054 371.735 27 372 27H376V25H378V27H384V25H386V27ZM384 29H378V31H376V29H373V33H389V29H386V31H384V29ZM389 35H373V43H389V35Z" fill="#546E7A"/>
<path d="M333 46C327.477 46 323 41.523 323 36C323 30.477 327.477 26 333 26C338.523 26 343 30.477 343 36C343 41.523 338.523 46 333 46ZM333 44C335.122 44 337.157 43.1571 338.657 41.6569C340.157 40.1566 341 38.1217 341 36C341 33.8783 340.157 31.8434 338.657 30.3431C337.157 28.8429 335.122 28 333 28C330.878 28 328.843 28.8429 327.343 30.3431C325.843 31.8434 325 33.8783 325 36C325 38.1217 325.843 40.1566 327.343 41.6569C328.843 43.1571 330.878 44 333 44ZM334 36H338V38H332V31H334V36Z" fill="#546E7A"/>
<path d="M351.414 40L361.556 29.858L360.142 28.444L350 38.586V40H351.414ZM352.243 42H348V37.757L359.435 26.322C359.623 26.1345 359.877 26.0292 360.142 26.0292C360.407 26.0292 360.661 26.1345 360.849 26.322L363.678 29.151C363.865 29.3385 363.971 29.5928 363.971 29.858C363.971 30.1232 363.865 30.3775 363.678 30.565L352.243 42ZM348 44H366V46H348V44Z" fill="#546E7A"/>
<path d="M285 27C283.9 27 283 27.9 283 29C283 30.1 283.9 31 285 31C286.1 31 287 30.1 287 29C287 27.9 286.1 27 285 27ZM285 41C283.9 41 283 41.9 283 43C283 44.1 283.9 45 285 45C286.1 45 287 44.1 287 43C287 41.9 286.1 41 285 41ZM285 34C283.9 34 283 34.9 283 36C283 37.1 283.9 38 285 38C286.1 38 287 37.1 287 36C287 34.9 286.1 34 285 34Z" fill="#546E7A"/>
<path d="M403.9 26.1L413.799 27.515L415.213 37.415L406.021 46.607C405.833 46.7945 405.579 46.8998 405.314 46.8998C405.049 46.8998 404.795 46.7945 404.607 46.607L394.707 36.707C394.52 36.5195 394.414 36.2652 394.414 36C394.414 35.7348 394.52 35.4805 394.707 35.293L403.9 26.1ZM404.607 28.222L396.828 36L405.314 44.485L413.092 36.707L412.032 29.282L404.607 28.222ZM406.727 34.586C406.352 34.2107 406.141 33.7018 406.141 33.1712C406.141 32.9084 406.193 32.6482 406.294 32.4055C406.394 32.1628 406.542 31.9423 406.728 31.7565C406.913 31.5708 407.134 31.4234 407.377 31.3229C407.619 31.2224 407.88 31.1707 408.142 31.1707C408.673 31.1708 409.182 31.3817 409.557 31.757C409.932 32.1323 410.143 32.6412 410.143 33.1719C410.143 33.7025 409.932 34.2114 409.557 34.5865C409.181 34.9617 408.672 35.1724 408.142 35.1723C407.611 35.1722 407.102 34.9613 406.727 34.586Z" fill="#546E7A"/>
<path d="M427.9 26.1L437.799 27.515L439.213 37.415L430.021 46.607C429.833 46.7945 429.579 46.8998 429.314 46.8998C429.049 46.8998 428.795 46.7945 428.607 46.607L418.707 36.707C418.52 36.5195 418.414 36.2652 418.414 36C418.414 35.7348 418.52 35.4805 418.707 35.293L427.9 26.1ZM428.607 28.222L420.828 36L429.314 44.485L437.092 36.707L436.032 29.282L428.607 28.222ZM430.727 34.586C430.352 34.2107 430.141 33.7018 430.141 33.1712C430.141 32.9084 430.193 32.6482 430.294 32.4055C430.394 32.1628 430.542 31.9423 430.728 31.7565C430.913 31.5708 431.134 31.4234 431.377 31.3229C431.619 31.2224 431.88 31.1707 432.142 31.1707C432.673 31.1708 433.182 31.3817 433.557 31.757C433.932 32.1323 434.143 32.6412 434.143 33.1719C434.143 33.7025 433.932 34.2114 433.557 34.5865C433.181 34.9617 432.672 35.1724 432.142 35.1723C431.611 35.1722 431.102 34.9613 430.727 34.586Z" fill="#546E7A"/>
<path fill-rule="evenodd" clip-rule="evenodd" d="M317.799 27.515L307.9 26.1L298.707 35.293C298.52 35.4805 298.414 35.7348 298.414 36C298.414 36.2652 298.52 36.5195 298.707 36.707L308.607 46.607C308.795 46.7945 309.049 46.8998 309.314 46.8998C309.579 46.8998 309.833 46.7945 310.021 46.607L319.213 37.415L317.799 27.515ZM310.727 34.586C310.352 34.2107 310.141 33.7018 310.141 33.1712C310.141 32.9084 310.193 32.6482 310.294 32.4055C310.394 32.1628 310.542 31.9423 310.728 31.7565C310.913 31.5707 311.134 31.4234 311.377 31.3229C311.619 31.2224 311.88 31.1707 312.142 31.1707C312.673 31.1708 313.182 31.3817 313.557 31.757C313.932 32.1323 314.143 32.6412 314.143 33.1719C314.143 33.7025 313.932 34.2114 313.557 34.5865C313.181 34.9617 312.672 35.1724 312.142 35.1723C311.611 35.1722 311.102 34.9613 310.727 34.586Z" fill="#546E7A"/>
<path d="M452 35V31H454V35H458V37H454V41H452V37H448V35H452ZM453 46C447.477 46 443 41.523 443 36C443 30.477 447.477 26 453 26C458.523 26 463 30.477 463 36C463 41.523 458.523 46 453 46ZM453 44C455.122 44 457.157 43.1571 458.657 41.6569C460.157 40.1566 461 38.1217 461 36C461 33.8783 460.157 31.8434 458.657 30.3431C457.157 28.8429 455.122 28 453 28C450.878 28 448.843 28.8429 447.343 30.3431C445.843 31.8434 445 33.8783 445 36C445 38.1217 445.843 40.1566 447.343 41.6569C448.843 43.1571 450.878 44 453 44Z" fill="#546E7A"/>
<path d="M482 30H487V32H485V45C485 45.2652 484.895 45.5196 484.707 45.7071C484.52 45.8946 484.265 46 484 46H470C469.735 46 469.48 45.8946 469.293 45.7071C469.105 45.5196 469 45.2652 469 45V32H467V30H472V27C472 26.7348 472.105 26.4804 472.293 26.2929C472.48 26.1054 472.735 26 473 26H481C481.265 26 481.52 26.1054 481.707 26.2929C481.895 26.4804 482 26.7348 482 27V30ZM483 32H471V44H483V32ZM474 35H476V41H474V35ZM478 35H480V41H478V35ZM474 28V30H480V28H474Z" fill="#546E7A"/>
<path d="M501 27C506.392 27 510.878 30.88 511.819 36C510.879 41.12 506.392 45 501 45C495.608 45 491.122 41.12 490.181 36C491.121 30.88 495.608 27 501 27ZM501 43C503.039 42.9996 505.018 42.3068 506.613 41.0352C508.207 39.7635 509.323 37.9883 509.777 36C509.321 34.0133 508.205 32.24 506.611 30.97C505.016 29.7 503.038 29.0085 501 29.0085C498.962 29.0085 496.984 29.7 495.389 30.97C493.795 32.24 492.679 34.0133 492.223 36C492.677 37.9883 493.793 39.7635 495.387 41.0352C496.982 42.3068 498.961 42.9996 501 43ZM501 40.5C499.807 40.5 498.662 40.0259 497.818 39.182C496.974 38.3381 496.5 37.1935 496.5 36C496.5 34.8065 496.974 33.6619 497.818 32.818C498.662 31.9741 499.807 31.5 501 31.5C502.193 31.5 503.338 31.9741 504.182 32.818C505.026 33.6619 505.5 34.8065 505.5 36C505.5 37.1935 505.026 38.3381 504.182 39.182C503.338 40.0259 502.193 40.5 501 40.5ZM501 38.5C501.663 38.5 502.299 38.2366 502.768 37.7678C503.237 37.2989 503.5 36.663 503.5 36C503.5 35.337 503.237 34.7011 502.768 34.2322C502.299 33.7634 501.663 33.5 501 33.5C500.337 33.5 499.701 33.7634 499.232 34.2322C498.763 34.7011 498.5 35.337 498.5 36C498.5 36.663 498.763 37.2989 499.232 37.7678C499.701 38.2366 500.337 38.5 501 38.5Z" fill="#546E7A"/>
<path d="M524 35V29H526V35H532V37H526V43H524V37H518V35H524Z" fill="#546E7A"/>
<path d="M2.5 16.3102L11.424 25.2343L17.7343 18.924L8.81025 10L2.5 16.3102Z" fill="#0E90D9"/>
<path d="M35.1449 16.3102L26.2209 25.2343L19.9106 18.924L28.8346 10L35.1449 16.3102Z" fill="#0E90D9"/>
<path d="M12.5656 26.6478L17.1902 31.2192C18.9414 32.9057 21.7205 32.8796 23.4396 31.1605C25.205 29.3951 25.178 26.5246 23.3798 24.7927L18.8758 20.3376L12.5656 26.6478Z" fill="#263238"/>
<path d="M44.9557 21.698V27.977C44.833 28.0077 44.672 28.046 44.4727 28.092C44.2734 28.138 44.051 28.161 43.8057 28.161C43.3304 28.161 42.9854 28.0767 42.7707 27.908C42.5714 27.724 42.4717 27.425 42.4717 27.011V14.039C42.5944 14.0083 42.7554 13.9777 42.9547 13.947C43.1694 13.901 43.3917 13.878 43.6217 13.878C44.0664 13.878 44.396 13.9623 44.6107 14.131C44.8407 14.2997 44.9557 14.5987 44.9557 15.028V20.226L50.8667 13.924C51.4494 13.9393 51.871 14.0697 52.1317 14.315C52.3924 14.545 52.5227 14.821 52.5227 15.143C52.5227 15.4037 52.4537 15.649 52.3157 15.879C52.1777 16.0937 51.9784 16.3313 51.7177 16.592L47.3477 20.916C48.6204 22.2193 49.732 23.377 50.6827 24.389C51.6487 25.3857 52.4767 26.1983 53.1667 26.827C53.136 27.2563 52.9904 27.5937 52.7297 27.839C52.4844 28.069 52.1854 28.184 51.8327 28.184C51.4647 28.184 51.1504 28.0843 50.8897 27.885C50.6444 27.6857 50.3914 27.4557 50.1307 27.195L44.9557 21.698ZM57.8166 27.954C57.7093 28 57.556 28.0383 57.3566 28.069C57.1726 28.115 56.9656 28.138 56.7356 28.138C56.291 28.138 55.9613 28.0537 55.7466 27.885C55.532 27.7163 55.4246 27.4327 55.4246 27.034V19.49C55.4246 19.1067 55.5013 18.8 55.6546 18.57C55.808 18.3247 56.0533 18.0947 56.3906 17.88C56.8353 17.604 57.4026 17.374 58.0926 17.19C58.7826 17.006 59.5416 16.914 60.3696 16.914C61.719 16.914 62.3937 17.2973 62.3937 18.064C62.3937 18.248 62.363 18.4243 62.3017 18.593C62.2403 18.7463 62.1713 18.8843 62.0947 19.007C61.9413 18.9763 61.7496 18.9457 61.5197 18.915C61.2896 18.8843 61.0443 18.869 60.7836 18.869C60.1703 18.869 59.6106 18.938 59.1046 19.076C58.5986 19.1987 58.1693 19.3597 57.8166 19.559V27.954ZM68.2549 26.459C68.7915 26.459 69.2592 26.4053 69.6579 26.298C70.0565 26.1907 70.3402 26.0757 70.5089 25.953V23.032L68.0019 23.285C67.2965 23.3617 66.7675 23.5227 66.4149 23.768C66.0622 23.998 65.8859 24.3583 65.8859 24.849C65.8859 25.355 66.0775 25.7537 66.4609 26.045C66.8442 26.321 67.4422 26.459 68.2549 26.459ZM68.2089 16.914C69.6349 16.914 70.7695 17.2283 71.6129 17.857C72.4562 18.4703 72.8779 19.444 72.8779 20.778V26.137C72.8779 26.4897 72.7935 26.7657 72.6249 26.965C72.4715 27.149 72.2569 27.3253 71.9809 27.494C71.5822 27.724 71.0685 27.9233 70.4399 28.092C69.8112 28.2607 69.0829 28.345 68.2549 28.345C66.7675 28.345 65.6022 28.0537 64.7589 27.471C63.9309 26.8883 63.5169 26.0297 63.5169 24.895C63.5169 23.883 63.8389 23.1087 64.4829 22.572C65.1422 22.0353 66.0852 21.7057 67.3119 21.583L70.5089 21.261V20.755C70.5089 20.0803 70.2865 19.5897 69.8419 19.283C69.4125 18.9763 68.8069 18.823 68.0249 18.823C67.4115 18.823 66.8212 18.9073 66.2539 19.076C65.6865 19.2447 65.1805 19.4363 64.7359 19.651C64.5825 19.5283 64.4522 19.3827 64.3449 19.214C64.2375 19.03 64.1839 18.8307 64.1839 18.616C64.1839 18.3553 64.2452 18.1407 64.3679 17.972C64.5059 17.8033 64.7129 17.6577 64.9889 17.535C65.4182 17.3203 65.9089 17.167 66.4609 17.075C67.0129 16.9677 67.5955 16.914 68.2089 16.914ZM77.7314 25.493C77.3481 24.7417 76.8804 23.676 76.3284 22.296C75.7764 20.916 75.2398 19.352 74.7184 17.604C74.8564 17.4353 75.0404 17.2973 75.2704 17.19C75.5004 17.0673 75.7458 17.006 76.0064 17.006C76.3438 17.006 76.6198 17.0903 76.8344 17.259C77.0491 17.4123 77.2254 17.6883 77.3634 18.087C77.7774 19.329 78.2068 20.5557 78.6514 21.767C79.0961 22.963 79.5868 24.205 80.1234 25.493H80.2154C80.4454 25.0023 80.6754 24.4273 80.9054 23.768C81.1508 23.1087 81.3884 22.411 81.6184 21.675C81.8484 20.939 82.0631 20.1953 82.2624 19.444C82.4618 18.6773 82.6381 17.949 82.7914 17.259C82.9448 17.1823 83.0981 17.121 83.2514 17.075C83.4201 17.029 83.6118 17.006 83.8264 17.006C84.1638 17.006 84.4474 17.0903 84.6774 17.259C84.9074 17.4123 85.0224 17.6577 85.0224 17.995C85.0224 18.3937 84.9151 19.007 84.7004 19.835C84.5011 20.6477 84.2328 21.5523 83.8954 22.549C83.5581 23.5303 83.1748 24.527 82.7454 25.539C82.3161 26.551 81.8868 27.448 81.4574 28.23C80.6908 29.5793 79.9931 30.6067 79.3644 31.312C78.7511 32.0173 78.1684 32.37 77.6164 32.37C77.1871 32.37 76.8421 32.2473 76.5814 32.002C76.3361 31.772 76.1828 31.4807 76.1214 31.128C76.3668 30.9133 76.6351 30.6527 76.9264 30.346C77.2178 30.0393 77.5091 29.7097 77.8004 29.357C78.0918 29.0043 78.3678 28.6363 78.6284 28.253C78.8891 27.885 79.1114 27.5247 79.2954 27.172C79.0348 27.0953 78.7818 26.9497 78.5364 26.735C78.2911 26.505 78.0228 26.091 77.7314 25.493ZM89.8262 27.954C89.7189 28 89.5655 28.0383 89.3662 28.069C89.1822 28.115 88.9675 28.138 88.7222 28.138C88.2775 28.138 87.9479 28.0537 87.7332 27.885C87.5185 27.7163 87.4112 27.4327 87.4112 27.034V17.305C87.5339 17.2743 87.6872 17.236 87.8712 17.19C88.0705 17.144 88.2929 17.121 88.5382 17.121C88.9829 17.121 89.3049 17.2053 89.5042 17.374C89.7189 17.5427 89.8262 17.834 89.8262 18.248V27.954ZM87.1582 13.924C87.1582 13.5253 87.2962 13.1957 87.5722 12.935C87.8482 12.659 88.2009 12.521 88.6302 12.521C89.0595 12.521 89.4045 12.659 89.6652 12.935C89.9259 13.1957 90.0562 13.5253 90.0562 13.924C90.0562 14.3227 89.9259 14.66 89.6652 14.936C89.4045 15.1967 89.0595 15.327 88.6302 15.327C88.2009 15.327 87.8482 15.1967 87.5722 14.936C87.2962 14.66 87.1582 14.3227 87.1582 13.924ZM100.382 21.031C100.382 20.2797 100.167 19.7277 99.7381 19.375C99.3241 19.0223 98.7568 18.846 98.0361 18.846C97.4994 18.846 97.0164 18.915 96.5871 19.053C96.1731 19.191 95.8128 19.3443 95.5061 19.513V27.954C95.3988 28 95.2454 28.0383 95.0461 28.069C94.8621 28.115 94.6551 28.138 94.4251 28.138C93.9804 28.138 93.6508 28.0537 93.4361 27.885C93.2214 27.7163 93.1141 27.4327 93.1141 27.034V19.444C93.1141 19.0913 93.1831 18.8077 93.3211 18.593C93.4591 18.3783 93.6891 18.1637 94.0111 17.949C94.4404 17.6883 95.0001 17.4507 95.6901 17.236C96.3801 17.0213 97.1621 16.914 98.0361 16.914C99.5234 16.914 100.689 17.2513 101.532 17.926C102.375 18.5853 102.797 19.5897 102.797 20.939V27.954C102.69 28 102.536 28.0383 102.337 28.069C102.138 28.115 101.923 28.138 101.693 28.138C101.248 28.138 100.919 28.0537 100.704 27.885C100.489 27.7163 100.382 27.4327 100.382 27.034V21.031Z" fill="#263238"/>
<path d="M582 8V20.993C582.001 21.1243 581.976 21.2545 581.927 21.3762C581.877 21.4979 581.804 21.6087 581.712 21.7022C581.62 21.7957 581.51 21.8701 581.389 21.9212C581.268 21.9723 581.138 21.9991 581.007 22H564.993C564.73 22 564.477 21.8955 564.291 21.7095C564.105 21.5235 564 21.2712 564 21.008V2.992C564 2.455 564.449 2 565.002 2H575.997L582 8ZM580 9H575V4H566V20H580V9ZM569 7H572V9H569V7ZM569 11H577V13H569V11ZM569 15H577V17H569V15Z" fill="#B0BEC5"/>
<path d="M558 8V20.993C558.001 21.1243 557.976 21.2545 557.927 21.3762C557.877 21.4979 557.804 21.6087 557.712 21.7022C557.62 21.7957 557.51 21.8701 557.389 21.9212C557.268 21.9723 557.138 21.9991 557.007 22H540.993C540.73 22 540.477 21.8955 540.291 21.7095C540.105 21.5235 540 21.2712 540 21.008V2.992C540 2.455 540.449 2 541.002 2H551.997L558 8ZM556 9H551V4H542V20H556V9ZM545 7H548V9H545V7ZM545 11H553V13H545V11ZM545 15H553V17H545V15Z" fill="#0E90D9"/>
<path d="M116 29H110V43H116V29ZM118 29V43H124V29H118ZM109 27H125C125.265 27 125.52 27.1054 125.707 27.2929C125.895 27.4804 126 27.7348 126 28V44C126 44.2652 125.895 44.5196 125.707 44.7071C125.52 44.8946 125.265 45 125 45H109C108.735 45 108.48 44.8946 108.293 44.7071C108.105 44.5196 108 44.2652 108 44V28C108 27.7348 108.105 27.4804 108.293 27.2929C108.48 27.1054 108.735 27 109 27Z" fill="white"/>
<path d="M140 29H134V43H140V29ZM142 29V43H148V29H142ZM133 27H149C149.265 27 149.52 27.1054 149.707 27.2929C149.895 27.4804 150 27.7348 150 28V44C150 44.2652 149.895 44.5196 149.707 44.7071C149.52 44.8946 149.265 45 149 45H133C132.735 45 132.48 44.8946 132.293 44.7071C132.105 44.5196 132 44.2652 132 44V28C132 27.7348 132.105 27.4804 132.293 27.2929C132.48 27.1054 132.735 27 133 27Z" fill="#546E7A"/>
<path d="M157 32H173V29H157V32ZM167 43V34H163V43H167ZM169 43H173V34H169V43ZM161 43V34H157V43H161ZM156 27H174C174.265 27 174.52 27.1054 174.707 27.2929C174.895 27.4804 175 27.7348 175 28V44C175 44.2652 174.895 44.5196 174.707 44.7071C174.52 44.8946 174.265 45 174 45H156C155.735 45 155.48 44.8946 155.293 44.7071C155.105 44.5196 155 44.2652 155 44V28C155 27.7348 155.105 27.4804 155.293 27.2929C155.48 27.1054 155.735 27 156 27Z" fill="white"/>
<path d="M181 32H197V29H181V32ZM191 43V34H187V43H191ZM193 43H197V34H193V43ZM185 43V34H181V43H185ZM180 27H198C198.265 27 198.52 27.1054 198.707 27.2929C198.895 27.4804 199 27.7348 199 28V44C199 44.2652 198.895 44.5196 198.707 44.7071C198.52 44.8946 198.265 45 198 45H180C179.735 45 179.48 44.8946 179.293 44.7071C179.105 44.5196 179 44.2652 179 44V28C179 27.7348 179.105 27.4804 179.293 27.2929C179.48 27.1054 179.735 27 180 27Z" fill="#546E7A"/>
<defs>
<clipPath id="clip0">
<rect width="20" height="18" fill="white" transform="translate(203 3)"/>
</clipPath>
<clipPath id="clip1">
<rect width="20" height="18" fill="white" transform="translate(227 3)"/>
</clipPath>
</defs>
</svg>
