<svg xmlns="http://www.w3.org/2000/svg" version="1.1" viewBox="-5.0 -10.0 110.0 135.0">
 <path d="m54.688 20.312c-3.4531 0-6.25 2.7969-6.25 6.25s2.7969 6.25 6.25 6.25h3.125c1.7266 0 3.125 1.3984 3.125 3.125s-1.3984 3.125-3.125 3.125h-3.125c-1.7266 0-3.125-1.3984-3.125-3.125 0-0.86328-0.69922-1.5625-1.5625-1.5625s-1.5625 0.69922-1.5625 1.5625c0 3.4531 2.7969 6.25 6.25 6.25v1.5625c0 0.86328 0.69922 1.5625 1.5625 1.5625s1.5625-0.69922 1.5625-1.5625v-1.5625c3.4531 0 6.25-2.7969 6.25-6.25s-2.7969-6.25-6.25-6.25h-3.125c-1.7266 0-3.125-1.3984-3.125-3.125s1.3984-3.125 3.125-3.125h3.125c1.7266 0 3.125 1.3984 3.125 3.125 0 0.86328 0.69922 1.5625 1.5625 1.5625s1.5625-0.69922 1.5625-1.5625c0-3.4531-2.7969-6.25-6.25-6.25v-1.5625c0-0.86328-0.69922-1.5625-1.5625-1.5625s-1.5625 0.69922-1.5625 1.5625z" fill-rule="evenodd"/>
 <path d="m56.25 10.938c-11.211 0-20.312 9.1016-20.312 20.312s9.1016 20.312 20.312 20.312 20.312-9.1016 20.312-20.312-9.1016-20.312-20.312-20.312zm0 3.125c9.4844 0 17.188 7.7031 17.188 17.188s-7.7031 17.188-17.188 17.188-17.188-7.7031-17.188-17.188 7.7031-17.188 17.188-17.188z" fill-rule="evenodd"/>
 <path d="m14.062 75c0-0.86328-0.69922-1.5625-1.5625-1.5625h-6.25c-0.86328 0-1.5625 0.69922-1.5625 1.5625v18.75c0 0.86328 0.69922 1.5625 1.5625 1.5625h6.25c0.86328 0 1.5625-0.69922 1.5625-1.5625zm-3.125 1.5625v15.625h-3.125v-15.625z" fill-rule="evenodd"/>
 <path d="m26.562 81.25c0-0.86328-0.69922-1.5625-1.5625-1.5625h-6.25c-0.86328 0-1.5625 0.69922-1.5625 1.5625v12.5c0 0.86328 0.69922 1.5625 1.5625 1.5625h6.25c0.86328 0 1.5625-0.69922 1.5625-1.5625zm-3.125 1.5625v9.375h-3.125v-9.375z" fill-rule="evenodd"/>
 <path d="m39.062 75c0-0.86328-0.69922-1.5625-1.5625-1.5625h-6.25c-0.86328 0-1.5625 0.69922-1.5625 1.5625v18.75c0 0.86328 0.69922 1.5625 1.5625 1.5625h6.25c0.86328 0 1.5625-0.69922 1.5625-1.5625zm-3.125 1.5625v15.625h-3.125v-15.625z" fill-rule="evenodd"/>
 <path d="m51.562 65.625c0-0.86328-0.69922-1.5625-1.5625-1.5625h-6.25c-0.86328 0-1.5625 0.69922-1.5625 1.5625v28.125c0 0.86328 0.69922 1.5625 1.5625 1.5625h6.25c0.86328 0 1.5625-0.69922 1.5625-1.5625zm-3.125 1.5625v25h-3.125v-25z" fill-rule="evenodd"/>
 <path d="m64.062 65.625c0-0.86328-0.69922-1.5625-1.5625-1.5625h-6.25c-0.86328 0-1.5625 0.69922-1.5625 1.5625v28.125c0 0.86328 0.69922 1.5625 1.5625 1.5625h6.25c0.86328 0 1.5625-0.69922 1.5625-1.5625zm-3.125 1.5625v25h-3.125v-25z" fill-rule="evenodd"/>
 <path d="m68.75 95.312h25c0.86328 0 1.5625-0.69922 1.5625-1.5625s-0.69922-1.5625-1.5625-1.5625h-25c-0.86328 0-1.5625 0.69922-1.5625 1.5625s0.69922 1.5625 1.5625 1.5625z" fill-rule="evenodd"/>
 <path d="m68.75 89.062h6.25c0.86328 0 1.5625-0.69922 1.5625-1.5625s-0.69922-1.5625-1.5625-1.5625h-6.25c-0.86328 0-1.5625 0.69922-1.5625 1.5625s0.69922 1.5625 1.5625 1.5625z" fill-rule="evenodd"/>
 <path d="m81.25 89.062h12.5c0.86328 0 1.5625-0.69922 1.5625-1.5625s-0.69922-1.5625-1.5625-1.5625h-12.5c-0.86328 0-1.5625 0.69922-1.5625 1.5625s0.69922 1.5625 1.5625 1.5625z" fill-rule="evenodd"/>
 <path d="m93.75 79.688h-6.25c-0.86328 0-1.5625 0.69922-1.5625 1.5625s0.69922 1.5625 1.5625 1.5625h6.25c0.86328 0 1.5625-0.69922 1.5625-1.5625s-0.69922-1.5625-1.5625-1.5625z" fill-rule="evenodd"/>
 <path d="m81.25 79.688h-12.5c-0.86328 0-1.5625 0.69922-1.5625 1.5625s0.69922 1.5625 1.5625 1.5625h12.5c0.86328 0 1.5625-0.69922 1.5625-1.5625s-0.69922-1.5625-1.5625-1.5625z" fill-rule="evenodd"/>
 <path d="m68.75 76.562h25c0.86328 0 1.5625-0.69922 1.5625-1.5625s-0.69922-1.5625-1.5625-1.5625h-25c-0.86328 0-1.5625 0.69922-1.5625 1.5625s0.69922 1.5625 1.5625 1.5625z" fill-rule="evenodd"/>
 <path d="m42.711 54.102c-7.7969-4.6328-13.023-13.137-13.023-22.852 0-14.66 11.902-26.562 26.562-26.562s26.562 11.902 26.562 26.562c0 5.1641-1.4766 9.9922-4.0312 14.07l15.426 15.43c0.87891 0.875 1.375 2.0703 1.375 3.3125s-0.49609 2.4375-1.375 3.3125c-0.59375 0.59766-1.2344 1.2383-1.832 1.832-0.875 0.87891-2.0703 1.375-3.3125 1.375s-2.4375-0.49609-3.3125-1.375l-15.43-15.426c-1.9375 1.2109-4.043 2.1836-6.2734 2.8672-0.20312 2.3984-2.2188 4.2891-4.6719 4.2891-2.0391 0-3.7773-1.3047-4.4219-3.125h-3.6562c-0.64453 1.8203-2.3828 3.125-4.4219 3.125-0.96094 0-1.8555-0.28906-2.5977-0.78516l-5.4297 4.0703c0.14062 0.44141 0.21484 0.91406 0.21484 1.4023 0 2.5859-2.1016 4.6875-4.6875 4.6875-1.2617 0-2.4102-0.5-3.2539-1.3125l-4.5938 2.2969c0.023437 0.1875 0.035156 0.38281 0.035156 0.57812 0 2.5859-2.1016 4.6875-4.6875 4.6875s-4.6875-2.1016-4.6875-4.6875c0-0.19531 0.011719-0.39062 0.035156-0.57812l-4.5938-2.2969c-0.84375 0.8125-1.9922 1.3125-3.2539 1.3125-2.5859 0-4.6875-2.1016-4.6875-4.6875s2.1016-4.6875 4.6875-4.6875 4.6875 2.1016 4.6875 4.6875c0 0.19531-0.011719 0.39062-0.035156 0.57812l4.5938 2.2969c0.84375-0.8125 1.9922-1.3125 3.2539-1.3125s2.4102 0.5 3.2539 1.3125l4.5938-2.2969c-0.023437-0.1875-0.035156-0.38281-0.035156-0.57812 0-2.5859 2.1016-4.6875 4.6875-4.6875 0.96094 0 1.8555 0.28906 2.5977 0.78516l5.4297-4.0703c-0.14062-0.44141-0.21484-0.91406-0.21484-1.4023 0-0.77344 0.1875-1.5039 0.52344-2.1484zm-20.836 16.211c0.86328 0 1.5625 0.69922 1.5625 1.5625s-0.69922 1.5625-1.5625 1.5625-1.5625-0.69922-1.5625-1.5625 0.69922-1.5625 1.5625-1.5625zm59.375-18.102-4.0391 4.0391 10.746 10.75c0.29297 0.28906 0.69141 0.45703 1.1055 0.45703s0.8125-0.16797 1.1055-0.45703l1.832-1.832c0.28906-0.29297 0.45703-0.69141 0.45703-1.1055s-0.16797-0.8125-0.45703-1.1055zm-71.875 11.852c0.86328 0 1.5625 0.69922 1.5625 1.5625s-0.69922 1.5625-1.5625 1.5625-1.5625-0.69922-1.5625-1.5625 0.69922-1.5625 1.5625-1.5625zm25 0c0.86328 0 1.5625 0.69922 1.5625 1.5625s-0.69922 1.5625-1.5625 1.5625-1.5625-0.69922-1.5625-1.5625 0.69922-1.5625 1.5625-1.5625zm12.5-9.375c0.86328 0 1.5625 0.69922 1.5625 1.5625s-0.69922 1.5625-1.5625 1.5625-1.5625-0.69922-1.5625-1.5625 0.69922-1.5625 1.5625-1.5625zm12.5 0c0.86328 0 1.5625 0.69922 1.5625 1.5625s-0.69922 1.5625-1.5625 1.5625-1.5625-0.69922-1.5625-1.5625 0.69922-1.5625 1.5625-1.5625zm3.8789-1.0664c9.5195-2.9805 16.434-11.875 16.434-22.371 0-12.938-10.5-23.438-23.438-23.438s-23.438 10.5-23.438 23.438c0 8.9219 4.9922 16.684 12.336 20.641 0.53125-0.21094 1.1172-0.32812 1.7266-0.32812 2.0391 0 3.7773 1.3047 4.4219 3.125h3.6562c0.64453-1.8203 2.3828-3.125 4.4219-3.125 1.6133 0 3.0391 0.81641 3.8789 2.0586zm13.688-5.7227c-1.1992 1.4883-2.5547 2.8438-4.043 4.043l2.1016 2.0977 4.0391-4.0391z" fill-rule="evenodd"/>
</svg>