<svg xmlns="http://www.w3.org/2000/svg" viewBox="0 0 100 125" x="0px" y="0px">
  <defs>
    <style>
      .cls-1 {
      fill-rule: evenodd;
      }
    </style>
  </defs>
  <path class="cls-1"
    d="m22.214,62.607l-5.745-9.664-3.94,2.34c-4.581,2.728-6.093,8.718-3.372,13.294,1.255,2.096,3.482,3.808,6.093,4.473,2.254.574,4.792.355,7.21-1.088l3.93-2.339-4.178-7.016h0Zm47.45-44.751c-.55.549-1.438.549-1.988,0-.55-.55-.55-1.44,0-1.989l6.899-6.895c.55-.549,1.438-.549,1.988,0,.55.549.55,1.439,0,1.989l-6.899,6.896h0Zm14.879,27.217c-.751.201-1.521-.245-1.723-.994-.201-.749.248-1.519.999-1.72l9.419-2.523c.742-.201,1.521.244,1.713.994.202.749-.238,1.519-.989,1.72l-9.419,2.523h0Zm-9.712-21.026l3.876-2.953c.614-.471.733-1.351.266-1.967-.467-.615-1.356-.734-1.97-.264l-3.876,2.954c-.614.47-.733,1.35-.266,1.966.467.617,1.356.735,1.97.264h0Zm7.449,13.754c-.714.294-1.539-.047-1.832-.764-.293-.715.046-1.535.761-1.829l4.517-1.849c.715-.294,1.53.048,1.832.764.293.715-.055,1.535-.77,1.829l-4.508,1.849h0Zm-3.381-7.319c-.669.389-1.53.159-1.924-.511-.385-.671-.156-1.528.513-1.917l8.447-4.876c.669-.388,1.53-.159,1.915.511.394.67.165,1.528-.513,1.917l-8.438,4.876h0Zm-60.213,20.716l28.045-31.234c.018,1.274.183,2.668.476,4.156,1.704,8.555,7.137,18.429,12.424,25.111,2.895,3.659,6.487,7.367,10.115,9.436l-40.762,9.838-10.298-17.307h0Zm46.396-15.009c2.107,4.24,1.118,9.328-2.3,12.48,1.805,2.17,3.628,4.014,5.36,5.457,2.492,2.067,4.718,3.282,6.358,3.37.486.027,1.045-.065,1.457-.313,1.603-.953,1.878-4.066,1.035-8.33-2.025-10.183-10.197-23.915-18.178-30.545-3.344-2.774-6.212-4.013-7.815-3.058-1.603.953-1.878,4.067-1.035,8.331.44,2.214,1.2,4.69,2.236,7.311,4.966-1.699,10.509.529,12.882,5.296h0Zm-4.05,10.273c2.391-2.325,3.051-5.962,1.53-9.021-1.695-3.405-5.625-5.089-9.254-3.953,2.034,4.479,4.755,9.051,7.724,12.974h0Zm-44.995,3.478L48.032,14.322c.412-.612.925-1.109,1.539-1.476,2.739-1.629,6.753-.245,11.031,3.31,8.466,7.028,17.005,21.374,19.149,32.16,1.081,5.454.385,9.643-2.364,11.276-.687.411-1.457.63-2.3.671l-44.637,10.774,6.771,11.49c1.585,2.692.751,6.555-2.061,8.092-2.813,1.659-6.459.721-8.081-2.049l-7.43-12.599c-5.113.913-10.353-1.69-12.891-5.964-3.527-5.928-1.576-13.605,4.343-17.129l4.938-2.935h0Zm6.368,25.19c.504-.216.999-.47,1.484-.762l3.903-2.323,7.009,11.897c.87,1.467.385,3.393-1.072,4.259-1.466.864-3.381.386-4.242-1.057l-7.082-12.015Z" />
</svg>
