
<svg width="105" height="40" viewBox="0 0 105 40" fill="none" xmlns="http://www.w3.org/2000/svg">
<path d="M2.5 16.3102L11.424 25.2343L17.7343 18.924L8.81025 10L2.5 16.3102Z" fill="#0E90D9"/>
<path d="M35.1449 16.3102L26.2209 25.2343L19.9106 18.924L28.8346 10L35.1449 16.3102Z" fill="#0E90D9"/>
<path d="M12.5656 26.6478L17.1902 31.2192C18.9414 32.9057 21.7205 32.8796 23.4396 31.1605C25.205 29.3951 25.178 26.5246 23.3798 24.7927L18.8758 20.3376L12.5656 26.6478Z" fill="#263238"/>
<path d="M44.9557 21.698V27.977C44.833 28.0077 44.672 28.046 44.4727 28.092C44.2734 28.138 44.051 28.161 43.8057 28.161C43.3304 28.161 42.9854 28.0767 42.7707 27.908C42.5714 27.724 42.4717 27.425 42.4717 27.011V14.039C42.5944 14.0083 42.7554 13.9777 42.9547 13.947C43.1694 13.901 43.3917 13.878 43.6217 13.878C44.0664 13.878 44.396 13.9623 44.6107 14.131C44.8407 14.2997 44.9557 14.5987 44.9557 15.028V20.226L50.8667 13.924C51.4494 13.9393 51.871 14.0697 52.1317 14.315C52.3924 14.545 52.5227 14.821 52.5227 15.143C52.5227 15.4037 52.4537 15.649 52.3157 15.879C52.1777 16.0937 51.9784 16.3313 51.7177 16.592L47.3477 20.916C48.6204 22.2193 49.732 23.377 50.6827 24.389C51.6487 25.3857 52.4767 26.1983 53.1667 26.827C53.136 27.2563 52.9904 27.5937 52.7297 27.839C52.4844 28.069 52.1854 28.184 51.8327 28.184C51.4647 28.184 51.1504 28.0843 50.8897 27.885C50.6444 27.6857 50.3914 27.4557 50.1307 27.195L44.9557 21.698ZM57.8166 27.954C57.7093 28 57.556 28.0383 57.3566 28.069C57.1726 28.115 56.9656 28.138 56.7356 28.138C56.291 28.138 55.9613 28.0537 55.7466 27.885C55.532 27.7163 55.4246 27.4327 55.4246 27.034V19.49C55.4246 19.1067 55.5013 18.8 55.6546 18.57C55.808 18.3247 56.0533 18.0947 56.3906 17.88C56.8353 17.604 57.4026 17.374 58.0926 17.19C58.7826 17.006 59.5416 16.914 60.3696 16.914C61.719 16.914 62.3937 17.2973 62.3937 18.064C62.3937 18.248 62.363 18.4243 62.3017 18.593C62.2403 18.7463 62.1713 18.8843 62.0947 19.007C61.9413 18.9763 61.7496 18.9457 61.5197 18.915C61.2896 18.8843 61.0443 18.869 60.7836 18.869C60.1703 18.869 59.6106 18.938 59.1046 19.076C58.5986 19.1987 58.1693 19.3597 57.8166 19.559V27.954ZM68.2549 26.459C68.7915 26.459 69.2592 26.4053 69.6579 26.298C70.0565 26.1907 70.3402 26.0757 70.5089 25.953V23.032L68.0019 23.285C67.2965 23.3617 66.7675 23.5227 66.4149 23.768C66.0622 23.998 65.8859 24.3583 65.8859 24.849C65.8859 25.355 66.0775 25.7537 66.4609 26.045C66.8442 26.321 67.4422 26.459 68.2549 26.459ZM68.2089 16.914C69.6349 16.914 70.7695 17.2283 71.6129 17.857C72.4562 18.4703 72.8779 19.444 72.8779 20.778V26.137C72.8779 26.4897 72.7935 26.7657 72.6249 26.965C72.4715 27.149 72.2569 27.3253 71.9809 27.494C71.5822 27.724 71.0685 27.9233 70.4399 28.092C69.8112 28.2607 69.0829 28.345 68.2549 28.345C66.7675 28.345 65.6022 28.0537 64.7589 27.471C63.9309 26.8883 63.5169 26.0297 63.5169 24.895C63.5169 23.883 63.8389 23.1087 64.4829 22.572C65.1422 22.0353 66.0852 21.7057 67.3119 21.583L70.5089 21.261V20.755C70.5089 20.0803 70.2865 19.5897 69.8419 19.283C69.4125 18.9763 68.8069 18.823 68.0249 18.823C67.4115 18.823 66.8212 18.9073 66.2539 19.076C65.6865 19.2447 65.1805 19.4363 64.7359 19.651C64.5825 19.5283 64.4522 19.3827 64.3449 19.214C64.2375 19.03 64.1839 18.8307 64.1839 18.616C64.1839 18.3553 64.2452 18.1407 64.3679 17.972C64.5059 17.8033 64.7129 17.6577 64.9889 17.535C65.4182 17.3203 65.9089 17.167 66.4609 17.075C67.0129 16.9677 67.5955 16.914 68.2089 16.914ZM77.7314 25.493C77.3481 24.7417 76.8804 23.676 76.3284 22.296C75.7764 20.916 75.2398 19.352 74.7184 17.604C74.8564 17.4353 75.0404 17.2973 75.2704 17.19C75.5004 17.0673 75.7458 17.006 76.0064 17.006C76.3438 17.006 76.6198 17.0903 76.8344 17.259C77.0491 17.4123 77.2254 17.6883 77.3634 18.087C77.7774 19.329 78.2068 20.5557 78.6514 21.767C79.0961 22.963 79.5868 24.205 80.1234 25.493H80.2154C80.4454 25.0023 80.6754 24.4273 80.9054 23.768C81.1508 23.1087 81.3884 22.411 81.6184 21.675C81.8484 20.939 82.0631 20.1953 82.2624 19.444C82.4618 18.6773 82.6381 17.949 82.7914 17.259C82.9448 17.1823 83.0981 17.121 83.2514 17.075C83.4201 17.029 83.6118 17.006 83.8264 17.006C84.1638 17.006 84.4474 17.0903 84.6774 17.259C84.9074 17.4123 85.0224 17.6577 85.0224 17.995C85.0224 18.3937 84.9151 19.007 84.7004 19.835C84.5011 20.6477 84.2328 21.5523 83.8954 22.549C83.5581 23.5303 83.1748 24.527 82.7454 25.539C82.3161 26.551 81.8868 27.448 81.4574 28.23C80.6908 29.5793 79.9931 30.6067 79.3644 31.312C78.7511 32.0173 78.1684 32.37 77.6164 32.37C77.1871 32.37 76.8421 32.2473 76.5814 32.002C76.3361 31.772 76.1828 31.4807 76.1214 31.128C76.3668 30.9133 76.6351 30.6527 76.9264 30.346C77.2178 30.0393 77.5091 29.7097 77.8004 29.357C78.0918 29.0043 78.3678 28.6363 78.6284 28.253C78.8891 27.885 79.1114 27.5247 79.2954 27.172C79.0348 27.0953 78.7818 26.9497 78.5364 26.735C78.2911 26.505 78.0228 26.091 77.7314 25.493ZM89.8262 27.954C89.7189 28 89.5655 28.0383 89.3662 28.069C89.1822 28.115 88.9675 28.138 88.7222 28.138C88.2775 28.138 87.9479 28.0537 87.7332 27.885C87.5185 27.7163 87.4112 27.4327 87.4112 27.034V17.305C87.5339 17.2743 87.6872 17.236 87.8712 17.19C88.0705 17.144 88.2929 17.121 88.5382 17.121C88.9829 17.121 89.3049 17.2053 89.5042 17.374C89.7189 17.5427 89.8262 17.834 89.8262 18.248V27.954ZM87.1582 13.924C87.1582 13.5253 87.2962 13.1957 87.5722 12.935C87.8482 12.659 88.2009 12.521 88.6302 12.521C89.0595 12.521 89.4045 12.659 89.6652 12.935C89.9259 13.1957 90.0562 13.5253 90.0562 13.924C90.0562 14.3227 89.9259 14.66 89.6652 14.936C89.4045 15.1967 89.0595 15.327 88.6302 15.327C88.2009 15.327 87.8482 15.1967 87.5722 14.936C87.2962 14.66 87.1582 14.3227 87.1582 13.924ZM100.382 21.031C100.382 20.2797 100.167 19.7277 99.7381 19.375C99.3241 19.0223 98.7568 18.846 98.0361 18.846C97.4994 18.846 97.0164 18.915 96.5871 19.053C96.1731 19.191 95.8128 19.3443 95.5061 19.513V27.954C95.3988 28 95.2454 28.0383 95.0461 28.069C94.8621 28.115 94.6551 28.138 94.4251 28.138C93.9804 28.138 93.6508 28.0537 93.4361 27.885C93.2214 27.7163 93.1141 27.4327 93.1141 27.034V19.444C93.1141 19.0913 93.1831 18.8077 93.3211 18.593C93.4591 18.3783 93.6891 18.1637 94.0111 17.949C94.4404 17.6883 95.0001 17.4507 95.6901 17.236C96.3801 17.0213 97.1621 16.914 98.0361 16.914C99.5234 16.914 100.689 17.2513 101.532 17.926C102.375 18.5853 102.797 19.5897 102.797 20.939V27.954C102.69 28 102.536 28.0383 102.337 28.069C102.138 28.115 101.923 28.138 101.693 28.138C101.248 28.138 100.919 28.0537 100.704 27.885C100.489 27.7163 100.382 27.4327 100.382 27.034V21.031Z" fill="#263238"/>
</svg>