<svg xmlns="http://www.w3.org/2000/svg" xmlns:xlink="http://www.w3.org/1999/xlink" version="1.1"
    x="0px" y="0px" viewBox="0 0 520 650" style="enable-background:new 0 0 520 520;"
    xml:space="preserve"><g><g><path d="M326.959,217.501c0-68.925-56.075-125-125-125c-68.925,0-125,56.075-125,125s56.075,125.001,125,125.001    C270.884,342.502,326.959,286.427,326.959,217.501z M201.959,332.502c-63.411,0-115-51.589-115-115.001    c0-63.411,51.589-115,115-115s115,51.589,115,115C316.959,280.913,265.37,332.502,201.959,332.502z"/><path d="M215.777,213.411c-5.207-2.095-9.667-3.024-10.55-3.276v-11.569c6.121,0.875,12.903,4.672,13.614,5.615l6.123-11.569    c-2.383-1.362-5.191-2.694-8.422-3.999c-3.233-1.304-6.694-2.127-10.379-2.467v-8.592h-5.869v8.592    c-8.026,0.839-14.625,4.327-17.864,11.612c-1.935,4.35-1.953,10.176-0.554,13.824c1.447,3.775,4.448,6.208,8.04,7.955    c4.56,2.216,9.422,3.351,11.313,3.955v11.318c-2.042-0.284-4.027-0.753-5.955-1.404c-2.867-0.971-6.465-2.435-8.975-4.085    c-0.993-0.65-1.603-1.119-1.829-1.404l-6.124,12.166c6.461,4.305,14.576,6.672,21.948,7.315v9.952h5.87v-9.869    c5.024-0.208,10.299-1.48,14.334-4.549c1.9-1.447,3.416-3.302,4.552-5.572c1.133-2.269,1.702-5.02,1.702-8.253    C226.751,221.773,223.581,216.554,215.777,213.411z M201.231,208.945c-1.986-0.623-3.475-1.347-4.466-2.169    c-0.993-0.822-1.489-1.942-1.489-3.361c0-2.948,1.985-4.594,5.955-4.933V208.945z M205.227,234.976v-10.21    c1.985,0.682,3.574,1.433,4.765,2.255c1.191,0.823,1.788,1.972,1.788,3.446C211.779,233.304,209.597,234.806,205.227,234.976z"/><path d="M202.548,132.406c-46.896,0-85.048,38.152-85.048,85.048c0,46.896,38.152,85.048,85.048,85.048    c46.895,0,85.048-38.152,85.048-85.048C287.596,170.558,249.443,132.406,202.548,132.406z M202.548,292.502    c-41.381,0-75.048-33.667-75.048-75.048c0-41.381,33.666-75.048,75.048-75.048c41.381,0,75.048,33.666,75.048,75.048    C277.596,258.835,243.929,292.502,202.548,292.502z"/><path d="M202.548,268.499c-28.146,0-51.045-22.899-51.045-51.045c0-2.761-2.239-5-5-5c-2.761,0-5,2.239-5,5    c0,33.66,27.385,61.045,61.045,61.045c2.761,0,5-2.239,5-5C207.548,270.737,205.309,268.499,202.548,268.499z"/><path d="M202.548,156.409c-2.761,0-5,2.239-5,5s2.239,5,5,5c28.146,0,51.045,22.898,51.045,51.045c0,2.761,2.239,5,5,5    c2.762,0,5-2.239,5-5C263.593,183.794,236.208,156.409,202.548,156.409z"/><path d="M477.5,472.502h-29.075c21.901-16.752,23.583-48.591,4.557-67.617L346.06,297.962    c35.948-64.251,24.922-144.784-27.429-197.133c-31.163-31.164-72.598-48.327-116.671-48.327    c-89.144,0-163.718,70.799-164.454,163.715c-0.746,94.211,74.615,166.286,164.453,166.286c28.242,0,55.974-7.216,80.46-20.901    c112.992,112.781,106.829,107.344,111.48,110.901H82.5c-2.761,0-5,2.238-5,5c0,2.761,2.239,5,5,5h395c2.762,0,5-2.239,5-5    C482.5,474.74,480.262,472.502,477.5,472.502z M315.096,380.137l49.498-49.498l14.143,14.142l-49.498,49.498L315.096,380.137z     M280.704,351.053c-23.757,14.032-50.987,21.449-78.746,21.449c-84.363,0-155.155-67.637-154.454-156.206    c0.701-88.489,71.941-153.794,154.455-153.794c41.402,0,80.326,16.123,109.601,45.398    c50.042,50.042,59.892,127.493,23.951,188.347c-1.161,1.965-0.844,4.465,0.77,6.078l21.242,21.242l-49.498,49.498l-21.243-21.243    C285.179,350.219,282.679,349.888,280.704,351.053z M336.309,401.35l49.498-49.498l60.105,60.104    c13.646,13.646,13.646,35.851,0,49.497c-13.679,13.679-35.816,13.682-49.498,0L336.309,401.35z"/><path d="M107.5,407.502c0-19.299-15.701-35-35-35s-35,15.701-35,35c0,19.299,15.701,35,35,35S107.5,426.801,107.5,407.502z     M72.5,432.502c-13.785,0-25-11.215-25-25c0-13.785,11.215-25,25-25s25,11.215,25,25C97.5,421.287,86.285,432.502,72.5,432.502z"/><path d="M427.5,202.501c13.785,0,25-11.215,25-25c0-13.785-11.215-25-25-25c-13.785,0-25,11.215-25,25    C402.5,191.287,413.715,202.501,427.5,202.501z M427.5,162.501c8.271,0,15,6.729,15,15c0,8.271-6.729,15-15,15    c-8.272,0-15-6.729-15-15C412.5,169.23,419.228,162.501,427.5,162.501z"/><circle cx="380.002" cy="50.002" r="7.5"/><circle cx="464.998" cy="130.002" r="7.5"/><circle cx="309.998" cy="429.998" r="7.5"/><circle cx="140.002" cy="410.002" r="7.5"/><circle cx="59.998" cy="75.002" r="7.5"/><circle cx="424.998" cy="279.998" r="7.5"/></g></g>
    </svg>