<svg xmlns="http://www.w3.org/2000/svg" data-name="Layer 1" viewBox="0 0 100 125" x="0px" y="0px">
    <path
        d="M76.6,55.7V6.532a1.074,1.074,0,0,0-1.075-1.074H21.594a1.077,1.077,0,0,0-.76.314L5.352,21.254a1.077,1.077,0,0,0-.314.76V93.468a1.074,1.074,0,0,0,1.074,1.074H75.524A19.437,19.437,0,0,0,76.6,55.7ZM20.519,9.127V20.939H8.707ZM7.187,92.393v-69.3H21.594a1.075,1.075,0,0,0,1.075-1.075V7.607H74.45V55.7a19.3,19.3,0,0,0-8.3,2.382V31.1a1.075,1.075,0,0,0-1.075-1.075H58.092A1.075,1.075,0,0,0,57.017,31.1V68.109a1.076,1.076,0,0,0,.163.567,19.438,19.438,0,0,0,9.465,23.717ZM64,59.458a19.594,19.594,0,0,0-4.837,5.156V32.178H64Zm11.52,32.935A17.289,17.289,0,1,1,92.813,75.1,17.309,17.309,0,0,1,75.524,92.393ZM16.558,69.183h6.987a1.075,1.075,0,0,0,1.075-1.074v-13.2a1.075,1.075,0,0,0-1.075-1.075H16.558a1.075,1.075,0,0,0-1.075,1.075v13.2A1.074,1.074,0,0,0,16.558,69.183Zm1.075-13.2H22.47V67.034H17.633ZM30.4,40.711a1.075,1.075,0,0,0-1.075,1.075V68.109A1.074,1.074,0,0,0,30.4,69.183H37.39a1.074,1.074,0,0,0,1.074-1.074V41.786a1.074,1.074,0,0,0-1.074-1.075Zm5.912,26.323H31.477V42.86h4.838ZM51.234,43.767H44.247a1.074,1.074,0,0,0-1.074,1.075V68.109a1.074,1.074,0,0,0,1.074,1.074h6.987a1.074,1.074,0,0,0,1.075-1.074V44.842A1.075,1.075,0,0,0,51.234,43.767ZM50.159,67.034H45.322V45.917h4.837ZM20.052,44.678a4.314,4.314,0,0,0,3.771-6.411L31.6,30.891a4.308,4.308,0,0,0,6.14-1.7l5.685,1.255a4.315,4.315,0,1,0,8.034-2.329l7.914-7.853a4.321,4.321,0,1,0-1.514-1.526L49.95,26.587a4.31,4.31,0,0,0-6.057,1.756l-5.685-1.255a4.315,4.315,0,0,0-8.628.149,4.274,4.274,0,0,0,.545,2.094l-7.781,7.377a4.315,4.315,0,1,0-2.292,7.97Zm41.534-30.29a2.166,2.166,0,1,1-2.167,2.166A2.169,2.169,0,0,1,61.586,14.388ZM47.741,28.126a2.167,2.167,0,1,1-2.166,2.167A2.169,2.169,0,0,1,47.741,28.126ZM33.9,25.071a2.166,2.166,0,1,1-2.166,2.166A2.168,2.168,0,0,1,33.9,25.071ZM20.052,38.2a2.166,2.166,0,1,1-2.167,2.166A2.169,2.169,0,0,1,20.052,38.2ZM50.017,74.439a1.075,1.075,0,0,1-1.075,1.075H16.558a1.075,1.075,0,1,1,0-2.15H48.942A1.075,1.075,0,0,1,50.017,74.439Zm0,8.25a1.075,1.075,0,0,1-1.075,1.075H16.558a1.075,1.075,0,1,1,0-2.15H48.942A1.075,1.075,0,0,1,50.017,82.689ZM75.524,60.147A14.958,14.958,0,1,0,90.482,75.1,14.974,14.974,0,0,0,75.524,60.147ZM88.284,74.03H76.6V62.345A12.825,12.825,0,0,1,88.284,74.03ZM62.716,75.1A12.823,12.823,0,0,1,74.45,62.345V75.1c0,.036,0,.072,0,.107,0,.019,0,.038.008.057s0,.031.007.046.011.045.017.067l.009.034c.006.022.015.044.023.065l.011.033.028.06.017.034c.009.018.02.035.031.053s.014.025.022.037l.033.046.029.038c.011.014.024.028.037.042l.026.03,8.88,9.157A12.8,12.8,0,0,1,62.716,75.1Zm22.458,8.408-7.11-7.333h10.22A12.75,12.75,0,0,1,85.174,83.512Z" />
</svg>