<svg width="17" height="21" viewBox="0 0 17 21" fill="none" xmlns="http://www.w3.org/2000/svg">>
    <path d="M5.97302 16H10.027C10.159 14.798 10.772 13.806 11.767 12.723C11.88 12.601 12.599 11.856 12.684 11.75C13.3903 10.8676 13.833 9.80372 13.9611 8.68078C14.0893 7.55784 13.8976 6.42154 13.4083 5.40274C12.9189 4.38395 12.1518 3.52409 11.1951 2.92218C10.2385 2.32028 9.13133 2.00081 8.0011 2.00057C6.87087 2.00033 5.76356 2.31932 4.80668 2.92082C3.8498 3.52231 3.08227 4.38185 2.59248 5.40043C2.10269 6.41902 1.91056 7.55524 2.03821 8.67823C2.16587 9.80123 2.60811 10.8653 3.31402 11.748C3.40002 11.855 4.12102 12.601 4.23202 12.722C5.22802 13.806 5.84102 14.798 5.97302 16ZM10 18H6.00002V19H10V18ZM1.75402 13C0.812212 11.8233 0.221969 10.4045 0.0512852 8.90697C-0.119398 7.40947 0.136421 5.89421 0.789275 4.53575C1.44213 3.17728 2.46546 2.03088 3.74138 1.22859C5.0173 0.426299 6.49391 0.000765838 8.0011 0.00100718C9.5083 0.00124853 10.9848 0.427255 12.2604 1.22995C13.5361 2.03265 14.5591 3.17939 15.2115 4.53806C15.8639 5.89673 16.1192 7.41207 15.9481 8.90952C15.7769 10.407 15.1862 11.8256 14.244 13.002C13.624 13.774 12 15 12 16.5V19C12 19.5304 11.7893 20.0391 11.4142 20.4142C11.0392 20.7893 10.5305 21 10 21H6.00002C5.46959 21 4.96088 20.7893 4.58581 20.4142C4.21073 20.0391 4.00002 19.5304 4.00002 19V16.5C4.00002 15 2.37502 13.774 1.75402 13ZM9.00002 8.004H11.5L7.00002 14.004V10.004H4.50002L9.00002 4V8.005V8.004Z" fill="#0E90D9"/>
</svg>
