<svg width="40" height="40" viewBox="0 0 40 40" fill="none" xmlns="http://www.w3.org/2000/svg">
<mask id="path-1-inside-1" fill="white">
<path d="M35 8C35.5523 8 36 8.44772 36 9C36 9.55229 35.5523 10 35 10L19 10C18.4477 10 18 9.55229 18 9C18 8.44772 18.4477 8 19 8L35 8Z"/>
</mask>
<path d="M35 8L35 10L35 8ZM36 9L34 9L36 9ZM35 10L35 12L35 10ZM19 10L19 8L19 10ZM18 9L16 9L18 9ZM19 8L19 6L19 8ZM35 10C34.4477 10 34 9.55228 34 9L38 9C38 7.34315 36.6569 6 35 6L35 10ZM34 9C34 8.44772 34.4477 8 35 8L35 12C36.6569 12 38 10.6569 38 9L34 9ZM35 8L19 8L19 12L35 12L35 8ZM19 8C19.5523 8 20 8.44772 20 9L16 9C16 10.6569 17.3431 12 19 12L19 8ZM20 9C20 9.55228 19.5523 10 19 10L19 6C17.3431 6 16 7.34315 16 9L20 9ZM19 10L35 10L35 6L19 6L19 10Z" fill="#546E7A" mask="url(#path-1-inside-1)"/>
<mask id="path-3-inside-2" fill="white">
<path d="M35 19C35.5523 19 36 19.4477 36 20C36 20.5523 35.5523 21 35 21L19 21C18.4477 21 18 20.5523 18 20C18 19.4477 18.4477 19 19 19L35 19Z"/>
</mask>
<path d="M35 19L35 21L35 19ZM36 20L34 20L36 20ZM35 21L35 23L35 21ZM19 21L19 19L19 21ZM18 20L16 20L18 20ZM19 19L19 17L19 19ZM35 21C34.4477 21 34 20.5523 34 20L38 20C38 18.3431 36.6569 17 35 17L35 21ZM34 20C34 19.4477 34.4477 19 35 19L35 23C36.6569 23 38 21.6569 38 20L34 20ZM35 19L19 19L19 23L35 23L35 19ZM19 19C19.5523 19 20 19.4477 20 20L16 20C16 21.6569 17.3431 23 19 23L19 19ZM20 20C20 20.5523 19.5523 21 19 21L19 17C17.3431 17 16 18.3431 16 20L20 20ZM19 21L35 21L35 17L19 17L19 21Z" fill="#546E7A" mask="url(#path-3-inside-2)"/>
<path d="M12 32V29H14.5V34H9V32H12Z" fill="#D4EDFB"/>
<mask id="path-6-inside-3" fill="white">
<path d="M35 31C35.5523 31 36 31.4477 36 32C36 32.5523 35.5523 33 35 33L19 33C18.4477 33 18 32.5523 18 32C18 31.4477 18.4477 31 19 31L35 31Z"/>
</mask>
<path d="M35 31L35 33L35 31ZM36 32L34 32L36 32ZM35 33L35 35L35 33ZM19 33L19 31L19 33ZM18 32L16 32L18 32ZM19 31L19 29L19 31ZM35 33C34.4477 33 34 32.5523 34 32L38 32C38 30.3431 36.6569 29 35 29L35 33ZM34 32C34 31.4477 34.4477 31 35 31L35 35C36.6569 35 38 33.6569 38 32L34 32ZM35 31L19 31L19 35L35 35L35 31ZM19 31C19.5523 31 20 31.4477 20 32L16 32C16 33.6569 17.3431 35 19 35L19 31ZM20 32C20 32.5523 19.5523 33 19 33L19 29C17.3431 29 16 30.3431 16 32L20 32ZM19 33L35 33L35 29L19 29L19 33Z" fill="#546E7A" mask="url(#path-6-inside-3)"/>
<path d="M15.5 9.00004C14.8333 7.1667 13.5 4.10004 13.5 6.50004C13.5 8.90003 10.5 10.1667 9 10.5L9.5 12H12.5L14.5 10.5L15.5 9.00004Z" fill="#D4EDFB"/>
<path fill-rule="evenodd" clip-rule="evenodd" d="M11.5 11C12.8807 11 14 9.88071 14 8.5C14 7.11929 12.8807 6 11.5 6C10.1193 6 9 7.11929 9 8.5C9 9.88071 10.1193 11 11.5 11ZM11.5 13C13.9853 13 16 10.9853 16 8.5C16 6.01472 13.9853 4 11.5 4C9.01472 4 7 6.01472 7 8.5C7 10.9853 9.01472 13 11.5 13Z" fill="#546E7A"/>
<path d="M10 23L12 19.5L12.5 19L15 23.5L10 23Z" fill="#D4EDFB"/>
<path fill-rule="evenodd" clip-rule="evenodd" d="M11.5 18L9.33492 21.75H13.665L11.5 18ZM12.366 15.5C11.9811 14.8333 11.0189 14.8333 10.634 15.5L6.73685 22.25C6.35195 22.9167 6.83307 23.75 7.60287 23.75H15.3971C16.1669 23.75 16.648 22.9167 16.2631 22.25L12.366 15.5Z" fill="#546E7A"/>
<path fill-rule="evenodd" clip-rule="evenodd" d="M9 29V34H14V29H9ZM8 27C7.44772 27 7 27.4477 7 28V35C7 35.5523 7.44772 36 8 36H15C15.5523 36 16 35.5523 16 35V28C16 27.4477 15.5523 27 15 27H8Z" fill="#546E7A"/>
</svg>
