<svg width="17" height="21" viewBox="0 0 17 21" fill="none" xmlns="http://www.w3.org/2000/svg">
<path d="M0.5 21C0.5 18.8783 1.34285 16.8434 2.84315 15.3431C4.34344 13.8429 6.37827 13 8.5 13C10.6217 13 12.6566 13.8429 14.1569 15.3431C15.6571 16.8434 16.5 18.8783 16.5 21H14.5C14.5 19.4087 13.8679 17.8826 12.7426 16.7574C11.6174 15.6321 10.0913 15 8.5 15C6.9087 15 5.38258 15.6321 4.25736 16.7574C3.13214 17.8826 2.5 19.4087 2.5 21H0.5ZM8.5 12C5.185 12 2.5 9.315 2.5 6C2.5 2.685 5.185 0 8.5 0C11.815 0 14.5 2.685 14.5 6C14.5 9.315 11.815 12 8.5 12ZM8.5 10C10.71 10 12.5 8.21 12.5 6C12.5 3.79 10.71 2 8.5 2C6.29 2 4.5 3.79 4.5 6C4.5 8.21 6.29 10 8.5 10Z" fill="#C1C2C3"/>
</svg>
