<svg width="150" height="150" viewBox="0 0 150 150" fill="none" xmlns="http://www.w3.org/2000/svg">
<path d="M55.0097 26.1023L103.143 36.6898C104.417 36.9701 105.22 38.2232 104.943 39.4845L89.8373 108.157C89.5599 109.418 88.3055 110.219 87.0312 109.939L38.8977 99.3512C37.6234 99.0709 36.8207 97.8178 37.0981 96.5566L52.2035 27.8838C52.481 26.6226 53.7354 25.822 55.0097 26.1023Z" fill="#E4E6EA" stroke="#D0D4DA"/>
<path d="M118.999 52V56" stroke="#BABABA" stroke-linecap="round" stroke-linejoin="round"/>
<path d="M116.999 54H120.999" stroke="#BABABA" stroke-linecap="round" stroke-linejoin="round"/>
<path d="M20.999 31V35" stroke="#BABABA" stroke-linecap="round" stroke-linejoin="round"/>
<path d="M18.999 33H22.999" stroke="#BABABA" stroke-linecap="round" stroke-linejoin="round"/>
<path d="M30.999 113C31.5513 113 31.999 112.552 31.999 112C31.999 111.448 31.5513 111 30.999 111C30.4467 111 29.999 111.448 29.999 112C29.999 112.552 30.4467 113 30.999 113Z" fill="#CFCFCF"/>
<path d="M90.9852 22H39.0128C37.3484 22 35.999 23.6077 35.999 25.5909V114.409C35.999 116.392 37.3484 118 39.0128 118H90.9852C92.6497 118 93.999 116.392 93.999 114.409V25.5909C93.999 23.6077 92.6497 22 90.9852 22Z" fill="#F2F3F5" stroke="#D0D4DA"/>
<path d="M74.999 8V12" stroke="#BABABA" stroke-linecap="round" stroke-linejoin="round"/>
<path d="M72.999 10H76.999" stroke="#BABABA" stroke-linecap="round" stroke-linejoin="round"/>
<path d="M119.999 83C120.551 83 120.999 82.5523 120.999 82C120.999 81.4477 120.551 81 119.999 81C119.447 81 118.999 81.4477 118.999 82C118.999 82.5523 119.447 83 119.999 83Z" fill="#CFCFCF"/>
<rect x="61.999" y="24" width="9" height="2" rx="1" fill="white"/>
<path d="M59.999 26C60.5513 26 60.999 25.5523 60.999 25C60.999 24.4477 60.5513 24 59.999 24C59.4467 24 58.999 24.4477 58.999 25C58.999 25.5523 59.4467 26 59.999 26Z" fill="white"/>
<path d="M106.759 10.9691C106.721 10.8199 106.859 10.6855 107.007 10.7271L110.241 11.636C110.389 11.6777 110.437 11.8642 110.327 11.9717L107.923 14.3183C107.812 14.4258 107.627 14.3737 107.589 14.2245L106.759 10.9691Z" fill="white"/>
<circle cx="24.499" cy="87.5" r="1.5" stroke="#BABABA" stroke-linecap="round" stroke-linejoin="round"/>
<rect x="39.499" y="28.5" width="51" height="86" rx="0.5" fill="white" stroke="#D0D4DA"/>
<path d="M65.4451 60.4385L66.2118 62.1416C66.9037 63.6786 66.4099 65.573 65.0107 66.7495C65.0107 66.7495 65.0107 66.7495 65.0107 66.7495C65.0106 66.7496 63.3136 68.1766 65.9031 71.2565C68.4921 74.3355 70.1891 72.9101 70.19 72.9094C70.19 72.9093 70.19 72.9094 70.19 72.9093C71.5892 71.7329 73.5403 71.5716 74.9356 72.5171L76.4818 73.5648C78.5889 74.9925 78.5832 78.1194 76.4704 79.8959C75.2008 80.9633 73.6905 81.7485 72.1023 81.6709C69.4286 81.5403 64.9608 80.4724 60.8115 75.5375C56.6622 70.6027 56.3772 66.0179 56.7075 63.3615C56.9037 61.7835 57.9365 60.4304 59.206 59.363C61.3189 57.5865 64.4003 58.1177 65.4451 60.4385Z" stroke="#D0D4DA" stroke-linecap="round"/>
<path d="M94.0092 89C90.251 88.998 86.5765 90.1106 83.4506 92.1971C80.3247 94.2836 77.8879 97.2503 76.4483 100.722C75.0086 104.194 74.6309 108.014 75.3629 111.7C76.0948 115.387 77.9036 118.773 80.5604 121.431C83.2172 124.09 86.6026 125.9 90.2886 126.634C93.9745 127.368 97.7953 126.992 101.268 125.555C104.74 124.117 107.708 121.682 109.796 118.557C111.884 115.432 112.999 111.758 112.999 108C112.999 102.963 110.999 98.1315 107.438 94.5686C103.877 91.0057 99.0466 89.0027 94.0092 89Z" fill="white" stroke="#D0D4DA" stroke-linecap="round" stroke-linejoin="round"/>
<path d="M101.999 100L93.999 108M93.999 108L85.999 116M93.999 108L101.999 116M93.999 108L85.999 100" stroke="#9BA2AE" stroke-width="2" stroke-linecap="round" stroke-linejoin="round"/>
<path d="M124.091 29.9353L124.308 24.1148L129.325 27.0754L124.091 29.9353Z" stroke="#BABABA"/>
</svg>
