<svg width="150" height="150" viewBox="0 0 150 150" fill="none" xmlns="http://www.w3.org/2000/svg">
<path d="M137.999 20V24" stroke="#BABABA" stroke-linecap="round" stroke-linejoin="round"/>
<path d="M135.999 22H139.999" stroke="#BABABA" stroke-linecap="round" stroke-linejoin="round"/>
<path d="M16.999 39V43" stroke="#BABABA" stroke-linecap="round" stroke-linejoin="round"/>
<path d="M14.999 41H18.999" stroke="#BABABA" stroke-linecap="round" stroke-linejoin="round"/>
<path d="M56.999 13C57.5513 13 57.999 12.5523 57.999 12C57.999 11.4477 57.5513 11 56.999 11C56.4467 11 55.999 11.4477 55.999 12C55.999 12.5523 56.4467 13 56.999 13Z" fill="#CFCFCF"/>
<path d="M129.999 72V76" stroke="#BABABA" stroke-linecap="round" stroke-linejoin="round"/>
<path d="M127.999 74H131.999" stroke="#BABABA" stroke-linecap="round" stroke-linejoin="round"/>
<path d="M130.999 96C131.551 96 131.999 95.5523 131.999 95C131.999 94.4477 131.551 94 130.999 94C130.447 94 129.999 94.4477 129.999 95C129.999 95.5523 130.447 96 130.999 96Z" fill="#CFCFCF"/>
<path d="M104.759 23.9691C104.721 23.8199 104.859 23.6855 105.007 23.7271L108.241 24.636C108.389 24.6777 108.437 24.8642 108.327 24.9717L105.923 27.3183C105.812 27.4258 105.627 27.3737 105.589 27.2245L104.759 23.9691Z" fill="white"/>
<circle cx="12.499" cy="97.5" r="1.5" stroke="#BABABA" stroke-linecap="round" stroke-linejoin="round"/>
<path d="M103.069 15.1248L105.531 9.84634L109.002 14.5236L103.069 15.1248Z" stroke="#BABABA"/>
<path d="M52.8442 37.5H119.154C121.029 37.5 122.499 38.9275 122.499 40.6283V130.372C122.499 132.072 121.029 133.5 119.154 133.5H52.8442C50.969 133.5 49.499 132.072 49.499 130.372V40.6283C49.499 38.9275 50.969 37.5 52.8442 37.5Z" fill="#D0D4DA" stroke="#D0D4DA"/>
<path d="M109.946 30H40.0521C37.8136 30 35.999 31.6244 35.999 33.6283V123.372C35.999 125.376 37.8136 127 40.0521 127H109.946C112.184 127 113.999 125.376 113.999 123.372V33.6283C113.999 31.6244 112.184 30 109.946 30Z" fill="white" stroke="#D0D4DA"/>
<path d="M35.999 37L113.999 37" stroke="#D0D4DA"/>
<rect x="49.499" y="27.5" width="10" height="5" rx="2.5" fill="#E4E6EA" stroke="#D0D4DA"/>
<rect x="89.499" y="27.5" width="10" height="5" rx="2.5" fill="#E4E6EA" stroke="#D0D4DA"/>
<path d="M115.009 102C111.251 101.998 107.576 103.111 104.451 105.197C101.325 107.284 98.8879 110.25 97.4483 113.722C96.0086 117.194 95.6309 121.014 96.3629 124.7C97.0948 128.387 98.9036 131.773 101.56 134.431C104.217 137.09 107.603 138.9 111.289 139.634C114.974 140.368 118.795 139.992 122.268 138.555C125.74 137.117 128.708 134.682 130.796 131.557C132.884 128.432 133.999 124.758 133.999 121C133.999 115.963 131.999 111.131 128.438 107.569C124.877 104.006 120.047 102.003 115.009 102Z" fill="white" stroke="#D0D4DA" stroke-linecap="round" stroke-linejoin="round"/>
<path d="M122.999 113L114.999 121M114.999 121L106.999 129M114.999 121L122.999 129M114.999 121L106.999 113" stroke="#9BA2AE" stroke-width="2" stroke-linecap="round" stroke-linejoin="round"/>
</svg>
