<svg width="61" height="62" viewBox="0 0 61 62" fill="none" xmlns="http://www.w3.org/2000/svg">
<rect x="0.571289" y="0.732422" width="60.3019" height="60.3019" rx="8.01887" fill="#F3F4F6"/>
<path d="M24.0554 26.2168L27.9781 28.5368C30.2648 29.8888 31.1781 29.8888 33.4661 28.5368L37.3888 26.2168" stroke="#313131" stroke-width="2" stroke-linecap="round" stroke-linejoin="round"/>
<path d="M17.4101 32.8516C17.4967 36.9382 17.5407 38.9822 19.0487 40.4956C20.5567 42.0102 22.6554 42.0622 26.8541 42.1676C29.4407 42.2342 32.0034 42.2342 34.5901 42.1676C38.7887 42.0622 40.8874 42.0102 42.3954 40.4956C43.9034 38.9822 43.9474 36.9382 44.0354 32.8516C44.0621 31.5369 44.0621 30.2302 44.0354 28.9156C43.9474 24.8289 43.9034 22.7849 42.3954 21.2716C40.8874 19.7569 38.7887 19.7049 34.5901 19.5996C32.0118 19.5345 29.4323 19.5345 26.8541 19.5996C22.6554 19.7049 20.5567 19.7569 19.0487 21.2716C17.5407 22.7849 17.4967 24.8289 17.4087 28.9156C17.3807 30.2274 17.382 31.5397 17.4101 32.8516Z" stroke="#313131" stroke-width="2" stroke-linecap="round" stroke-linejoin="round"/>
</svg>
