<svg width="62" height="61" viewBox="0 0 62 61" fill="none" xmlns="http://www.w3.org/2000/svg">
<rect x="0.571289" width="60.5714" height="60.5714" rx="8.09524" fill="#F3F4F6"/>
<path d="M31.0375 32.7449C29.7797 33.4606 26.4817 34.9226 28.4907 36.7526C29.4712 37.646 30.5637 38.2852 31.9371 38.2852H39.7758C41.1501 38.2852 42.2426 37.646 43.2232 36.7526C45.2322 34.9226 41.9342 33.4606 40.6763 32.7449C39.2165 31.9202 37.552 31.4852 35.8565 31.4852C34.161 31.4852 32.4974 31.9202 31.0375 32.7449ZM39.8576 25.1102C39.8576 26.1246 39.4362 27.0975 38.686 27.8148C37.9358 28.5322 36.9183 28.9352 35.8574 28.9352C34.7964 28.9352 33.779 28.5322 33.0288 27.8148C32.2786 27.0975 31.8571 26.1246 31.8571 25.1102C31.8571 24.0957 32.2786 23.1228 33.0288 22.4055C33.779 21.6881 34.7964 21.2852 35.8574 21.2852C36.9183 21.2852 37.9358 21.6881 38.686 22.4055C39.4362 23.1228 39.8576 24.0957 39.8576 25.1102Z" stroke="#313131" stroke-width="2" stroke-linecap="round" stroke-linejoin="round"/>
<path d="M28.9998 34.0708L26.6944 33.1212C24.6236 32.6026 22.4403 32.9432 20.6065 34.0708C19.5191 34.7444 16.6681 36.1204 18.4048 37.8428C19.2525 38.6836 20.1969 39.2852 21.3842 39.2852H25.9259H30.3569L30.8569 38.2852M28.9998 26.8852C28.9998 27.8399 28.6355 28.7556 27.9869 29.4307C27.3384 30.1059 26.4588 30.4852 25.5417 30.4852C24.6245 30.4852 23.7449 30.1059 23.0964 29.4307C22.4479 28.7556 22.0835 27.8399 22.0835 26.8852C22.0835 25.9304 22.4479 25.0147 23.0964 24.3396C23.7449 23.6644 24.6245 23.2852 25.5417 23.2852C26.4588 23.2852 27.3384 23.6644 27.9869 24.3396C28.6355 25.0147 28.9998 25.9304 28.9998 26.8852Z" stroke="#313131" stroke-width="2" stroke-linecap="round" stroke-linejoin="round"/>
</svg>
