<?xml version="1.0" standalone="no"?>
<!DOCTYPE svg PUBLIC "-//W3C//DTD SVG 1.1//EN" "http://www.w3.org/Graphics/SVG/1.1/DTD/svg11.dtd" >
<svg xmlns="http://www.w3.org/2000/svg">
<metadata>Generated by IcoMoon</metadata>
<defs>
<font id="icomoon" horiz-adv-x="1024">
<font-face units-per-em="1024" ascent="960" descent="-64" />
<missing-glyph horiz-adv-x="1024" />
<glyph unicode="&#x20;" horiz-adv-x="512" d="" />
<glyph unicode="&#xe900;" glyph-name="notification" d="M610.581 810.422c0-15.402-3.87-29.9-10.697-42.573 84.796-24.778 154.889-88.547 186.189-174.447l81.643-224.041c32.192-116.719-55.62-232.026-176.695-232.026h-48.606c0-67.243-54.507-121.754-121.749-121.754-67.238 0-121.749 54.511-121.749 121.754h-48.603c-121.077 0-208.887 115.307-176.693 232.026l81.641 224.041c31.303 85.903 101.398 149.672 186.198 174.449-6.827 12.672-10.701 27.169-10.701 42.571 0 49.657 40.256 89.911 89.911 89.911 49.66 0 89.911-40.255 89.911-89.911zM520.67 784.51c14.31 0 25.911 11.601 25.911 25.911s-11.601 25.911-25.911 25.911c-14.31 0-25.911-11.601-25.911-25.911s11.601-25.911 25.911-25.911zM462.916 137.335c0-31.898 25.856-57.754 57.749-57.754 31.898 0 57.749 25.856 57.749 57.754h-115.499zM234.724 350.118c-19.241-75.2 37.559-148.783 115.59-148.783h340.707c78.029 0 134.831 73.583 115.588 148.783l-80.666 221.372c-31.437 86.269-113.459 143.677-205.278 143.677-91.814 0-173.836-57.408-205.272-143.677l-80.669-221.372z" />
<glyph unicode="&#xe901;" glyph-name="configuration" d="M732.954 860.808c-11.153 1.988-27.345 2.108-54.716 2.108-52.070 0-89.045-0.029-117.905-2.565-28.437-2.499-45.935-7.242-59.712-14.902-22.613-12.57-41.259-31.216-53.828-53.829-7.637-13.741-12.395-31.348-14.899-60.121-2.539-29.161-2.569-66.583-2.569-119.223 0-43.802 0.013-77.185 1.515-104.237 2.103-37.833 7.006-59.017 15.953-75.106 12.57-22.613 31.215-41.259 53.828-53.828 13.269-7.377 30.012-12.058 56.674-14.622 29.205-2.812 66.935-2.846 120.943-2.846 52.066 0 89.041 0.030 117.901 2.564 28.437 2.5 45.935 7.245 59.712 14.903 22.613 12.57 41.259 31.215 53.833 53.828 7.637 13.743 12.395 31.347 14.899 60.122 2.539 29.158 2.564 66.583 2.564 119.222 0 19.195-0.051 30.732-1.054 39.081-0.576 4.812-1.297 6.772-1.583 7.363-1.711 1.904-6.054 3.717-8.653 3.625-0.653-0.241-2.667-1.195-6.677-4.373-6.908-5.468-15.497-13.987-29.53-28.017l-21.747-21.749c-48.947-48.946-128.303-48.946-177.25 0s-48.947 128.304 0 177.25l18.778 18.776c20.062 20.065 32.060 32.222 38.959 41.989 3.162 4.473 4.062 6.87 4.309 7.773l0.013 0.052c0.102 0.362 0.102 0.369-0.013 0.823-0.004 0.015-0.043 0.168-0.137 0.445-0.098 0.289-0.23 0.633-0.38 1.001-0.154 0.369-0.307 0.702-0.439 0.976-0.141 0.282-0.222 0.419-0.218 0.413-0.341 0.57-0.435 0.625-0.67 0.759-0.021 0.012-0.038 0.023-0.064 0.036-0.683 0.401-2.795 1.406-7.838 2.306zM744.183 923.815c19.964-3.558 39.706-12.163 52.331-33.362 3.511-5.9 6.537-13.2 8.222-19.855 6.161-24.291-2.295-44.629-14.071-61.299-10.458-14.809-26.522-30.868-44.16-48.5-0.606-0.605-1.212-1.211-1.822-1.82l-18.773-18.776c-23.953-23.953-23.953-62.787 0-86.74s62.784-23.952 86.737 0l22.95 22.947c12.446 12.448 23.676 23.68 33.852 31.738 10.914 8.643 24.247 16.672 41.237 17.995 22.993 1.789 47.539-8.378 62.528-25.9 10.948-12.794 14.784-27.558 16.427-41.274 1.51-12.618 1.51-28.060 1.506-44.987v-3.216c0-50.791 0-91-2.807-123.26-2.867-32.969-8.862-60.732-22.72-85.666-18.372-33.050-45.623-60.301-78.673-78.673-24.892-13.837-52.48-19.84-85.205-22.716-31.987-2.812-71.774-2.812-121.984-2.812h-3.217c-44.134 0-80.243 0-110.118 1.929l-241.583-241.583c-57.919-57.92-151.824-57.92-209.743 0s-57.919 151.825 0 209.745l251.185 251.183c-0.955 26.056-0.955 56.588-0.955 92.489v2.388c0 50.791 0 90.999 2.807 123.261 2.87 32.969 8.861 60.733 22.72 85.665 18.371 33.050 45.623 60.301 78.673 78.673 24.892 13.838 52.48 19.842 85.21 22.718 31.983 2.81 71.774 2.81 121.98 2.81h1.523c0.866 0 1.728 0 2.59 0 23.881 0.004 45.909 0.008 63.356-3.101zM376.239 438.362l-215.888-215.889c-32.925-32.926-32.925-86.306 0-119.232s86.308-32.926 119.233 0l210.452 210.449c-7.057 2.662-13.879 5.794-20.51 9.476-33.050 18.372-60.301 45.623-78.673 78.673-6.375 11.469-11.096 23.565-14.614 36.523z" />
<glyph unicode="&#xe902;" glyph-name="note" d="M597.333 906.667c81.609 0 148.941-61.092 158.767-140.036 3.076-0.999 6.135-2.1 9.186-3.307 18.415-7.297 35.661-17.254 51.187-29.554 28.403-22.499 46.34-52.885 61.316-91.316 14.596-37.472 27.614-86.045 44.041-147.354l11.682-43.601c16.427-61.303 29.444-109.888 35.537-149.641 6.251-40.768 5.905-76.053-7.441-109.739-7.296-18.415-17.254-35.661-29.555-51.187-22.498-28.403-52.885-46.345-91.315-61.316-37.474-14.601-86.050-27.614-147.358-44.041l-3.733-1.003c-61.312-16.427-109.884-29.444-149.636-35.537-40.772-6.251-76.058-5.905-109.743 7.441-18.415 7.3-35.661 17.254-51.188 29.555-28.402 22.498-46.342 52.885-61.315 91.315-3.923 10.074-7.732 20.945-11.524 32.653-49.319 0.009-81.63 0.401-109.070 8.725-64.773 19.648-115.46 70.336-135.109 135.108-8.747 28.838-8.739 63.053-8.727 116.732l0.001 136.188c0 68.363-0.001 122.522 5.064 165.369 5.2 43.988 16.115 80.199 40.94 110.448 8.422 10.262 17.831 19.671 28.093 28.093 30.249 24.824 66.46 35.74 110.448 40.94 42.847 5.065 97.006 5.064 165.369 5.064h194.085zM597.333 842.667h-191.998c-70.917 0-121.291-0.052-159.943-4.621-37.946-4.486-60.403-12.94-77.359-26.855-7.021-5.762-13.459-12.2-19.221-19.221-13.915-16.956-22.369-39.413-26.855-77.359-4.569-38.652-4.621-89.027-4.621-159.943v-128c0-61.871 0.347-85.713 5.971-104.252 13.443-44.318 48.125-79.002 92.443-92.446 14.859-4.506 33.126-5.623 71.654-5.888-4.351 15.808-8.869 32.674-13.68 50.624l-11.682 43.601c-16.428 61.308-29.444 109.884-35.537 149.636-6.249 40.768-5.905 76.054 7.442 109.74 7.297 18.415 17.254 35.662 29.554 51.188 22.499 28.402 52.884 46.342 91.316 61.315 37.473 14.599 86.051 27.615 147.358 44.042l3.733 1.001c61.312 16.428 109.884 29.444 149.636 35.537 11.665 1.788 22.878 3.036 33.737 3.594-11.887 39.518-48.555 68.306-91.947 68.306zM378.049 630.552c-33.227-12.945-51.819-25.561-64.383-41.422-8.416-10.624-15.229-22.423-20.221-35.024-7.453-18.811-9.084-41.219-3.681-76.466 5.497-35.861 17.556-81.045 34.596-144.636l10.682-39.868c17.040-63.59 29.187-108.749 42.357-142.554 12.945-33.229 25.561-51.819 41.422-64.384 10.624-8.414 22.425-15.228 35.025-20.22 18.812-7.454 41.22-9.084 76.467-3.682 35.861 5.495 81.041 17.557 144.636 34.594l19.341 5.188c1.69 26.594 4.066 56.107 8.802 84.826 5.589 33.903 14.844 69.214 31.915 98.556 17.536 30.148 44.109 55.1 83.14 64.094 22.967 5.291 48.341 4.599 76.233-1.869-6.076 25.207-13.888 54.421-23.185 89.114l-10.684 39.863c-17.037 63.594-29.184 108.752-42.355 142.557-12.945 33.227-25.562 51.819-41.421 64.383-10.624 8.416-22.426 15.229-35.025 20.221-18.812 7.453-41.22 9.083-76.467 3.681-35.861-5.497-81.041-17.556-144.636-34.596s-108.752-29.187-142.557-42.357zM832.516 287.189c-17.856-4.113-31.287-15.164-42.193-33.911-11.375-19.55-19.012-46.020-24.085-76.787-3.034-18.398-5.022-37.431-6.511-56.29 22.443 6.558 41.438 12.685 57.779 19.051 33.225 12.945 51.819 25.562 64.38 41.421 8.418 10.624 15.228 22.426 20.224 35.025 6.306 15.919 8.444 34.415 5.675 61.090-34.807 13.022-58.867 14.182-75.268 10.402z" />
<glyph unicode="&#xe903;" glyph-name="edit" d="M539.733 149.338c0 17.673 14.327 32 32 32h238.929c17.673 0 32-14.327 32-32s-14.327-32-32-32h-238.929c-17.673 0-32 14.327-32 32zM773.559 455.223c-8.593-8.597-20.864-11.281-31.753-8.051l-249.51-240.32c-40.239-38.788-66.999-64.585-101.009-77.879-27.651-10.812-56.169-12.028-93.311-11.563-4.741 0.060-10.086-0.119-16.511-0.367l-1.532-0.060c-5.792-0.222-12.343-0.478-18.905-0.516-13.804-0.081-31.372 0.678-47.68 6.528-14.615 5.239-25.364 16.559-29.687 31.59-5.436 18.897-4.138 39.475-2.297 55.351 0.941 8.107 2.187 16.132 3.279 23.159l0.088 0.563c1.159 7.462 2.097 13.585 2.654 18.906 2.713 25.967 6.369 46.857 15.197 67.238 12.61 29.107 34.147 52.425 66.593 87.556l244.34 264.692c-6.327 12.071-4.42 27.334 5.726 37.479 9.506 9.508 23.509 11.782 35.166 6.823 18.637 20.209 32.597 35.264 48.307 44.637 18.782 11.238 40.196 17.33 62.084 17.661 21.879 0.331 43.46-5.106 62.575-15.766 16.183-9.002 30.75-23.888 50.304-43.872l6.737-6.88c19.678-20.092 34.266-34.986 43.008-51.455 10.3-19.376 15.535-41.041 15.223-62.982s-6.17-43.465-17.015-62.542c-9.101-15.984-23.829-30.252-43.699-49.35 2.709-10.59-0.081-22.293-8.371-30.583zM693.769 489.758l-135.945 135.939-237.673-257.475c-37.621-40.755-51.049-55.872-58.842-73.86-4.899-11.307-7.76-24.422-10.271-48.448-0.748-7.159-1.946-14.865-3.041-21.922l-0.032-0.205c-1.146-7.381-2.23-14.357-3.027-21.227-1.015-8.751-1.344-15.782-1.074-21.286 4.484-0.572 10.017-0.845 16.788-0.806 5.459 0.034 10.99 0.247 16.977 0.478l1.376 0.051c6.25 0.243 13.163 0.495 19.775 0.41 36.818-0.461 54.192 1.301 69.199 7.172 20.62 8.060 37.876 23.876 84.516 68.8l241.271 232.38zM748.023 657.731c-16.96 18.565-35.358 36.416-45.052 45.363-14.81 10.368-50.099 24.884-72.764 0l-3.959-4.343c-5.367-5.006-12.804-12.839-24.977-25.992l138.364-139.102 5.431 5.556c9.122 8.886 14.874 14.723 18.743 19.174l0.819 0.841c0.303 0.391 0.614 0.8 0.926 1.225 1.958 2.401 3.341 4.409 4.459 6.37 1.826 3.216 3.375 6.566 4.634 10.013 6.447 15.582 9.417 36.323-3.772 53.871-3.055 5.727-8.311 11.937-22.852 27.025z" />
<glyph unicode="&#xe904;" glyph-name="calender" d="M341.347 429.918c-17.673 0-32-14.327-32-32s14.327-32 32-32h0.384c17.673 0 32 14.327 32 32s-14.327 32-32 32h-0.384zM469.346 429.918c-17.673 0-32-14.327-32-32s14.327-32 32-32h213.333c17.673 0 32 14.327 32 32s-14.327 32-32 32h-213.333zM309.347 227.251c0 17.673 14.327 32 32 32h213.332c17.673 0 32-14.327 32-32s-14.327-32-32-32h-213.332c-17.673 0-32 14.327-32 32zM682.295 259.251c-17.673 0-32-14.327-32-32s14.327-32 32-32h0.384c17.673 0 32 14.327 32 32s-14.327 32-32 32h-0.384zM800.004 874.5c0 17.673-14.327 32-32 32s-32-14.327-32-32v-15.444c-48.435 4.945-108.198 4.945-181.227 4.945h-85.764c-72.856 0-132.548 0.001-181.010-4.943v15.241c0 17.673-14.327 32-32 32s-32-14.327-32-32v-26.708c-32.727-9.27-60.636-24.087-84.112-48.125-2.624-2.687-5.184-5.481-7.633-8.333-27.805-32.372-41.642-72.101-48.921-120.459-6.458-42.897-8.081-95.123-8.51-158.588v-170.825c0.44-65.267 2.144-118.686 9.088-162.325 7.831-49.216 22.775-89.242 52.687-121.566 33.516-36.241 76.43-52.676 130.126-60.48 51.975-7.556 118.377-7.556 202.152-7.556h86.246c83.776 0 150.178 0 202.15 7.548 53.696 7.799 96.619 24.23 130.138 60.454 29.905 32.346 44.847 72.375 52.681 121.596 6.899 43.375 8.623 96.405 9.079 161.118l-0.265 198.914c-0.717 50.518-2.641 93.311-7.915 129.505-6.972 47.852-20.19 87.372-46.801 119.718-0.444 0.541-0.909 1.066-1.387 1.576l-13.039 13.884c-0.486 0.517-0.99 1.018-1.506 1.502-22.272 20.758-48.282 33.937-78.259 42.434v26.918zM736.004 794.681v-5.947c0-17.673 14.327-32 32-32 14.822 0 27.29 10.076 30.925 23.752 14.097-5.625 25.37-12.7 34.965-21.48l11.499-12.243c14.379-17.795 24.132-41.029 30.315-75.429h-727.407c6.481 36.073 16.891 59.918 32.506 78.097 1.565 1.822 3.203 3.61 4.87 5.318 10.588 10.841 23.17 19.291 39.474 25.783 3.732-13.534 16.131-23.473 30.851-23.473 17.673 0 32 14.327 32 32v5.627c45.327 5.252 103.844 5.315 183.468 5.315h81.067c79.531 0 138.052-0.057 183.467-5.319zM138.722 489.775c0.142 46.141 0.694 84.754 2.625 117.559h741.315c1.041-17.692 1.681-37.069 2.074-58.401l0.55-59.209c0-48.371 0.218-96.747-0.085-145.122-0.418-66.556-2.082-116.454-8.311-155.614-6.694-42.074-18.197-68.442-36.459-88.192-19.9-21.504-46.703-33.946-92.356-40.58-46.839-6.801-108.587-6.882-195.537-6.882h-81.067c-86.949 0-148.695 0.081-195.535 6.886-45.648 6.639-72.458 19.093-92.359 40.619-18.255 19.725-29.762 46.080-36.457 88.154-6.809 42.79-8.164 98.411-8.399 174.596v126.187z" />
<glyph unicode="&#xe905;" glyph-name="delete" d="M511.787 821.333c-16.525 0.001-31.066 0.002-43.238-1.137-13.141-1.23-25.924-3.945-38.413-10.761l-0.111-0.061c-4.791-2.638-9.35-5.673-13.634-9.071-11.113-8.762-18.697-19.443-25.131-31.033-6.002-10.814-11.991-24.319-18.857-39.805l-12.216-27.599h-96.796c-0.166 0.001-0.333 0.001-0.5 0h-49.557c-17.673 0-32-14.327-32-32s14.327-32 32-32h19.605l18.407-312.905c2.487-42.62 4.484-76.821 8.672-104.218 4.3-28.117 11.303-52.194 25.702-73.468 12.99-19.204 29.774-35.482 49.32-47.748 21.777-13.662 45.904-19.469 73.694-22.212 26.875-2.65 60.172-2.65 101.41-2.65h3.315c41.169 0 74.415 0 101.252 2.645 27.738 2.739 51.827 8.533 73.566 22.17 19.537 12.241 36.314 28.484 49.31 47.65 14.426 21.252 21.453 45.308 25.788 73.391 4.207 27.264 6.246 61.286 8.785 103.65l18.863 313.694h19.644c17.673 0 32 14.327 32 32s-14.327 32-32 32h-49.553c-0.171 0.001-0.341 0.001-0.512 0h-93.734l-14.609 31.020c-7.031 14.915-13.167 27.922-19.238 38.333-6.537 11.209-14.153 21.504-25.135 29.94l-0.034 0.026c-4.262 3.266-8.789 6.178-13.53 8.704-12.271 6.554-24.789 9.166-37.636 10.349-11.904 1.096-26.108 1.096-42.24 1.095h-2.658zM380.287 637.867c0.477-0.011 0.953-0.011 1.428 0h264.177c0.465-0.010 0.926-0.010 1.391 0h79.625l-18.534-308.267c-2.658-44.314-4.553-75.354-8.252-99.324-3.622-23.492-8.576-37.018-15.488-47.202-8.068-11.9-18.419-21.892-30.336-29.359-10.010-6.281-23.104-10.466-45.871-12.71-23.326-2.304-53.41-2.338-96.627-2.338-43.281 0-73.417 0.034-96.782 2.342-22.807 2.249-35.913 6.426-45.961 12.732-11.921 7.479-22.264 17.476-30.327 29.393-6.902 10.197-11.849 23.757-15.447 47.287-3.67 24-5.526 55.091-8.116 99.465l-18.118 307.981h83.238zM596.126 701.867h-165.952l0.175 0.39c7.561 17.047 12.416 27.933 16.87 35.953 4.173 7.522 6.814 10.273 8.811 11.845l0.111 0.087c1.489 1.184 3.063 2.234 4.702 3.141 2.15 1.164 5.534 2.429 13.67 3.19 8.836 0.827 20.352 0.859 38.613 0.859 17.839 0 29.069-0.031 37.692-0.825 7.991-0.736 11.277-1.962 13.363-3.077l0.043-0.023c1.63-0.868 3.2-1.876 4.689-3.016 1.993-1.532 4.612-4.196 8.823-11.418 4.51-7.732 9.476-18.207 17.246-34.682l1.143-2.426zM380.445 457.045c0 17.673 14.327 32 32 32h199.11c17.673 0 32-14.327 32-32s-14.327-32-32-32h-199.11c-17.673 0-32 14.327-32 32zM430.221 323.277c0 17.673 14.327 32 32 32h99.558c17.673 0 32-14.327 32-32s-14.327-32-32-32h-99.558c-17.673 0-32 14.327-32 32z" />
<glyph unicode="&#xe906;" glyph-name="more" d="M458.662 704c0 29.455 23.876 53.333 53.333 53.333h0.384c29.453 0 53.333-23.878 53.333-53.333s-23.881-53.333-53.333-53.333h-0.384c-29.457 0-53.333 23.878-53.333 53.333zM458.321 448c0 29.457 23.876 53.333 53.333 53.333h0.384c29.453 0 53.333-23.876 53.333-53.333s-23.881-53.333-53.333-53.333h-0.384c-29.457 0-53.333 23.876-53.333 53.333zM457.98 192c0 29.457 23.876 53.333 53.333 53.333h0.427c29.453 0 53.333-23.876 53.333-53.333s-23.881-53.333-53.333-53.333h-0.427c-29.457 0-53.333 23.876-53.333 53.333z" />
<glyph unicode="&#xe907;" glyph-name="checkbox-multiple" horiz-adv-x="1067" d="M824.896 832h-597.333c-46.933 0-85.333-38.4-85.333-85.333v-597.333c0-46.933 38.4-85.333 85.333-85.333h597.333c46.933 0 85.333 38.4 85.333 85.333v597.333c0 46.933-38.4 85.333-85.333 85.333zM739.563 405.333h-426.667v85.333h426.667v-85.333z" />
<glyph unicode="&#xe908;" glyph-name="checkbox-select" d="M810.667 832h-597.333c-47.36 0-85.333-38.4-85.333-85.333v-597.333c0-46.933 37.973-85.333 85.333-85.333h597.333c47.36 0 85.333 38.4 85.333 85.333v597.333c0 46.933-37.973 85.333-85.333 85.333zM426.667 234.667l-213.333 213.333 60.16 60.16 153.173-152.747 323.84 323.84 60.16-60.587-384-384z" />
<glyph unicode="&#xe909;" glyph-name="checkbox-outline" d="M810.667 746.667v-597.333h-597.333v597.333h597.333zM810.667 832h-597.333c-46.933 0-85.333-38.4-85.333-85.333v-597.333c0-46.933 38.4-85.333 85.333-85.333h597.333c46.933 0 85.333 38.4 85.333 85.333v597.333c0 46.933-38.4 85.333-85.333 85.333z" />
<glyph unicode="&#xe90a;" glyph-name="message" d="M419.788 882.378c62.239 3.994 124.669 3.94 186.902-0.161 194.871-12.994 349.5-170.211 362.202-366.893 2.347-36.77 2.351-74.85 0-111.62-12.659-196.092-166.323-353.067-360.354-366.831-0.597-0.073-1.199-0.132-1.809-0.171-62.323-4.105-127.262-4.105-189.465 0l-0.044 0.004c-24.041 1.617-50.28 7.305-73.373 16.836-10.171 4.169-17.076 6.997-22.14 8.849-3.453-2.377-8.047-5.756-14.714-10.692l-0.047-0.034c-33.392-24.619-75.461-41.967-134.942-40.964-1.301 0.021-2.629 0.051-3.783 0.081l-0.932 0.021c-10.921 0.265-22.559 0.546-32.28 2.261-10.369 1.83-24.276 6.187-34.467 19.157-2.954 3.759-5.698 8.393-7.575 13.747-5.64 16.081-1.159 31.138 2.476 40.627 3.754 9.796 9.741 21.171 15.886 32.849l1.745 3.315c19.28 36.932 24.692 67.209 14.512 87.433 0 0-0.084 0.162-0.323 0.555-0.273 0.448-0.623 0.99-1.191 1.856-35.020 53.248-66.278 118.639-70.963 191.027l-0.003 0.051c-2.345 37.15-2.345 74.406 0 111.552l0.003 0.047c12.622 195.448 165.309 351.952 358.422 366.666l0.237 0.018 6.023 0.413zM600.794 100.45c0.555 0.068 1.114 0.119 1.677 0.154 162.138 10.735 291.878 141.841 302.554 307.2 2.176 34.048 2.176 69.372 0 103.42-10.688 165.287-140.403 296.314-302.554 307.133-59.439 3.916-119.070 3.969-178.512 0.158l-5.684-0.391c-160.614-12.296-288.684-142.71-299.3-306.942-2.173-34.449-2.173-68.996 0-103.441 3.689-56.892 28.638-111.42 60.567-159.97 1.195-1.818 3.316-5.043 5.204-8.794 25.289-50.227 5.609-106.47-14.939-145.83l-1.544-2.94c-3.22-6.118-5.807-11.072-7.869-15.185 2.598-0.090 5.474-0.162 8.71-0.243l0.735-0.017c1.16-0.026 2.203-0.051 3.242-0.073 44.641-0.751 73.123 11.712 95.874 28.48 0.004 0.004-0.005-0.004 0 0l0.347 0.256c7.561 5.598 14.4 10.658 20.063 14.327 4.841 3.132 13.66 8.627 24.379 9.95 11.244 1.382 22.172-2.453 27.579-4.352 6.857-2.411 15.558-5.978 25.589-10.095l1.314-0.538c16.141-6.669 35.524-10.957 53.272-12.156 58.814-3.878 120.301-3.917 179.296-0.111zM330.665 554.649c0 17.673 14.327 32 32 32h149.335c17.673 0 32-14.327 32-32s-14.327-31.999-32-31.999h-149.335c-17.673 0-32 14.326-32 31.999zM330.665 341.316c0 17.673 14.327 32 32 32h298.668c17.673 0 32-14.327 32-32s-14.327-32-32-32h-298.668c-17.673 0-32 14.327-32 32z" />
<glyph unicode="&#xe90b;" glyph-name="video" d="M490.667 650.667c-53.018 0-96-42.981-96-96 0-53.018 42.982-96 96-96s96 42.982 96 96c0 53.019-42.982 96-96 96zM458.667 554.667c0 17.673 14.327 32 32 32s32-14.327 32-32c0-17.673-14.327-32-32-32s-32 14.327-32 32zM429.043 821.333h-47.421c-68.381 0.001-122.953 0.001-165.751-5.752-44.214-5.943-80.627-18.55-109.431-47.354s-41.411-65.217-47.354-109.431c-5.753-42.799-5.753-97.37-5.752-165.753v-90.086c-0.001-68.382-0.001-122.953 5.752-165.751 5.943-44.215 18.55-80.627 47.354-109.431s65.217-41.412 109.431-47.356c42.799-5.751 97.37-5.751 165.751-5.751h47.426c68.378 0 122.948 0 165.747 5.751 44.215 5.943 80.627 18.551 109.431 47.356 31.437 31.433 43.891 72.427 49.084 123.883 25.417-20.489 47.561-37.325 66.957-49.037 29.193-17.63 62.669-30.157 96.337-13.483 33.233 16.461 44.386 50.479 49.216 84.638 4.851 34.304 4.847 80.845 4.847 138.15v72.149c0 57.306 0.004 103.846-4.847 138.15-4.83 34.159-15.983 68.177-49.216 84.638-24.175 11.991-49.536 9.133-70.545 2.013-20.966-7.104-41.229-19.584-58.982-32.592-11.695-8.568-23.343-18.209-34.21-27.721-5.449 49.487-18.069 89.096-48.64 119.665-28.804 28.804-65.216 41.411-109.431 47.354-42.799 5.753-97.37 5.753-165.751 5.752zM151.694 722.973c14.929 14.929 35.583 24.189 72.703 29.179 38.039 5.114 88.299 5.181 159.603 5.181h42.667c71.305 0 121.566-0.068 159.603-5.181 37.12-4.99 57.775-14.25 72.704-29.179 23.228-23.231 31.902-59.209 33.792-144.505 0.567-25.538 0.567-54.465 0.567-87.801v-85.333c0-33.425 0-62.421-0.572-88.009-1.899-85.15-10.581-121.088-33.788-144.299-14.929-14.929-35.584-24.188-72.704-29.18-38.037-5.111-88.299-5.18-159.603-5.18h-42.667c-71.305 0-121.564 0.068-159.603 5.18-37.12 4.992-57.773 14.251-72.703 29.18s-24.189 35.584-29.179 72.704c-5.114 38.037-5.181 88.299-5.181 159.603v85.333c0 71.305 0.068 121.564 5.181 159.603 4.99 37.12 14.25 57.773 29.179 72.703zM853.355 257.404c-23.522 14.204-53.534 38.63-96.333 73.924 0.311 22.374 0.311 46.929 0.311 73.732v85.879c0 27.068 0 51.834-0.32 74.38 2.748 2.57 5.594 5.256 8.529 8.030 16.943 15.994 36.992 34.92 59.358 51.308 15.437 11.309 29.628 19.514 41.694 23.603 12.015 4.070 18.283 2.9 21.602 1.251 3.034-1.502 10.014-6.289 14.251-36.248 4.143-29.275 4.22-71.238 4.22-131.898v-66.731c0-60.659-0.077-102.622-4.22-131.9-4.237-29.956-11.217-34.743-14.251-36.245-2.598-1.289-9.826-4.194-34.842 10.914z" />
<glyph unicode="&#xe90c;" glyph-name="attachment" d="M358.512 714.667c-30.017 0-58.804-11.924-80.029-33.149s-33.149-50.013-33.149-80.029c0-30.017 11.924-58.804 33.149-80.029l51.294-51.328c12.493-12.501 12.486-32.764-0.015-45.257s-32.762-12.484-45.255 0.017l-51.279 51.311c-33.228 33.229-51.895 78.294-51.895 125.285s18.667 92.057 51.895 125.284c33.228 33.228 78.294 51.895 125.284 51.895s92.056-18.667 125.285-51.895l308.173-308.174c32.7-33.335 50.918-78.234 50.697-124.932-0.226-46.694-18.876-91.418-51.895-124.437s-77.743-51.669-124.437-51.895c-46.699-0.222-91.597 17.997-124.932 50.701l-0.222 0.218-115.924 115.968c-22.244 23.168-34.519 54.135-34.192 86.255 0.328 32.115 13.232 62.827 35.945 85.538 22.711 22.711 53.419 35.614 85.538 35.942s63.083-11.947 86.255-34.189l0.465-0.457 64.149-64.154c12.497-12.497 12.497-32.755 0-45.252-12.493-12.497-32.755-12.497-45.252 0l-63.893 63.893c-11.068 10.517-25.796 16.32-41.071 16.162-15.369-0.158-30.067-6.332-40.939-17.203-10.867-10.867-17.045-25.566-17.199-40.934-0.158-15.275 5.645-30.007 16.162-41.071l115.098-115.132c21.286-20.826 49.92-32.427 79.701-32.286 29.833 0.145 58.398 12.058 79.492 33.152s33.007 49.66 33.152 79.492c0.141 29.781-11.46 58.415-32.286 79.701l-307.84 307.838c-21.224 21.225-50.012 33.149-80.029 33.149z" />
<glyph unicode="&#xe90d;" glyph-name="sent" d="M840.41 883.918c-31.39 3.027-68.988 1.017-109.461-4.291-81.182-10.645-179.255-35.289-273.468-65.612-94.27-30.342-186.162-66.848-254.978-101.822-34.249-17.406-63.953-35.018-85.547-51.933-10.752-8.423-20.564-17.496-27.945-27.153-7.037-9.208-14.444-22.324-14.343-38.123 0.267-41.473 28.509-70.78 58.586-90.454 30.701-20.079 70.686-35.209 110.435-47.061 40.176-11.977 82.425-21.261 118.745-28.787 8.736-1.809 17.048-3.503 24.844-5.094 21.037-4.288 38.486-7.842 51.455-11.063 5.982-1.485 10.94-2.906 15.198-4.245 15.91-5.005 21.641-8.913 24.849-12.369 3.806-4.1 8.060-11.895 13.103-34.871 23.509-106.901 41.762-189.85 61.18-246.106 9.685-28.053 20.578-52.335 34.368-70.242 13.372-17.365 31.228-30.801 54.383-33.523l12.395-0.235c12.911 1.284 23.714 7.441 31.492 13.214 9.647 7.159 18.714 16.768 27.123 27.268 16.905 21.107 34.658 50.321 52.322 84.075 35.499 67.84 73.092 158.797 104.896 252.369 31.791 93.538 58.287 191.101 71.049 272.187 6.366 40.439 9.515 77.994 7.77 109.451-1.66 29.831-8.013 61.169-27.358 82.012-19.947 21.482-51.217 29.529-81.092 32.41zM156.422 609.877c16.884 13.226 42.421 28.665 75.077 45.261 64.991 33.030 153.558 68.334 245.591 97.955 92.092 29.64 186.167 53.11 262.178 63.077 38.118 4.998 70.374 6.418 94.997 4.044 26.138-2.521 37.043-8.708 40.333-12.25 3.315-3.573 8.87-15.262 10.359-42.019 1.395-25.131-1.071-57.725-7.087-95.949-12.002-76.238-37.325-170.048-68.425-261.543-31.083-91.452-67.456-179.179-101.005-243.29-16.862-32.222-32.405-57.297-45.577-73.745-9.301-12.689-20.361-10.406-24.73-7.68-7.403 9.617-15.599 26.069-24.576 52.075-17.903 51.861-35.277 130.317-59.166 238.959-2.842 12.945-6.14 25.31-10.982 36.668l138.748 118.929c13.419 11.503 14.976 31.705 3.473 45.123s-31.701 14.973-45.12 3.471l-140.437-120.372c-11.166 5.803-23.454 9.907-36.292 13.517-15.834 4.446-39.493 9.263-65.711 14.605-7.385 1.502-14.977 3.051-22.651 4.638-35.992 7.458-76.020 16.294-113.445 27.452-31.045 9.254-58.784 19.683-80.392 31.398-17.207 10.248-48.974 34.179-38.391 47.917 3.043 3.222 7.358 7.162 13.23 11.761z" />
<glyph unicode="&#xe90e;" glyph-name="call" d="M578.496 900.626c-4.651-3.349-8.277-7.853-10.56-13.004-2.108-4.747-2.965-9.606-2.611-14.801 0.41-6.042 2.509-11.898 6.127-16.87 4.996-6.863 12.484-11.489 20.86-12.885 4.553-1.009 9.075-2.147 13.568-3.413 14.639-4.361 28.941-9.78 42.795-16.213 36.309-16.64 86.4-46.592 139.221-99.413 52.821-52.779 82.688-102.912 99.328-139.179 6.434-13.868 11.853-28.184 16.213-42.837 1.348-4.602 2.517-9.257 3.499-13.951 1.391-8.35 6.033-15.808 12.911-20.74 6.874-4.937 15.428-6.942 23.782-5.585 8.431 1.54 15.923 6.336 20.847 13.355 4.928 7.019 6.895 15.693 5.478 24.148l-0.213 1.28c-1.34 6.535-2.948 13.012-4.821 19.413-3.712 12.672-9.771 30.379-19.499 51.584-19.499 42.539-53.589 99.072-112.299 157.781s-115.243 92.8-157.739 112.299c-21.248 9.685-38.955 15.787-51.627 19.499-6.315 1.835-11.392 3.072-15.019 3.883-1.536 0.357-4.211 0.864-5.692 1.144-0.286 0.055-0.529 0.101-0.708 0.136-8.38 1.355-16.951-0.67-23.842-5.629zM590.716 751.755c-7.415-4.121-12.894-11.018-15.228-19.176-2.304-8.084-1.34-16.752 2.692-24.129 3.46-6.328 8.934-11.271 15.501-14.078 1.092-0.465 2.21-0.872 3.354-1.217l0.469-0.171c0.67-0.269 1.331-0.542 1.997-0.82 5.248-2.204 10.377-4.693 15.356-7.457 2.441-1.356 4.783-2.741 7.343-4.318 16-9.846 39.091-26.698 67.038-54.647 29.867-29.867 47.019-54.144 56.576-70.229 3.473-5.83 6.562-11.878 9.25-18.106 0.934-2.166 1.63-4.423 2.526-6.603 2.803-6.835 7.898-12.518 14.455-16.043 7.411-3.985 16.098-4.89 24.175-2.517 8.077 2.377 14.891 7.838 18.97 15.202 2.953 5.329 4.297 11.366 3.955 17.367-0.303 5.297-2.057 9.965-3.955 14.794-0.439 1.116-0.892 2.226-1.365 3.33-2.688 6.272-6.784 14.763-12.971 25.173-12.373 20.907-32.896 49.408-66.389 82.901s-61.952 54.016-82.859 66.389c-10.453 6.144-18.944 10.283-25.173 12.928-2.479 1.077-4.996 2.059-7.552 2.944-3.076 1.259-6.174 2.029-9.485 2.355-6.43 0.634-12.954-0.691-18.679-3.872zM456.32 748.75c-49.919 89.429-170.921 94.891-242.601 23.211-38.315-38.315-72.405-89.344-74.667-149.248-3.371-88.789 19.584-236.204 165.547-382.209 146.004-146.005 293.46-168.917 382.207-165.547 59.947 2.261 110.891 36.352 149.248 74.667 71.68 71.68 66.219 192.64-23.211 242.56l-49.621 27.691c-58.368 32.597-132.096 18.731-180.352-29.013-4.275-2.803-9.263-4.326-14.379-4.395-10.965-0.555-36.224 3.371-75.392 42.539-39.211 39.168-43.093 64.469-42.539 75.392 0.090 5.103 1.63 10.078 4.437 14.336 47.701 48.3 61.568 121.985 29.013 180.396l-27.691 49.621zM258.988 726.691c47.147 47.189 115.84 36.651 141.44-9.131l27.689-49.621c17.195-30.848 11.349-74.197-19.113-104.661-2.944-2.944-20.736-21.973-22.357-55.724-1.707-34.603 13.824-76.459 61.225-123.819 47.317-47.36 89.173-62.891 123.733-61.184 33.749 1.621 52.779 19.371 55.765 22.357 30.421 30.421 73.813 36.309 104.661 19.115l49.621-27.733c45.824-25.557 56.32-94.208 9.131-141.397-33.024-33.067-69.589-54.613-106.411-55.979-74.027-2.816-203.093 15.445-334.505 146.859-131.371 131.413-149.675 260.481-146.859 334.508 1.365 36.864 22.912 73.344 55.979 106.411z" />
<glyph unicode="&#xe90f;" glyph-name="meeting" d="M240.86 847.39c38.007 38.007 89.556 59.36 143.307 59.36s105.301-21.352 143.308-59.36c38.007-38.007 59.358-89.556 59.358-143.307s-21.35-105.3-59.358-143.307c-38.007-38.007-89.557-59.358-143.308-59.358s-105.3 21.35-143.307 59.358c-38.007 38.007-59.36 89.556-59.36 143.307s21.352 105.3 59.36 143.307zM286.115 802.135c-26.005-26.005-40.614-61.275-40.614-98.052s14.609-72.047 40.614-98.052c26.005-26.005 61.275-40.615 98.052-40.615s72.047 14.609 98.052 40.615c26.005 26.005 40.614 61.275 40.614 98.052s-14.609 72.047-40.614 98.052c-26.005 26.005-61.275 40.614-98.052 40.614s-72.047-14.609-98.052-40.614zM617.374 854.627c5.999 6.001 14.14 9.373 22.626 9.373 42.436 0 83.132-16.857 113.139-46.863 30.003-30.006 46.861-70.703 46.861-113.137s-16.858-83.131-46.861-113.137c-30.007-30.006-70.703-46.863-113.139-46.863-8.486 0-16.627 3.372-22.626 9.373-6.003 6.001-9.374 14.141-9.374 22.627s3.371 16.626 9.374 22.627c5.999 6.001 14.14 9.373 22.626 9.373 25.459 0 49.877 10.114 67.883 28.118 18.001 18.004 28.117 42.421 28.117 67.882s-10.116 49.879-28.117 67.882c-18.005 18.004-42.423 28.118-67.883 28.118-8.486 0-16.627 3.372-22.626 9.373-6.003 6.001-9.374 14.141-9.374 22.627s3.371 16.626 9.374 22.627zM157.095 383.061c59.733 34.133 140.075 54.187 227.072 54.187 87.040 0 167.338-20.053 227.072-54.187 58.795-33.621 103.595-84.907 103.595-148.48s-44.8-114.859-103.595-148.48c-59.733-34.133-140.075-54.187-227.072-54.187-87.040 0-167.339 20.053-227.072 54.187-58.795 33.621-103.595 84.907-103.595 148.48s44.8 114.859 103.595 148.48zM188.839 327.467c-49.28-28.16-71.339-62.165-71.339-92.885s22.059-64.725 71.339-92.885c48.384-27.648 117.376-45.781 195.328-45.781s146.944 18.133 195.328 45.781c49.28 28.16 71.339 62.208 71.339 92.885 0 30.72-22.059 64.725-71.339 92.885-48.384 27.648-117.376 45.781-195.328 45.781s-146.944-18.133-195.328-45.781zM750.724 389.679c7.147 4.587 15.821 6.144 24.115 4.335 41.045-9.003 78.037-25.259 105.515-47.744 27.435-22.443 47.659-53.291 47.659-90.197 0-33.237-16.469-61.696-39.765-83.328-23.211-21.547-54.571-37.888-89.685-48.469-4.028-1.212-8.252-1.617-12.433-1.195-4.186 0.422-8.243 1.664-11.947 3.657-3.699 1.993-6.976 4.693-9.634 7.949s-4.651 7.002-5.858 11.029c-1.212 4.023-1.617 8.252-1.195 12.433s1.664 8.239 3.657 11.942c1.988 3.703 4.689 6.976 7.945 9.634 3.26 2.662 7.006 4.651 11.034 5.862 28.288 8.533 50.261 20.779 64.555 34.048 14.208 13.184 19.328 25.771 19.328 36.437 0 11.776-6.357 26.069-24.192 40.661s-44.843 27.349-78.635 34.731c-8.294 1.809-15.531 6.839-20.117 13.986-4.582 7.147-6.144 15.821-4.331 24.115 1.809 8.294 6.839 15.531 13.986 20.113z" />
<glyph unicode="&#xe910;" glyph-name="ligh" d="M512 906.667c17.673 0 32-14.327 32-32v-64c0-17.673-14.327-32-32-32s-32 14.327-32 32v64c0 17.673 14.327 32 32 32zM836.322 772.323c12.497-12.497 12.497-32.758 0-45.255l-45.227-45.227c-12.497-12.497-32.755-12.497-45.252 0s-12.497 32.758 0 45.255l45.227 45.227c12.497 12.497 32.755 12.497 45.252 0zM187.602 772.249c12.479 12.515 32.74 12.543 45.255 0.064l45.312-45.184c12.515-12.479 12.543-32.74 0.064-45.255s-32.74-12.543-45.255-0.064l-45.312 45.184c-12.515 12.479-12.543 32.74-0.064 45.255zM512 629.333c-48.094 0-94.215-19.105-128.222-53.111s-53.111-80.128-53.111-128.222c0-48.094 19.105-94.217 53.111-128.222s80.128-53.111 128.222-53.111c48.094 0 94.217 19.106 128.222 53.111s53.111 80.128 53.111 128.222c0 48.094-19.106 94.215-53.111 128.222s-80.128 53.111-128.222 53.111zM338.523 621.477c46.009 46.009 108.41 71.857 173.477 71.857s127.467-25.847 173.478-71.857c46.007-46.009 71.855-108.41 71.855-173.477s-25.847-127.467-71.855-173.478c-46.012-46.007-108.412-71.855-173.478-71.855s-127.468 25.847-173.477 71.855c-46.009 46.012-71.857 108.412-71.857 173.478s25.847 127.468 71.857 173.477zM53.333 448c0 17.673 14.327 32 32 32h64c17.673 0 32-14.327 32-32s-14.327-32-32-32h-64c-17.673 0-32 14.327-32 32zM842.667 448c0 17.673 14.327 32 32 32h64c17.673 0 32-14.327 32-32s-14.327-32-32-32h-64c-17.673 0-32 14.327-32 32zM278.201 214.157c12.497-12.497 12.497-32.755 0-45.252l-45.227-45.227c-12.497-12.497-32.758-12.497-45.255 0s-12.497 32.755 0 45.252l45.227 45.227c12.497 12.497 32.758 12.497 45.255 0zM745.801 214.157c12.497 12.497 32.755 12.497 45.252 0l45.227-45.227c12.497-12.497 12.497-32.755 0-45.252s-32.755-12.497-45.252 0l-45.227 45.227c-12.497 12.497-12.497 32.755 0 45.252zM512 117.333c17.673 0 32-14.327 32-32v-64c0-17.673-14.327-32-32-32s-32 14.327-32 32v64c0 17.673 14.327 32 32 32z" />
<glyph unicode="&#xe911;" glyph-name="dark" d="M448.708 872.835c7.659-9.962 8.777-23.484 2.863-34.569-33.628-63.012-46.11-135.164-35.607-205.811s43.436-136.045 93.94-186.55c50.505-50.505 115.904-83.439 186.551-93.943 70.647-10.5 142.797 1.98 205.811 35.605 11.085 5.918 24.606 4.8 34.569-2.859s14.519-20.437 11.652-32.674c-45.854-195.644-221.402-341.367-431.070-341.367-117.425 0-230.041 46.647-313.073 129.677-83.032 83.034-129.679 195.648-129.679 313.075 0 209.668 145.726 385.216 341.37 431.069 12.234 2.867 25.013-1.69 32.672-11.652zM366.776 801.023c-134.231-58.252-228.109-191.995-228.109-347.604 0-100.454 39.904-196.791 110.934-267.819 71.030-71.031 167.367-110.933 267.818-110.933 155.61 0 289.353 93.875 347.605 228.109-57.186-18.061-118.037-23.027-177.98-14.118-84.22 12.523-162.185 51.785-222.396 111.991-60.206 60.207-99.467 138.174-111.988 222.394-8.912 59.943-3.943 120.795 14.116 177.98z" />
<glyph unicode="&#xe912;" glyph-name="mail" d="M271.128 613.618c8.997 15.212 28.622 20.25 43.834 11.253l125.52-74.238c0.004-0.001 0 0.001 0 0 36.023-21.298 55.168-27.993 71.505-27.993 16.341 0 35.494 6.694 71.535 27.991l125.525 74.24c15.211 8.997 34.837 3.959 43.836-11.253 8.994-15.212 3.955-34.836-11.255-43.833l-125.525-74.242c-37.167-21.961-69.244-36.902-104.115-36.902s-66.927 14.938-104.076 36.902l-125.529 74.242c-15.212 8.997-20.25 28.621-11.253 43.833zM444.791 832h134.417c69.999 0 124.877 0 168.721-4.183 44.685-4.265 81.276-13.106 113.532-32.946 33.779-20.776 62.178-49.281 82.88-83.184 19.767-32.375 28.574-69.1 32.823-113.952 4.169-44.003 4.169-99.085 4.169-169.344v-3.447c0-70.259 0-125.342-4.169-169.344-4.25-44.851-13.056-81.579-32.823-113.954-20.702-33.903-49.101-62.404-82.88-83.183-32.256-19.84-68.847-28.681-113.532-32.947-43.844-4.181-98.722-4.181-168.721-4.181h-134.417c-70.001 0-124.878 0-168.719 4.181-44.687 4.267-81.278 13.107-113.534 32.947-33.779 20.779-62.179 49.28-82.879 83.183-19.766 32.375-28.576 69.103-32.825 113.954-4.169 44.002-4.168 99.085-4.168 169.344v3.447c0 70.259 0 125.341 4.168 169.344 4.249 44.852 13.059 81.577 32.825 113.952 20.7 33.903 49.1 62.408 82.879 83.184 32.256 19.84 68.847 28.681 113.534 32.946 43.842 4.184 98.719 4.184 168.719 4.183zM282.271 762.382c-39.893-3.807-65.278-11.108-85.515-23.555-24.967-15.356-45.958-36.425-61.258-61.484-12.401-20.311-19.676-45.79-23.469-85.83-3.84-40.53-3.874-92.488-3.874-164.847s0.035-124.318 3.874-164.847c3.793-40.038 11.067-65.519 23.469-85.828 15.299-25.058 36.291-46.127 61.258-61.487 20.237-12.446 45.622-19.746 85.515-23.552 40.381-3.853 92.15-3.891 164.24-3.891h130.978c72.090 0 123.861 0.038 164.241 3.891 39.893 3.806 65.276 11.106 85.513 23.552 24.969 15.36 45.961 36.429 61.261 61.487 12.399 20.309 19.674 45.79 23.467 85.828 3.84 40.529 3.874 92.489 3.874 164.847s-0.034 124.317-3.874 164.847c-3.793 40.040-11.068 65.519-23.467 85.83-15.3 25.059-36.292 46.128-61.261 61.484-20.237 12.447-45.619 19.748-85.513 23.555-40.38 3.854-92.151 3.888-164.241 3.888h-130.978c-72.090 0-123.86-0.035-164.24-3.888z" />
<glyph unicode="&#xe913;" glyph-name="leads" d="M621.252 843.308c97.203 31.752 194.692 30.606 255.684-30.383 57.715-57.715 61.828-148.157 35.418-239.475-4.911-16.977-22.652-26.76-39.629-21.85s-26.761 22.653-21.85 39.631c23.936 82.761 13.884 143.36-19.196 176.439-34.97 34.969-100.979 44.062-190.558 14.801-87.68-28.641-188.535-91.648-280.286-183.38-19.111-19.095-37.365-39.041-54.696-59.764-11.337-13.559-31.518-15.36-45.076-4.020-13.558 11.337-15.357 31.519-4.020 45.076 18.551 22.185 38.085 43.529 58.542 63.969zM621.252 843.308c-99.102-32.371-208.32-101.635-305.666-198.956zM762.953 360.508c13.542-11.354 15.317-31.539 3.964-45.082-18.163-21.666-37.658-42.948-58.466-63.846l-0.051-0.051c-97.348-97.323-206.562-166.583-305.672-198.95-97.216-31.748-194.713-30.588-255.719 30.421-61.824 61.824-62.196 161.182-28.948 259.951 5.638 16.751 23.788 25.758 40.537 20.117 16.749-5.636 25.757-23.787 20.119-40.538-30.752-91.354-21.908-158.822 13.548-194.278 34.994-34.991 101.017-44.092 190.596-14.835 87.678 28.634 188.516 91.627 280.262 183.343 19.571 19.657 37.82 39.586 54.75 59.78 11.354 13.547 31.535 15.322 45.082 3.968zM386.583 781.218c-91.354 30.752-158.822 21.908-194.278-13.548-34.994-34.994-44.092-101.017-14.838-190.596 28.636-87.684 91.642-188.539 183.374-280.29 23.775-23.812 48.871-46.293 75.144-67.315 13.798-11.042 16.034-31.177 4.992-44.979-11.038-13.798-31.177-16.034-44.977-4.992-28.127 22.507-54.98 46.558-80.433 72.051-97.318 97.34-166.572 206.554-198.938 305.657-31.748 97.216-30.585 194.712 30.421 255.719 61.824 61.824 161.183 62.196 259.951 28.948 16.749-5.638 25.757-23.788 20.117-40.537-5.637-16.75-23.786-25.757-40.535-20.119zM583.006 711.389c11.042 13.799 31.181 16.035 44.979 4.994 28.126-22.505 54.98-46.56 80.431-72.050 97.318-97.344 166.575-206.551 198.946-305.658 31.753-97.212 30.601-194.705-30.379-255.714-65.941-65.941-174.332-62.093-280.393-21.658-16.512 6.298-24.794 24.789-18.5 41.301 6.298 16.512 24.789 24.798 41.301 18.5 99.853-38.071 174.421-30.805 212.331 7.104 34.974 34.995 44.062 101.018 14.801 190.596-28.642 87.684-91.648 188.54-183.381 280.292-23.774 23.81-48.87 46.292-75.14 67.313-13.803 11.041-16.038 31.179-4.996 44.978zM561.451 587.578c13.5-11.41 15.189-31.601 3.78-45.097l-52.873-62.541h28.945c0.452 0 0.909 0 1.37 0 6.967 0.004 14.98 0.009 21.534-0.828 5.982-0.768 22.217-3.383 31.812-18.94 10.812-17.527 3.345-34.253-0.098-40.559-3.204-5.871-8.102-12.19-11.887-17.071-0.277-0.363-0.555-0.717-0.819-1.058-0.307-0.397-0.623-0.785-0.947-1.165l-75.179-88.32c-11.452-13.457-31.65-15.083-45.107-3.627s-15.083 31.65-3.627 45.107l53.167 62.46h-28.8c-0.448 0-0.905 0-1.365 0-6.967-0.004-14.98-0.009-21.534 0.828-5.986 0.768-22.217 3.383-31.812 18.94-10.813 17.527-3.348 34.253 0.094 40.559 3.209 5.871 8.107 12.19 11.891 17.071 0.277 0.363 0.55 0.717 0.819 1.058 0.282 0.367 0.576 0.73 0.875 1.084l74.667 88.321c11.409 13.496 31.599 15.188 45.094 3.778z" />
<glyph unicode="&#xe914;" glyph-name="filter" d="M373.446 823.248c2.386 0.002 4.823 0.002 7.312 0.002h2.264c19.907 0 36.527 0.001 50.155-0.975 14.191-1.016 27.58-3.207 40.486-8.849 3.383-1.479 6.682-3.111 9.886-4.887 22.434-12.433 40.273-31.939 50.628-55.625 0.704-1.613 1.357-3.234 1.958-4.863 4.211-11.403 5.999-23.205 6.891-35.624 0.119-1.704 0.226-3.454 0.32-5.251 0.653-12.583 0.653-27.484 0.653-44.903v-5.296c0-1.244 0-2.476 0-3.695-0.004-18.279-0.060-33.684-0.973-46.46-0.064-0.887-0.132-1.771-0.205-2.652-1.101-13.213-3.358-25.736-8.644-37.835-1.481-3.383-3.115-6.682-4.89-9.886-12.433-22.432-31.94-40.272-55.625-50.627-1.613-0.704-3.234-1.357-4.864-1.958-11.401-4.211-23.202-5.999-35.622-6.891-13.628-0.973-30.247-0.973-50.155-0.973h-2.266c-19.907 0-36.526 0-50.153 0.973-14.193 1.015-27.581 3.209-40.487 8.849-27.069 11.836-48.679 33.444-60.512 60.514-5.642 12.906-7.833 26.294-8.849 40.487-0.459 6.414-0.702 13.491-0.831 21.261h-102.082c-17.673 0-32 14.327-32 32s14.327 32 32 32h102.097c0.132 7.411 0.374 14.183 0.815 20.344 1.015 14.193 3.207 27.581 8.849 40.486 11.834 27.070 33.443 48.679 60.512 60.512 12.906 5.642 26.294 7.833 40.487 8.849 11.924 0.853 26.139 0.96 42.842 0.973zM335.173 758.438c-10.764-0.77-15.983-2.151-19.421-3.654-12.304-5.379-22.127-15.201-27.505-27.506-1.503-3.437-2.883-8.657-3.654-19.42-0.099-1.384-0.186-2.819-0.262-4.311-0.534-10.449-0.549-23.743-0.549-42.407v-3.031c0-1.333 0-2.639 0-3.919 0.005-19.189 0.068-32.421 0.811-42.8 0.048-0.673 0.099-1.324 0.151-1.954 0.792-9.455 2.094-14.244 3.503-17.466 0.336-0.769 0.689-1.529 1.060-2.278 5.556-11.238 14.91-20.186 26.446-25.228 3.437-1.502 8.657-2.883 19.421-3.654 11.071-0.792 25.387-0.812 46.718-0.812s35.647 0.019 46.717 0.812c10.765 0.77 15.983 2.151 19.422 3.654 12.305 5.379 22.127 15.201 27.503 27.506 1.506 3.437 2.884 8.657 3.657 19.42 0.794 11.071 0.811 25.387 0.811 46.718v3.031c0 21.331-0.017 35.647-0.811 46.718-0.772 10.764-2.15 15.983-3.657 19.42-5.376 12.305-15.198 22.127-27.503 27.506-3.439 1.502-8.657 2.883-19.422 3.654-11.070 0.792-25.386 0.812-46.717 0.812s-35.647-0.019-46.718-0.812zM640.751 692.083c-17.673 0-32-14.327-32-32 0-1.105 0.055-2.196 0.166-3.272 1.638-16.136 15.266-28.728 31.834-28.728h248.926c17.673 0 32 14.327 32 32s-14.327 32-32 32h-248.926zM676.915 66.726c-13.628-0.977-30.246-0.977-50.155-0.977h-2.261c-19.908 0-36.527 0-50.155 0.977-14.195 1.015-27.584 3.204-40.486 8.849-27.072 11.831-48.678 33.442-60.514 60.51-5.641 12.907-7.834 26.295-8.849 40.486-0.973 13.628-0.973 30.246-0.973 50.155v5.295c0 19.908 0 36.527 0.973 50.155 1.015 14.195 3.209 27.584 8.849 40.486 11.836 27.072 33.442 48.683 60.514 60.514 12.902 5.641 26.291 7.834 40.486 8.849 13.623 0.977 30.242 0.973 50.146 0.973h2.274c19.904 0 36.527 0.004 50.15-0.973 14.195-1.015 27.584-3.209 40.486-8.849 27.072-11.831 48.683-33.442 60.514-60.514 5.641-12.902 7.834-26.291 8.849-40.486 0.461-6.413 0.704-13.491 0.832-21.261h102.080c17.673 0 32-14.327 32-32s-14.327-32-32-32h-102.097c-0.132-7.411-0.375-14.182-0.815-20.343-1.015-14.191-3.209-27.58-8.849-40.486-11.831-27.068-33.442-48.678-60.514-60.51-12.902-5.645-26.291-7.834-40.486-8.849zM672.35 130.56c10.761 0.772 15.983 2.155 19.418 3.657 12.305 5.376 22.127 15.198 27.507 27.503 1.502 3.439 2.884 8.657 3.652 19.422 0.794 11.072 0.811 25.387 0.811 46.72v3.029c0 21.329-0.017 35.648-0.811 46.72-0.768 10.761-2.15 15.983-3.652 19.418-5.38 12.305-15.202 22.127-27.507 27.507-3.435 1.502-8.657 2.884-19.418 3.652-11.072 0.794-25.387 0.811-46.72 0.811-21.329 0-35.648-0.017-46.716-0.811-10.765-0.768-15.987-2.15-19.422-3.652-12.305-5.38-22.127-15.202-27.507-27.507-1.502-3.435-2.884-8.657-3.652-19.418-0.794-11.072-0.811-25.391-0.811-46.72v-3.029c0-21.333 0.017-35.648 0.811-46.72 0.768-10.765 2.15-15.983 3.652-19.422 5.38-12.305 15.202-22.127 27.507-27.503 3.435-1.502 8.657-2.884 19.422-3.657 11.068-0.789 25.387-0.811 46.716-0.811 21.333 0 35.648 0.021 46.72 0.811zM117.844 260.915h248.927c17.673 0 32-14.327 32-32s-14.327-32-32-32h-248.927c-17.673 0-32 14.327-32 32s14.327 32 32 32z" />
<glyph unicode="&#xe915;" glyph-name="setting" d="M512 629.333c-48.094 0-94.215-19.105-128.222-53.111s-53.111-80.128-53.111-128.222c0-23.812 4.69-47.394 13.803-69.393s22.47-41.993 39.308-58.829c16.838-16.841 36.828-30.195 58.829-39.309 21.999-9.114 45.581-13.803 69.393-13.803s47.394 4.689 69.393 13.803c21.999 9.114 41.993 22.468 58.829 39.309 16.841 16.836 30.195 36.83 39.309 58.829s13.803 45.581 13.803 69.393c0 48.094-19.106 94.215-53.111 128.222s-80.128 53.111-128.222 53.111zM429.035 530.965c22.003 22.006 51.849 34.368 82.965 34.368s60.962-12.362 82.965-34.368c22.007-22.003 34.368-51.849 34.368-82.965 0-15.407-3.034-30.665-8.93-44.902-5.897-14.234-14.541-27.17-25.438-38.063-10.893-10.897-23.829-19.541-38.063-25.438-14.238-5.897-29.495-8.93-44.902-8.93s-30.665 3.034-44.902 8.93c-14.234 5.897-27.17 14.541-38.063 25.438-10.897 10.893-19.54 23.829-25.437 38.063-5.897 14.238-8.931 29.495-8.931 44.902 0 31.117 12.362 60.962 34.368 82.965zM596.211 864h-168.422c-32.867 0-59.843 0.001-82.038-2.18-23.242-2.284-43.741-7.135-63.136-18.301-19.385-11.161-33.865-26.429-47.5-45.363-13.043-18.112-26.589-41.46-43.098-69.914l-83.424-143.853c-16.591-28.575-30.202-52.020-39.482-72.406-9.702-21.308-15.778-41.536-15.778-63.983s6.076-42.675 15.778-63.983c9.28-20.386 22.892-43.831 39.482-72.405l83.424-143.855c16.509-28.454 30.055-51.802 43.098-69.914 13.635-18.931 28.115-34.202 47.5-45.363 19.395-11.166 39.894-16.017 63.136-18.3 22.195-2.18 49.171-2.18 82.038-2.18h168.422c32.866 0 59.844 0 82.039 2.18 23.241 2.283 43.742 7.134 63.134 18.3 19.388 11.162 33.865 26.432 47.501 45.363 13.043 18.112 26.586 41.459 43.093 69.909l83.426 143.855c16.593 28.578 30.204 52.023 39.484 72.41 9.702 21.308 15.778 41.536 15.778 63.983 0 22.434-6.059 42.658-15.757 63.979-9.335 20.518-23.057 44.12-39.812 72.94l-83.115 143.325c-16.508 28.452-30.054 51.802-43.098 69.913-13.636 18.933-28.113 34.202-47.501 45.363-19.392 11.166-39.893 16.017-63.134 18.301-22.195 2.181-49.173 2.181-82.039 2.18zM314.548 788.055c8.765 5.047 19.455 8.303 37.461 10.072 18.701 1.838 42.528 1.873 77.345 1.873h165.291c34.816 0 58.645-0.036 77.346-1.873 18.005-1.769 28.693-5.025 37.461-10.072 8.772-5.052 16.951-12.654 27.499-27.299 10.957-15.215 22.925-35.762 40.363-65.818l82.061-141.505c17.545-30.177 29.491-50.845 37.278-67.959 7.497-16.474 10.014-27.354 10.014-37.474 0-10.108-2.522-20.983-10.027-37.466-7.795-17.122-19.755-37.807-37.282-67.998l-82.048-141.483c-17.438-30.054-29.402-50.594-40.358-65.809-10.547-14.647-18.726-22.246-27.499-27.298-8.768-5.047-19.456-8.303-37.461-10.074-18.701-1.839-42.53-1.873-77.346-1.873h-165.291c-34.818 0-58.644 0.034-77.345 1.873-18.006 1.771-28.696 5.026-37.461 10.074-8.775 5.052-16.951 12.651-27.498 27.298-10.957 15.215-22.925 35.763-40.364 65.818l-82.053 141.491c-17.527 30.187-29.48 50.859-37.276 67.981-7.504 16.482-10.025 27.358-10.025 37.466s2.521 20.983 10.025 37.466c7.796 17.122 19.756 37.807 37.284 67.996l82.048 141.483c17.438 30.056 29.403 50.597 40.36 65.812 10.546 14.645 18.723 22.247 27.498 27.299z" />
<glyph unicode="&#xe916;" glyph-name="product" d="M426.667 480c-17.673 0-32-14.327-32-32s14.327-32 32-32h128c17.673 0 32 14.327 32 32s-14.327 32-32 32h-128zM604.215 778.667c29.7 0 54.268 0.001 74.347-1.94 21.026-2.033 39.996-6.394 57.668-16.866 17.907-10.614 30.293-25.004 41.011-42.306 10.027-16.185 19.682-36.815 31.040-61.071l29.329-62.57c0.981-2.093 1.732-4.286 2.24-6.54l2.031-8.996c0.521-2.311 0.785-4.673 0.785-7.043v-179.653c0-65.741 0-118.289-5.483-159.526-5.67-42.615-17.715-77.918-45.406-105.92-27.763-28.015-62.861-40.269-105.195-46.016-40.879-5.551-92.945-5.551-157.943-5.551h-75.456c-61.078 0-110.629 0-150.086 4.51-40.295 4.604-74.611 14.31-102.56 37.116-6.631 5.41-12.835 11.516-18.356 18.039-23.82 28.156-33.985 62.929-38.804 104.038-4.712 40.192-4.711 90.871-4.711 153.643v172.945c0 1.643 0.127 3.284 0.378 4.908l2.562 16.506c0.466 3.003 1.358 5.924 2.647 8.675l28.879 61.602c11.345 24.19 20.992 44.762 30.991 60.905 10.708 17.288 23.075 31.676 40.96 42.293 17.669 10.47 36.643 14.845 57.67 16.879 20.076 1.941 44.641 1.941 74.363 1.94h227.098zM277.741 704.806c-6.26-3.719-11.938-9.215-19.209-20.953-7.787-12.572-15.875-29.689-28.129-55.815l-11.386-24.288h543.299l-11.388 24.288c-12.233 26.127-20.314 43.252-28.096 55.815-7.266 11.732-12.949 17.226-19.234 20.948-6.519 3.863-15.155 6.671-31.198 8.222-16.636 1.609-38.097 1.644-69.734 1.644h-224c-31.661 0-53.119-0.035-69.751-1.644-16.022-1.55-24.652-4.354-31.174-8.217zM202.667 539.75v-145.723c0-65.237 0.051-112.171 4.276-148.207 4.168-35.55 11.975-55.817 24.101-70.153 3.003-3.55 6.399-6.886 9.954-9.788 14.235-11.614 34.386-19.119 69.369-23.117 35.403-4.049 81.307-4.096 144.759-4.096h71.125c67.942 0 115.648 0.068 151.723 4.966 35.098 4.766 54.374 13.564 68.297 27.601 13.952 14.114 22.729 33.724 27.473 69.359 4.855 36.523 4.924 84.804 4.924 153.434v145.723h-576z" />
<glyph unicode="&#xe917;" glyph-name="contact" d="M554.667 693.333c-31.117 0-60.962-12.362-82.965-34.366-22.007-22.004-34.368-51.848-34.368-82.967s12.361-60.962 34.368-82.965c22.003-22.007 51.849-34.368 82.965-34.368s60.962 12.361 82.965 34.368c22.007 22.003 34.368 51.846 34.368 82.965s-12.361 60.963-34.368 82.967c-22.003 22.004-51.849 34.366-82.965 34.366zM516.954 613.712c10.001 10.002 23.569 15.621 37.713 15.621s27.712-5.619 37.713-15.621c10.001-10.002 15.62-23.567 15.62-37.712s-5.619-27.71-15.62-37.712c-10.001-10.002-23.569-15.621-37.713-15.621s-27.712 5.619-37.713 15.621c-10.001 10.002-15.62 23.567-15.62 37.712s5.619 27.71 15.62 37.712zM554.667 437.329c-35.567 0-70.46-8.819-101.602-25.515-0.631-0.337-1.25-0.695-1.856-1.075-3.533-2.21-7.292-4.51-11.209-6.903-14.454-8.828-30.988-18.927-45.731-30.562-12.675-10.005-28.335-24.589-36.564-43.78-4.359-10.167-6.775-21.956-5.223-34.773 1.55-12.804 6.815-24.61 14.754-35.196 3.955-5.269 8.611-10.099 12.006-13.53 22.664-22.903 52.455-43.328 91.798-43.328h167.253c35.311 0 63.014 16.495 84.668 36.442 7.573 6.976 18.615 17.847 25.404 30.029 10.057 18.061 11.23 36.911 5.594 54.174-5.18 15.881-15.445 28.48-24.977 37.798-14.874 14.549-34.91 27.243-46.874 34.825-2.709 1.715-5.009 3.17-6.737 4.322-35.618 24.158-77.666 37.073-120.704 37.073zM471.322 347.951c4.13 2.526 8.41 5.146 12.873 7.932 21.649 11.418 45.828 17.446 70.473 17.446 30.259 0 59.819-9.088 84.851-26.086l0.175-0.119c3.81-2.547 7.701-5.030 11.597-7.518 11.708-7.471 23.445-14.959 32.943-24.247 5.948-5.82 8.218-9.86 8.883-11.9l0.064-0.179c0.201-0.559 0.371-1.024-0.73-3.004-1.387-2.487-5.628-7.445-12.843-14.093-14.78-13.606-27.708-19.516-41.314-19.516h-167.253c-15.070 0-29.436 7.296-46.307 24.341-3.16 3.196-5.157 5.397-6.3 6.921-1.197 1.596-1.793 2.743-2.084 3.43-0.281 0.661-0.324 0.99-0.332 1.054-0.007 0.060-0.015 0.145 0.017 0.341 0.036 0.222 0.146 0.713 0.491 1.515 1.769 4.13 7.007 10.569 17.395 18.765 11.439 9.028 23.552 16.439 37.402 24.917zM141.179 736h-34.512c-17.673 0-32-14.327-32-32s14.327-32 32-32h32v-192h-32c-17.673 0-32-14.327-32-32s14.327-32 32-32h32v-192h-32c-17.673 0-32-14.327-32-32s14.327-32 32-32h34.512c15.342-96.725 99.113-170.667 200.154-170.667h405.333c111.932 0 202.667 90.735 202.667 202.667v512c0 111.93-90.735 202.667-202.667 202.667h-405.333c-101.041 0-184.812-73.942-200.154-170.667zM206.377 736c14.446 61.156 69.386 106.667 134.956 106.667h405.333c76.582 0 138.667-62.083 138.667-138.667v-512c0-76.582-62.084-138.667-138.667-138.667h-405.333c-65.57 0-120.51 45.513-134.956 106.667h6.956c17.673 0 32 14.327 32 32s-14.327 32-32 32h-10.667v192h10.667c17.673 0 32 14.327 32 32s-14.327 32-32 32h-10.667v192h10.667c17.673 0 32 14.327 32 32s-14.327 32-32 32h-6.956z" />
<glyph unicode="&#xe918;" glyph-name="activity" d="M341.338 522.662c-17.673 0-32-14.327-32-32s14.327-32 32-32h341.332c17.673 0 32 14.327 32 32s-14.327 32-32 32h-341.332zM341.338 309.329c-17.673 0-32-14.327-32-32s14.327-32 32-32h170.666c17.673 0 32 14.327 32 32s-14.327 32-32 32h-170.666zM692.514 905.115c-1.459 0.47-2.974 0.841-4.531 1.103-4.386 0.739-8.721 0.547-12.791-0.433-28.646 0.884-60.791 0.883-96.704 0.883h-132.975c-35.909 0-68.052 0.001-96.699-0.882-4.050 0.975-8.358 1.169-12.725 0.443-1.577-0.262-3.108-0.636-4.585-1.111-18.916-0.893-36.17-2.301-51.853-4.521-44.524-6.301-81.058-19.689-109.783-49.928-28.506-30.007-40.926-67.784-46.808-113.847-5.726-44.833-5.725-102.086-5.725-174.239v-229.211c0-72.149-0.001-129.404 5.725-174.225 5.882-46.046 18.3-83.81 46.817-113.783 28.721-30.251 65.251-43.648 109.771-49.954 42.911-6.076 97.579-6.076 165.867-6.076h132.625c68.454 0 123.234 0 166.221 6.093 44.527 6.31 81.054 19.712 109.777 49.946 28.506 30.007 40.926 67.785 46.805 113.847 5.726 44.834 5.726 102.089 5.726 174.242v229.164c0 72.152 0 129.406-5.726 174.229-5.879 46.048-18.3 83.816-46.822 113.787-28.719 30.247-65.246 43.643-109.764 49.949-15.68 2.221-32.93 3.63-51.84 4.524zM216.267 806.59c15.008 15.798 35.54 25.429 72.35 30.638 8.098 1.146 16.754 2.051 26.056 2.765 3.561-21.223 6.843-39.793 11.338-54.871 5.329-17.879 13.366-34.589 28.843-47.712 15.468-13.132 33.281-18.301 51.772-20.608 17.173-2.142 38.29-2.141 62.572-2.139h85.568c24.265-0.001 45.372-0.003 62.549 2.139 18.505 2.307 36.305 7.474 51.797 20.568l0.034 0.029c15.484 13.126 23.526 29.842 28.851 47.734 4.489 15.079 7.761 33.643 11.307 54.86 9.31-0.715 17.971-1.621 26.074-2.769 36.804-5.213 57.335-14.85 72.346-30.665l0.030-0.032c15.211-15.98 24.653-38.242 29.705-77.781 5.15-40.294 5.21-93.452 5.21-168.404v-224.597c0-74.953-0.060-128.111-5.21-168.414-5.052-39.548-14.498-61.85-29.726-77.879-15.010-15.799-35.55-25.442-72.354-30.66-37.905-5.372-88.030-5.457-159.377-5.457h-128c-71.351 0-121.476 0.077-159.379 5.444-36.804 5.214-57.335 14.848-72.344 30.665l-0.031 0.030c-15.208 15.983-24.654 38.242-29.705 77.781-5.147 40.294-5.209 93.453-5.209 168.405v224.64c0 74.951 0.061 128.11 5.209 168.416 5.051 39.547 14.497 61.846 29.725 77.876zM379.183 842.399c20.499 0.258 43.301 0.268 68.817 0.268h128c25.51 0 48.303-0.010 68.796-0.268-2.948-17.25-5.303-29.483-8.137-39.007-3.401-11.425-6.447-15.093-8.879-17.158-2.432-2.050-6.549-4.449-18.385-5.925-12.749-1.589-29.82-1.647-56.516-1.647h-81.792c-26.718 0-43.802 0.058-56.54 1.647-11.863 1.48-15.936 3.903-18.299 5.91-2.435 2.064-5.488 5.724-8.904 17.184-2.839 9.522-5.201 21.759-8.161 38.996z" />
<glyph unicode="&#xe919;" glyph-name="perosnal" d="M512.009 522.667c-17.677 0-32-14.327-32-32 0-17.745 14.801-32 32.384-32 17.673 0 32 14.327 32 32 0 17.741-14.805 32-32.384 32zM519.002 885.333c27.964 0.001 52.032 0.003 71.791-2.627 21.389-2.845 40.862-9.091 58.189-23.641 16.917-14.206 27.328-32.612 35.746-53.717 7.364-18.462 14.165-41.608 22.106-69.349h118.861c61.828 0 98.526-45.785 113.762-92.116 15.113-45.961 13.393-102.531-8.597-144.347-1.442-2.735-2.91-5.436-4.407-8.111 0.905-3.221 1.314-6.643 1.148-10.172l-6.255-131.921c-3.294-69.090-5.935-124.553-13.606-168.29-7.885-44.949-21.73-81.869-50.551-111.083-3.951-4.006-8.166-7.846-12.535-11.422-31.629-25.869-70.349-37.158-117.235-42.551-45.956-5.286-104.034-5.286-176.909-5.286h-77.222c-75.281 0-134.811 0-181.574 5.875-48.003 6.037-87.101 18.714-118.713 47.467-31.814 28.962-47.212 66.159-55.852 112.252-8.345 44.518-11.055 101.41-14.455 172.783l-6.444 135.906c-0.126 2.667 0.077 5.274 0.575 7.778-1.242 2.236-2.462 4.493-3.66 6.771-0.282 0.533-0.547 1.075-0.795 1.617-21.219 41.666-22.719 97.375-7.803 142.748 15.233 46.336 51.934 92.102 113.76 92.102h118.858c7.942 27.74 14.745 50.89 22.115 69.356 8.424 21.105 18.847 39.508 35.782 53.71 17.308 14.553 36.775 20.796 58.147 23.641 19.755 2.629 43.823 2.628 71.787 2.627h13.99zM860.028 407.433c-91.904-85.043-225.408-119.433-348.019-119.433-122.614 0-256.111 34.385-348.015 119.424l2.508-52.885c3.543-74.347 6.114-126.801 13.547-166.451 7.23-38.575 18.336-60.604 36.009-76.698 17.882-16.265 42.1-26.091 83.633-31.313 42.308-5.316 97.813-5.376 175.837-5.376h72.96c75.337 0 129.741 0.051 171.61 4.868 41.361 4.757 66.014 13.773 84.032 28.51 2.611 2.138 5.146 4.446 7.497 6.827 16 16.222 26.317 38.673 33.071 77.197 6.891 39.279 9.399 90.684 12.821 162.428l2.509 52.902zM342.079 672c-0.48-0.011-0.962-0.011-1.445 0h-142.313c-23.422 0-42.444-16.1-52.96-48.090-10.639-32.362-8.151-70.575 4.479-94.575 0.231-0.439 0.451-0.883 0.66-1.327 64.909-121.732 213.040-176.009 361.508-176.009 149.001 0 297.664 54.669 362.206 177.327 12.608 23.976 15.091 62.19 4.446 94.565-10.526 32.005-29.551 48.108-52.966 48.108h-142.315c-0.482-0.011-0.964-0.011-1.446 0h-339.854zM383.801 736h256.413c-5.611 19.168-10.223 33.836-14.933 45.638-6.558 16.442-12.015 23.849-17.455 28.416-5.030 4.224-11.588 7.365-25.472 9.213-15.049 2.001-34.825 2.067-65.353 2.067h-9.984c-30.532 0-50.308-0.066-65.348-2.067-13.879-1.847-20.412-4.986-25.413-9.193l-0.046-0.038c-5.451-4.569-10.916-11.971-17.475-28.404-4.71-11.799-9.324-26.463-14.934-45.63z" />
<glyph unicode="&#xe91a;" glyph-name="quote" d="M341.333 693.333c-17.673 0-32-14.327-32-32s14.327-32 32-32h298.667c17.673 0 32 14.327 32 32s-14.327 32-32 32h-298.667zM341.333 522.667c-17.673 0-32-14.327-32-32s14.327-32 32-32h128c17.673 0 32 14.327 32 32s-14.327 32-32 32h-128zM449.673-10.658c104.986 0.107 169.63 1.485 222.413 18.364 3.968 1.267 7.765 2.598 11.405 3.93 92.343 33.856 165.743 103.437 200.917 192.209 11.742 29.619 17.084 61.769 19.691 101.269 2.573 38.976 2.569 87.262 2.569 149.487v111.803c0.004 63.753 0.004 114.419-4.74 154.713-4.881 41.481-15.142 75.844-38.396 105.076-12.258 15.385-26.782 29.102-43.085 40.58-30.515 21.509-66.202 30.943-109.585 35.465-42.492 4.429-96.047 4.429-164.028 4.428h-36.723c-83.733 0-149.627 0.001-201.095-6.52-52.586-6.663-94.934-20.62-128.483-52.175-33.836-31.825-49.035-72.457-56.234-122.848-6.963-48.736-6.962-110.958-6.961-189.251l-0.001-273.033c-0.014-61.559-0.023-102.447 11.22-135.565 1.399-4.122 2.921-7.949 4.428-11.477 22.699-53.15 67.825-94.255 123.714-113.903 35.849-12.582 79.359-12.578 149.082-12.561h14.81c9.215 0 18.141 0 26.793 0.004 0.205-0.004 0.41-0.004 0.619-0.004 0.559 0 1.114 0.004 1.673 0.009zM544.981 842.667c70.238 0 120.457-0.041 159.245-4.084 38.281-3.99 61.581-11.596 79.364-24.134 11.332-7.973 21.389-17.477 29.862-28.108 12.924-16.249 20.749-37.351 24.913-72.706 4.25-36.117 4.301-83.014 4.301-149.283v-108.587c0-2.5 0-4.975 0-7.42 0-0.115 0-0.23 0-0.346 0-29.231-11.61-57.263-32.277-77.931-20.672-20.668-48.7-32.277-77.931-32.277-6.285 0-13.039 0.273-20.621 0.623l-2.778 0.132c-6.622 0.307-13.824 0.644-21.009 0.789-16.213 0.333-35.123-0.183-53.372-5.065l-0.047-0.009c-17.472-4.702-33.399-13.909-46.195-26.701-12.791-12.796-21.999-28.723-26.701-46.195l-0.009-0.047c-4.881-18.249-5.397-37.158-5.065-53.372 0.145-7.185 0.482-14.387 0.789-21.009l0.132-2.778c0.35-7.582 0.623-14.336 0.623-20.621 0-14.473-2.85-28.804-8.388-42.176s-13.658-25.519-23.889-35.755c-10.236-10.231-22.383-18.351-35.755-23.889-12.642-5.235-26.146-8.068-39.812-8.363-11.767-0.021-24.186-0.026-37.306-0.026-79.408 0-110.951 0.457-135.138 8.943-39.829 13.999-70.784 42.842-86.080 78.656-1.062 2.487-1.945 4.74-2.683 6.916-7.392 21.773-7.822 51.145-7.822 121.719v263.765c0 81.408 0.076 139.051 6.318 182.738 6.081 42.559 17.441 67.142 36.726 85.28 19.571 18.408 46.514 29.453 92.68 35.302 46.897 5.942 108.612 6.013 194.941 6.013h32.981zM585.655 56.772c9.498 12.245 17.335 25.728 23.292 40.102 8.755 21.137 13.261 43.789 13.261 66.667 0 7.923-0.346 16.013-0.691 23.565l-0.132 2.867c-0.311 6.694-0.606 13.001-0.734 19.285-0.299 14.524 0.401 26.155 2.897 35.507 1.788 6.635 5.286 12.685 10.146 17.54 4.86 4.864 10.914 8.363 17.549 10.15 9.353 2.492 20.979 3.191 35.499 2.893 6.289-0.128 12.595-0.422 19.294-0.734l2.859-0.132c7.552-0.346 15.642-0.691 23.565-0.691 39.347 0 77.321 13.312 107.9 37.44-0.038-0.64-0.081-1.271-0.124-1.903-2.394-36.339-7.057-61.047-15.326-81.903-28.105-70.929-87.305-127.787-163.447-155.699-3.046-1.118-5.973-2.138-8.866-3.063-18.803-6.012-39.872-9.668-66.94-11.891z" />
<glyph unicode="&#xe91b;" glyph-name="dashboard" d="M512 864c-253.321 0-458.667-205.346-458.667-458.667 0-17.673 14.327-32 32-32s32 14.327 32 32c0 217.975 176.692 394.667 394.667 394.667s394.667-176.692 394.667-394.667c0-17.673 14.327-32 32-32s32 14.327 32 32c0 253.321-205.346 458.667-458.667 458.667zM544 533.333v-184.533c73.033-14.827 128-79.394 128-156.8 0-88.367-71.633-160-160-160s-160 71.633-160 160c0 77.406 54.968 141.973 128 156.8v184.533c0 17.673 14.327 32 32 32s32-14.327 32-32zM512 288c-53.018 0-96-42.982-96-96s42.982-96 96-96c53.018 0 96 42.982 96 96s-42.982 96-96 96z" />
<glyph unicode="&#xe91c;" glyph-name="cross-large" d="M233.373 726.627c12.497 12.497 32.758 12.497 45.255 0l233.373-233.371 233.374 233.371c12.497 12.497 32.755 12.497 45.252 0s12.497-32.758 0-45.255l-233.37-233.373 233.37-233.374c12.497-12.497 12.497-32.755 0-45.252s-32.755-12.497-45.252 0l-233.374 233.37-233.373-233.37c-12.497-12.497-32.758-12.497-45.255 0s-12.497 32.755 0 45.252l233.371 233.374-233.371 233.373c-12.497 12.497-12.497 32.758 0 45.255z" />
<glyph unicode="&#xe91d;" glyph-name="left-arrow" d="M619.959 683.961c12.497-12.497 12.497-32.758 0-45.255l-190.703-190.706 190.703-190.707c12.497-12.497 12.497-32.755 0-45.252s-32.755-12.497-45.252 0l-213.335 213.333c-12.497 12.497-12.497 32.755 0 45.252l213.335 213.335c12.497 12.497 32.755 12.497 45.252 0z" />
<glyph unicode="&#xe91e;" glyph-name="right-arrow" d="M361.373 212.041c-12.497 12.497-12.497 32.755 0 45.252l190.704 190.707-190.704 190.706c-12.497 12.497-12.497 32.758 0 45.255s32.758 12.497 45.255 0l213.332-213.335c12.497-12.497 12.497-32.755 0-45.252l-213.332-213.333c-12.497-12.497-32.758-12.497-45.255 0z" />
<glyph unicode="&#xe91f;" glyph-name="up-arrow" d="M747.959 297.374c-12.497-12.497-32.755-12.497-45.252 0l-190.707 190.703-190.706-190.703c-12.497-12.497-32.758-12.497-45.255 0s-12.497 32.755 0 45.252l213.335 213.335c12.497 12.497 32.755 12.497 45.252 0l213.333-213.335c12.497-12.497 12.497-32.755 0-45.252z" />
<glyph unicode="&#xe920;" glyph-name="down-arrow" d="M276.039 555.961c12.497 12.497 32.758 12.497 45.255 0l190.706-190.704 190.707 190.704c12.497 12.497 32.755 12.497 45.252 0s12.497-32.756 0-45.254l-213.333-213.333c-12.497-12.497-32.755-12.497-45.252 0l-213.335 213.333c-12.497 12.497-12.497 32.757 0 45.254z" />
<glyph unicode="&#xe921;" glyph-name="search" d="M238.016 721.984c63.613 63.612 149.889 99.349 239.851 99.349s176.239-35.737 239.851-99.349 99.349-149.889 99.349-239.851c0-79.232-27.721-155.605-77.79-216.154l136.683-136.687c12.497-12.497 12.497-32.755 0-45.252s-32.755-12.497-45.252 0l-136.687 136.683c-60.548-50.069-136.922-77.79-216.154-77.79-89.961 0-176.238 35.738-239.851 99.349s-99.349 149.888-99.349 239.851c0 89.961 35.737 176.238 99.349 239.851zM477.867 757.333c-72.988 0-142.986-28.994-194.596-80.604s-80.604-121.608-80.604-194.596c0-72.986 28.994-142.985 80.604-194.594s121.608-80.606 194.596-80.606c72.986 0 142.985 28.996 194.594 80.606s80.606 121.609 80.606 194.594c0 72.988-28.996 142.986-80.606 194.596s-121.609 80.604-194.594 80.604z" />
<glyph unicode="&#xe922;" glyph-name="add" d="M512 821.333c17.673 0 32-14.327 32-32v-309.333h309.333c17.673 0 32-14.327 32-32s-14.327-32-32-32h-309.333v-309.333c0-17.673-14.327-32-32-32s-32 14.327-32 32v309.333h-309.333c-17.673 0-32 14.327-32 32s14.327 32 32 32h309.333v309.333c0 17.673 14.327 32 32 32z" />
<glyph unicode="&#xe923;" glyph-name="add-2" d="M293.863 814.2c-51.642-6.942-82.482-20.106-105.22-42.843-22.736-22.736-35.901-53.586-42.843-105.235-7.066-52.567-7.133-121.687-7.133-218.121 0-96.457 0.068-165.577 7.133-218.138 6.942-51.639 20.106-82.483 42.843-105.22 22.736-22.733 53.586-35.9 105.235-42.842 52.567-7.066 121.687-7.134 218.121-7.134 96.457 0 165.577 0.068 218.138 7.134 51.639 6.942 82.483 20.105 105.22 42.842 22.733 22.737 35.9 53.585 42.842 105.237 7.066 52.565 7.134 121.685 7.134 218.121 0 96.457-0.068 165.575-7.134 218.137-6.942 51.642-20.105 82.482-42.842 105.22-22.737 22.736-53.585 35.901-105.237 42.843-52.565 7.066-121.685 7.133-218.121 7.133-96.457 0-165.575-0.068-218.137-7.133zM509.559 885.333h4.877c93.466 0 166.886 0.001 224.209-7.704 58.739-7.895 105.353-24.404 141.965-61.018 36.612-36.612 53.124-83.211 61.018-141.948 7.706-57.319 7.706-130.74 7.706-224.223v-4.877c0-93.466 0-166.886-7.706-224.209-7.893-58.739-24.401-105.353-61.018-141.965-36.612-36.612-83.209-53.124-141.948-61.018-57.318-7.706-130.739-7.706-224.222-7.706h-4.877c-93.465 0-166.886 0-224.21 7.706-58.74 7.893-105.351 24.401-141.965 61.018-36.612 36.612-53.123 83.209-61.018 141.948-7.705 57.318-7.704 130.739-7.704 224.222v4.877c0 93.466-0.001 166.886 7.704 224.21 7.895 58.74 24.404 105.351 61.018 141.965 36.612 36.612 83.211 53.123 141.948 61.018 57.319 7.705 130.74 7.704 224.223 7.704zM512 650.667c17.673 0 32-14.327 32-32v-138.667h138.667c17.673 0 32-14.327 32-32s-14.327-32-32-32h-138.667v-138.667c0-17.673-14.327-32-32-32s-32 14.327-32 32v138.667h-138.667c-17.673 0-32 14.327-32 32s14.327 32 32 32h138.667v138.667c0 17.673 14.327 32 32 32z" />
<glyph unicode="&#xe924;" glyph-name="radio-selected" d="M512 874.667c235.648 0 426.667-191.019 426.667-426.667s-191.019-426.667-426.667-426.667c-235.648 0-426.667 191.019-426.667 426.667s191.019 426.667 426.667 426.667zM512 618.667c-45.265 0-88.673-17.981-120.68-49.987s-49.987-75.415-49.987-120.68c0-45.265 17.981-88.674 49.987-120.678 32.006-32.009 75.415-49.988 120.68-49.988s88.674 17.98 120.678 49.988c32.009 32.004 49.988 75.413 49.988 120.678s-17.98 88.673-49.988 120.68c-32.004 32.006-75.413 49.987-120.678 49.987z" />
<glyph unicode="&#xe925;" glyph-name="radio-normal" d="M512 789.333c-44.826 0-89.21-8.829-130.623-25.982s-79.041-42.296-110.736-73.992c-31.696-31.695-56.838-69.324-73.992-110.736s-25.982-85.797-25.982-130.623c0-90.526 35.962-177.348 99.974-241.361 64.012-64.009 150.832-99.972 241.359-99.972 90.526 0 177.348 35.964 241.361 99.972 64.009 64.013 99.972 150.835 99.972 241.361 0 44.826-8.828 89.21-25.984 130.623-17.152 41.412-42.295 79.040-73.988 110.736-31.697 31.696-69.325 56.838-110.737 73.992s-85.798 25.982-130.624 25.982zM348.722 842.189c51.765 21.442 107.248 32.478 163.278 32.478s111.514-11.036 163.277-32.478c51.767-21.442 98.803-52.87 138.423-92.49s71.044-86.655 92.489-138.421c21.44-51.765 32.478-107.248 32.478-163.278 0-113.161-44.954-221.683-124.966-301.7-80.017-80.013-188.54-124.966-301.7-124.966-113.159 0-221.683 44.954-301.699 124.966-80.015 80.017-124.968 188.54-124.968 301.7 0 56.030 11.036 111.513 32.478 163.278s52.87 98.801 92.49 138.421c39.62 39.619 86.655 71.048 138.421 92.49z" />
<glyph unicode="&#xe926;" glyph-name="folder" d="M513.668 729.673l16.704-33.485 2.961-2.857h183.061c43.482 0 78.545 0.001 106.675-2.863 29.043-2.956 54.225-9.228 76.506-24.122 17.451-11.666 32.439-26.653 44.105-44.107 14.895-22.281 21.167-47.462 24.124-76.504 2.863-28.132 2.863-63.195 2.863-106.677v-3.533c0-73.374 0-130.897-4.659-176.7-4.753-46.711-14.622-84.77-36.706-117.807-17.899-26.79-40.9-49.796-67.695-67.695-32.998-22.071-71.044-31.923-117.747-36.672-45.794-4.655-103.326-4.655-176.721-4.655h-57.587c-98.49 0-175.675 0-235.901 8.098-60.131 8.090-107.897 24.755-145.649 61.009-0.95 0.913-1.893 1.835-2.83 2.773-0.925 0.922-1.837 1.856-2.737 2.79-36.267 37.722-52.923 85.483-61.007 145.621-8.094 60.22-8.093 137.417-8.093 235.925v134.321c0 37.484-0.001 67.715 2.15 92.131 2.217 25.16 6.913 47.19 18.119 67.302 14.461 25.916 35.861 47.309 61.777 61.77 20.112 11.206 42.126 15.893 67.285 18.109 24.417 2.151 54.647 2.15 92.131 2.15l7.375 0.002c43.943 0.020 74.317 0.029 101.596-10.188 59.525-22.315 85.676-75.185 105.818-115.911 1.382-2.791 2.752-5.564 4.083-8.227zM381.3 793.884c-15.035 5.628-32.859 6.113-85.023 6.113-39.313 0-66.719-0.029-87.997-1.903-20.849-1.836-32.755-5.254-41.74-10.258-15.544-8.675-28.369-21.501-37.044-37.044-5.004-8.985-8.422-20.891-10.258-41.74-1.874-21.278-1.903-48.685-1.903-87.997v-130.39c0-101.491 0.068-174.383 7.523-229.85 7.331-54.545 21.274-87.403 45.561-111.676 24.318-24.316 57.218-38.276 111.763-45.611 55.468-7.462 128.35-7.531 229.82-7.531h53.333c75.588 0 129.873 0.038 172.053 4.326 41.651 4.237 67.925 12.343 88.644 26.197 19.806 13.235 36.826 30.251 50.061 50.061 13.879 20.762 22.003 47.074 26.244 88.725 4.292 42.185 4.331 96.457 4.331 172.023 0 45.615-0.038 77.414-2.534 101.923-2.441 23.971-6.963 37.404-13.658 47.421-7.002 10.472-15.991 19.464-26.466 26.464-10.018 6.696-23.45 11.219-47.42 13.659-24.512 2.495-56.307 2.534-101.922 2.534h-201.971c-0.448-0.009-0.896-0.009-1.34 0h-212.689c-17.673 0-32 14.327-32 32s14.327 32 32 32h161.613l-4.561 9.133c-23.62 47.201-39.133 78.188-74.418 91.421z" />
<glyph unicode="&#xe927;" glyph-name="file" d="M693.333 213.333c17.677 0 32 14.323 32 32 0 17.673-14.323 32-32 32h-298.665c-17.673 0-32-14.327-32-32 0-17.677 14.327-32 32-32h298.665zM693.333 384c17.677 0 32 14.323 32 32 0 17.673-14.323 32-32 32h-128c-17.673 0-32-14.327-32-32 0-17.677 14.327-32 32-32h128zM584.998 917.324c-104.986-0.107-169.631-1.486-222.415-18.363-3.966-1.268-7.767-2.6-11.403-3.933-92.343-33.854-165.743-103.437-200.917-192.207-11.743-29.62-17.087-61.769-19.692-101.271-2.571-38.974-2.571-87.258-2.571-149.484v-111.804c0-63.753-0.001-114.419 4.742-154.714 4.883-41.481 15.143-75.844 38.397-105.079 12.258-15.381 26.779-29.099 43.085-40.576 30.512-21.513 66.2-30.946 109.584-35.469 42.493-4.429 96.048-4.429 164.030-4.425h36.719c83.733-0.004 149.628-0.004 201.097 6.519 52.587 6.66 94.933 20.621 128.482 52.173 33.839 31.825 49.037 72.457 56.235 122.85 6.963 48.734 6.963 110.959 6.963 189.252v273.033c0.017 61.559 0.026 102.446-11.221 135.564-1.395 4.122-2.918 7.946-4.425 11.475-22.699 53.152-67.827 94.256-123.716 113.902-35.849 12.582-79.356 12.578-149.082 12.564l-14.81-0.001c-9.212 0.001-18.138 0.001-26.79-0.006-0.209 0.004-0.414 0.006-0.623 0.006-0.555 0-1.114-0.003-1.668-0.008zM489.685 64c-70.234 0-120.456 0.038-159.243 4.083-38.28 3.989-61.579 11.593-79.366 24.132-11.33 7.974-21.389 17.476-29.861 28.109-12.923 16.247-20.751 37.35-24.913 72.704-4.252 36.117-4.303 83.017-4.303 149.286v108.587c0 2.5 0 4.971 0 7.42 0.001 0.115 0.002 0.23 0.002 0.346 0 29.227 11.611 57.259 32.279 77.927s48.7 32.279 77.929 32.279c6.285 0 13.040-0.275 20.62-0.624l2.779-0.129c6.62-0.309 13.824-0.645 21.008-0.792 16.215-0.332 35.126 0.184 53.374 5.063l0.044 0.012c17.472 4.698 33.403 13.906 46.194 26.7 12.796 12.794 22.003 28.724 26.701 46.196l0.013 0.044c4.881 18.249 5.393 37.159 5.065 53.374-0.149 7.184-0.486 14.387-0.794 21.007l-0.128 2.779c-0.35 7.58-0.627 14.335-0.627 20.62 0 14.473 2.854 28.804 8.393 42.175s13.653 25.52 23.889 35.754c10.231 10.234 22.383 18.352 35.755 23.89 12.642 5.237 26.142 8.070 39.812 8.364 11.767 0.022 24.183 0.025 37.303 0.025 79.407 0 110.95-0.457 135.138-8.941 39.829-14.001 70.784-42.842 86.080-78.659 1.062-2.487 1.946-4.741 2.684-6.914 7.39-21.774 7.821-51.144 7.821-121.72v-263.763c0-81.408-0.077-139.051-6.319-182.741-6.080-42.556-17.442-67.14-36.723-85.278-19.571-18.411-46.515-29.453-92.681-35.302-46.899-5.943-108.612-6.012-194.944-6.012h-32.981zM449.011 849.891c-9.493-12.244-17.335-25.725-23.29-40.101-8.755-21.136-13.261-43.789-13.261-66.667 0-7.923 0.344-16.011 0.692-23.565l0.133-2.865c0.312-6.697 0.605-13.001 0.734-19.286 0.297-14.525-0.401-26.156-2.898-35.508-1.788-6.635-5.286-12.684-10.144-17.542-4.861-4.861-10.914-8.361-17.552-10.147-9.351-2.495-20.979-3.193-35.498-2.896-6.286 0.129-12.593 0.422-19.291 0.734l-2.86 0.133c-7.555 0.348-15.643 0.692-23.566 0.692-39.346 0-77.32-13.311-107.901-37.438 0.040 0.637 0.081 1.271 0.123 1.903 2.397 36.338 7.060 61.048 15.328 81.903 28.103 70.928 87.305 127.784 163.449 155.699 3.045 1.116 5.97 2.137 8.864 3.062 18.802 6.012 39.873 9.667 66.937 11.89z" />
<glyph unicode="&#xe928;" glyph-name="eye" d="M512 608c-42.436 0-83.132-16.857-113.137-46.863s-46.863-70.701-46.863-113.137c0-42.436 16.857-83.132 46.863-113.139 30.005-30.003 70.701-46.861 113.137-46.861s83.132 16.858 113.139 46.861c30.003 30.007 46.861 70.703 46.861 113.139s-16.858 83.132-46.861 113.137c-30.007 30.006-70.703 46.863-113.139 46.863zM444.117 515.883c18.005 18.003 42.423 28.117 67.883 28.117s49.877-10.114 67.883-28.117c18.001-18.005 28.117-42.423 28.117-67.883s-10.116-49.877-28.117-67.883c-18.005-18.001-42.423-28.117-67.883-28.117s-49.877 10.116-67.883 28.117c-18.003 18.005-28.117 42.423-28.117 67.883s10.114 49.877 28.117 67.883zM74.208 395.042c1.443-2.048 2.972-4.19 4.529-6.37 1.714-2.406 3.506-4.89 5.368-7.441 31.8-43.571 85.794-108.919 157.667-163.622 71.839-54.677 163.631-100.275 270.226-100.275 109.67 0 203.686 48.269 276.463 105.079 72.836 56.858 126.677 124.006 156.796 166.251l2.266 3.162c10.807 15.019 23.142 32.162 23.142 56.175 0 24-12.356 41.182-23.185 56.235l-2.223 3.102c-30.114 42.213-83.942 109.367-156.774 166.233-72.772 56.817-166.788 105.097-276.484 105.097-109.672 0-203.688-48.268-276.464-105.080-72.835-56.857-126.683-124.019-156.803-166.263l-2.258-3.149c-10.807-15.019-23.142-32.162-23.142-56.175 0-23.006 11.053-39.014 20.875-52.958zM130.845 470.17c28.165 39.505 77.895 101.309 144.072 152.969 66.242 51.711 146.69 91.529 237.082 91.529 90.411 0 170.859-39.827 237.094-91.543 66.172-51.665 115.9-113.475 144.068-152.967 6.955-9.745 10.274-14.528 12.25-18.325 1.263-2.423 1.259-3.093 1.254-3.729v-0.201c0.004-0.666 0.009-1.327-1.25-3.738-1.971-3.793-5.295-8.567-12.262-18.334-28.164-39.505-77.897-101.308-144.073-152.969-66.24-51.712-146.688-91.529-237.082-91.529-87.848 0-166.287 37.594-231.465 87.202-65.083 49.536-114.858 109.504-144.65 150.31l-9.429 13.163c-4.992 7.087-7.197 10.658-8.359 13.15-0.753 1.617-0.763 2.099-0.763 2.842v0.098c-0.003 0.666-0.006 1.327 1.249 3.738 1.974 3.793 5.295 8.567 12.264 18.334z" />
<glyph unicode="&#xe929;" glyph-name="eye-hide" d="M327.427 804.286l394.668-683.582c8.836-15.305 3.593-34.876-11.716-43.712-15.305-8.836-34.876-3.593-43.712 11.712l-28.847 49.963c-39.091-13.329-81.156-21.333-125.82-21.333-106.595 0-198.388 45.598-270.226 100.275-71.874 54.703-125.868 120.051-157.667 163.622-1.862 2.551-3.654 5.035-5.368 7.441-1.557 2.18-3.087 4.322-4.529 6.37-9.822 13.943-20.875 29.952-20.875 52.958 0 24.013 12.335 41.156 23.142 56.175l2.258 3.149c30.119 42.244 83.968 109.406 156.803 166.263 20.713 16.169 43.146 31.646 67.171 45.515l-30.705 53.184c-8.837 15.305-3.593 34.876 11.713 43.713s34.876 3.593 43.713-11.713zM605.086 195.366l-56 96.99c-12.053-2.871-24.491-4.356-37.086-4.356-42.436 0-83.132 16.858-113.137 46.861-30.006 30.007-46.863 70.703-46.863 113.139 0 40.947 15.695 80.273 43.753 109.94l-61.050 105.743c-21.009-12.128-40.97-25.856-59.785-40.544-66.177-51.66-115.907-113.463-144.072-152.969-6.969-9.766-10.289-14.541-12.264-18.334-1.255-2.411-1.252-3.072-1.249-3.738v-0.098c0-0.742 0.010-1.225 0.763-2.842 1.163-2.492 3.367-6.063 8.359-13.15l9.429-13.163c29.792-40.806 79.567-100.774 144.65-150.31 65.178-49.609 143.617-87.202 231.465-87.202 32.367 0 63.462 5.107 93.086 14.033zM430.208 498.261c-9.214-14.997-14.208-32.371-14.208-50.261 0-25.459 10.114-49.877 28.117-67.883 18.005-18.001 42.423-28.117 67.883-28.117 0.879 0 1.758 0.013 2.633 0.034l-84.425 146.227zM788.463 222.413c-12.958-10.116-26.594-19.964-40.866-29.312l-32.055 55.518c11.546 7.684 22.733 15.804 33.54 24.243 66.176 51.661 115.908 113.463 144.073 152.969 6.967 9.766 10.291 14.541 12.262 18.334 1.259 2.411 1.254 3.072 1.25 3.738v0.201c0.004 0.636 0.009 1.306-1.254 3.729-1.975 3.797-5.295 8.58-12.25 18.325-28.169 39.492-77.897 101.302-144.068 152.967-66.236 51.716-146.684 91.543-237.094 91.543-21.214 0-41.877-2.193-61.943-6.218l-33.473 57.979c30.256 7.788 62.115 12.239 95.416 12.239 109.696 0 203.712-48.28 276.484-105.097 72.832-56.866 126.66-124.020 156.774-166.233l2.223-3.102c10.829-15.053 23.185-32.235 23.185-56.235 0-24.013-12.335-41.156-23.142-56.175l-2.266-3.162c-30.118-42.244-83.959-109.393-156.796-166.251zM672 448c0-29.658-8.235-58.466-23.437-83.371l-41.297 71.526c0.486 3.908 0.734 7.863 0.734 11.844 0 25.459-10.116 49.877-28.117 67.883-8.836 8.836-19.217 15.77-30.507 20.543l-41.297 71.527c1.306 0.032 2.611 0.048 3.921 0.048 42.436 0 83.132-16.857 113.139-46.863 30.003-30.005 46.861-70.701 46.861-113.137z" />
<glyph unicode="&#xe92a;" glyph-name="percentage" d="M270.941 689.049c18.67 18.67 43.992 29.159 70.396 29.159s51.726-10.489 70.397-29.159c18.671-18.67 29.158-43.993 29.158-70.397s-10.487-51.726-29.158-70.396c-18.671-18.669-43.993-29.161-70.397-29.161s-51.726 10.492-70.396 29.161c-18.671 18.67-29.159 43.993-29.159 70.396s10.489 51.727 29.159 70.397zM709.389 705.711c16.661 16.663 43.678 16.663 60.339 0s16.661-43.677 0-60.34l-455.11-455.113c-16.662-16.661-43.677-16.661-60.34 0-16.662 16.666-16.662 43.678 0 60.339l455.111 455.113zM612.275 357.5c18.671 18.671 43.989 29.158 70.396 29.158 26.402 0 51.725-10.487 70.396-29.158s29.158-43.994 29.158-70.396c0-26.402-10.487-51.725-29.158-70.396s-43.994-29.158-70.396-29.158c-26.406 0-51.725 10.487-70.396 29.158s-29.163 43.994-29.163 70.396c0 26.402 10.492 51.725 29.163 70.396z" />
<glyph unicode="&#xe92b;" glyph-name="dollar" d="M510.46 775.209c23.565 0 42.667-19.103 42.667-42.667v-20.539c93.914-14.68 148.092-92.283 155.349-148.222 3.034-23.369-13.453-44.771-36.821-47.8-23.369-3.034-44.77 13.453-47.804 36.82-3.217 24.793-37.163 76.317-102.754 76.317-2.603 0-5.15-0.042-7.642-0.124-0.87-0.061-1.745-0.095-2.628-0.102-78.114-3.494-102.708-46.472-105.678-56.126-0.196-0.638-0.408-1.272-0.634-1.9-4.209-11.697-4.803-27.606 1.696-39.363 5.038-9.114 20.333-26.423 72.108-30.093 74.389-5.274 137.148-12.51 179.802-34.897 23.296-12.228 42.492-29.803 54.182-54.75 11.285-24.081 13.636-50.918 11.345-78.579-5.133-61.926-37.431-102.694-80.043-125.555-28.698-15.398-60.834-22.14-90.479-24.273v-19.703c0-23.565-19.102-42.667-42.667-42.667s-42.667 19.102-42.667 42.667v24.951c-26.569 5.043-54.639 13.513-80.126 26.368-43.141 21.756-87.234 60.996-90.484 124.271-1.209 23.531 16.888 43.588 40.422 44.8 23.533 1.207 43.59-16.892 44.799-40.422 1.016-19.785 14.011-37.491 43.688-52.454 26.38-13.308 59.362-20.553 86.788-22.622 0.474-0.026 0.943-0.060 1.408-0.102 2.812-0.192 5.564-0.333 8.239-0.418 29.905-0.964 59.422 3.362 80.734 14.797 18.645 10.005 32.742 25.984 35.345 57.412 1.574 19.021-0.811 29.431-3.567 35.315-2.355 5.022-6.511 10.121-16.58 15.407-24.077 12.642-68.1 19.802-146.172 25.335-70.253 4.979-117.364 31.612-140.756 73.929-21.685 39.223-17.086 81.705-7.63 108.633 12.77 40.002 57.923 94.452 143.894 110.781v22.909c0 23.564 19.102 42.667 42.667 42.667z" />
<glyph unicode="&#xe92c;" glyph-name="bookmark-not-selected" d="M298.583 800c-14.145 0-27.711-5.619-37.713-15.621s-15.621-23.567-15.621-37.712v-620.484l248.066 177.19c11.127 7.949 26.074 7.949 37.201 0l248.064-177.19v620.484c0 14.145-5.615 27.71-15.62 37.712-10.001 10.002-23.565 15.621-37.713 15.621h-426.665zM215.616 829.634c22.004 22.004 51.849 34.366 82.967 34.366h426.665c31.121 0 60.966-12.362 82.97-34.366s34.364-51.848 34.364-82.967v-682.667c0-11.985-6.699-22.967-17.357-28.454-10.658-5.483-23.488-4.553-33.242 2.415l-280.068 200.047-280.065-200.047c-9.754-6.967-22.584-7.898-33.242-2.415-10.658 5.487-17.357 16.469-17.357 28.454v682.667c0 31.119 12.362 60.963 34.366 82.967z" />
<glyph unicode="&#xe92d;" glyph-name="bookmark-selected" d="M215.616 829.634c22.004 22.004 51.849 34.366 82.967 34.366h426.665c31.121 0 60.966-12.362 82.97-34.366s34.364-51.848 34.364-82.967v-682.667c0-11.985-6.699-22.967-17.357-28.454-10.658-5.483-23.488-4.553-33.242 2.415l-280.068 200.047-280.065-200.047c-9.754-6.967-22.584-7.898-33.242-2.415-10.658 5.487-17.357 16.469-17.357 28.454v682.667c0 31.119 12.362 60.963 34.366 82.967z" />
<glyph unicode="&#xe92e;" glyph-name="list" d="M186.667 661.333c0 14.728 11.939 26.667 26.667 26.667h597.333c14.729 0 26.667-11.939 26.667-26.667s-11.938-26.667-26.667-26.667h-597.333c-14.728 0-26.667 11.939-26.667 26.667zM186.667 448c0 14.729 11.939 26.667 26.667 26.667h597.333c14.729 0 26.667-11.938 26.667-26.667s-11.938-26.667-26.667-26.667h-597.333c-14.728 0-26.667 11.938-26.667 26.667zM186.667 234.667c0 14.729 11.939 26.667 26.667 26.667h597.333c14.729 0 26.667-11.938 26.667-26.667s-11.938-26.667-26.667-26.667h-597.333c-14.728 0-26.667 11.938-26.667 26.667z" />
<glyph unicode="&#xe92f;" glyph-name="enter" d="M725.333 736c17.673 0 32-14.327 32-32v-256.013c0-88.354-71.586-159.987-159.962-159.987h-256.038c-17.673 0-32 14.327-32 32s14.327 32 32 32h256.038c53.013 0 95.962 42.961 95.962 95.987v256.013c0 17.673 14.327 32 32 32zM449.613 470.302c12.318-12.672 12.032-32.93-0.644-45.248-7.974-7.753-20.817-17.865-33.46-27.797-0.972-0.764-1.951-1.532-2.936-2.308-12.563-9.86-26.106-20.493-38.929-31.36-13.969-11.84-25.976-23.036-34.257-32.759-3.951-4.638-6.456-8.252-7.882-10.829 1.426-2.577 3.931-6.191 7.882-10.829 8.281-9.724 20.287-20.919 34.257-32.759 12.824-10.867 26.366-21.5 38.929-31.36 0.985-0.777 1.964-1.545 2.937-2.308 12.643-9.933 25.486-20.045 33.46-27.797 12.676-12.318 12.962-32.576 0.644-45.248-12.318-12.676-32.577-12.962-45.25-0.644-4.975 4.834-14.607 12.535-28.39 23.36-1.005 0.789-2.026 1.591-3.062 2.406-12.41 9.741-26.861 21.086-40.645 32.768-14.793 12.535-29.931 26.377-41.603 40.081-5.847 6.865-11.477 14.447-15.773 22.473-4.16 7.774-8.224 18.091-8.224 29.858s4.065 22.084 8.224 29.858c4.296 8.026 9.925 15.607 15.773 22.473 11.672 13.705 26.81 27.546 41.603 40.081 13.783 11.682 28.234 23.027 40.645 32.768 1.036 0.815 2.057 1.613 3.062 2.406 13.783 10.825 23.415 18.526 28.39 23.36 12.673 12.318 32.932 12.032 45.25-0.644z" />
<glyph unicode="&#xe930;" glyph-name="kanban" d="M144 789.333c0 14.728 11.939 26.667 26.667 26.667h256c14.729 0 26.667-11.939 26.667-26.667s-11.938-26.667-26.667-26.667h-256c-14.728 0-26.667 11.939-26.667 26.667zM570.667 789.333c0 14.728 11.938 26.667 26.667 26.667h256c14.729 0 26.667-11.939 26.667-26.667s-11.938-26.667-26.667-26.667h-256c-14.729 0-26.667 11.939-26.667 26.667zM256 592c-15.559 0-30.481-6.181-41.484-17.183s-17.183-25.924-17.183-41.484v-341.333c0-15.561 6.181-30.481 17.183-41.485 11.002-10.999 25.924-17.182 41.484-17.182h85.333c15.559 0 30.481 6.182 41.484 17.182 11.002 11.004 17.183 25.924 17.183 41.485v341.333c0 15.559-6.181 30.481-17.183 41.484s-25.924 17.183-41.484 17.183h-85.333zM176.804 612.529c21.004 21.004 49.492 32.804 79.196 32.804h85.333c29.704 0 58.192-11.8 79.196-32.804 21.003-21.004 32.804-49.492 32.804-79.196v-341.333c0-29.705-11.802-58.193-32.804-79.198-21.004-21.001-49.492-32.802-79.196-32.802h-85.333c-29.704 0-58.192 11.802-79.196 32.802-21.004 21.005-32.804 49.493-32.804 79.198v341.333c0 29.704 11.8 58.192 32.804 79.196zM682.667 592c-15.561 0-30.481-6.181-41.485-17.183-10.999-11.002-17.182-25.924-17.182-41.484v-85.333c0-15.561 6.182-30.481 17.182-41.485 11.004-10.999 25.924-17.182 41.485-17.182h85.333c15.561 0 30.481 6.182 41.485 17.182 10.999 11.004 17.182 25.924 17.182 41.485v85.333c0 15.559-6.182 30.481-17.182 41.484-11.004 11.002-25.924 17.183-41.485 17.183h-85.333zM603.469 612.529c21.005 21.004 49.493 32.804 79.198 32.804h85.333c29.705 0 58.193-11.8 79.198-32.804 21.001-21.004 32.802-49.492 32.802-79.196v-85.333c0-29.705-11.802-58.193-32.802-79.198-21.005-21.001-49.493-32.802-79.198-32.802h-85.333c-29.705 0-58.193 11.802-79.198 32.802-21.001 21.005-32.802 49.493-32.802 79.198v85.333c0 29.704 11.802 58.192 32.802 79.196z" />
<glyph unicode="&#xe931;" glyph-name="tick" d="M790.626 683.961c12.497-12.497 12.497-32.758 0-45.255l-383.999-383.999c-12.292-12.292-32.148-12.523-44.723-0.521l-128 122.18c-12.784 12.203-13.255 32.461-1.052 45.244s32.459 13.257 45.243 1.054l105.385-100.595 361.894 361.891c12.497 12.497 32.755 12.497 45.252 0z" />
<glyph unicode="&#xe932;" glyph-name="attached-file" d="M320 853.333c-65.126 0-117.333-52.129-117.333-115.755v-118.059c0-17.673-14.327-32-32-32s-32 14.327-32 32v118.059c0 99.617 81.51 179.755 181.333 179.755 99.818 0 181.333-80.132 181.333-179.712v-162.597c-0.073-13.957-2.893-27.763-8.303-40.629-5.41-12.868-13.303-24.541-23.223-34.355-9.924-9.818-21.683-17.579-34.607-22.848-12.868-5.244-26.639-7.915-40.533-7.859-13.889-0.055-27.656 2.611-40.519 7.855-12.921 5.265-24.678 13.022-34.6 22.831s-17.815 21.474-23.228 34.334c-5.413 12.859-8.24 26.659-8.32 40.61l-0.001 0.183v162.517c0 17.673 14.327 32 32 32s32-14.327 32-32v-162.413c0.042-5.52 1.166-10.979 3.308-16.067 2.152-5.113 5.29-9.751 9.235-13.651s8.62-6.984 13.757-9.078c5.137-2.093 10.636-3.156 16.183-3.121l0.369 0.002c5.549-0.032 11.050 1.027 16.189 3.122s9.814 5.181 13.76 9.084c3.945 3.902 7.081 8.544 9.232 13.659 2.142 5.094 3.264 10.557 3.302 16.082v162.338c0 63.577-52.202 115.712-117.333 115.712zM714.893 849.267c38.281-3.99 61.581-11.596 79.364-24.134 11.332-7.973 21.389-17.477 29.862-28.108 12.924-16.25 20.749-37.351 24.913-72.707 4.25-36.117 4.301-83.014 4.301-149.283v-116.352c0-29.231-11.61-57.259-32.277-77.931-20.672-20.668-48.7-32.277-77.931-32.277-6.285 0-13.039 0.273-20.621 0.623l-2.778 0.132c-6.622 0.307-13.824 0.644-21.009 0.789-16.213 0.333-35.123-0.183-53.372-5.065l-0.047-0.009c-17.472-4.702-33.399-13.909-46.195-26.701-12.791-12.791-21.999-28.723-26.701-46.195l-0.009-0.047c-4.881-18.249-5.397-37.158-5.065-53.372 0.145-7.185 0.482-14.387 0.789-21.009l0.132-2.778c0.35-7.582 0.623-14.336 0.623-20.621 0-14.473-2.85-28.804-8.388-42.176s-13.658-25.519-23.889-35.755c-10.236-10.231-22.383-18.351-35.755-23.889-12.642-5.235-26.146-8.068-39.812-8.363-11.767-0.021-24.188-0.026-37.306-0.026-79.408 0-110.951 0.457-135.138 8.943-39.829 13.999-70.784 42.842-86.080 78.656-1.062 2.487-1.945 4.745-2.683 6.916-7.392 21.773-7.822 51.145-7.822 121.719v190.345c0 17.178-13.565 31.292-30.732 31.974-18.156 0.721-33.268-13.807-33.268-31.974l-0.001-197.073c-0.014-61.559-0.023-102.447 11.22-135.565 1.399-4.122 2.921-7.949 4.428-11.477 22.699-53.15 67.825-94.255 123.714-113.903 35.849-12.582 79.359-12.578 149.082-12.561h14.872c9.19 0 18.095 0 26.731 0.004l0.619-0.004 1.673 0.009c104.986 0.107 169.63 1.485 222.413 18.364 3.968 1.267 7.765 2.598 11.405 3.93 92.343 33.856 165.743 103.441 200.917 192.209 11.742 29.619 17.084 61.769 19.691 101.269 2.573 38.976 2.569 87.262 2.569 149.487v111.803c0.004 63.753 0.004 114.419-4.74 154.713-4.881 41.481-15.142 75.844-38.396 105.076-12.258 15.385-26.782 29.102-43.085 40.58-30.515 21.51-66.202 30.943-109.585 35.465-35.793 3.731-79.437 4.319-132.937 4.411-17.314 0.030-31.492-13.753-31.991-31.059-0.521-18.028 13.965-32.911 32-32.945 53.436-0.1 93.862-0.683 126.293-4.063zM596.322 67.456c9.498 12.245 17.335 25.728 23.292 40.102 8.755 21.137 13.261 43.789 13.261 66.667 0 7.923-0.346 16.013-0.691 23.565l-0.132 2.867c-0.311 6.694-0.606 13.001-0.734 19.285-0.299 14.524 0.401 26.155 2.897 35.507 1.788 6.635 5.286 12.685 10.146 17.54 4.86 4.864 10.914 8.363 17.549 10.15 9.353 2.492 20.979 3.191 35.499 2.893 6.289-0.128 12.595-0.422 19.294-0.734l2.859-0.132c7.552-0.346 15.642-0.691 23.565-0.691 39.347 0 77.321 13.312 107.9 37.44l-0.124-1.903c-2.394-36.339-7.057-61.047-15.326-81.903-28.105-70.929-87.305-127.787-163.447-155.699-3.046-1.118-5.973-2.138-8.866-3.063-18.803-6.012-39.872-9.668-66.94-11.891z" />
<glyph unicode="&#xe933;" glyph-name="forward" d="M800.567 613.195l46.993-47.145c22.882-22.974 42.261-42.436 55.65-59.972 14.251-18.671 24.785-38.985 24.785-63.778 0-24.772-10.547-45.077-24.785-63.731-13.419-17.574-32.853-37.090-55.808-60.143l-80.777-81.075c-11.443-11.473-21.257-21.892-30.229-31.411l-4.143-4.399c-9.809-10.394-19.264-20.292-28.301-28.297-18.492-16.375-41.946-30.682-73.237-22.98-5.7 1.404-14.468 4.173-22.703 10.342-16.546 12.39-23.962 31.612-27.776 46.583-4.079 15.991-5.675 33.766-6.225 50.052-0.538 15.923-0.107 31.723 0.444 45.001-11.196 0.371-22.366 0.87-33.395 1.37l-3.051 0.137c-21.15 0.964-41.796 1.903-62.263 2.095-43.012 0.41-82.672-2.564-118.423-14.434-46.042-15.287-77.24-30.054-100.893-46.507-21.71-15.1-38.192-32.401-54.080-54.963-2.351-3.341-4.501-6.878-7.231-9.929-3.098-3.537-7.057-6.387-11.357-8.269-4.231-1.852-12.209-4.194-21.754-1.459-9.848 2.82-15.619 9.382-18.457 13.956-4.289 6.912-4.73 13.76-4.768 14.362-0.328 3.665-0.111 7.386-0.071 11.059 1.012 92.211 17.223 173.961 61.281 238.174 45.609 66.47 117.804 109.516 220.645 128.823 48.294 9.067 99.627 7.959 146.24 6.953 0.751-0.016 7.526-0.201 7.522-0.055-0.602 14.758-1.028 32.577-0.132 50.234 0.879 17.273 3.106 36.418 8.734 53.062 4.992 14.772 14.993 34.196 35.652 43.436 2.854 1.275 5.956 2.353 9.037 3.211 10.266 2.86 20.813 3.331 31.479 1.085 11.78-2.481 21.982-7.908 30.775-14.007 13.837-9.593 28.476-24.070 44.156-40.123l15.266-15.575 51.2-51.683zM653.478 667.983c-4.51 3.127-6.788 3.818-7.467 3.968-0.576-1.002-1.421-2.746-2.385-5.599-2.837-8.393-4.672-20.688-5.44-35.812-0.751-14.739-0.414-30.275 0.162-44.382 0.175-4.349 0.393-8.828 0.602-13.166 0.414-8.596 0.806-16.634 0.806-21.983 0-17.673-14.327-31.999-32-31.999-16.166 0-31.868 0.329-47.206 0.649-45.069 0.943-86.967 1.818-128.102-5.905-90.652-17.015-145.95-52.966-179.683-102.131-22.511-32.806-36.805-73.485-44.131-122.432 3.627 2.807 7.374 5.555 11.254 8.256 30.579 21.265 68.089 38.374 117.268 54.703 45.689 15.168 93.633 18.125 139.192 17.694 21.662-0.205 43.366-1.195 64.235-2.142l3.383-0.154c22.131-1.007 43.294-1.92 63.791-1.92 17.673 0 32-14.327 32-32 0-5.402-0.388-13.355-0.794-21.794-0.137-2.79-0.273-5.666-0.401-8.486-0.034-0.794-0.068-1.583-0.102-2.368-0.559-13.035-0.96-27.507-0.482-41.579 0.482-14.298 1.835-26.846 4.271-36.395 1.613-6.327 3.221-9.417 3.981-10.675 0.926-0.388 3.674-1.468 15.292 8.823 6.554 5.803 14.093 13.619 24.188 24.311l4.045 4.292c8.956 9.51 19.413 20.608 31.543 32.772l79.164 79.458c24.913 25.020 41.314 41.579 51.878 55.415 10.048 13.167 11.657 19.921 11.657 24.896 0 5.026-1.617 11.793-11.657 24.943-10.56 13.837-26.957 30.379-51.874 55.403l-45.363 45.508-57.515 58.057c-21.291 21.883-33.911 34.7-44.109 41.772z" />
<glyph unicode="&#xe934;" glyph-name="location" d="M160 493.781c0 190.746 161.492 348.885 352 348.885 190.511 0 352-158.142 352-348.843 0-96.294-40.478-179.413-102.507-251.802-62.157-72.533-144.811-132.881-226.082-182.639-7.172-3.938-15.223-6.007-23.411-6.007-8.166 0-16.192 2.057-23.351 5.973-81.268 50.3-163.906 110.447-226.081 182.758-62.039 72.149-102.568 155.012-102.568 251.674zM512 906.667c-225.065 0-416-186.010-416-412.885 0-116.16 49.135-213.265 118.040-293.402 68.608-79.791 157.929-144.128 241.58-195.853 0.371-0.23 0.751-0.452 1.131-0.67 16.866-9.493 35.895-14.481 55.249-14.481s38.383 4.988 55.249 14.481c0.337 0.192 0.67 0.388 1.003 0.589 83.921 51.337 173.257 115.895 241.839 195.934 68.851 80.346 117.909 177.685 117.909 293.444 0 226.835-190.938 412.843-416 412.843zM429.035 573.634c22.003 22.004 51.849 34.366 82.965 34.366s60.962-12.362 82.965-34.366c22.007-22.004 34.368-51.85 34.368-82.967 0-15.407-3.034-30.665-8.93-44.902-5.897-14.234-14.541-27.17-25.438-38.063-10.893-10.897-23.829-19.541-38.063-25.438-14.238-5.897-29.495-8.93-44.902-8.93s-30.665 3.034-44.902 8.93c-14.234 5.897-27.17 14.541-38.063 25.438-10.897 10.893-19.54 23.829-25.437 38.063-5.897 14.238-8.931 29.495-8.931 44.902 0 31.117 12.362 60.963 34.368 82.967zM512 672c-48.094 0-94.215-19.105-128.222-53.111s-53.111-80.129-53.111-128.222c0-23.812 4.69-47.394 13.803-69.393s22.47-41.993 39.308-58.829c16.838-16.841 36.828-30.195 58.829-39.309 21.999-9.114 45.581-13.803 69.393-13.803s47.394 4.689 69.393 13.803c21.999 9.114 41.993 22.468 58.829 39.309 16.841 16.836 30.195 36.83 39.309 58.829s13.803 45.581 13.803 69.393c0 48.093-19.106 94.215-53.111 128.222s-80.128 53.111-128.222 53.111z" />
<glyph unicode="&#xe935;" glyph-name="pin" d="M366.236 241.892c56.058-47.65 121.445-82.95 188.365-98.173 25.318-5.751 37.93-8.619 58.393-0.33 20.526 8.306 26.914 18.5 39.617 38.793 29.070 46.512 37.695 96.575 32.688 148.645-6.855 70.811-10.234 106.245-0.848 124.512 9.426 18.228 31.351 30.484 75.287 54.977l57.060 31.8c23.751 13.258 39.817 22.254 50.557 33.43 5.854 6.089 10.138 12.885 13.181 21.39 8.664 24.1 3.419 38.616-7.071 67.647-11.958 33.332-31.169 63.62-56.212 88.663-25.065 25.063-55.33 44.253-88.684 56.235-29.013 10.469-43.526 15.714-67.63 7.051-12.823-4.615-21.72-11.981-30.305-23.354-7.583-10.018-14.928-23.177-24.513-40.384l-31.073-55.744c-24.573-44.017-36.829-66.016-54.861-75.405-11.353-5.932-29.797-6.894-59.79-5.185-17.894 1.002-39.893 2.966-66.959 5.362-30.228 2.652-59.79 0.629-88.329-7.287-20.192-5.579-39.873-14.103-58.886-25.967-20.33-12.669-30.524-19.052-38.793-39.539-8.308-20.526-5.48-33.175 0.295-58.435 15.183-66.959 50.519-132.309 98.17-188.367l-164.599-164.597c-16.656-16.657-16.656-43.685 0-60.342s43.683-16.657 60.34 0l164.599 164.602z" />
<glyph unicode="&#xe936;" glyph-name="print" d="M757.333 426.667c17.673 0 32 14.327 32 32s-14.327 32-32 32c-17.673 0-32-14.327-32-32s14.327-32 32-32zM467.11 906.667c-38.336 0.001-70.303 0.002-95.675-3.411-26.788-3.604-50.96-11.531-70.393-30.964s-27.36-43.605-30.964-70.393c-3.413-25.373-3.412-57.336-3.411-95.677v-55.744c-3.933-0.053-7.746-0.121-11.439-0.207-24.759-0.582-46.132-2.033-65.003-6.244-26.87-5.996-47.639-18.014-65.296-33.018-17.078-14.511-32.27-32.656-41.932-56.949-11.617-29.208-15.582-67.531-20.905-118.983l-0.661-6.374c-4.399-42.227-7.941-76.22-8.111-103.697-0.175-28.186 3.078-53.094 14.746-76.015l0.058-0.111c13.871-26.978 35.049-49.51 61.117-65.024 22.037-13.205 46.906-18.701 75.688-21.308 19.755-1.792 42.988-2.321 70.303-2.479-2.584-11.686-4.701-22.029-6.159-31.181-2.532-15.898-3.592-31.019-0.648-46.042 6.705-34.5 27.943-64.772 58.883-81.135 13.75-7.296 28.562-9.971 43.82-11.2 14.752-1.186 32.965-1.186 54.693-1.186h172.311c21.726 0 39.94 0 54.69 1.186 15.262 1.229 30.080 3.904 43.831 11.204 30.852 16.341 52.147 46.579 58.867 81.092 2.953 15.031 1.894 30.165-0.636 46.067-1.455 9.156-3.567 19.503-6.144 31.194 27.311 0.158 50.539 0.687 70.289 2.479 28.796 2.607 53.658 8.102 75.716 21.295 26.057 15.526 47.215 38.071 61.069 65.054l0.026 0.051c11.712 22.916 14.976 47.842 14.805 76.028-0.162 27.499-3.712 61.517-8.111 103.757l-0.269 2.556c-3.622 35.004-6.562 63.39-11.034 86.259-4.634 23.688-11.366 44.217-24.154 62.602-15.211 21.88-35.669 39.63-59.465 51.869-19.895 10.249-41.361 14.589-65.993 16.649-13.026 1.089-27.703 1.585-44.288 1.811v55.744c0 38.34 0.004 70.304-3.409 95.677-3.605 26.788-11.533 50.96-30.967 70.393-19.43 19.433-43.605 27.36-70.391 30.964-25.374 3.413-57.34 3.412-95.676 3.411h-89.779zM693.333 704v-53.333h-362.667v53.333c0 41.14 0.068 68.763 2.84 89.365 2.647 19.676 7.221 28.102 12.79 33.671s13.995 10.143 33.671 12.79c20.602 2.772 48.226 2.84 89.365 2.84h85.333c41.139 0 68.762-0.068 89.365-2.84 19.678-2.647 28.1-7.221 33.673-12.79 5.568-5.57 10.142-13.995 12.787-33.671 2.773-20.602 2.842-48.225 2.842-89.365zM710.217 586.667c38.34 0 65.139-0.026 86.071-1.777 20.518-1.716 32.644-4.936 42.052-9.783 14.69-7.557 27.089-18.398 36.194-31.501 5.73-8.239 10.133-19.134 13.884-38.339 3.853-19.703 6.528-45.227 10.342-82.048 4.587-44.019 7.744-74.752 7.885-98.628 0.141-23.407-2.731-36.599-7.782-46.494-8.367-16.29-21.15-29.905-36.881-39.283l-0.051-0.026c-10.223-6.118-24.132-10.278-48.67-12.501-20.45-1.852-45.862-2.206-79.714-2.27-3.345 11.644-7.164 21.803-12.544 30.805-12.86 21.858-32.772 38.699-56.469 47.748l-0.158 0.060c-17.967 6.75-38.251 6.729-62.673 6.699h-179.403c-24.435 0.030-44.685 0.051-62.7-6.673l-0.233-0.090c-23.676-9.050-43.573-25.877-56.428-47.718-5.379-9.028-9.193-19.179-12.535-30.831-33.842 0.064-59.258 0.418-79.702 2.27-24.548 2.223-38.425 6.383-48.588 12.48l-0.111 0.068c-15.746 9.361-28.543 22.959-36.931 39.245-5.040 9.929-7.899 23.138-7.754 46.528 0.148 23.876 3.306 54.63 7.894 98.675 6.048 58.347 9.347 87.241 17.254 107.123 4.945 12.435 12.837 22.427 23.904 31.831 11.136 9.463 22.718 15.961 37.792 19.325 12.498 2.789 28.711 4.165 52.568 4.726 16.021 0.376 34.616 0.378 57.025 0.378h396.461zM596.881 245.325c31.753 0 39.313-0.495 44.907-2.577 10.112-3.883 18.607-11.089 24.085-20.437l0.166-0.273c3.925-6.541 6.426-15.778 14.093-48.845 5.623-24.495 9.463-41.267 11.546-54.362 2.057-12.945 1.873-19.456 1.037-23.697l-0.013-0.077c-3.273-16.832-13.367-30.093-26.014-36.787l-0.043-0.026c-2.543-1.348-7.3-3.004-18.953-3.938-11.878-0.956-27.499-0.981-50.854-0.981h-169.728c-23.354 0-38.974 0.026-50.853 0.981-11.652 0.934-16.412 2.59-18.951 3.938l-0.067 0.034c-12.648 6.686-22.714 19.921-25.991 36.779l-0.015 0.077c-0.835 4.241-1.019 10.748 1.041 23.689 2.085 13.090 5.939 29.879 11.588 54.383 7.613 33.067 10.133 42.321 14.074 48.913l0.129 0.222c5.472 9.323 13.941 16.508 24.023 20.395 5.718 2.108 13.382 2.59 45.020 2.59h169.771z" />
<glyph unicode="&#xe937;" glyph-name="reply-all" horiz-adv-x="1067" d="M630.985 395.639c12.318-12.668 12.036-32.93-0.636-45.248-6.899-6.707-17.869-15.339-28.314-23.543l-2.462-1.933c-10.475-8.226-21.675-17.020-32.273-26.001-11.571-9.805-21.316-18.914-27.934-26.684-1.882-2.206-3.298-4.062-4.335-5.564 1.041-1.506 2.458-3.366 4.339-5.577 6.618-7.77 16.363-16.883 27.934-26.688 10.641-9.024 21.892-17.856 32.405-26.108l2.321-1.822c10.445-8.205 21.406-16.823 28.297-23.509 12.681-12.305 12.988-32.563 0.678-45.248-12.305-12.685-32.563-12.988-45.248-0.678-3.908 3.789-11.674 10.005-23.258 19.102l-2.462 1.933c-10.355 8.128-22.511 17.673-34.116 27.507-12.399 10.509-25.271 22.268-35.281 34.022-5.013 5.888-9.963 12.527-13.781 19.669-3.686 6.886-7.484 16.375-7.484 27.396s3.797 20.51 7.484 27.396c3.823 7.142 8.768 13.781 13.786 19.669 10.010 11.75 22.882 23.505 35.281 34.010 11.55 9.788 23.654 19.294 33.98 27.396l2.594 2.035c11.58 9.097 19.337 15.313 23.232 19.102 12.672 12.322 32.93 12.036 45.252-0.636zM798.724 177.22l-58.112 55.283c22.033-0.713 43.371-2.722 62.865-5.747 40.026-6.204 67.149-15.889 77.922-23.625 30.805-22.067 41.783-38.869 47.612-59.648 5.845-20.851 6.899-46.084 8.61-86.916l0.009-0.128c0.333-8.004 0.695-16.61 1.122-25.899 0.811-17.655 15.778-31.309 33.434-30.498s31.309 15.782 30.498 33.438c-0.371 8.068-0.687 15.919-0.994 23.556l-0.004 0.124c-1.626 40.495-3.008 74.914-11.051 103.599-10.739 38.298-32.649 66.236-71.936 94.383-23.467 16.832-110.532 38.144-152.828 44.855l1.463 3.917 31.219 42.112c12.322 11.55 13.466 30.549 2.999 43.469l-1.536 1.762c-12.087 12.894-32.337 13.551-45.231 1.463l-98.688-92.518c-10.010-9.954-15.663-23.471-15.723-37.589-0.060-14.114 5.478-27.678 15.403-37.717l0.282-0.282 0.183-0.179 0.239-0.23 98.133-93.355c12.804-12.181 33.058-11.674 45.239 1.131s11.674 33.058-1.131 45.239zM357.629 667.538c-15.212 8.997-34.837 3.959-43.834-11.253s-3.959-34.836 11.253-43.833l125.529-74.243c37.15-21.964 69.205-36.902 104.077-36.902s66.948 14.942 104.115 36.904l125.525 74.24c15.211 8.997 20.25 28.622 11.255 43.833-8.998 15.212-28.625 20.25-43.836 11.253l-125.525-74.24c-36.041-21.295-55.194-27.991-71.535-27.991-16.337 0-35.482 6.697-71.505 27.994l-125.52 74.238zM487.458 874.667h134.417c69.999 0 124.877 0 168.721-4.183 44.685-4.265 81.276-13.106 113.532-32.946 33.779-20.776 62.178-49.281 82.88-83.184 19.767-32.375 28.574-69.1 32.823-113.952 3.516-37.114 4.066-82.112 4.151-137.451 0.030-17.745-14.123-32.265-31.863-32.73v0c-18.415-0.486-33.596 14.319-33.626 32.738-0.094 55.281-0.64 97.263-3.857 131.221-3.793 40.040-11.068 65.519-23.467 85.83-15.3 25.059-36.292 46.128-61.261 61.484-20.237 12.447-45.619 19.748-85.513 23.555-40.38 3.854-92.151 3.888-164.241 3.888h-130.978c-72.090 0-123.86-0.035-164.24-3.888-39.893-3.807-65.278-11.108-85.515-23.555-24.967-15.356-45.958-36.425-61.258-61.484-12.401-20.311-19.676-45.79-23.469-85.83-3.84-40.53-3.874-92.489-3.874-164.847s0.035-124.318 3.874-164.847c3.793-40.038 11.067-65.519 23.469-85.828 15.299-25.058 36.291-46.127 61.258-61.487 20.237-12.446 45.622-19.746 85.515-23.552 8.473-0.811 17.446-1.451 27.005-1.958 17.818-0.943 32.058-15.433 32.058-33.276v0c0-18.462-15.206-33.391-33.645-32.452-11.139 0.567-21.662 1.301-31.616 2.249-44.687 4.267-81.278 13.107-113.534 32.947-33.779 20.779-62.179 49.28-82.879 83.183-19.766 32.375-28.576 69.103-32.825 113.954-4.169 44.002-4.169 99.085-4.168 169.344v3.447c0 70.261 0 125.341 4.168 169.344 4.249 44.852 13.059 81.577 32.825 113.952 20.7 33.903 49.1 62.408 82.879 83.184 32.256 19.84 68.847 28.681 113.534 32.946 43.842 4.184 98.719 4.184 168.719 4.183z" />
<glyph unicode="&#xe938;" glyph-name="reply" d="M675.657 279.13l58.112-55.283c12.804-12.181 13.308-32.435 1.126-45.239s-32.435-13.312-45.239-1.131l-98.837 94.046c-9.924 10.039-15.462 23.603-15.403 37.717 0.060 14.118 5.717 27.631 15.723 37.589l0.418 0.405 0.265 0.252 98.005 91.861c12.894 12.087 33.148 11.43 45.231-1.463l1.54-1.762c10.466-12.919 9.318-31.919-3.004-43.469l-31.219-42.112-1.463-3.917c42.295-6.711 129.365-28.023 152.828-44.855 39.287-28.147 61.197-56.085 71.936-94.383 8.043-28.685 9.425-63.104 11.051-103.599l0.009-0.209c0.307-7.607 0.623-15.433 0.99-23.475 0.815-17.651-12.843-32.623-30.494-33.434-17.655-0.811-32.627 12.843-33.438 30.498-0.427 9.289-0.785 17.89-1.122 25.899l-0.004 0.128c-1.711 40.832-2.769 66.065-8.614 86.916-5.828 20.779-16.802 37.581-47.607 59.648-10.773 7.735-37.897 17.421-77.926 23.625-19.494 3.021-40.832 5.035-62.861 5.747zM314.962 667.538c-15.212 8.997-34.837 3.959-43.834-11.253s-3.959-34.836 11.253-43.833l125.529-74.243c37.149-21.964 69.205-36.902 104.076-36.902s66.948 14.942 104.115 36.904l125.525 74.24c15.211 8.997 20.25 28.622 11.255 43.833-8.998 15.212-28.625 20.25-43.836 11.253l-125.525-74.24c-36.041-21.295-55.194-27.991-71.535-27.991-16.337 0-35.482 6.697-71.505 27.994l-125.52 74.238zM444.791 874.667h134.417c69.999 0 124.877 0 168.721-4.183 44.685-4.265 81.276-13.106 113.532-32.946 33.779-20.776 62.178-49.281 82.88-83.184 19.767-32.375 28.574-69.1 32.823-113.952 3.516-37.114 4.066-82.112 4.151-137.451 0.030-17.745-14.123-32.265-31.863-32.73-18.415-0.486-33.596 14.319-33.626 32.738-0.094 55.281-0.64 97.263-3.857 131.221-3.793 40.040-11.068 65.519-23.467 85.83-15.3 25.059-36.292 46.128-61.261 61.484-20.237 12.447-45.619 19.748-85.513 23.555-40.38 3.854-92.151 3.888-164.241 3.888h-130.978c-72.090 0-123.86-0.035-164.24-3.888-39.893-3.807-65.278-11.108-85.515-23.555-24.967-15.356-45.958-36.425-61.258-61.484-12.401-20.311-19.676-45.79-23.469-85.83-3.84-40.53-3.874-92.489-3.874-164.847s0.035-124.318 3.874-164.847c3.793-40.038 11.067-65.519 23.469-85.828 15.299-25.058 36.291-46.127 61.258-61.487 20.237-12.446 45.622-19.746 85.515-23.552 8.473-0.811 17.446-1.451 27.005-1.958 17.818-0.943 32.058-15.433 32.058-33.276 0-18.462-15.206-33.391-33.645-32.452-11.139 0.567-21.662 1.301-31.616 2.249-44.687 4.267-81.278 13.107-113.534 32.947-33.779 20.779-62.179 49.28-82.879 83.183-19.766 32.375-28.576 69.103-32.825 113.954-4.169 44.002-4.168 99.085-4.168 169.344v3.447c0 70.261 0 125.341 4.168 169.344 4.249 44.852 13.059 81.577 32.825 113.952 20.7 33.903 49.1 62.408 82.879 83.184 32.256 19.84 68.847 28.681 113.534 32.946 43.842 4.184 98.719 4.184 168.719 4.183z" />
<glyph unicode="&#xe939;" glyph-name="rotten" d="M485.478 541.542c0 17.673 14.327 32 32 32s32-14.327 32-32v-148.543c0-17.673-14.327-32-32-32s-32 14.327-32 32v148.543zM550.396 303.168c0-17.929-14.532-32.461-32.457-32.461-17.929 0-32.461 14.532-32.461 32.461 0 17.924 14.532 32.457 32.461 32.457 17.924 0 32.457-14.532 32.457-32.457zM613.606 730.667c-45.158 78.222-158.063 78.222-203.226 0l-258.653-448c-45.162-78.221 11.29-176 101.614-176h517.308c90.321 0 146.773 97.779 101.611 176l-258.654 448zM465.805 698.667c20.531 35.555 71.851 35.555 92.378 0l258.654-448c20.527-35.554-5.133-80-46.187-80h-517.308c-41.056 0-66.716 44.446-46.188 80l258.651 448z" />
</font>
</defs>
</svg>
