<svg width="105" height="40" viewBox="0 0 105 40" fill="none" xmlns="http://www.w3.org/2000/svg">
<path d="M2.5 16.3102L11.424 25.2343L17.7343 18.924L8.81025 10L2.5 16.3102Z" fill="#0E90D9"/>
<path d="M35.1449 16.3102L26.2209 25.2343L19.9106 18.924L28.8346 10L35.1449 16.3102Z" fill="#0E90D9"/>
<path d="M12.5654 26.6481L17.19 31.2195C18.9412 32.906 21.7203 32.8799 23.4394 31.1608C25.2048 29.3954 25.1778 26.5249 23.3796 24.793L18.8756 20.3379L12.5654 26.6481Z" fill="#263238"/>
<path d="M44.9557 21.6985V27.9775C44.833 28.0082 44.672 28.0465 44.4727 28.0925C44.2734 28.1385 44.051 28.1615 43.8057 28.1615C43.3304 28.1615 42.9854 28.0772 42.7707 27.9085C42.5714 27.7245 42.4717 27.4255 42.4717 27.0115V14.0395C42.5944 14.0088 42.7554 13.9782 42.9547 13.9475C43.1694 13.9015 43.3917 13.8785 43.6217 13.8785C44.0664 13.8785 44.396 13.9628 44.6107 14.1315C44.8407 14.3002 44.9557 14.5992 44.9557 15.0285V20.2265L50.8667 13.9245C51.4494 13.9398 51.871 14.0702 52.1317 14.3155C52.3924 14.5455 52.5227 14.8215 52.5227 15.1435C52.5227 15.4042 52.4537 15.6495 52.3157 15.8795C52.1777 16.0942 51.9784 16.3318 51.7177 16.5925L47.3477 20.9165C48.6204 22.2198 49.732 23.3775 50.6827 24.3895C51.6487 25.3862 52.4767 26.1988 53.1667 26.8275C53.136 27.2568 52.9904 27.5942 52.7297 27.8395C52.4844 28.0695 52.1854 28.1845 51.8327 28.1845C51.4647 28.1845 51.1504 28.0848 50.8897 27.8855C50.6444 27.6862 50.3914 27.4562 50.1307 27.1955L44.9557 21.6985ZM57.8166 27.9545C57.7093 28.0005 57.556 28.0388 57.3566 28.0695C57.1726 28.1155 56.9656 28.1385 56.7356 28.1385C56.291 28.1385 55.9613 28.0542 55.7466 27.8855C55.532 27.7168 55.4246 27.4332 55.4246 27.0345V19.4905C55.4246 19.1072 55.5013 18.8005 55.6546 18.5705C55.808 18.3252 56.0533 18.0952 56.3906 17.8805C56.8353 17.6045 57.4026 17.3745 58.0926 17.1905C58.7826 17.0065 59.5416 16.9145 60.3696 16.9145C61.719 16.9145 62.3937 17.2978 62.3937 18.0645C62.3937 18.2485 62.363 18.4248 62.3017 18.5935C62.2403 18.7468 62.1713 18.8848 62.0947 19.0075C61.9413 18.9768 61.7496 18.9462 61.5197 18.9155C61.2896 18.8848 61.0443 18.8695 60.7836 18.8695C60.1703 18.8695 59.6106 18.9385 59.1046 19.0765C58.5986 19.1992 58.1693 19.3602 57.8166 19.5595V27.9545ZM68.2549 26.4595C68.7915 26.4595 69.2592 26.4058 69.6579 26.2985C70.0565 26.1912 70.3402 26.0762 70.5089 25.9535V23.0325L68.0019 23.2855C67.2965 23.3622 66.7675 23.5232 66.4149 23.7685C66.0622 23.9985 65.8859 24.3588 65.8859 24.8495C65.8859 25.3555 66.0775 25.7542 66.4609 26.0455C66.8442 26.3215 67.4422 26.4595 68.2549 26.4595ZM68.2089 16.9145C69.6349 16.9145 70.7695 17.2288 71.6129 17.8575C72.4562 18.4708 72.8779 19.4445 72.8779 20.7785V26.1375C72.8779 26.4902 72.7935 26.7662 72.6249 26.9655C72.4715 27.1495 72.2569 27.3258 71.9809 27.4945C71.5822 27.7245 71.0685 27.9238 70.4399 28.0925C69.8112 28.2612 69.0829 28.3455 68.2549 28.3455C66.7675 28.3455 65.6022 28.0542 64.7589 27.4715C63.9309 26.8888 63.5169 26.0302 63.5169 24.8955C63.5169 23.8835 63.8389 23.1092 64.4829 22.5725C65.1422 22.0358 66.0852 21.7062 67.3119 21.5835L70.5089 21.2615V20.7555C70.5089 20.0808 70.2865 19.5902 69.8419 19.2835C69.4125 18.9768 68.8069 18.8235 68.0249 18.8235C67.4115 18.8235 66.8212 18.9078 66.2539 19.0765C65.6865 19.2452 65.1805 19.4368 64.7359 19.6515C64.5825 19.5288 64.4522 19.3832 64.3449 19.2145C64.2375 19.0305 64.1839 18.8312 64.1839 18.6165C64.1839 18.3558 64.2452 18.1412 64.3679 17.9725C64.5059 17.8038 64.7129 17.6582 64.9889 17.5355C65.4182 17.3208 65.9089 17.1675 66.4609 17.0755C67.0129 16.9682 67.5955 16.9145 68.2089 16.9145ZM77.7314 25.4935C77.3481 24.7422 76.8804 23.6765 76.3284 22.2965C75.7764 20.9165 75.2398 19.3525 74.7184 17.6045C74.8564 17.4358 75.0404 17.2978 75.2704 17.1905C75.5004 17.0678 75.7458 17.0065 76.0064 17.0065C76.3438 17.0065 76.6198 17.0908 76.8344 17.2595C77.0491 17.4128 77.2254 17.6888 77.3634 18.0875C77.7774 19.3295 78.2068 20.5562 78.6514 21.7675C79.0961 22.9635 79.5868 24.2055 80.1234 25.4935H80.2154C80.4454 25.0028 80.6754 24.4278 80.9054 23.7685C81.1508 23.1092 81.3884 22.4115 81.6184 21.6755C81.8484 20.9395 82.0631 20.1958 82.2624 19.4445C82.4618 18.6778 82.6381 17.9495 82.7914 17.2595C82.9448 17.1828 83.0981 17.1215 83.2514 17.0755C83.4201 17.0295 83.6118 17.0065 83.8264 17.0065C84.1638 17.0065 84.4474 17.0908 84.6774 17.2595C84.9074 17.4128 85.0224 17.6582 85.0224 17.9955C85.0224 18.3942 84.9151 19.0075 84.7004 19.8355C84.5011 20.6482 84.2328 21.5528 83.8954 22.5495C83.5581 23.5308 83.1748 24.5275 82.7454 25.5395C82.3161 26.5515 81.8868 27.4485 81.4574 28.2305C80.6908 29.5798 79.9931 30.6072 79.3644 31.3125C78.7511 32.0178 78.1684 32.3705 77.6164 32.3705C77.1871 32.3705 76.8421 32.2478 76.5814 32.0025C76.3361 31.7725 76.1828 31.4812 76.1214 31.1285C76.3668 30.9138 76.6351 30.6532 76.9264 30.3465C77.2178 30.0398 77.5091 29.7102 77.8004 29.3575C78.0918 29.0048 78.3678 28.6368 78.6284 28.2535C78.8891 27.8855 79.1114 27.5252 79.2954 27.1725C79.0348 27.0958 78.7818 26.9502 78.5364 26.7355C78.2911 26.5055 78.0228 26.0915 77.7314 25.4935ZM89.8262 27.9545C89.7189 28.0005 89.5655 28.0388 89.3662 28.0695C89.1822 28.1155 88.9675 28.1385 88.7222 28.1385C88.2775 28.1385 87.9479 28.0542 87.7332 27.8855C87.5185 27.7168 87.4112 27.4332 87.4112 27.0345V17.3055C87.5339 17.2748 87.6872 17.2365 87.8712 17.1905C88.0705 17.1445 88.2929 17.1215 88.5382 17.1215C88.9829 17.1215 89.3049 17.2058 89.5042 17.3745C89.7189 17.5432 89.8262 17.8345 89.8262 18.2485V27.9545ZM87.1582 13.9245C87.1582 13.5258 87.2962 13.1962 87.5722 12.9355C87.8482 12.6595 88.2009 12.5215 88.6302 12.5215C89.0595 12.5215 89.4045 12.6595 89.6652 12.9355C89.9259 13.1962 90.0562 13.5258 90.0562 13.9245C90.0562 14.3232 89.9259 14.6605 89.6652 14.9365C89.4045 15.1972 89.0595 15.3275 88.6302 15.3275C88.2009 15.3275 87.8482 15.1972 87.5722 14.9365C87.2962 14.6605 87.1582 14.3232 87.1582 13.9245ZM100.382 21.0315C100.382 20.2802 100.167 19.7282 99.7381 19.3755C99.3241 19.0228 98.7568 18.8465 98.0361 18.8465C97.4994 18.8465 97.0164 18.9155 96.5871 19.0535C96.1731 19.1915 95.8128 19.3448 95.5061 19.5135V27.9545C95.3988 28.0005 95.2454 28.0388 95.0461 28.0695C94.8621 28.1155 94.6551 28.1385 94.4251 28.1385C93.9804 28.1385 93.6508 28.0542 93.4361 27.8855C93.2214 27.7168 93.1141 27.4332 93.1141 27.0345V19.4445C93.1141 19.0918 93.1831 18.8082 93.3211 18.5935C93.4591 18.3788 93.6891 18.1642 94.0111 17.9495C94.4404 17.6888 95.0001 17.4512 95.6901 17.2365C96.3801 17.0218 97.1621 16.9145 98.0361 16.9145C99.5234 16.9145 100.689 17.2518 101.532 17.9265C102.375 18.5858 102.797 19.5902 102.797 20.9395V27.9545C102.69 28.0005 102.536 28.0388 102.337 28.0695C102.138 28.1155 101.923 28.1385 101.693 28.1385C101.248 28.1385 100.919 28.0542 100.704 27.8855C100.489 27.7168 100.382 27.4332 100.382 27.0345V21.0315Z" fill="#263238"/>
</svg>
