<svg width="14" height="15" viewBox="0 0 14 15" fill="none" xmlns="http://www.w3.org/2000/svg">
<path d="M8.70101 7.1095L8.06051 7.75L13.3638 13.0533L12.3033 14.1138L7.00001 8.81125L1.69676 14.1138L0.636259 13.0533L7.64051 6.049C7.19951 4.95625 7.65551 3.38275 8.85551 2.18125C10.3203 0.717251 12.3385 0.361001 13.3638 1.38625C14.389 2.4115 14.0328 4.42975 12.5688 5.89375C11.3673 7.09525 9.79376 7.55125 8.70101 7.1095ZM1.16651 0.856001L6.20426 5.89375L4.08326 8.0155L1.16576 5.098C0.603346 4.53542 0.287399 3.77249 0.287399 2.977C0.287399 2.18151 0.603346 1.41858 1.16576 0.856001H1.16651ZM11.5075 4.8325C12.451 3.88975 12.6453 2.788 12.3033 2.446C11.9613 2.104 10.8595 2.29825 9.91676 3.241C8.97401 4.1845 8.77976 5.28625 9.12176 5.62825C9.46301 5.9695 10.5648 5.77525 11.5075 4.8325Z" fill="#546E7A"/>
</svg>
