<svg width="150" height="150" viewBox="0 0 150 150" fill="none" xmlns="http://www.w3.org/2000/svg">
<path d="M100 25V29" stroke="#BABABA" stroke-linecap="round" stroke-linejoin="round"/>
<path d="M98 27H102" stroke="#BABABA" stroke-linecap="round" stroke-linejoin="round"/>
<path d="M121 110V114" stroke="#BABABA" stroke-linecap="round" stroke-linejoin="round"/>
<path d="M119 112H123" stroke="#BABABA" stroke-linecap="round" stroke-linejoin="round"/>
<path d="M25 54V58" stroke="#BABABA" stroke-linecap="round" stroke-linejoin="round"/>
<path d="M23 56H27" stroke="#BABABA" stroke-linecap="round" stroke-linejoin="round"/>
<path d="M118 54C118.552 54 119 53.5523 119 53C119 52.4477 118.552 52 118 52C117.448 52 117 52.4477 117 53C117 53.5523 117.448 54 118 54Z" fill="#CFCFCF"/>
<path d="M31 115C31.5523 115 32 114.552 32 114C32 113.448 31.5523 113 31 113C30.4477 113 30 113.448 30 114C30 114.552 30.4477 115 31 115Z" fill="#CFCFCF"/>
<path d="M66.0921 136.935L66.3095 131.115L71.3255 134.075L66.0921 136.935Z" stroke="#BABABA"/>
<path d="M37.6515 26.808L43.3532 25.6182L41.6868 31.1993L37.6515 26.808Z" stroke="#BABABA"/>
<circle cx="136.5" cy="90.5" r="1.5" stroke="#BABABA" stroke-linecap="round" stroke-linejoin="round"/>
<circle cx="74.5" cy="74.5" r="38" fill="#E4E6EA" stroke="#D0D4DA"/>
<circle cx="74.5" cy="74.5" r="31" fill="white" stroke="#D0D4DA"/>
<path d="M71 93.2955V54.8803C71 54.4923 71.4228 54.2521 71.7561 54.4509L77.0924 57.6332C77.9752 58.1596 78.527 59.1013 78.5548 60.1287L78.9606 75.1487C78.9855 76.0682 78.5871 76.9484 77.8797 77.5365L76.551 78.6413V93.2955C76.551 94.2725 76.0997 95.1946 75.3281 95.7939C74.4147 96.5035 73.1364 96.5035 72.2229 95.7939C71.4514 95.1946 71 94.2725 71 93.2955Z" fill="#F2F3F5" stroke="#E4E6EA"/>
<path d="M56.4905 60.763L57.0002 59.1137C57.4142 57.7741 58.1318 56.5482 59.0971 55.5313C60.4035 54.1551 62.5965 54.1551 63.9029 55.5313C64.8682 56.5482 65.5858 57.7741 65.9998 59.1137L66.5095 60.763C66.8347 61.8151 67 62.9254 67 64.0265C67 65.4395 66.5724 66.8395 65.7734 68.0049L64.5971 69.7207C63.775 70.9197 63.3467 72.345 63.3715 73.7986L63.7209 94.2264C63.7333 94.9546 63.388 95.6427 62.7966 96.0678C62.0219 96.6248 60.9781 96.6248 60.2034 96.0678C59.612 95.6427 59.2667 94.9546 59.2791 94.2264L59.6285 73.7986C59.6533 72.345 59.225 70.9197 58.4029 69.7207L57.2266 68.0049C56.4276 66.8395 56 65.4395 56 64.0265C56 62.9254 56.1653 61.8151 56.4905 60.763Z" fill="#F2F3F5" stroke="#E4E6EA"/>
<path d="M84.8957 69.8791L84.3749 69.2908C83.4891 68.2901 83 66.9999 83 65.6635H88H93C93 66.9999 92.5109 68.2901 91.6251 69.2908L91.1043 69.8791C89.9139 71.2238 89.2858 72.9745 89.35 74.7692L90.0472 94.2695C90.07 94.9057 89.7956 95.5164 89.3048 95.9219C88.5475 96.5477 87.4525 96.5477 86.6952 95.9219C86.2044 95.5164 85.93 94.9057 85.9528 94.2695L86.65 74.7692C86.7142 72.9745 86.0861 71.2238 84.8957 69.8791Z" fill="#F2F3F5"/>
<path d="M83 55V65.6635M93 55V65.6635M83 65.6635V65.6635C83 66.9999 83.4891 68.2901 84.3749 69.2908L84.8957 69.8791C86.0861 71.2238 86.7142 72.9745 86.65 74.7692L85.9528 94.2695C85.93 94.9057 86.2044 95.5164 86.6952 95.9219V95.9219C87.4525 96.5477 88.5475 96.5477 89.3048 95.9219V95.9219C89.7956 95.5164 90.07 94.9057 90.0472 94.2695L89.35 74.7692C89.2858 72.9745 89.9139 71.2238 91.1043 69.8791L91.6251 69.2908C92.5109 68.2901 93 66.9999 93 65.6635V65.6635M83 65.6635H88M93 65.6635H88M88 65.6635V55" stroke="#E4E6EA" stroke-linecap="round"/>
</svg>
