<svg width="150" height="150" viewBox="0 0 150 150" fill="none" xmlns="http://www.w3.org/2000/svg">
<path d="M11.1359 101.715C11.7637 101.715 12.2727 101.206 12.2727 100.578C12.2727 99.9504 11.7637 99.4414 11.1359 99.4414C10.508 99.4414 9.99902 99.9504 9.99902 100.578C9.99902 101.206 10.508 101.715 11.1359 101.715Z" fill="#CFCFCF"/>
<path d="M51.2725 120V124.547" stroke="#BABABA" stroke-linecap="round" stroke-linejoin="round"/>
<path d="M48.999 122.273H53.5464" stroke="#BABABA" stroke-linecap="round" stroke-linejoin="round"/>
<path d="M24.6094 39.6895H118.167C120.289 39.6895 122.046 41.4924 122.046 43.7626V110.785C122.046 113.055 120.289 114.858 118.167 114.858H24.6094C22.4874 114.858 20.7305 113.055 20.7305 110.785V43.7626C20.7305 41.4924 22.4874 39.6895 24.6094 39.6895Z" fill="#F8F9FA" stroke="#D0D4DA"/>
<path d="M31.999 59.5H51.999C52.2752 59.5 52.499 59.7239 52.499 60V80C52.499 80.2761 52.2752 80.5 51.999 80.5H31.999C31.7229 80.5 31.499 80.2761 31.499 80V60C31.499 59.7239 31.7229 59.5 31.999 59.5Z" fill="white" stroke="#D0D4DA"/>
<path d="M60.999 59.5H80.999C81.2752 59.5 81.499 59.7239 81.499 60V80C81.499 80.2761 81.2752 80.5 80.999 80.5H60.999C60.7229 80.5 60.499 80.2761 60.499 80V60C60.499 59.7239 60.7229 59.5 60.999 59.5Z" fill="white" stroke="#D0D4DA"/>
<path d="M89.999 59.5H109.999C110.275 59.5 110.499 59.7239 110.499 60V80C110.499 80.2761 110.275 80.5 109.999 80.5H89.999C89.7229 80.5 89.499 80.2761 89.499 80V60C89.499 59.7239 89.7229 59.5 89.999 59.5Z" fill="white" stroke="#D0D4DA"/>
<path d="M31.999 87.5H51.999C52.2752 87.5 52.499 87.7239 52.499 88V107C52.499 107.276 52.2752 107.5 51.999 107.5H31.999C31.7229 107.5 31.499 107.276 31.499 107V88C31.499 87.7239 31.7229 87.5 31.999 87.5Z" fill="white" stroke="#D0D4DA"/>
<path d="M60.999 87.5H80.999C81.2752 87.5 81.499 87.7239 81.499 88V107C81.499 107.276 81.2752 107.5 80.999 107.5H60.999C60.7229 107.5 60.499 107.276 60.499 107V88C60.499 87.7239 60.7229 87.5 60.999 87.5Z" fill="white" stroke="#D0D4DA"/>
<path d="M122.046 43.6416V51.0917L20.7305 51.1942L20.7305 43.6416L20.7305 43.6404C20.7292 43.121 20.8289 42.6067 21.0238 42.1269C21.2187 41.6471 21.5048 41.2115 21.8655 40.8448C22.2262 40.4781 22.6542 40.1875 23.125 39.9894C23.5958 39.7913 24.1002 39.6895 24.6094 39.6895H118.167C118.677 39.6895 119.181 39.7913 119.652 39.9894C120.122 40.1875 120.551 40.4781 120.911 40.8448L121.268 40.4942L120.911 40.8448C121.272 41.2115 121.558 41.6471 121.753 42.1269C121.948 42.6067 122.048 43.121 122.046 43.6404V43.6416Z" fill="#E4E6EA" stroke="#D0D4DA"/>
<path d="M50.9253 32.3691V46.0112" stroke="#BABABA" stroke-linecap="round" stroke-linejoin="round"/>
<path d="M91.8516 32.3691V46.0112" stroke="#BABABA" stroke-linecap="round" stroke-linejoin="round"/>
<path d="M106.63 33.5061C107.258 33.5061 107.767 32.9971 107.767 32.3693C107.767 31.7414 107.258 31.2324 106.63 31.2324C106.003 31.2324 105.494 31.7414 105.494 32.3693C105.494 32.9971 106.003 33.5061 106.63 33.5061Z" fill="#CFCFCF"/>
<path d="M37.2833 33.5061C37.9112 33.5061 38.4202 32.9971 38.4202 32.3693C38.4202 31.7414 37.9112 31.2324 37.2833 31.2324C36.6555 31.2324 36.1465 31.7414 36.1465 32.3693C36.1465 32.9971 36.6555 33.5061 37.2833 33.5061Z" fill="#CFCFCF"/>
<path d="M137.272 27V31.5474" stroke="#BABABA" stroke-linecap="round" stroke-linejoin="round"/>
<path d="M134.999 29.2734H139.546" stroke="#BABABA" stroke-linecap="round" stroke-linejoin="round"/>
<path d="M14.5464 21V25.5474" stroke="#BABABA" stroke-linecap="round" stroke-linejoin="round"/>
<path d="M12.2729 23.2734H16.8203" stroke="#BABABA" stroke-linecap="round" stroke-linejoin="round"/>
<path d="M116.874 83.5273C112.376 83.5249 107.979 84.8564 104.238 87.3533C100.498 89.8501 97.5815 93.4003 95.8588 97.5547C94.136 101.709 93.684 106.281 94.5599 110.692C95.4358 115.104 97.6004 119.156 100.78 122.337C103.959 125.518 108.01 127.685 112.421 128.563C116.832 129.442 121.404 128.992 125.56 127.271C129.715 125.551 133.267 122.637 135.765 118.897C138.264 115.158 139.598 110.762 139.598 106.264C139.598 100.236 137.204 94.4548 132.943 90.1911C128.682 85.9275 122.902 83.5306 116.874 83.5273Z" fill="white" stroke="#D0D4DA" stroke-linecap="round" stroke-linejoin="round"/>
<path d="M125.956 97.1699L116.861 106.265M116.861 106.265L107.767 115.359M116.861 106.265L125.956 115.359M116.861 106.265L107.767 97.1699" stroke="#9BA2AE" stroke-width="2" stroke-linecap="round" stroke-linejoin="round"/>
<path d="M5.09114 87.9353L5.3085 82.1148L10.3245 85.0754L5.09114 87.9353Z" stroke="#BABABA"/>
</svg>
