<svg width="41" height="40" viewBox="0 0 41 40" fill="none" xmlns="http://www.w3.org/2000/svg">
<path d="M4.01581 12.9586C3.14797 13.8264 3.14798 15.2335 4.01581 16.1013L12.3601 24.4455L19.3714 17.4342L11.0272 9.0899C10.1594 8.22207 8.75233 8.22207 7.88449 9.0899L4.01581 12.9586Z" fill="#0E90D9"/>
<path d="M37.1452 12.9586C38.0131 13.8264 38.0131 15.2335 37.1452 16.1013L28.801 24.4455L21.7896 17.4342L30.1338 9.0899C31.0017 8.22207 32.4087 8.22207 33.2765 9.0899L37.1452 12.9586Z" fill="#0E90D9"/>
<path d="M13.6284 26.0163L18.767 31.0956C20.7126 32.9695 23.8005 32.9405 25.7107 31.0304C27.6722 29.0688 27.6423 25.8794 25.6442 23.955L20.6398 19.0049L13.6284 26.0163Z" fill="white"/>
</svg>
