<svg width="150" height="150" viewBox="0 0 150 150" fill="none" xmlns="http://www.w3.org/2000/svg">
<path d="M117.924 39.6541L46.7757 29.0022C45.706 28.842 44.7249 28.9479 44.0094 29.2236C43.2781 29.5054 42.9263 29.9154 42.8677 30.3066L34.1928 88.2497C34.1342 88.6409 34.3505 89.136 34.9672 89.6196C35.5706 90.0927 36.4777 90.4813 37.5474 90.6415L108.696 101.293C109.766 101.454 110.747 101.348 111.462 101.072C112.193 100.79 112.545 100.38 112.604 99.989L121.279 42.0459C121.337 41.6547 121.121 41.1596 120.504 40.676C119.901 40.2029 118.994 39.8143 117.924 39.6541Z" fill="#E4E6EA" stroke="#D0D4DA"/>
<path d="M114.463 104C114.463 107.038 112.001 109.5 108.963 109.5H50.969C49.5138 109.5 48.118 108.923 47.0872 107.896L30.1171 90.9895C29.0813 89.9575 28.499 88.5555 28.499 87.0932V42.2454C28.499 39.2078 30.9614 36.7454 33.999 36.7454H108.963C112.001 36.7454 114.463 39.2078 114.463 42.2454V104Z" fill="white" stroke="#D0D4DA"/>
<path d="M71.0941 48.0404L75.4558 37.5264C75.7077 36.9194 75.723 36.24 75.4987 35.6223L75.4666 35.5338C74.9756 34.1813 73.4596 33.507 72.1264 34.0483V34.0483C71.4685 34.3154 70.9526 34.8459 70.7039 35.511L65.9957 48.1049C65.6293 49.0851 65.6364 50.1658 66.0157 51.1411L66.1231 51.4173C66.6953 52.8884 68.1118 53.8573 69.6902 53.8573V53.8573C71.301 53.8573 72.7369 52.8557 73.2838 51.3406C75.0622 46.4142 78.8985 35.7437 79.7374 33.0572V33.0572C80.7352 29.8615 75.8219 27.0763 72.7053 28.299C72.2356 28.4832 71.7964 28.7654 71.4231 29.1795C70.6241 30.0658 70.126 31.9308 70.126 31.9308" stroke="#D0D4DA" stroke-linecap="round"/>
<path d="M48.9146 108.9V91.0857C48.9146 89.9811 48.0191 89.0857 46.9146 89.0857H29.0999" stroke="#D0D4DA" stroke-linecap="round" stroke-linejoin="round"/>
<path d="M46.7129 83.5801H76.6653M46.7129 71.0308H96.2496M46.7129 59.3621H96.2496" stroke="#E4E6EA" stroke-width="2" stroke-linecap="round" stroke-linejoin="round"/>
<path d="M113.01 88C109.054 87.9979 105.186 89.1691 101.895 91.3654C98.605 93.5617 96.0399 96.6846 94.5245 100.339C93.0091 103.993 92.6115 108.015 93.382 111.895C94.1525 115.776 96.0565 119.34 98.8531 122.138C101.65 124.936 105.213 126.842 109.093 127.615C112.973 128.387 116.995 127.992 120.65 126.479C124.305 124.965 127.43 122.402 129.628 119.113C131.826 115.823 132.999 111.956 132.999 108C132.999 102.698 130.893 97.6121 127.145 93.8617C123.397 90.1112 118.312 88.0029 113.01 88Z" fill="white" stroke="#D0D4DA" stroke-linecap="round" stroke-linejoin="round"/>
<circle cx="109.913" cy="104.916" r="7.42825" transform="rotate(-43.2426 109.913 104.916)" stroke="#9BA2AE" stroke-width="2"/>
<path d="M114.773 112.215C114.436 111.896 114.437 111.359 114.775 111.04L115.724 110.148C116.062 109.83 116.599 109.862 116.897 110.218L123.248 117.812C123.522 118.14 123.493 118.626 123.182 118.919L123.072 119.022C122.76 119.315 122.274 119.314 121.963 119.02L114.773 112.215Z" fill="#9BA2AE"/>
<path d="M76.2291 129.46C76.9084 129.46 77.4591 128.909 77.4591 128.23C77.4591 127.551 76.9084 127 76.2291 127C75.5497 127 74.999 127.551 74.999 128.23C74.999 128.909 75.5497 129.46 76.2291 129.46Z" fill="#CFCFCF"/>
<circle cx="96.499" cy="25.5" r="1.5" stroke="#BABABA" stroke-linecap="round" stroke-linejoin="round"/>
<path d="M14.6982 97V102.397" stroke="#BABABA" stroke-linecap="round" stroke-linejoin="round"/>
<path d="M11.999 99.6992H17.3962" stroke="#BABABA" stroke-linecap="round" stroke-linejoin="round"/>
<path d="M130.091 81.9353L130.308 76.1148L135.325 79.0754L130.091 81.9353Z" stroke="#BABABA"/>
<path d="M27.2382 30.0039L27.3618 26.6953L30.2131 28.3782L27.2382 30.0039Z" stroke="#BABABA"/>
<circle cx="18.499" cy="65.5" r="1.5" stroke="#BABABA" stroke-linecap="round" stroke-linejoin="round"/>
</svg>
