<svg width="14" height="17" viewBox="0 0 14 17" fill="none" xmlns="http://www.w3.org/2000/svg">
<path d="M10.75 1.5H13C13.1989 1.5 13.3897 1.57902 13.5303 1.71967C13.671 1.86032 13.75 2.05109 13.75 2.25V15.75C13.75 15.9489 13.671 16.1397 13.5303 16.2803C13.3897 16.421 13.1989 16.5 13 16.5H1C0.801088 16.5 0.610322 16.421 0.46967 16.2803C0.329018 16.1397 0.25 15.9489 0.25 15.75V2.25C0.25 2.05109 0.329018 1.86032 0.46967 1.71967C0.610322 1.57902 0.801088 1.5 1 1.5H3.25V0H4.75V1.5H9.25V0H10.75V1.5ZM10.75 3V4.5H9.25V3H4.75V4.5H3.25V3H1.75V15H12.25V3H10.75ZM3.25 6H10.75V7.5H3.25V6ZM3.25 9H10.75V10.5H3.25V9Z" fill="#546E7A"/>
</svg>
