<svg width="61" height="61" viewBox="0 0 61 61" fill="none" xmlns="http://www.w3.org/2000/svg">
<rect x="0.571289" y="0.572266" width="60" height="60" rx="7.97872" fill="#F3F4F6"/>
<path d="M28.4283 34.098C25.9413 32.238 24.1674 30.1919 23.1984 29.0419C22.8984 28.6859 22.8004 28.4249 22.7414 27.9659C22.5394 26.3938 22.4384 25.6078 22.8994 25.0998C23.3604 24.5918 24.1754 24.5918 25.8053 24.5918H37.3372C38.9672 24.5918 39.7822 24.5918 40.2432 25.0988C40.7042 25.6068 40.6032 26.3928 40.4012 27.9649C40.3412 28.4239 40.2432 28.6849 39.9442 29.0409C38.9742 30.1929 37.1972 32.243 34.7043 34.106C34.589 34.1957 34.4937 34.3085 34.4245 34.4371C34.3552 34.5657 34.3136 34.7074 34.3023 34.853C34.0553 37.5841 33.8273 39.0801 33.6853 39.8361C33.4563 41.0582 31.7253 41.7932 30.7973 42.4482C30.2453 42.8382 29.5753 42.3742 29.5043 41.7702C29.2388 39.4686 29.0141 37.1625 28.8303 34.853C28.82 34.706 28.7789 34.5628 28.7097 34.4327C28.6404 34.3026 28.5446 34.1886 28.4283 34.098Z" stroke="#313131" stroke-width="2" stroke-linecap="round" stroke-linejoin="round"/>
<path d="M37.5713 18.5918C37.5713 19.6964 36.6759 20.5918 35.5713 20.5918C34.4667 20.5918 33.5713 19.6964 33.5713 18.5918C33.5713 17.4872 34.4667 16.5918 35.5713 16.5918C36.6759 16.5918 37.5713 17.4872 37.5713 18.5918Z" fill="#313131"/>
<path d="M27.5713 19.5918C27.5713 20.6964 26.6759 21.5918 25.5713 21.5918C24.4667 21.5918 23.5713 20.6964 23.5713 19.5918C23.5713 18.4872 24.4667 17.5918 25.5713 17.5918C26.6759 17.5918 27.5713 18.4872 27.5713 19.5918Z" fill="#313131"/>
<path d="M32.5713 21.0918C32.5713 21.9202 31.8997 22.5918 31.0713 22.5918C30.2429 22.5918 29.5713 21.9202 29.5713 21.0918C29.5713 20.2634 30.2429 19.5918 31.0713 19.5918C31.8997 19.5918 32.5713 20.2634 32.5713 21.0918Z" fill="#313131"/>
</svg>
