<svg width="150" height="150" viewBox="0 0 150 150" fill="none" xmlns="http://www.w3.org/2000/svg">
<path d="M72.9 123.419C73.5793 123.419 74.13 122.868 74.13 122.189C74.13 121.51 73.5793 120.959 72.9 120.959C72.2206 120.959 71.6699 121.51 71.6699 122.189C71.6699 122.868 72.2206 123.419 72.9 123.419Z" fill="#CFCFCF"/>
<path d="M37.1655 30.8164V36.2136" stroke="#BABABA" stroke-linecap="round" stroke-linejoin="round"/>
<path d="M34.4541 33.5117H39.8638" stroke="#BABABA" stroke-linecap="round" stroke-linejoin="round"/>
<path d="M81.6099 23.4601C82.2893 23.4601 82.84 22.9094 82.84 22.2301C82.84 21.5507 82.2893 21 81.6099 21C80.9306 21 80.3799 21.5507 80.3799 22.2301C80.3799 22.9094 80.9306 23.4601 81.6099 23.4601Z" fill="#CFCFCF"/>
<path d="M16.2291 82.4601C16.9084 82.4601 17.4591 81.9094 17.4591 81.2301C17.4591 80.5507 16.9084 80 16.2291 80C15.5497 80 14.999 80.5507 14.999 81.2301C14.999 81.9094 15.5497 82.4601 16.2291 82.4601Z" fill="#CFCFCF"/>
<path d="M55.6982 137V142.397" stroke="#BABABA" stroke-linecap="round" stroke-linejoin="round"/>
<path d="M52.999 139.699H58.3962" stroke="#BABABA" stroke-linecap="round" stroke-linejoin="round"/>
<path d="M137.71 61V66.4097" stroke="#BABABA" stroke-linecap="round" stroke-linejoin="round"/>
<path d="M134.999 63.709H140.409" stroke="#BABABA" stroke-linecap="round" stroke-linejoin="round"/>
<path fill-rule="evenodd" clip-rule="evenodd" d="M37.499 63.5L36.6846 110.185C36.6846 110.577 36.9251 110.928 37.2903 111.07L73.8929 125.3L110.495 111.07C110.861 110.928 111.101 110.577 111.101 110.185V63.5912L73.8929 78.8575L37.499 63.5Z" fill="white"/>
<path d="M73.8929 78.8575L111.101 63.5912L73.8929 47.4004L37.499 63.5L73.8929 78.8575Z" fill="#E4E6EA"/>
<path d="M73.8929 78.8575V125.3M73.8929 78.8575L111.101 63.5912M73.8929 78.8575L37.499 63.5M73.8929 78.8575V47.4004M73.8929 125.3L110.495 111.07M73.8929 125.3L37.2903 111.07M111.101 63.5912V110.185M111.101 63.5912L73.8929 47.4004M37.499 63.5L36.6846 110.185M37.499 63.5L73.8929 47.4004M110.495 111.07C110.861 110.928 111.101 110.577 111.101 110.185M110.495 111.07V111.07C110.861 110.928 111.101 110.577 111.101 110.185V110.185M37.2903 111.07C36.9251 110.928 36.6846 110.577 36.6846 110.185M37.2903 111.07V111.07C36.9251 110.928 36.6846 110.577 36.6846 110.185V110.185" stroke="#D0D4DA"/>
<path d="M32.2265 58.4904C34.6255 59.5992 35.798 60.9384 36.306 62.0799C36.6475 62.8471 37.7143 63.6113 38.4834 63.2738L72.2922 48.4379C72.9207 48.1621 73.0909 47.3495 72.6259 46.8447L63.1105 36.5131C62.8265 36.2048 62.3805 36.1063 61.9931 36.2663L23.7473 52.0634C22.968 52.3853 22.9123 53.4677 23.6544 53.8678L32.2265 58.4904Z" fill="#F2F3F5" stroke="#D0D4DA"/>
<path d="M120.29 71.6635L110.379 63.5508L74.0498 78.7508L81.5506 89.4769C81.8244 89.8685 82.337 90.0116 82.7741 89.8186L120.061 73.3521C120.743 73.0509 120.867 72.1359 120.29 71.6635Z" fill="#F2F3F5" stroke="#D0D4DA"/>
<path d="M64.1495 89.6226L74.0506 78.7508L37.499 63.5L26.8189 72.6268C26.2566 73.1073 26.3925 74.0108 27.0712 74.3047L63.0128 89.8669C63.405 90.0367 63.8617 89.9385 64.1495 89.6226Z" fill="#F2F3F5" stroke="#D0D4DA"/>
<path d="M76.5998 44.1202C74.9072 45.7068 74.3331 46.3369 74.0498 47.3992L110.625 63.5492L121.383 53.166C121.906 52.661 121.732 51.7842 121.056 51.5166L84.8392 37.1825C84.4794 37.0401 84.0718 37.1161 83.7894 37.3808L76.5998 44.1202Z" fill="#F2F3F5" stroke="#D0D4DA"/>
<path d="M113.009 93C109.251 92.998 105.576 94.1106 102.451 96.1971C99.3247 98.2836 96.8879 101.25 95.4483 104.722C94.0086 108.194 93.6309 112.014 94.3629 115.7C95.0948 119.387 96.9036 122.773 99.5604 125.431C102.217 128.09 105.603 129.9 109.289 130.634C112.974 131.368 116.795 130.992 120.268 129.555C123.74 128.117 126.708 125.682 128.796 122.557C130.884 119.432 131.999 115.758 131.999 112C131.999 106.963 129.999 102.131 126.438 98.5686C122.877 95.0057 118.047 93.0027 113.009 93Z" fill="white" stroke="#D0D4DA" stroke-linecap="round" stroke-linejoin="round"/>
<path d="M108.249 107.369C108.249 105.203 110.162 103.449 112.524 103.449C114.886 103.449 116.799 105.205 116.799 107.369C116.799 108.151 116.551 108.877 116.121 109.489C114.843 111.306 112.524 113.045 112.524 115.211V116.19M112.524 121.499H112.543" stroke="#9BA2AE" stroke-width="2" stroke-linecap="round" stroke-linejoin="round"/>
<path d="M60.499 108.739L69.499 112.339V118.261L60.499 114.661L60.3133 115.126L60.499 114.661L60.499 108.739Z" fill="#F2F3F5" stroke="#D0D4DA"/>
<path d="M12.0911 120.935L12.3085 115.115L17.3245 118.075L12.0911 120.935Z" stroke="#BABABA"/>
<path d="M104.462 27.956L104.475 28.0234L104.475 28.0233C104.475 28.0233 104.475 28.0234 104.475 28.0234L104.462 27.956ZM104.462 27.956L104.516 27.914L104.516 27.9142C104.516 27.9141 104.516 27.9141 104.516 27.914L104.462 27.956ZM104.585 28.0026L109.129 27.1431L107.413 31.6626L104.585 28.0026Z" stroke="#BABABA"/>
<circle cx="136.499" cy="122.5" r="1.5" stroke="#BABABA" stroke-linecap="round" stroke-linejoin="round"/>
</svg>
