<svg width="150" height="150" viewBox="0 0 150 150" fill="none" xmlns="http://www.w3.org/2000/svg">
<path d="M111.355 35.5483L70.9437 22.2935C69.6472 21.9164 68.3627 22.6031 68.0262 23.7482L49.0689 88.2559C48.7318 89.4031 49.4437 90.6782 50.7427 91.0599L102.503 106.271C103.802 106.653 105.091 105.966 105.428 104.818L121.141 51.3485C121.431 50.3644 121.274 49.303 120.712 48.4449L113.193 36.9572C112.758 36.2927 112.11 35.7959 111.355 35.5483Z" fill="#E4E6EA" stroke="#D0D4DA"/>
<path d="M41.5 31C41.5 27.9624 43.9624 25.5 47 25.5H89.7287C91.1868 25.5 92.5852 26.079 93.6166 27.1097L105.888 39.3734C106.92 40.405 107.5 41.8044 107.5 43.2637V103C107.5 106.038 105.038 108.5 102 108.5H47C43.9624 108.5 41.5 106.038 41.5 103V31Z" fill="white" stroke="#D0D4DA"/>
<path d="M91 26V38.7117C91 40.5278 92.3865 42 94.0968 42H107" stroke="#D0D4DA" stroke-linecap="round" stroke-linejoin="round"/>
<path d="M51 48H73.9767M51 60H89M51 73H89M51 86H89" stroke="#E4E6EA" stroke-width="2" stroke-linecap="round" stroke-linejoin="round"/>
<path d="M108.011 85C104.055 84.9979 100.187 86.1691 96.8964 88.3654C93.606 90.5617 91.0409 93.6846 89.5255 97.3389C88.0101 100.993 87.6125 105.015 88.383 108.895C89.1535 112.776 91.0575 116.34 93.8541 119.138C96.6507 121.936 100.214 123.842 104.094 124.615C107.974 125.387 111.996 124.992 115.651 123.479C119.306 121.965 122.431 119.402 124.629 116.113C126.827 112.823 128 108.956 128 105C128 99.6975 125.894 94.6121 122.146 90.8617C118.398 87.1112 113.313 85.0029 108.011 85Z" fill="white" stroke="#D0D4DA" stroke-linecap="round" stroke-linejoin="round"/>
<path d="M113.5 100.507C113.5 97.8333 111.037 95.6667 108 95.6667M108 95.6667C104.963 95.6667 102.5 97.8333 102.5 100.507C102.5 103.18 104 104.653 108 104.653C112 104.653 114 106.037 114 109.493C114 112.951 111.313 114.333 108 114.333M108 95.6667V93M108 114.333C104.687 114.333 102 112.167 102 109.493M108 114.333V117" stroke="#9BA2AE" stroke-width="2" stroke-linecap="round" stroke-linejoin="round"/>
<path d="M26.2301 116.46C26.9094 116.46 27.4601 115.909 27.4601 115.23C27.4601 114.551 26.9094 114 26.2301 114C25.5507 114 25 114.551 25 115.23C25 115.909 25.5507 116.46 26.2301 116.46Z" fill="#CFCFCF"/>
<circle cx="132.5" cy="56.5" r="1.5" stroke="#BABABA" stroke-linecap="round" stroke-linejoin="round"/>
<path d="M57.6992 120V125.397" stroke="#BABABA" stroke-linecap="round" stroke-linejoin="round"/>
<path d="M55 122.699H60.3972" stroke="#BABABA" stroke-linecap="round" stroke-linejoin="round"/>
<path d="M119.711 26V31.4097" stroke="#BABABA" stroke-linecap="round" stroke-linejoin="round"/>
<path d="M117 28.709H122.41" stroke="#BABABA" stroke-linecap="round" stroke-linejoin="round"/>
<path d="M87.0921 15.9353L87.3095 10.1148L92.3255 13.0754L87.0921 15.9353Z" stroke="#BABABA"/>
<path d="M25.7187 31L25.8422 27.6914L28.6936 29.3743L25.7187 31Z" stroke="#BABABA"/>
<circle cx="13.5" cy="62.5" r="1.5" stroke="#BABABA" stroke-linecap="round" stroke-linejoin="round"/>
</svg>
