<svg width="61" height="61" viewBox="0 0 61 61" fill="none" xmlns="http://www.w3.org/2000/svg">
<rect x="0.571289" y="0.572266" width="60" height="60" rx="8.01887" fill="#F3F4F6"/>
<path d="M32.5527 35.1951C32.5527 32.7047 32.5527 31.4595 33.3264 30.6858C34.1001 29.9121 35.3453 29.9121 37.8358 29.9121C40.3262 29.9121 41.5714 29.9121 42.3451 30.6858C43.1188 31.4595 43.1188 32.7047 43.1188 35.1951V37.8366C43.1188 40.3271 43.1188 41.5723 42.3451 42.346C41.5714 43.1197 40.3262 43.1197 37.8358 43.1197C35.3453 43.1197 34.1001 43.1197 33.3264 42.346C32.5527 41.5723 32.5527 40.3271 32.5527 37.8366V35.1951Z" stroke="#313131" stroke-width="1.98113"/>
<path d="M17.3633 25.948C17.3633 28.4384 17.3633 29.6836 18.137 30.4573C18.9106 31.231 20.1559 31.231 22.6463 31.231C25.1367 31.231 26.382 31.231 27.1556 30.4573C27.9293 29.6836 27.9293 28.4384 27.9293 25.948V23.3065C27.9293 20.816 27.9293 19.5708 27.1556 18.7971C26.382 18.0234 25.1367 18.0234 22.6463 18.0234C20.1559 18.0234 18.9106 18.0234 18.137 18.7971C17.3633 19.5708 17.3633 20.816 17.3633 23.3065V25.948Z" stroke="#313131" stroke-width="1.98113"/>
<path d="M32.5527 21.9857C32.5527 20.7549 32.5527 20.1395 32.7538 19.6541C33.0219 19.0068 33.5361 18.4926 34.1834 18.2245C34.6688 18.0234 35.2842 18.0234 36.515 18.0234H39.1565C40.3873 18.0234 41.0027 18.0234 41.4881 18.2245C42.1354 18.4926 42.6496 19.0068 42.9177 19.6541C43.1188 20.1395 43.1188 20.7549 43.1188 21.9857C43.1188 23.2165 43.1188 23.8319 42.9177 24.3173C42.6496 24.9646 42.1354 25.4788 41.4881 25.7469C41.0027 25.948 40.3873 25.948 39.1565 25.948H36.515C35.2842 25.948 34.6688 25.948 34.1834 25.7469C33.5361 25.4788 33.0219 24.9646 32.7538 24.3173C32.5527 23.8319 32.5527 23.2165 32.5527 21.9857Z" stroke="#313131" stroke-width="1.98113"/>
<path d="M17.3633 39.1556C17.3633 40.3864 17.3633 41.0018 17.5644 41.4872C17.8325 42.1345 18.3467 42.6487 18.9939 42.9168C19.4794 43.1179 20.0948 43.1179 21.3255 43.1179H23.9671C25.1978 43.1179 25.8132 43.1179 26.2987 42.9168C26.9459 42.6487 27.4601 42.1345 27.7282 41.4872C27.9293 41.0018 27.9293 40.3864 27.9293 39.1556C27.9293 37.9248 27.9293 37.3094 27.7282 36.824C27.4601 36.1768 26.9459 35.6625 26.2987 35.3944C25.8132 35.1934 25.1978 35.1934 23.9671 35.1934H21.3255C20.0948 35.1934 19.4794 35.1934 18.9939 35.3944C18.3467 35.6625 17.8325 36.1768 17.5644 36.824C17.3633 37.3094 17.3633 37.9248 17.3633 39.1556Z" stroke="#313131" stroke-width="1.98113"/>
</svg>
