<svg width="62" height="61" viewBox="0 0 62 61" fill="none" xmlns="http://www.w3.org/2000/svg">
<rect x="0.571289" width="60.5714" height="60.5714" rx="8.09524" fill="#F3F4F6"/>
<path d="M23.6275 34.9272C21.7409 36.0498 16.7942 38.3432 19.8075 41.2138C21.2782 42.6152 22.9169 43.6178 24.9769 43.6178H36.7342C38.7956 43.6178 40.4342 42.6152 41.9049 41.2138C44.9182 38.3432 39.9715 36.0498 38.0849 34.9272C35.8953 33.6336 33.3987 32.9513 30.8555 32.9513C28.3124 32.9513 25.8172 33.6336 23.6275 34.9272ZM36.8569 22.9512C36.8569 24.5425 36.2247 26.0686 35.0995 27.1938C33.9743 28.319 32.4482 28.9512 30.8569 28.9512C29.2656 28.9512 27.7395 28.319 26.6142 27.1938C25.489 26.0686 24.8569 24.5425 24.8569 22.9512C24.8569 21.3599 25.489 19.8337 26.6142 18.7085C27.7395 17.5833 29.2656 16.9512 30.8569 16.9512C32.4482 16.9512 33.9743 17.5833 35.0995 18.7085C36.2247 19.8337 36.8569 21.3599 36.8569 22.9512Z" stroke="black" stroke-width="2" stroke-linecap="round" stroke-linejoin="round"/>
</svg>
