<svg width="61" height="61" viewBox="0 0 61 61" fill="none" xmlns="http://www.w3.org/2000/svg">
<rect x="0.571289" y="0.304688" width="60" height="60" rx="7.95748" fill="#F3F4F6"/>
<path d="M36.8255 38.2793H28.4928C28.3418 39.1726 27.99 40.0199 27.4639 40.7574C26.9377 41.495 26.251 42.1034 25.4555 42.5368C24.66 42.9703 23.7764 43.2175 22.8714 43.2597C21.9664 43.3019 21.0637 43.1381 20.2313 42.7807C19.3988 42.4232 18.6584 41.8814 18.0658 41.1961C17.4733 40.5108 17.0441 39.6999 16.8106 38.8245C16.5771 37.9492 16.5454 37.0323 16.7179 36.1429C16.8903 35.2535 17.2625 34.4149 17.8063 33.6903C17.885 33.5855 17.9835 33.4972 18.0963 33.4305C18.2091 33.3639 18.3339 33.32 18.4636 33.3016C18.5933 33.2831 18.7254 33.2904 18.8523 33.3229C18.9792 33.3555 19.0984 33.4128 19.2032 33.4914C19.308 33.5701 19.3963 33.6686 19.4629 33.7814C19.5296 33.8942 19.5735 34.019 19.5919 34.1487C19.6104 34.2784 19.6031 34.4105 19.5706 34.5374C19.538 34.6643 19.4807 34.7836 19.4021 34.8883C18.8817 35.5776 18.6015 36.4183 18.6042 37.2819C18.6042 38.34 19.0245 39.3547 19.7726 40.1028C20.5208 40.851 21.5355 41.2713 22.5935 41.2713C23.6516 41.2713 24.6663 40.851 25.4144 40.1028C26.1626 39.3547 26.5829 38.34 26.5829 37.2819C26.5829 37.0174 26.688 36.7638 26.875 36.5767C27.062 36.3897 27.3157 36.2846 27.5802 36.2846H36.8255C37.0451 35.9043 37.384 35.6071 37.7896 35.4391C38.1953 35.2711 38.6451 35.2416 39.0692 35.3552C39.4934 35.4689 39.8682 35.7193 40.1355 36.0677C40.4028 36.416 40.5477 36.8428 40.5477 37.2819C40.5477 37.721 40.4028 38.1479 40.1355 38.4962C39.8682 38.8446 39.4934 39.095 39.0692 39.2087C38.6451 39.3223 38.1953 39.2928 37.7896 39.1248C37.384 38.9567 37.0451 38.6595 36.8255 38.2793ZM22.5935 39.2766C22.939 39.2767 23.2786 39.1871 23.579 39.0166C23.8795 38.846 24.1305 38.6003 24.3074 38.3036C24.4844 38.0069 24.5812 37.6693 24.5885 37.3239C24.5957 36.9785 24.5132 36.6371 24.3489 36.3332L28.8082 29.0851C28.9466 28.8599 28.9899 28.5889 28.9287 28.3318C28.8674 28.0747 28.7066 27.8524 28.4816 27.7137C27.9485 27.3856 27.5001 26.9366 27.1727 26.403C26.8453 25.8695 26.6481 25.2664 26.5969 24.6425C26.5458 24.0186 26.6422 23.3914 26.8783 22.8117C27.1145 22.2319 27.4837 21.7159 27.9562 21.3053C28.4287 20.8947 28.9913 20.601 29.5983 20.4481C30.2053 20.2951 30.8398 20.2872 31.4504 20.4249C32.0611 20.5626 32.6308 20.842 33.1134 21.2407C33.5961 21.6393 33.9781 22.1459 34.2287 22.7196C34.3345 22.9621 34.5323 23.1527 34.7786 23.2493C35.025 23.346 35.2996 23.3409 35.5421 23.2351C35.7846 23.1293 35.9752 22.9315 36.0718 22.6852C36.1685 22.4388 36.1634 22.1642 36.0576 21.9217C35.6983 21.1004 35.1591 20.3704 34.4799 19.7854C33.8006 19.2005 32.9986 18.7757 32.1331 18.5423C31.2676 18.3089 30.3607 18.273 29.4794 18.4371C28.5982 18.6013 27.7651 18.9613 27.0416 19.4906C26.3182 20.02 25.7229 20.7051 25.2998 21.4953C24.8766 22.2856 24.6364 23.1608 24.597 24.0564C24.5575 24.9519 24.7197 25.8449 25.0716 26.6693C25.4236 27.4937 25.9562 28.2286 26.6303 28.8195L22.6484 35.2873H22.5935C22.0645 35.2873 21.5572 35.4974 21.1831 35.8715C20.809 36.2456 20.5989 36.7529 20.5989 37.2819C20.5989 37.811 20.809 38.3183 21.1831 38.6924C21.5572 39.0665 22.0645 39.2766 22.5935 39.2766ZM38.5509 31.2979C37.782 31.298 37.0202 31.4457 36.3069 31.733L32.3275 25.264C32.535 24.8798 32.6106 24.4381 32.5427 24.0067C32.4749 23.5754 32.2674 23.1782 31.9521 22.8762C31.6368 22.5741 31.2311 22.3839 30.7972 22.3346C30.3633 22.2854 29.9253 22.3799 29.5503 22.6036C29.1753 22.8273 28.8841 23.1679 28.7213 23.573C28.5586 23.9782 28.5333 24.4256 28.6493 24.8466C28.7653 25.2675 29.0163 25.6388 29.3636 25.9034C29.711 26.1679 30.1356 26.3112 30.5722 26.3112H30.6271L35.0877 33.5606C35.2265 33.7855 35.4489 33.946 35.706 34.007C35.9631 34.068 36.234 34.0245 36.459 33.886C36.9841 33.5623 37.5771 33.3648 38.1914 33.309C38.8057 33.2531 39.4246 33.3405 39.9994 33.5643C40.5743 33.788 41.0894 34.142 41.5043 34.5984C41.9193 35.0548 42.2227 35.6012 42.3908 36.1947C42.5589 36.7882 42.5871 37.4126 42.4732 38.0188C42.3592 38.625 42.1063 39.1966 41.7342 39.6885C41.3621 40.1805 40.8809 40.5795 40.3286 40.8541C39.7763 41.1287 39.1678 41.2715 38.5509 41.2713C38.2864 41.2713 38.0327 41.3764 37.8457 41.5634C37.6587 41.7504 37.5536 42.0041 37.5536 42.2686C37.5536 42.5331 37.6587 42.7868 37.8457 42.9739C38.0327 43.1609 38.2864 43.266 38.5509 43.266C40.138 43.266 41.6601 42.6355 42.7823 41.5133C43.9045 40.3911 44.535 38.869 44.535 37.2819C44.535 35.6949 43.9045 34.1728 42.7823 33.0506C41.6601 31.9284 40.138 31.2979 38.5509 31.2979Z" fill="#313131"/>
</svg>
