<svg width="62" height="62" viewBox="0 0 62 62" fill="none" xmlns="http://www.w3.org/2000/svg">
<rect x="0.571289" y="0.732422" width="60.5714" height="60.5714" rx="8.09524" fill="#F3F4F6"/>
<path d="M30.857 25.6836C32.7437 25.6836 33.6863 25.6836 34.2703 25.0969C34.857 24.5116 34.857 23.5703 34.857 21.6836C34.857 19.7969 34.857 18.8543 34.2703 18.2703C33.685 17.6836 32.7437 17.6836 30.857 17.6836C28.9703 17.6836 28.0277 17.6836 27.4437 18.2703C26.857 18.8556 26.857 19.7983 26.857 21.6836C26.857 23.5703 26.857 24.5129 27.4437 25.0969C28.029 25.6836 28.9703 25.6836 30.857 25.6836ZM30.857 25.6836V27.0169M21.5237 36.3503C19.637 36.3503 18.6943 36.3503 18.1103 36.9369C17.5237 37.5223 17.5237 38.4649 17.5237 40.3503C17.5237 42.2369 17.5237 43.1796 18.1103 43.7636C18.6957 44.3503 19.637 44.3503 21.5237 44.3503C23.4103 44.3503 24.353 44.3503 24.937 43.7636C25.5237 43.1783 25.5237 42.2369 25.5237 40.3503C25.5237 38.4636 25.5237 37.5209 24.937 36.9369C24.3517 36.3503 23.4103 36.3503 21.5237 36.3503ZM21.5237 36.3503V35.0169C21.5237 33.7743 21.5237 33.1529 21.761 32.6636C22.0757 32.0103 22.6823 31.4903 23.4437 31.2196C24.017 31.0169 24.741 31.0169 26.1903 31.0169C27.6397 31.0169 28.3637 31.0169 28.937 30.8143C29.6997 30.5436 30.305 30.0236 30.6197 29.3703C30.857 28.8809 30.857 28.2596 30.857 27.0169M40.1903 36.3503C38.3037 36.3503 37.361 36.3503 36.777 36.9369C36.1903 37.5223 36.1903 38.4649 36.1903 40.3503C36.1903 42.2369 36.1903 43.1796 36.777 43.7636C37.3623 44.3503 38.305 44.3503 40.1903 44.3503C42.0757 44.3503 43.0183 44.3503 43.6037 43.7636C44.1903 43.1783 44.1903 42.2356 44.1903 40.3503C44.1903 38.4649 44.1903 37.5223 43.6037 36.9369C43.0183 36.3503 42.077 36.3503 40.1903 36.3503ZM40.1903 36.3503V35.0169C40.1903 33.7743 40.1903 33.1529 39.953 32.6636C39.6383 32.0103 39.0317 31.4903 38.2703 31.2196C37.697 31.0169 36.973 31.0169 35.5237 31.0169C34.0743 31.0169 33.3503 31.0169 32.777 30.8143C32.0143 30.5436 31.409 30.0236 31.0943 29.3703C30.857 28.8809 30.857 28.2596 30.857 27.0169" stroke="#313131" stroke-width="2" stroke-linecap="round" stroke-linejoin="round"/>
</svg>
