<?xml version="1.0" encoding="UTF-8" standalone="no" ?>
<!DOCTYPE svg PUBLIC "-//W3C//DTD SVG 1.1//EN" "http://www.w3.org/Graphics/SVG/1.1/DTD/svg11.dtd">
<svg xmlns="http://www.w3.org/2000/svg" xmlns:xlink="http://www.w3.org/1999/xlink" version="1.1" width="1080" height="1080" viewBox="0 0 1080 1080" xml:space="preserve">
<desc>Created with Fabric.js 5.2.4</desc>
<defs>
</defs>
<g transform="matrix(1 0 0 1 540 540)" id="85bbb593-b06d-4501-8708-a14f07aec00b"  >
<rect style="stroke: none; stroke-width: 1; stroke-dasharray: none; stroke-linecap: butt; stroke-dashoffset: 0; stroke-linejoin: miter; stroke-miterlimit: 4; fill: rgb(255,255,255); fill-rule: nonzero; opacity: 1; visibility: hidden;" vector-effect="non-scaling-stroke"  x="-540" y="-540" rx="0" ry="0" width="1080" height="1080" />
</g>
<g transform="matrix(1 0 0 1 540 540)" id="36228ce4-fbb8-4cba-bd22-746a363a4714"  >
</g>
<g transform="matrix(3 0 0 3 540 540)"  >
<g style=""   >
		<g transform="matrix(1 0 0 1 0 0)"  >
<rect style="stroke: none; stroke-width: 1; stroke-dasharray: none; stroke-linecap: butt; stroke-dashoffset: 0; stroke-linejoin: miter; stroke-miterlimit: 4; fill: rgb(17,24,39); fill-rule: nonzero; opacity: 1;" vector-effect="non-scaling-stroke"  x="-180" y="-180" rx="0" ry="0" width="360" height="360" />
</g>
		<g transform="matrix(1 0 0 1 46.56 54.97)"  >
<path style="stroke: none; stroke-width: 1; stroke-dasharray: none; stroke-linecap: butt; stroke-dashoffset: 0; stroke-linejoin: miter; stroke-miterlimit: 4; fill: rgb(17,24,39); fill-rule: nonzero; opacity: 1;" vector-effect="non-scaling-stroke"  transform=" translate(-226.56, -234.97)" d="M 240.421 231.664 L 223.281 248.942 C 221.988 250.246 221.341 250.898 220.661 251.277 C 218.999 252.203 216.982 252.203 215.32 251.276 C 214.639 250.896 213.992 250.244 212.698 248.939 C 211.404 247.635 210.757 246.982 210.38 246.297 C 209.461 244.621 209.46 242.587 210.379 240.913 C 210.756 240.227 211.402 239.575 212.696 238.271 L 229.836 220.994 C 231.129 219.69 231.776 219.038 232.456 218.658 C 234.118 217.732 236.135 217.733 237.797 218.66 C 238.478 219.039 239.125 219.692 240.419 220.996 C 241.713 222.301 242.36 222.953 242.736 223.639 C 243.656 225.314 243.657 227.348 242.738 229.023 C 242.361 229.709 241.715 230.36 240.421 231.664 Z" stroke-linecap="round" />
</g>
		<g transform="matrix(1 0 0 1 23.74 32.09)"  >
<path style="stroke: rgb(107,114,128); stroke-width: 6; stroke-dasharray: none; stroke-linecap: butt; stroke-dashoffset: 0; stroke-linejoin: miter; stroke-miterlimit: 4; fill: rgb(17,24,39); fill-rule: nonzero; opacity: 1;" vector-effect="non-scaling-stroke"  transform=" translate(-203.74, -212.09)" d="M 227.204 221.875 C 233.486 215.543 236.626 212.377 237.572 208.643 C 238.15 206.361 238.149 203.968 237.571 201.685 C 236.623 197.95 233.481 194.783 227.197 188.448 C 220.913 182.113 217.771 178.946 214.066 177.991 C 211.801 177.407 209.428 177.407 207.164 177.989 C 203.459 178.942 200.319 182.108 194.037 188.44 L 180.278 202.309 C 173.997 208.641 170.856 211.807 169.91 215.542 C 169.333 217.824 169.333 220.217 169.912 222.499 C 170.859 226.234 174.001 229.402 180.285 235.736 C 186.569 242.071 189.711 245.239 193.417 246.194 C 195.681 246.777 198.054 246.778 200.319 246.195 C 204.023 245.242 207.164 242.076 213.445 235.745 L 227.204 221.875 Z" stroke-linecap="round" />
</g>
		<g transform="matrix(1 0 0 1 9.17 -3.89)"  >
<path style="stroke: rgb(107,114,128); stroke-width: 6; stroke-dasharray: none; stroke-linecap: round; stroke-dashoffset: 0; stroke-linejoin: miter; stroke-miterlimit: 4; fill: rgb(17,24,39); fill-rule: nonzero; opacity: 1;" vector-effect="non-scaling-stroke"  transform=" translate(-189.17, -176.11)" d="M 196.224 183.228 L 182.11 169" stroke-linecap="round" />
</g>
		<g transform="matrix(1 0 0 1 50.2 103.38)"  >
<path style="stroke: rgb(107,114,128); stroke-width: 6; stroke-dasharray: none; stroke-linecap: round; stroke-dashoffset: 0; stroke-linejoin: miter; stroke-miterlimit: 4; fill: rgb(17,24,39); fill-rule: nonzero; opacity: 1;" vector-effect="non-scaling-stroke"  transform=" translate(-230.2, -283.38)" d="M 202.993 301.388 C 208.969 307.414 217.076 310.799 225.528 310.799 C 233.98 310.799 242.087 307.414 248.063 301.389 C 254.04 295.363 257.398 287.191 257.398 278.67 C 257.398 270.148 254.041 261.976 248.064 255.951" stroke-linecap="round" />
</g>
		<g transform="matrix(1 0 0 1 -11.96 17.38)"  >
<path style="stroke: rgb(107,114,128); stroke-width: 6; stroke-dasharray: none; stroke-linecap: round; stroke-dashoffset: 0; stroke-linejoin: miter; stroke-miterlimit: 4; fill: rgb(17,24,39); fill-rule: nonzero; opacity: 1;" vector-effect="non-scaling-stroke"  transform=" translate(-168.04, -197.38)" d="M 175.085 204.477 L 161 190.278" stroke-linecap="round" />
</g>
		<g transform="matrix(1 0 0 1 44.85 53.24)"  >
<path style="stroke: rgb(107,114,128); stroke-width: 6; stroke-dasharray: none; stroke-linecap: butt; stroke-dashoffset: 0; stroke-linejoin: miter; stroke-miterlimit: 4; fill: rgb(17,24,39); fill-rule: nonzero; opacity: 1;" vector-effect="non-scaling-stroke"  transform=" translate(-224.85, -233.24)" d="M 234.009 214.531 L 236.285 216.827 C 240.782 221.359 243.03 223.625 243.355 226.391 C 243.429 227.019 243.429 227.652 243.355 228.279 C 243.031 231.045 240.784 233.31 236.29 237.841 L 229.411 244.775 C 224.917 249.305 222.67 251.57 219.926 251.897 C 219.304 251.971 218.675 251.971 218.053 251.896 C 215.309 251.568 213.061 249.302 208.565 244.77 L 206.288 242.474" stroke-linecap="round" />
</g>
		<g transform="matrix(1 0 0 1 58.96 67.88)"  >
<path style="stroke: rgb(107,114,128); stroke-width: 6; stroke-dasharray: none; stroke-linecap: butt; stroke-dashoffset: 0; stroke-linejoin: miter; stroke-miterlimit: 4; fill: rgb(17,24,39); fill-rule: nonzero; opacity: 1;" vector-effect="non-scaling-stroke"  transform=" translate(-238.96, -247.88)" d="M 240.653 237.402 L 246.605 243.403 C 246.985 243.786 247.175 243.977 247.326 244.148 C 250.022 247.195 250.023 251.795 247.328 254.841 C 247.177 255.012 246.987 255.203 246.608 255.586 L 246.608 255.586 C 246.228 255.969 246.038 256.16 245.869 256.312 C 242.847 259.029 238.284 259.028 235.261 256.31 C 235.091 256.157 234.901 255.966 234.522 255.583 L 228.569 249.583" stroke-linecap="round" />
</g>
		<g transform="matrix(1 0 0 1 -76.41 -68.8)"  >
<path style="stroke: none; stroke-width: 1; stroke-dasharray: none; stroke-linecap: butt; stroke-dashoffset: 0; stroke-linejoin: miter; stroke-miterlimit: 4; fill: rgb(17,24,39); fill-rule: nonzero; opacity: 1;" vector-effect="non-scaling-stroke"  transform=" translate(-103.59, -111.2)" d="M 118.563 98.5626 L 116.281 96.2926 C 114.02 94.0418 112.889 92.9163 111.508 92.7539 C 111.195 92.717 110.878 92.7171 110.565 92.754 C 109.184 92.9168 108.053 94.0425 105.791 96.2939 L 88.6127 113.388 C 86.3503 115.64 85.2191 116.765 85.0555 118.139 C 85.0184 118.451 85.0184 118.766 85.0554 119.077 C 85.2187 120.451 86.3496 121.577 88.6116 123.828 L 90.8928 126.098 C 93.1548 128.349 94.2858 129.474 95.6666 129.637 C 95.9797 129.673 96.2961 129.673 96.6092 129.636 C 97.99 129.474 99.1212 128.348 101.384 126.097 L 118.562 109.002 C 120.824 106.751 121.955 105.625 122.119 104.251 C 122.156 103.939 122.156 103.625 122.119 103.313 C 121.956 101.939 120.825 100.813 118.563 98.5626 Z" stroke-linecap="round" />
</g>
		<g transform="matrix(1 0 0 1 -53.69 -47.03)"  >
<path style="stroke: rgb(107,114,128); stroke-width: 6; stroke-dasharray: none; stroke-linecap: butt; stroke-dashoffset: 0; stroke-linejoin: miter; stroke-miterlimit: 4; fill: rgb(17,24,39); fill-rule: nonzero; opacity: 1;" vector-effect="non-scaling-stroke"  transform=" translate(-126.31, -132.97)" d="M 116.375 109.671 C 122.687 103.39 125.843 100.249 129.564 99.2989 C 131.851 98.7148 134.25 98.7145 136.537 99.2981 C 140.258 100.247 143.414 103.387 149.724 109.667 C 156.035 115.947 159.191 119.087 160.145 122.789 C 160.731 125.066 160.731 127.453 160.144 129.729 C 159.189 133.432 156.033 136.573 149.721 142.854 L 136.248 156.261 C 129.936 162.543 126.78 165.683 123.059 166.633 C 120.772 167.218 118.373 167.218 116.086 166.634 C 112.365 165.685 109.209 162.545 102.899 156.265 C 96.5876 149.985 93.4322 146.845 92.4782 143.143 C 91.8917 140.867 91.8919 138.48 92.4789 136.203 C 93.4336 132.501 96.5897 129.36 102.902 123.078 L 116.375 109.671 Z" stroke-linecap="round" />
</g>
		<g transform="matrix(1 0 0 1 -74.74 -67.17)"  >
<path style="stroke: rgb(107,114,128); stroke-width: 6; stroke-dasharray: none; stroke-linecap: butt; stroke-dashoffset: 0; stroke-linejoin: miter; stroke-miterlimit: 4; fill: rgb(17,24,39); fill-rule: nonzero; opacity: 1;" vector-effect="non-scaling-stroke"  transform=" translate(-105.26, -112.83)" d="M 123.796 103.77 L 121.526 101.512 C 117.002 97.01 114.741 94.7592 111.979 94.4343 C 111.353 94.3606 110.72 94.3607 110.094 94.4345 C 107.332 94.7601 105.07 97.0115 100.545 101.514 L 93.8841 108.142 C 89.3593 112.645 87.0969 114.897 86.7697 117.645 C 86.6956 118.268 86.6955 118.898 86.7695 119.521 C 87.0961 122.269 89.3581 124.52 93.8819 129.021 L 96.1514 131.28" stroke-linecap="round" />
</g>
		<g transform="matrix(1 0 0 1 -89.32 -81.29)"  >
<path style="stroke: rgb(107,114,128); stroke-width: 6; stroke-dasharray: none; stroke-linecap: butt; stroke-dashoffset: 0; stroke-linejoin: miter; stroke-miterlimit: 4; fill: rgb(17,24,39); fill-rule: nonzero; opacity: 1;" vector-effect="non-scaling-stroke"  transform=" translate(-90.68, -98.71)" d="M 101.072 97.0576 L 95.0458 91.0606 C 94.7174 90.7338 94.5532 90.5704 94.4076 90.4391 C 91.3515 87.6824 86.6919 87.683 83.6353 90.4404 C 83.4897 90.5718 83.3254 90.7352 82.9969 91.0621 L 82.9969 91.0621 C 82.6684 91.389 82.5042 91.5524 82.3722 91.6973 C 79.6013 94.7391 79.6008 99.3759 82.3711 102.417 C 82.503 102.562 82.6673 102.725 82.9957 103.052 L 89.0222 109.049" stroke-linecap="round" />
</g>
		<g transform="matrix(1 0 0 1 -43.63 -58.39)"  >
<path style="stroke: rgb(107,114,128); stroke-width: 6; stroke-dasharray: none; stroke-linecap: round; stroke-dashoffset: 0; stroke-linejoin: miter; stroke-miterlimit: 4; fill: rgb(17,24,39); fill-rule: nonzero; opacity: 1;" vector-effect="non-scaling-stroke"  transform=" translate(-136.37, -121.61)" d="M 141.057 126.115 L 131.69 117.1" stroke-linecap="round" />
</g>
		<g transform="matrix(1 0 0 1 -55.63 -47.38)"  >
<path style="stroke: rgb(107,114,128); stroke-width: 6; stroke-dasharray: none; stroke-linecap: round; stroke-dashoffset: 0; stroke-linejoin: miter; stroke-miterlimit: 4; fill: rgb(17,24,39); fill-rule: nonzero; opacity: 1;" vector-effect="non-scaling-stroke"  transform=" translate(-124.37, -132.62)" d="M 129.049 137.128 L 119.683 128.113" stroke-linecap="round" />
</g>
		<g transform="matrix(1 0 0 1 -66.64 -35.37)"  >
<path style="stroke: rgb(107,114,128); stroke-width: 6; stroke-dasharray: none; stroke-linecap: round; stroke-dashoffset: 0; stroke-linejoin: miter; stroke-miterlimit: 4; fill: rgb(17,24,39); fill-rule: nonzero; opacity: 1;" vector-effect="non-scaling-stroke"  transform=" translate(-113.36, -144.63)" d="M 118.041 149.142 L 108.675 140.127" stroke-linecap="round" />
</g>
		<g transform="matrix(1 0 0 1 -87.21 -119.57)"  >
<path style="stroke: rgb(107,114,128); stroke-width: 6; stroke-dasharray: none; stroke-linecap: round; stroke-dashoffset: 0; stroke-linejoin: miter; stroke-miterlimit: 4; fill: rgb(17,24,39); fill-rule: nonzero; opacity: 1;" vector-effect="non-scaling-stroke"  transform=" translate(-92.79, -60.43)" d="M 82.0707 89.124 C 75.4216 84.7542 70.8674 77.7901 69.4102 69.7635 C 67.953 61.737 69.712 53.3055 74.3003 46.324 C 78.8886 39.3424 85.9304 34.3827 93.8765 32.5358 C 101.823 30.689 110.022 32.1063 116.671 36.4761" stroke-linecap="round" />
</g>
		<g transform="matrix(1 0 0 1 4.04 -79.96)"  >
<path style="stroke: rgb(107,114,128); stroke-width: 6; stroke-dasharray: none; stroke-linecap: round; stroke-dashoffset: 0; stroke-linejoin: miter; stroke-miterlimit: 4; fill: rgb(17,24,39); fill-rule: nonzero; opacity: 1;" vector-effect="non-scaling-stroke"  transform=" translate(-184.04, -100.04)" d="M 183.941 87.0345 L 184.132 113.049" stroke-linecap="round" />
</g>
		<g transform="matrix(1 0 0 1 49.92 -33.02)"  >
<path style="stroke: rgb(107,114,128); stroke-width: 6; stroke-dasharray: none; stroke-linecap: round; stroke-dashoffset: 0; stroke-linejoin: miter; stroke-miterlimit: 4; fill: rgb(17,24,39); fill-rule: nonzero; opacity: 1;" vector-effect="non-scaling-stroke"  transform=" translate(-229.92, -146.98)" d="M 242.913 147.07 L 216.926 146.881" stroke-linecap="round" />
</g>
		<g transform="matrix(1 0 0 1 31.3 -61.36)"  >
<path style="stroke: rgb(107,114,128); stroke-width: 6; stroke-dasharray: none; stroke-linecap: round; stroke-dashoffset: 0; stroke-linejoin: miter; stroke-miterlimit: 4; fill: rgb(17,24,39); fill-rule: nonzero; opacity: 1;" vector-effect="non-scaling-stroke"  transform=" translate(-211.3, -118.64)" d="M 221.923 108.047 L 200.685 129.238" stroke-linecap="round" />
</g>
		<g transform="matrix(1 0 0 1 96 -110)"  >
<path style="stroke: rgb(229,231,235); stroke-width: 2; stroke-dasharray: none; stroke-linecap: round; stroke-dashoffset: 0; stroke-linejoin: miter; stroke-miterlimit: 4; fill: rgb(17,24,39); fill-rule: nonzero; opacity: 1;" vector-effect="non-scaling-stroke"  transform=" translate(-276, -70)" d="M 276 76 L 276 64" stroke-linecap="round" />
</g>
		<g transform="matrix(1 0 0 1 96 -110)"  >
<path style="stroke: rgb(229,231,235); stroke-width: 2; stroke-dasharray: none; stroke-linecap: round; stroke-dashoffset: 0; stroke-linejoin: miter; stroke-miterlimit: 4; fill: rgb(17,24,39); fill-rule: nonzero; opacity: 1;" vector-effect="non-scaling-stroke"  transform=" translate(-276, -70)" d="M 282 70 L 270 70" stroke-linecap="round" />
</g>
		<g transform="matrix(1 0 0 1 -4 -132)"  >
<circle style="stroke: rgb(229,231,235); stroke-width: 2; stroke-dasharray: none; stroke-linecap: butt; stroke-dashoffset: 0; stroke-linejoin: miter; stroke-miterlimit: 4; fill: rgb(17,24,39); fill-rule: nonzero; opacity: 1;" vector-effect="non-scaling-stroke"  cx="0" cy="0" r="4" />
</g>
		<g transform="matrix(1 0 0 1 124 -30)"  >
<circle style="stroke: rgb(229,231,235); stroke-width: 2; stroke-dasharray: none; stroke-linecap: butt; stroke-dashoffset: 0; stroke-linejoin: miter; stroke-miterlimit: 4; fill: rgb(17,24,39); fill-rule: nonzero; opacity: 1;" vector-effect="non-scaling-stroke"  cx="0" cy="0" r="6" />
</g>
		<g transform="matrix(1 0 0 1 -97 69)"  >
<path style="stroke: rgb(229,231,235); stroke-width: 2; stroke-dasharray: none; stroke-linecap: round; stroke-dashoffset: 0; stroke-linejoin: miter; stroke-miterlimit: 4; fill: rgb(17,24,39); fill-rule: nonzero; opacity: 1;" vector-effect="non-scaling-stroke"  transform=" translate(-83, -249)" d="M 88 249 L 78 249" stroke-linecap="round" />
</g>
		<g transform="matrix(1 0 0 1 -97 69)"  >
<path style="stroke: rgb(229,231,235); stroke-width: 2; stroke-dasharray: none; stroke-linecap: round; stroke-dashoffset: 0; stroke-linejoin: miter; stroke-miterlimit: 4; fill: rgb(17,24,39); fill-rule: nonzero; opacity: 1;" vector-effect="non-scaling-stroke"  transform=" translate(-83, -249)" d="M 83 254 L 83 244" stroke-linecap="round" />
</g>
		<g transform="matrix(0 1 1 0 -116 -24)"  >
<circle style="stroke: rgb(229,231,235); stroke-width: 2; stroke-dasharray: none; stroke-linecap: butt; stroke-dashoffset: 0; stroke-linejoin: miter; stroke-miterlimit: 4; fill: rgb(17,24,39); fill-rule: nonzero; opacity: 1;" vector-effect="non-scaling-stroke"  cx="0" cy="0" r="4" />
</g>
		<g transform="matrix(0 1 1 0 -17 102)"  >
<circle style="stroke: rgb(229,231,235); stroke-width: 2; stroke-dasharray: none; stroke-linecap: butt; stroke-dashoffset: 0; stroke-linejoin: miter; stroke-miterlimit: 4; fill: rgb(17,24,39); fill-rule: nonzero; opacity: 1;" vector-effect="non-scaling-stroke"  cx="0" cy="0" r="4" />
</g>
</g>
</g>
<g transform="matrix(NaN NaN NaN NaN 0 0)"  >
<g style=""   >
</g>
</g>
</svg>