<svg width="98" height="98" viewBox="0 0 98 98" fill="none" xmlns="http://www.w3.org/2000/svg">
<circle cx="49" cy="49" r="49" fill="#EFF0F5"/>
<path d="M53.1857 64.1692C53.5616 64.6909 54.1653 65 54.8083 65L71 65C72.1046 65 73 64.1046 73 63L73 31C73 29.8954 72.1046 29 71 29L26 29C24.8954 29 24 29.8954 24 31L24 59C24 60.1046 24.8954 61 26 61L49.878 61C50.5209 61 51.1247 61.3091 51.5006 61.8308L53.1857 64.1692Z" fill="#BEC6CC"/>
<path d="M43.806 34.827C43.4298 34.3075 42.8274 34 42.1861 34H23.1676C21.9998 34 21.0804 34.9963 21.1741 36.1604L23.7488 68.1604C23.8324 69.1994 24.7 70 25.7423 70H71.365C72.3769 70 73.2294 69.2442 73.3506 68.2396L76.7299 40.2396C76.8737 39.0487 75.9439 38 74.7443 38H47.1247C46.4834 38 45.881 37.6925 45.5048 37.173L43.806 34.827Z" fill="#D3D9DD"/>
<path d="M57 50L50 58L44 53L39 58M57 50H52.9167M57 50V54.3077" stroke="white" stroke-width="3" stroke-linecap="round" stroke-linejoin="round"/>
</svg>
