<svg width="41" height="40" viewBox="0 0 41 40" fill="none" xmlns="http://www.w3.org/2000/svg">
<path d="M4.57135 12.9586C3.70352 13.8264 3.70352 15.2335 4.57135 16.1013L12.9156 24.4455L19.927 17.4342L11.5827 9.0899C10.7149 8.22207 9.30787 8.22207 8.44004 9.0899L4.57135 12.9586Z" fill="#0E90D9"/>
<path d="M37.7008 12.9586C38.5686 13.8264 38.5686 15.2335 37.7008 16.1013L29.3565 24.4455L22.3451 17.4342L30.6894 9.0899C31.5572 8.22207 32.9642 8.22207 33.8321 9.0899L37.7008 12.9586Z" fill="#0E90D9"/>
<path d="M14.184 26.0163L19.3225 31.0956C21.2682 32.9695 24.3561 32.9405 26.2662 31.0304C28.2278 29.0688 28.1978 25.8794 26.1998 23.955L21.1953 19.0049L14.184 26.0163Z" fill="#1F2937"/>
</svg>
