<svg width="61" height="60" viewBox="0 0 61 60" fill="none" xmlns="http://www.w3.org/2000/svg">
<rect x="0.571289" width="60" height="60" rx="8.09524" fill="#F3F4F6"/>
<path d="M34.3814 21.6191C38.0305 23.2132 41.0481 27.1841 41.0481 31.3288C41.0481 32.341 40.8965 33.3187 40.6143 34.2417M26.7624 21.6191C23.1133 23.2132 20.0957 27.1841 20.0957 31.3288C20.0957 32.341 20.2473 33.3187 20.5295 34.2417M25.5616 40.2846C27.05 41.0748 28.757 41.5239 30.5719 41.5239C32.3868 41.5239 34.0938 41.0748 35.5822 40.2846" stroke="black" stroke-opacity="0.8" stroke-width="2"/>
<path d="M30.5714 25.2849C28.4017 25.2849 26.6429 23.526 26.6429 21.3563C26.6429 19.1866 28.4017 17.4277 30.5714 17.4277C32.7411 17.4277 34.5 19.1866 34.5 21.3563C34.5 23.526 32.7411 25.2849 30.5714 25.2849Z" stroke="black" stroke-opacity="0.8" stroke-width="2"/>
<path d="M22.0597 41.7849C19.89 41.7849 18.1311 40.026 18.1311 37.8563C18.1311 35.6866 19.89 33.9277 22.0597 33.9277C24.2294 33.9277 25.9883 35.6866 25.9883 37.8563C25.9883 40.026 24.2294 41.7849 22.0597 41.7849Z" stroke="black" stroke-opacity="0.8" stroke-width="2"/>
<path d="M39.0831 41.7849C36.9135 41.7849 35.1546 40.026 35.1546 37.8563C35.1546 35.6866 36.9135 33.9277 39.0831 33.9277C41.2528 33.9277 43.0117 35.6866 43.0117 37.8563C43.0117 40.026 41.2528 41.7849 39.0831 41.7849Z" stroke="black" stroke-opacity="0.8" stroke-width="2"/>
</svg>
