<svg width="20" height="20" viewBox="0 0 20 20" fill="none" xmlns="http://www.w3.org/2000/svg">
<path d="M0 9.99982C0 9.13482 0.11 8.29682 0.316 7.49582C0.868465 7.52486 1.4182 7.40057 1.90444 7.13668C2.39068 6.8728 2.79448 6.47961 3.07121 6.00056C3.34793 5.52152 3.48681 4.97528 3.47247 4.42224C3.45814 3.8692 3.29117 3.33089 2.99 2.86682C4.19894 1.67739 5.69079 0.815312 7.325 0.361816C7.57599 0.855289 7.95864 1.26968 8.43058 1.55913C8.90253 1.84857 9.44537 2.00177 9.999 2.00177C10.5526 2.00177 11.0955 1.84857 11.5674 1.55913C12.0394 1.26968 12.422 0.855289 12.673 0.361816C14.3072 0.815312 15.7991 1.67739 17.008 2.86682C16.7065 3.33097 16.5393 3.86949 16.5248 4.42278C16.5104 4.97608 16.6493 5.52258 16.9262 6.00183C17.2031 6.48108 17.6071 6.87438 18.0937 7.13823C18.5802 7.40208 19.1303 7.52619 19.683 7.49682C19.889 8.29682 19.999 9.13482 19.999 9.99982C19.999 10.8648 19.889 11.7028 19.683 12.5038C19.1305 12.4746 18.5806 12.5987 18.0942 12.8625C17.6078 13.1263 17.2039 13.5195 16.927 13.9986C16.6502 14.4777 16.5112 15.024 16.5255 15.5771C16.5398 16.1303 16.7068 16.6687 17.008 17.1328C15.7991 18.3222 14.3072 19.1843 12.673 19.6378C12.422 19.1443 12.0394 18.7299 11.5674 18.4405C11.0955 18.1511 10.5526 17.9979 9.999 17.9979C9.44537 17.9979 8.90253 18.1511 8.43058 18.4405C7.95864 18.7299 7.57599 19.1443 7.325 19.6378C5.69079 19.1843 4.19894 18.3222 2.99 17.1328C3.29151 16.6687 3.45873 16.1301 3.47317 15.5769C3.48761 15.0236 3.3487 14.4771 3.07181 13.9978C2.79492 13.5186 2.39085 13.1252 1.90431 12.8614C1.41776 12.5976 0.867704 12.4734 0.315 12.5028C0.11 11.7038 0 10.8658 0 9.99982ZM4.804 12.9998C5.434 14.0908 5.614 15.3458 5.368 16.5238C5.776 16.8138 6.21 17.0648 6.665 17.2738C7.58167 16.4527 8.76931 15.999 10 15.9998C11.26 15.9998 12.438 16.4708 13.335 17.2738C13.79 17.0648 14.224 16.8138 14.632 16.5238C14.3794 15.3198 14.5803 14.0649 15.196 12.9998C15.8106 11.9342 16.797 11.133 17.966 10.7498C18.0122 10.2509 18.0122 9.74875 17.966 9.24982C16.7966 8.86688 15.8099 8.06563 15.195 6.99982C14.5793 5.93475 14.3784 4.67985 14.631 3.47582C14.2231 3.18574 13.7889 2.93464 13.334 2.72582C12.4176 3.54675 11.2303 4.00043 10 3.99982C8.76931 4.00067 7.58167 3.54698 6.665 2.72582C6.21013 2.93464 5.77589 3.18574 5.368 3.47582C5.62056 4.67985 5.41972 5.93475 4.804 6.99982C4.18937 8.06544 3.20298 8.86666 2.034 9.24982C1.98775 9.74875 1.98775 10.2509 2.034 10.7498C3.20335 11.1328 4.19013 11.934 4.805 12.9998H4.804ZM10 12.9998C9.20435 12.9998 8.44129 12.6837 7.87868 12.1211C7.31607 11.5585 7 10.7955 7 9.99982C7 9.20417 7.31607 8.4411 7.87868 7.8785C8.44129 7.31589 9.20435 6.99982 10 6.99982C10.7956 6.99982 11.5587 7.31589 12.1213 7.8785C12.6839 8.4411 13 9.20417 13 9.99982C13 10.7955 12.6839 11.5585 12.1213 12.1211C11.5587 12.6837 10.7956 12.9998 10 12.9998ZM10 10.9998C10.2652 10.9998 10.5196 10.8945 10.7071 10.7069C10.8946 10.5194 11 10.265 11 9.99982C11 9.7346 10.8946 9.48025 10.7071 9.29271C10.5196 9.10517 10.2652 8.99982 10 8.99982C9.73478 8.99982 9.48043 9.10517 9.29289 9.29271C9.10536 9.48025 9 9.7346 9 9.99982C9 10.265 9.10536 10.5194 9.29289 10.7069C9.48043 10.8945 9.73478 10.9998 10 10.9998Z" fill="#B0BEC5"/>
</svg>
