<svg width="61" height="61" viewBox="0 0 61 61" fill="none" xmlns="http://www.w3.org/2000/svg">
<rect x="0.571289" y="0.572266" width="60.1602" height="60.1602" rx="7.97872" fill="#F3F4F6"/>
<circle cx="30.318" cy="30.8509" r="3.33333" fill="#313131"/>
<path d="M25.1182 22.7646C24.7659 22.3392 24.1356 22.2799 23.7102 22.6321C23.2848 22.9843 23.2254 23.6147 23.5776 24.0401L25.1182 22.7646ZM23.5776 24.0401L25.8804 26.8213L27.4209 25.5459L25.1182 22.7646L23.5776 24.0401Z" fill="#313131"/>
<path d="M23.3793 40.6243C23.0011 41.0268 22.3682 41.0464 21.9658 40.6681C21.5633 40.2899 21.5437 39.657 21.922 39.2546L23.3793 40.6243ZM21.922 39.2546L25.922 34.9987L27.3793 36.3685L23.3793 40.6243L21.922 39.2546Z" fill="#313131"/>
<path d="M37.5132 38.9104C37.9351 39.2668 38.566 39.2137 38.9224 38.7918C39.2788 38.3698 39.2256 37.7389 38.8037 37.3825L37.5132 38.9104ZM38.8037 37.3825L35.2959 34.4196L34.0054 35.9475L37.5132 38.9104L38.8037 37.3825Z" fill="#313131"/>
<circle cx="30.318" cy="30.8509" r="6.33333" stroke="#313131" stroke-width="2"/>
<path d="M24.4477 22.262C23.4317 23.3283 21.7438 23.369 20.6775 22.3531C19.6113 21.3371 19.5705 19.6492 20.5865 18.5829C21.6024 17.5167 23.2904 17.4759 24.3566 18.4919C25.4229 19.5078 25.4636 21.1958 24.4477 22.262Z" stroke="#313131" stroke-width="2"/>
<path d="M40.318 42.1829C38.8452 42.1829 37.6513 40.989 37.6513 39.5163C37.6513 38.0435 38.8452 36.8496 40.318 36.8496C41.7907 36.8496 42.9846 38.0435 42.9846 39.5163C42.9846 40.989 41.7907 42.1829 40.318 42.1829Z" stroke="#313131" stroke-width="2"/>
<path d="M20.318 44.8509C18.8452 44.8509 17.6513 43.657 17.6513 42.1842C17.6513 40.7115 18.8452 39.5176 20.318 39.5176C21.7907 39.5176 22.9846 40.7115 22.9846 42.1842C22.9846 43.657 21.7907 44.8509 20.318 44.8509Z" stroke="#313131" stroke-width="2"/>
</svg>
