<svg width="40" height="40" viewBox="0 0 40 40" fill="none" xmlns="http://www.w3.org/2000/svg">
<g filter="url(#filter0_i)">
<path fill-rule="evenodd" clip-rule="evenodd" d="M18.2648 3.81888C18.0786 3.64056 17.8308 3.54101 17.573 3.54102L4.12566 3.5412C3.57339 3.54121 3.12568 3.98891 3.12568 4.54119L3.12549 17.9634C3.12548 18.2361 3.23683 18.4969 3.43373 18.6855L22.6118 37.057C23.0046 37.4332 23.6261 37.4266 24.0107 37.042L37.4454 23.6073C37.8419 23.2108 37.8349 22.5659 37.43 22.178L18.2648 3.81888ZM11.2572 16.6225C12.624 17.9893 14.8401 17.9893 16.207 16.6225C17.5738 15.2556 17.5738 13.0396 16.207 11.6727C14.8401 10.3059 12.624 10.3059 11.2572 11.6727C9.89038 13.0396 9.89038 15.2557 11.2572 16.6225Z" fill="white"/>
</g>
<path d="M4.12568 4.5412L17.573 4.54102L36.7383 22.9001L23.3036 36.3349L4.12549 17.9634L4.12568 4.5412ZM10.5501 17.3296C12.3075 19.087 15.1567 19.087 16.9141 17.3296C18.6714 15.5722 18.6714 12.723 16.9141 10.9656C15.1567 9.20827 12.3075 9.20827 10.5501 10.9656C8.79275 12.723 8.79275 15.5722 10.5501 17.3296Z" stroke="#546E7A" stroke-width="2" stroke-linecap="round"/>
<defs>
<filter id="filter0_i" x="3.12549" y="3.54102" width="34.6128" height="33.7938" filterUnits="userSpaceOnUse" color-interpolation-filters="sRGB">
<feFlood flood-opacity="0" result="BackgroundImageFix"/>
<feBlend mode="normal" in="SourceGraphic" in2="BackgroundImageFix" result="shape"/>
<feColorMatrix in="SourceAlpha" type="matrix" values="0 0 0 0 0 0 0 0 0 0 0 0 0 0 0 0 0 0 127 0" result="hardAlpha"/>
<feOffset dx="-4" dy="-4"/>
<feComposite in2="hardAlpha" operator="arithmetic" k2="-1" k3="1"/>
<feColorMatrix type="matrix" values="0 0 0 0 0.831373 0 0 0 0 0.929412 0 0 0 0 0.984314 0 0 0 1 0"/>
<feBlend mode="normal" in2="shape" result="effect1_innerShadow"/>
</filter>
</defs>
</svg>