<svg width="61" height="61" viewBox="0 0 61 61" fill="none" xmlns="http://www.w3.org/2000/svg">
<rect x="0.571289" y="0.302734" width="60.1602" height="60.1602" rx="7.97872" fill="#F3F4F6"/>
<path d="M23.3181 21.0508C22.2135 21.0508 21.3181 21.9462 21.3181 23.0508C21.3181 24.1554 22.2135 25.0508 23.3181 25.0508C24.4227 25.0508 25.3181 24.1554 25.3181 23.0508C25.3181 21.9462 24.4227 21.0508 23.3181 21.0508Z" stroke="#313131" stroke-width="2" stroke-linecap="round" stroke-linejoin="round"/>
<path d="M37.3181 33.0501L33.3181 37.0501M42.9528 29.2421C44.2901 30.7354 44.3181 32.9888 43.0914 34.5754C40.7088 37.6685 37.9365 40.4408 34.8434 42.8234C33.2568 44.0501 31.0034 44.0221 29.5101 42.6848C25.4733 39.0739 21.6801 35.1996 18.1554 31.0874C17.7996 30.6784 17.5805 30.1684 17.5288 29.6288C17.3101 27.2341 16.8581 20.3354 18.7314 18.4634C20.6048 16.5914 27.5021 17.0421 29.8968 17.2621C30.4364 17.3138 30.9464 17.5329 31.3554 17.8888C35.4676 21.4131 39.3419 25.2058 42.9528 29.2421Z" stroke="#313131" stroke-width="2" stroke-linecap="round" stroke-linejoin="round"/>
</svg>
