<svg width="61" height="61" viewBox="0 0 61 61" fill="none" xmlns="http://www.w3.org/2000/svg">
<rect x="0.571289" y="0.304688" width="60.0852" height="60.0852" rx="7.95748" fill="#F3F4F6"/>
<path fill-rule="evenodd" clip-rule="evenodd" d="M29.8027 19.0826C30.3286 18.9022 30.8996 18.9022 31.4254 19.0826C31.7813 19.2047 32.1398 19.4668 33.2233 20.3095L39.9733 25.5595C40.6711 26.1022 40.8912 26.2811 41.0543 26.4819C41.2944 26.7774 41.4638 27.1238 41.5497 27.4947C41.608 27.7467 41.6141 28.0303 41.6141 28.9143V38.4286C41.6141 39.2577 41.6135 39.8294 41.5831 40.2756C41.5532 40.7128 41.4981 40.9559 41.4238 41.1353C41.17 41.7479 40.6833 42.2346 40.0708 42.4883C39.9559 42.5359 39.815 42.5756 39.6139 42.6058V42.6024V42.5956V42.5888V42.582V42.5751V42.5682V42.5613V42.5543V42.5473V42.5403V42.5333V42.5262V42.5191V42.512V42.5049V42.4977V42.4905V42.4833V42.4761V42.4688V42.4615V42.4542V42.4469V42.4395V42.4321V42.4247V42.4172V42.4098V42.4023V42.3947V42.3872V42.3796V42.372V42.3644V42.3568V42.3491V42.3414V42.3337V42.3259V42.3182V42.3104V42.3026V42.2947V42.2868V42.279V42.271V42.2631V42.2551V42.2471V42.2391V42.2311V42.223V42.215V42.2069V42.1987V42.1906V42.1824V42.1742V42.166V42.1577V42.1494V42.1412V42.1328V42.1245V42.1161V42.1077V42.0993V42.0909V42.0824V42.074V42.0655V42.0569V42.0484V42.0398V42.0312V42.0226V42.014V42.0053V41.9966V41.9879V41.9792V41.9705V41.9617V41.9529V41.9441V41.9353V41.9264V41.9175V41.9086V41.8997V41.8908V41.8818V41.8728V41.8638V41.8548V41.8457V41.8366V41.8276V41.8184V41.8093V41.8001V41.791V41.7818V41.7726V41.7633V41.7541V41.7448V41.7355V41.7261V41.7168V41.7074V41.6981V41.6887V41.6792V41.6698V41.6603V41.6508V41.6413V41.6318V41.6223V41.6127V41.6031V41.5935V41.5839V41.5742V41.5646V41.5549V41.5452V41.5355V41.5257V41.516V41.5062V41.4964V41.4866V41.4767V41.4669V41.457V41.4471V41.4372V41.4273V41.4173V41.4074V41.3974V41.3874V41.3773V41.3673V41.3572V41.3472V41.3371V41.327V41.3168V41.3067V41.2965V41.2863V41.2761V41.2659V41.2556V41.2454V41.2351V41.2248V41.2145V41.2042V41.1938V41.1835V41.1731V41.1627V41.1523V41.1418V41.1314V41.1209V41.1104V41.0999V41.0894V41.0789V41.0683V41.0578V41.0472V41.0366V41.026V41.0153V41.0047V40.994V40.9833V40.9727V40.9619V40.9512V40.9405V40.9297V40.9189V40.9081V40.8973V40.8865V40.8757V40.8648V40.8539V40.843V40.8321V40.8212V40.8103V40.7993V40.7884V40.7774V40.7664V40.7554V40.7444V40.7333V40.7223V40.7112V40.7001V40.689V40.6779V40.6668V40.6556V40.6445V40.6333V40.6221V40.6109V40.5997V40.5885V40.5772V40.566V40.5547V40.5434V40.5321V40.5208V40.5095V40.4981V40.4868V40.4754V40.464V40.4527V40.4412V40.4298V40.4184V40.4069V40.3955V40.384V40.3725V40.361V40.3495V40.338V40.3265V40.3149V40.3033V40.2918V40.2802V40.2686V40.257V40.2453V40.2337V40.222V40.2104V40.1987V40.187V40.1753V40.1636V40.1519V40.1402V40.1284V40.1166V40.1049V40.0931V40.0813V40.0695V40.0577V40.0459V40.034V40.0222V40.0103V39.9984V39.9865V39.9746V39.9627V39.9508V39.9389V39.927V39.915V39.903V39.8911V39.8791V39.8671V39.8551V39.8431V39.8311V39.819V39.807V39.7949V39.7829V39.7708V39.7587V39.7466V39.7345V39.7224V39.7103V39.6981V39.686V39.6738V39.6617V39.6495V39.6373V39.6251V39.6129V39.6007V39.5885V39.5763V39.564V36.8472C39.6139 35.4665 38.4946 34.3472 37.1139 34.3472H35.6141V34.3414V34.3337V34.3259V34.3182V34.3104V34.3026V34.2947V34.2868V34.279V34.271V34.2631V34.2551V34.2471V34.2391V34.2311V34.223V34.215V34.2069V34.1987V34.1906V34.1824V34.1742V34.166V34.1577V34.1494V34.1412V34.1328V34.1245V34.1161V34.1077V34.0993V34.0909V34.0824V34.074V34.0655V34.0569V34.0484V34.0398V34.0312V34.0226V34.014V34.0053V33.9966V33.9879V33.9792V33.9705V33.9617V33.9529V33.9441V33.9353V33.9264V33.9175V33.9086V33.8997V33.8908V33.8818V33.8728V33.8638V33.8548V33.8457V33.8366V33.8276V33.8184V33.8093V33.8001V33.791V33.7818V33.7726V33.7633V33.7541V33.7448V33.7355V33.7261V33.7168V33.7074V33.6981V33.6887V33.6792V33.6698V33.6603V33.6508V33.6413V33.6318V33.6223V33.6127V33.6031V33.5935V33.5839V33.5742V33.5646V33.5549V33.5452V33.5355V33.5257V33.516V33.5062V33.4964V33.4866V33.4767V33.4669V33.457V33.4471V33.4372V33.4273V33.4173V33.4074V33.3974V33.3874V33.3773V33.3673V33.3572V33.3472V33.3371V33.327V33.3168V33.3067V33.2965V33.2863V33.2761V33.2659V33.2556V33.2454V33.2351V33.2248V33.2145V33.2042V33.1938V33.1835V33.1731V33.1627V33.1523V33.1418V33.1314V33.1209V33.1104V33.0999V33.0894V33.0789V33.0683V33.0578V33.0472V33.0366V33.026V33.0153V33.0047V32.994V32.9833V32.9727V32.9619V32.9512V32.9405V32.9297V32.9189V32.9081V32.8973V32.8865V32.8757V32.8648V32.8539V32.843V32.8321V32.8212V32.8103V32.7993V32.7884V32.7774V32.7664V32.7554V32.7444V32.7333V32.7223V32.7112V32.7001V32.689V32.6779V32.6668V32.6556V32.6445V32.6333V32.6221V32.6109V32.5997V32.5885V32.5772V32.566V32.5547V32.5434V32.5321V32.5208V32.5095V32.4981V32.4868V32.4754V32.464V32.4527V32.4412V32.4298V32.4184V32.4069V32.3955V32.384V32.3725V32.361V32.3495V32.338V32.3265V32.3149V32.3033V32.2918V32.2802V32.2686V32.257V32.2453V32.2337V32.222V32.2104V32.1987V32.187V32.1753V32.1636V32.1519V32.1402V32.1284V32.1166V32.1049V32.0931V32.0813V32.0695V32.0577V32.0459V32.034V32.0222V32.0103V31.9984V31.9865V31.9746V31.9627V31.9508V31.9389V31.927V31.915V31.903V31.8911V31.8791V31.8671V31.8551V31.8431V31.8311V31.819V31.807V31.7949V31.7829V31.7708V31.7587V31.7466V31.7345V31.7224V31.7103V31.6981V31.686V31.6738V31.6617V31.6495V31.6373V31.6251V31.6129V31.6007V31.5885V31.5763V31.564V28.8472C35.6141 27.4665 34.4948 26.3472 33.1141 26.3472H28.1141C26.7334 26.3472 25.6141 27.4665 25.6141 28.8472V31.564V31.5763V31.5885V31.6007V31.6129V31.6251V31.6373V31.6495V31.6617V31.6738V31.686V31.6981V31.7103V31.7224V31.7345V31.7466V31.7587V31.7708V31.7829V31.7949V31.807V31.819V31.8311V31.8431V31.8551V31.8671V31.8791V31.8911V31.903V31.915V31.927V31.9389V31.9508V31.9627V31.9746V31.9865V31.9984V32.0103V32.0222V32.034V32.0459V32.0577V32.0695V32.0813V32.0931V32.1049V32.1166V32.1284V32.1402V32.1519V32.1636V32.1753V32.187V32.1987V32.2104V32.222V32.2337V32.2453V32.257V32.2686V32.2802V32.2918V32.3033V32.3149V32.3265V32.338V32.3495V32.361V32.3725V32.384V32.3955V32.4069V32.4184V32.4298V32.4412V32.4527V32.464V32.4754V32.4868V32.4981V32.5095V32.5208V32.5321V32.5434V32.5547V32.566V32.5772V32.5885V32.5997V32.6109V32.6221V32.6333V32.6445V32.6556V32.6668V32.6779V32.689V32.7001V32.7112V32.7223V32.7333V32.7444V32.7554V32.7664V32.7774V32.7884V32.7993V32.8103V32.8212V32.8321V32.843V32.8539V32.8648V32.8757V32.8865V32.8973V32.9081V32.9189V32.9297V32.9405V32.9512V32.9619V32.9727V32.9833V32.994V33.0047V33.0153V33.026V33.0366V33.0472V33.0578V33.0683V33.0789V33.0894V33.0999V33.1104V33.1209V33.1314V33.1418V33.1523V33.1627V33.1731V33.1835V33.1938V33.2042V33.2145V33.2248V33.2351V33.2454V33.2556V33.2659V33.2761V33.2863V33.2965V33.3067V33.3168V33.327V33.3371V33.3472V33.3572V33.3673V33.3773V33.3874V33.3974V33.4074V33.4173V33.4273V33.4372V33.4471V33.457V33.4669V33.4767V33.4866V33.4964V33.5062V33.516V33.5257V33.5355V33.5452V33.5549V33.5646V33.5742V33.5839V33.5935V33.6031V33.6127V33.6223V33.6318V33.6413V33.6508V33.6603V33.6698V33.6792V33.6887V33.6981V33.7074V33.7168V33.7261V33.7355V33.7448V33.7541V33.7633V33.7726V33.7818V33.791V33.8001V33.8093V33.8184V33.8276V33.8366V33.8457V33.8548V33.8638V33.8728V33.8818V33.8908V33.8997V33.9086V33.9175V33.9264V33.9353V33.9441V33.9529V33.9617V33.9705V33.9792V33.9879V33.9966V34.0053V34.014V34.0226V34.0312V34.0398V34.0484V34.0569V34.0655V34.074V34.0824V34.0909V34.0993V34.1077V34.1161V34.1245V34.1328V34.1412V34.1494V34.1577V34.166V34.1742V34.1824V34.1906V34.1987V34.2069V34.215V34.223V34.2311V34.2391V34.2471V34.2551V34.2631V34.271V34.279V34.2868V34.2947V34.3026V34.3104V34.3182V34.3259V34.3337V34.3414V34.3472H24.1141C22.7334 34.3472 21.6141 35.4665 21.6141 36.8472V39.564V39.5763V39.5885V39.6007V39.6129V39.6251V39.6373V39.6495V39.6617V39.6738V39.686V39.6981V39.7103V39.7224V39.7345V39.7466V39.7587V39.7708V39.7829V39.7949V39.807V39.819V39.8311V39.8431V39.8551V39.8671V39.8791V39.8911V39.903V39.915V39.927V39.9389V39.9508V39.9627V39.9746V39.9865V39.9984V40.0103V40.0222V40.034V40.0459V40.0577V40.0695V40.0813V40.0931V40.1049V40.1166V40.1284V40.1402V40.1519V40.1636V40.1753V40.187V40.1987V40.2104V40.222V40.2337V40.2453V40.257V40.2686V40.2802V40.2918V40.3033V40.3149V40.3265V40.338V40.3495V40.361V40.3725V40.384V40.3955V40.4069V40.4184V40.4298V40.4412V40.4527V40.464V40.4754V40.4868V40.4981V40.5095V40.5208V40.5321V40.5434V40.5547V40.566V40.5772V40.5885V40.5997V40.6109V40.6221V40.6333V40.6445V40.6556V40.6668V40.6779V40.689V40.7001V40.7112V40.7223V40.7333V40.7444V40.7554V40.7664V40.7774V40.7884V40.7993V40.8103V40.8212V40.8321V40.843V40.8539V40.8648V40.8757V40.8865V40.8973V40.9081V40.9189V40.9297V40.9405V40.9512V40.9619V40.9727V40.9833V40.994V41.0047V41.0153V41.026V41.0366V41.0472V41.0578V41.0683V41.0789V41.0894V41.0999V41.1104V41.1209V41.1314V41.1418V41.1523V41.1627V41.1731V41.1835V41.1938V41.2042V41.2145V41.2248V41.2351V41.2454V41.2556V41.2659V41.2761V41.2863V41.2965V41.3067V41.3168V41.327V41.3371V41.3472V41.3572V41.3673V41.3773V41.3874V41.3974V41.4074V41.4173V41.4273V41.4372V41.4471V41.457V41.4669V41.4767V41.4866V41.4964V41.5062V41.516V41.5257V41.5355V41.5452V41.5549V41.5646V41.5742V41.5839V41.5935V41.6031V41.6127V41.6223V41.6318V41.6413V41.6508V41.6603V41.6698V41.6792V41.6887V41.6981V41.7074V41.7168V41.7261V41.7355V41.7448V41.7541V41.7633V41.7726V41.7818V41.791V41.8001V41.8093V41.8184V41.8276V41.8366V41.8457V41.8548V41.8638V41.8728V41.8818V41.8908V41.8997V41.9086V41.9175V41.9264V41.9353V41.9441V41.9529V41.9617V41.9705V41.9792V41.9879V41.9966V42.0053V42.014V42.0226V42.0312V42.0398V42.0484V42.0569V42.0655V42.074V42.0824V42.0909V42.0993V42.1077V42.1161V42.1245V42.1328V42.1412V42.1494V42.1577V42.166V42.1742V42.1824V42.1906V42.1987V42.2069V42.215V42.223V42.2311V42.2391V42.2471V42.2551V42.2631V42.271V42.279V42.2868V42.2947V42.3026V42.3104V42.3182V42.3259V42.3337V42.3414V42.3491V42.3568V42.3644V42.372V42.3796V42.3872V42.3947V42.4023V42.4098V42.4172V42.4247V42.4321V42.4395V42.4469V42.4542V42.4615V42.4688V42.4761V42.4833V42.4905V42.4977V42.5049V42.512V42.5191V42.5262V42.5333V42.5403V42.5473V42.5543V42.5613V42.5682V42.5751V42.582V42.5888V42.5956V42.6024V42.6058C21.413 42.5756 21.2722 42.5359 21.1574 42.4883C20.5448 42.2346 20.0581 41.7479 19.8044 41.1353C19.73 40.9559 19.6749 40.7128 19.645 40.2756C19.6146 39.8294 19.6141 39.2577 19.6141 38.4286V28.9143C19.6141 28.0303 19.6201 27.7467 19.6784 27.4947C19.7643 27.1238 19.9337 26.7774 20.1738 26.4819C20.3369 26.2811 20.557 26.1022 21.2548 25.5595L28.0048 20.3095C29.0883 19.4668 29.4469 19.2047 29.8027 19.0826ZM26.6141 36.3472H24.1141C23.8379 36.3472 23.6141 36.5711 23.6141 36.8472V39.564V39.5763V39.5885V39.6007V39.6129V39.6251V39.6373V39.6495V39.6617V39.6738V39.686V39.6981V39.7103V39.7224V39.7345V39.7466V39.7587V39.7708V39.7829V39.7949V39.807V39.819V39.8311V39.8431V39.8551V39.8671V39.8791V39.8911V39.903V39.915V39.927V39.9389V39.9508V39.9627V39.9746V39.9865V39.9984V40.0103V40.0222V40.034V40.0459V40.0577V40.0695V40.0813V40.0931V40.1049V40.1166V40.1284V40.1402V40.1519V40.1636V40.1753V40.187V40.1987V40.2104V40.222V40.2337V40.2453V40.257V40.2686V40.2802V40.2918V40.3033V40.3149V40.3265V40.338V40.3495V40.361V40.3725V40.384V40.3955V40.4069V40.4184V40.4298V40.4412V40.4527V40.464V40.4754V40.4868V40.4981V40.5095V40.5208V40.5321V40.5434V40.5547V40.566V40.5772V40.5885V40.5997V40.6109V40.6221V40.6333V40.6445V40.6556V40.6668V40.6779V40.689V40.7001V40.7112V40.7223V40.7333V40.7444V40.7554V40.7664V40.7774V40.7884V40.7993V40.8103V40.8212V40.8321V40.843V40.8539V40.8648V40.8757V40.8865V40.8973V40.9081V40.9189V40.9297V40.9405V40.9512V40.9619V40.9727V40.9833V40.994V41.0047V41.0153V41.026V41.0366V41.0472V41.0578V41.0683V41.0789V41.0894V41.0999V41.1104V41.1209V41.1314V41.1418V41.1523V41.1627V41.1731V41.1835V41.1938V41.2042V41.2145V41.2248V41.2351V41.2454V41.2556V41.2659V41.2761V41.2863V41.2965V41.3067V41.3168V41.327V41.3371V41.3472V41.3572V41.3673V41.3773V41.3874V41.3974V41.4074V41.4173V41.4273V41.4372V41.4471V41.457V41.4669V41.4767V41.4866V41.4964V41.5062V41.516V41.5257V41.5355V41.5452V41.5549V41.5646V41.5742V41.5839V41.5935V41.6031V41.6127V41.6223V41.6318V41.6413V41.6508V41.6603V41.6698V41.6792V41.6887V41.6981V41.7074V41.7168V41.7261V41.7355V41.7448V41.7541V41.7633V41.7726V41.7818V41.791V41.8001V41.8093V41.8184V41.8276V41.8366V41.8457V41.8548V41.8638V41.8728V41.8818V41.8908V41.8997V41.9086V41.9175V41.9264V41.9353V41.9441V41.9529V41.9617V41.9705V41.9792V41.9879V41.9966V42.0053V42.014V42.0226V42.0312V42.0398V42.0484V42.0569V42.0655V42.074V42.0824V42.0909V42.0993V42.1077V42.1161V42.1245V42.1328V42.1412V42.1494V42.1577V42.166V42.1742V42.1824V42.1906V42.1987V42.2069V42.215V42.223V42.2311V42.2391V42.2471V42.2551V42.2631V42.271V42.279V42.2868V42.2947V42.3026V42.3104V42.3182V42.3259V42.3337V42.3414V42.3491V42.3568V42.3644V42.372V42.3796V42.3872V42.3947V42.4023V42.4098V42.4172V42.4247V42.4321V42.4395V42.4469V42.4542V42.4615V42.4688V42.4761V42.4833V42.4905V42.4977V42.5049V42.512V42.5191V42.5262V42.5333V42.5403V42.5473V42.5543V42.5613V42.5682V42.5751V42.582V42.5888V42.5956V42.6024V42.6092V42.6159V42.6226V42.6293V42.636V42.6426V42.6492V42.6558V42.6624V42.6689V42.6754V42.6786L23.8641 42.6786H29.6141V42.6754V42.6689V42.6624V42.6558V42.6492V42.6426V42.636V42.6293V42.6226V42.6159V42.6092V42.6024V42.5956V42.5888V42.582V42.5751V42.5682V42.5613V42.5543V42.5473V42.5403V42.5333V42.5262V42.5191V42.512V42.5049V42.4977V42.4905V42.4833V42.4761V42.4688V42.4615V42.4542V42.4469V42.4395V42.4321V42.4247V42.4172V42.4098V42.4023V42.3947V42.3872V42.3796V42.372V42.3644V42.3568V42.3491V42.3414V42.3337V42.3259V42.3182V42.3104V42.3026V42.2947V42.2868V42.279V42.271V42.2631V42.2551V42.2471V42.2391V42.2311V42.223V42.215V42.2069V42.1987V42.1906V42.1824V42.1742V42.166V42.1577V42.1494V42.1412V42.1328V42.1245V42.1161V42.1077V42.0993V42.0909V42.0824V42.074V42.0655V42.0569V42.0484V42.0398V42.0312V42.0226V42.014V42.0053V41.9966V41.9879V41.9792V41.9705V41.9617V41.9529V41.9441V41.9353V41.9264V41.9175V41.9086V41.8997V41.8908V41.8818V41.8728V41.8638V41.8548V41.8457V41.8366V41.8276V41.8184V41.8093V41.8001V41.791V41.7818V41.7726V41.7633V41.7541V41.7448V41.7355V41.7261V41.7168V41.7074V41.6981V41.6887V41.6792V41.6698V41.6603V41.6508V41.6413V41.6318V41.6223V41.6127V41.6031V41.5935V41.5839V41.5742V41.5646V41.5549V41.5452V41.5355V41.5257V41.516V41.5062V41.4964V41.4866V41.4767V41.4669V41.457V41.4471V41.4372V41.4273V41.4173V41.4074V41.3974V41.3874V41.3773V41.3673V41.3572V41.3472V41.3371V41.327V41.3168V41.3067V41.2965V41.2863V41.2761V41.2659V41.2556V41.2454V41.2351V41.2248V41.2145V41.2042V41.1938V41.1835V41.1731V41.1627V41.1523V41.1418V41.1314V41.1209V41.1104V41.0999V41.0894V41.0789V41.0683V41.0578V41.0472V41.0366V41.026V41.0153V41.0047V40.994V40.9833V40.9727V40.9619V40.9512V40.9405V40.9297V40.9189V40.9081V40.8973V40.8865V40.8757V40.8648V40.8539V40.843V40.8321V40.8212V40.8103V40.7993V40.7884V40.7774V40.7664V40.7554V40.7444V40.7333V40.7223V40.7112V40.7001V40.689V40.6779V40.6668V40.6556V40.6445V40.6333V40.6221V40.6109V40.5997V40.5885V40.5772V40.566V40.5547V40.5434V40.5321V40.5208V40.5095V40.4981V40.4868V40.4754V40.464V40.4527V40.4412V40.4298V40.4184V40.4069V40.3955V40.384V40.3725V40.361V40.3495V40.338V40.3265V40.3149V40.3033V40.2918V40.2802V40.2686V40.257V40.2453V40.2337V40.222V40.2104V40.1987V40.187V40.1753V40.1636V40.1519V40.1402V40.1284V40.1166V40.1049V40.0931V40.0813V40.0695V40.0577V40.0459V40.034V40.0222V40.0103V39.9984V39.9865V39.9746V39.9627V39.9508V39.9389V39.927V39.915V39.903V39.8911V39.8791V39.8671V39.8551V39.8431V39.8311V39.819V39.807V39.7949V39.7829V39.7708V39.7587V39.7466V39.7345V39.7224V39.7103V39.6981V39.686V39.6738V39.6617V39.6495V39.6373V39.6251V39.6129V39.6007V39.5885V39.5763V39.564V36.3472H26.6141ZM27.6141 34.3472V34.3414V34.3337V34.3259V34.3182V34.3104V34.3026V34.2947V34.2868V34.279V34.271V34.2631V34.2551V34.2471V34.2391V34.2311V34.223V34.215V34.2069V34.1987V34.1906V34.1824V34.1742V34.166V34.1577V34.1494V34.1412V34.1328V34.1245V34.1161V34.1077V34.0993V34.0909V34.0824V34.074V34.0655V34.0569V34.0484V34.0398V34.0312V34.0226V34.014V34.0053V33.9966V33.9879V33.9792V33.9705V33.9617V33.9529V33.9441V33.9353V33.9264V33.9175V33.9086V33.8997V33.8908V33.8818V33.8728V33.8638V33.8548V33.8457V33.8366V33.8276V33.8184V33.8093V33.8001V33.791V33.7818V33.7726V33.7633V33.7541V33.7448V33.7355V33.7261V33.7168V33.7074V33.6981V33.6887V33.6792V33.6698V33.6603V33.6508V33.6413V33.6318V33.6223V33.6127V33.6031V33.5935V33.5839V33.5742V33.5646V33.5549V33.5452V33.5355V33.5257V33.516V33.5062V33.4964V33.4866V33.4767V33.4669V33.457V33.4471V33.4372V33.4273V33.4173V33.4074V33.3974V33.3874V33.3773V33.3673V33.3572V33.3472V33.3371V33.327V33.3168V33.3067V33.2965V33.2863V33.2761V33.2659V33.2556V33.2454V33.2351V33.2248V33.2145V33.2042V33.1938V33.1835V33.1731V33.1627V33.1523V33.1418V33.1314V33.1209V33.1104V33.0999V33.0894V33.0789V33.0683V33.0578V33.0472V33.0366V33.026V33.0153V33.0047V32.994V32.9833V32.9727V32.9619V32.9512V32.9405V32.9297V32.9189V32.9081V32.8973V32.8865V32.8757V32.8648V32.8539V32.843V32.8321V32.8212V32.8103V32.7993V32.7884V32.7774V32.7664V32.7554V32.7444V32.7333V32.7223V32.7112V32.7001V32.689V32.6779V32.6668V32.6556V32.6445V32.6333V32.6221V32.6109V32.5997V32.5885V32.5772V32.566V32.5547V32.5434V32.5321V32.5208V32.5095V32.4981V32.4868V32.4754V32.464V32.4527V32.4412V32.4298V32.4184V32.4069V32.3955V32.384V32.3725V32.361V32.3495V32.338V32.3265V32.3149V32.3033V32.2918V32.2802V32.2686V32.257V32.2453V32.2337V32.222V32.2104V32.1987V32.187V32.1753V32.1636V32.1519V32.1402V32.1284V32.1166V32.1049V32.0931V32.0813V32.0695V32.0577V32.0459V32.034V32.0222V32.0103V31.9984V31.9865V31.9746V31.9627V31.9508V31.9389V31.927V31.915V31.903V31.8911V31.8791V31.8671V31.8551V31.8431V31.8311V31.819V31.807V31.7949V31.7829V31.7708V31.7587V31.7466V31.7345V31.7224V31.7103V31.6981V31.686V31.6738V31.6617V31.6495V31.6373V31.6251V31.6129V31.6007V31.5885V31.5763V31.564V28.8472C27.6141 28.5711 27.8379 28.3472 28.1141 28.3472H33.1141C33.3902 28.3472 33.6141 28.5711 33.6141 28.8472V31.564V31.5763V31.5885V31.6007V31.6129V31.6251V31.6373V31.6495V31.6617V31.6738V31.686V31.6981V31.7103V31.7224V31.7345V31.7466V31.7587V31.7708V31.7829V31.7949V31.807V31.819V31.8311V31.8431V31.8551V31.8671V31.8791V31.8911V31.903V31.915V31.927V31.9389V31.9508V31.9627V31.9746V31.9865V31.9984V32.0103V32.0222V32.034V32.0459V32.0577V32.0695V32.0813V32.0931V32.1049V32.1166V32.1284V32.1402V32.1519V32.1636V32.1753V32.187V32.1987V32.2104V32.222V32.2337V32.2453V32.257V32.2686V32.2802V32.2918V32.3033V32.3149V32.3265V32.338V32.3495V32.361V32.3725V32.384V32.3955V32.4069V32.4184V32.4298V32.4412V32.4527V32.464V32.4754V32.4868V32.4981V32.5095V32.5208V32.5321V32.5434V32.5547V32.566V32.5772V32.5885V32.5997V32.6109V32.6221V32.6333V32.6445V32.6556V32.6668V32.6779V32.689V32.7001V32.7112V32.7223V32.7333V32.7444V32.7554V32.7664V32.7774V32.7884V32.7993V32.8103V32.8212V32.8321V32.843V32.8539V32.8648V32.8757V32.8865V32.8973V32.9081V32.9189V32.9297V32.9405V32.9512V32.9619V32.9727V32.9833V32.994V33.0047V33.0153V33.026V33.0366V33.0472V33.0578V33.0683V33.0789V33.0894V33.0999V33.1104V33.1209V33.1314V33.1418V33.1523V33.1627V33.1731V33.1835V33.1938V33.2042V33.2145V33.2248V33.2351V33.2454V33.2556V33.2659V33.2761V33.2863V33.2965V33.3067V33.3168V33.327V33.3371V33.3472V33.3572V33.3673V33.3773V33.3874V33.3974V33.4074V33.4173V33.4273V33.4372V33.4471V33.457V33.4669V33.4767V33.4866V33.4964V33.5062V33.516V33.5257V33.5355V33.5452V33.5549V33.5646V33.5742V33.5839V33.5935V33.6031V33.6127V33.6223V33.6318V33.6413V33.6508V33.6603V33.6698V33.6792V33.6887V33.6981V33.7074V33.7168V33.7261V33.7355V33.7448V33.7541V33.7633V33.7726V33.7818V33.791V33.8001V33.8093V33.8184V33.8276V33.8366V33.8457V33.8548V33.8638V33.8728V33.8818V33.8908V33.8997V33.9086V33.9175V33.9264V33.9353V33.9441V33.9529V33.9617V33.9705V33.9792V33.9879V33.9966V34.0053V34.014V34.0226V34.0312V34.0398V34.0484V34.0569V34.0655V34.074V34.0824V34.0909V34.0993V34.1077V34.1161V34.1245V34.1328V34.1412V34.1494V34.1577V34.166V34.1742V34.1824V34.1906V34.1987V34.2069V34.215V34.223V34.2311V34.2391V34.2471V34.2551V34.2631V34.271V34.279V34.2868V34.2947V34.3026V34.3104V34.3182V34.3259V34.3337V34.3414V34.3472H30.6141H27.6141ZM34.6141 36.3472H31.6141V39.564V39.5763V39.5885V39.6007V39.6129V39.6251V39.6373V39.6495V39.6617V39.6738V39.686V39.6981V39.7103V39.7224V39.7345V39.7466V39.7587V39.7708V39.7829V39.7949V39.807V39.819V39.8311V39.8431V39.8551V39.8671V39.8791V39.8911V39.903V39.915V39.927V39.9389V39.9508V39.9627V39.9746V39.9865V39.9984V40.0103V40.0222V40.034V40.0459V40.0577V40.0695V40.0813V40.0931V40.1049V40.1166V40.1284V40.1402V40.1519V40.1636V40.1753V40.187V40.1987V40.2104V40.222V40.2337V40.2453V40.257V40.2686V40.2802V40.2918V40.3033V40.3149V40.3265V40.338V40.3495V40.361V40.3725V40.384V40.3955V40.4069V40.4184V40.4298V40.4412V40.4527V40.464V40.4754V40.4868V40.4981V40.5095V40.5208V40.5321V40.5434V40.5547V40.566V40.5772V40.5885V40.5997V40.6109V40.6221V40.6333V40.6445V40.6556V40.6668V40.6779V40.689V40.7001V40.7112V40.7223V40.7333V40.7444V40.7554V40.7664V40.7774V40.7884V40.7993V40.8103V40.8212V40.8321V40.843V40.8539V40.8648V40.8757V40.8865V40.8973V40.9081V40.9189V40.9297V40.9405V40.9512V40.9619V40.9727V40.9833V40.994V41.0047V41.0153V41.026V41.0366V41.0472V41.0578V41.0683V41.0789V41.0894V41.0999V41.1104V41.1209V41.1314V41.1418V41.1523V41.1627V41.1731V41.1835V41.1938V41.2042V41.2145V41.2248V41.2351V41.2454V41.2556V41.2659V41.2761V41.2863V41.2965V41.3067V41.3168V41.327V41.3371V41.3472V41.3572V41.3673V41.3773V41.3874V41.3974V41.4074V41.4173V41.4273V41.4372V41.4471V41.457V41.4669V41.4767V41.4866V41.4964V41.5062V41.516V41.5257V41.5355V41.5452V41.5549V41.5646V41.5742V41.5839V41.5935V41.6031V41.6127V41.6223V41.6318V41.6413V41.6508V41.6603V41.6698V41.6792V41.6887V41.6981V41.7074V41.7168V41.7261V41.7355V41.7448V41.7541V41.7633V41.7726V41.7818V41.791V41.8001V41.8093V41.8184V41.8276V41.8366V41.8457V41.8548V41.8638V41.8728V41.8818V41.8908V41.8997V41.9086V41.9175V41.9264V41.9353V41.9441V41.9529V41.9617V41.9705V41.9792V41.9879V41.9966V42.0053V42.014V42.0226V42.0312V42.0398V42.0484V42.0569V42.0655V42.074V42.0824V42.0909V42.0993V42.1077V42.1161V42.1245V42.1328V42.1412V42.1494V42.1577V42.166V42.1742V42.1824V42.1906V42.1987V42.2069V42.215V42.223V42.2311V42.2391V42.2471V42.2551V42.2631V42.271V42.279V42.2868V42.2947V42.3026V42.3104V42.3182V42.3259V42.3337V42.3414V42.3491V42.3568V42.3644V42.372V42.3796V42.3872V42.3947V42.4023V42.4098V42.4172V42.4247V42.4321V42.4395V42.4469V42.4542V42.4615V42.4688V42.4761V42.4833V42.4905V42.4977V42.5049V42.512V42.5191V42.5262V42.5333V42.5403V42.5473V42.5543V42.5613V42.5682V42.5751V42.582V42.5888V42.5956V42.6024V42.6092V42.6159V42.6226V42.6293V42.636V42.6426V42.6492V42.6558V42.6624V42.6689V42.6754V42.6786H37.3641L37.6139 42.6786V42.6754V42.6689V42.6624V42.6558V42.6492V42.6426V42.636V42.6293V42.6226V42.6159V42.6092V42.6024V42.5956V42.5888V42.582V42.5751V42.5682V42.5613V42.5543V42.5473V42.5403V42.5333V42.5262V42.5191V42.512V42.5049V42.4977V42.4905V42.4833V42.4761V42.4688V42.4615V42.4542V42.4469V42.4395V42.4321V42.4247V42.4172V42.4098V42.4023V42.3947V42.3872V42.3796V42.372V42.3644V42.3568V42.3491V42.3414V42.3337V42.3259V42.3182V42.3104V42.3026V42.2947V42.2868V42.279V42.271V42.2631V42.2551V42.2471V42.2391V42.2311V42.223V42.215V42.2069V42.1987V42.1906V42.1824V42.1742V42.166V42.1577V42.1494V42.1412V42.1328V42.1245V42.1161V42.1077V42.0993V42.0909V42.0824V42.074V42.0655V42.0569V42.0484V42.0398V42.0312V42.0226V42.014V42.0053V41.9966V41.9879V41.9792V41.9705V41.9617V41.9529V41.9441V41.9353V41.9264V41.9175V41.9086V41.8997V41.8908V41.8818V41.8728V41.8638V41.8548V41.8457V41.8366V41.8276V41.8184V41.8093V41.8001V41.791V41.7818V41.7726V41.7633V41.7541V41.7448V41.7355V41.7261V41.7168V41.7074V41.6981V41.6887V41.6792V41.6698V41.6603V41.6508V41.6413V41.6318V41.6223V41.6127V41.6031V41.5935V41.5839V41.5742V41.5646V41.5549V41.5452V41.5355V41.5257V41.516V41.5062V41.4964V41.4866V41.4767V41.4669V41.457V41.4471V41.4372V41.4273V41.4173V41.4074V41.3974V41.3874V41.3773V41.3673V41.3572V41.3472V41.3371V41.327V41.3168V41.3067V41.2965V41.2863V41.2761V41.2659V41.2556V41.2454V41.2351V41.2248V41.2145V41.2042V41.1938V41.1835V41.1731V41.1627V41.1523V41.1418V41.1314V41.1209V41.1104V41.0999V41.0894V41.0789V41.0683V41.0578V41.0472V41.0366V41.026V41.0153V41.0047V40.994V40.9833V40.9727V40.9619V40.9512V40.9405V40.9297V40.9189V40.9081V40.8973V40.8865V40.8757V40.8648V40.8539V40.843V40.8321V40.8212V40.8103V40.7993V40.7884V40.7774V40.7664V40.7554V40.7444V40.7333V40.7223V40.7112V40.7001V40.689V40.6779V40.6668V40.6556V40.6445V40.6333V40.6221V40.6109V40.5997V40.5885V40.5772V40.566V40.5547V40.5434V40.5321V40.5208V40.5095V40.4981V40.4868V40.4754V40.464V40.4527V40.4412V40.4298V40.4184V40.4069V40.3955V40.384V40.3725V40.361V40.3495V40.338V40.3265V40.3149V40.3033V40.2918V40.2802V40.2686V40.257V40.2453V40.2337V40.222V40.2104V40.1987V40.187V40.1753V40.1636V40.1519V40.1402V40.1284V40.1166V40.1049V40.0931V40.0813V40.0695V40.0577V40.0459V40.034V40.0222V40.0103V39.9984V39.9865V39.9746V39.9627V39.9508V39.9389V39.927V39.915V39.903V39.8911V39.8791V39.8671V39.8551V39.8431V39.8311V39.819V39.807V39.7949V39.7829V39.7708V39.7587V39.7466V39.7345V39.7224V39.7103V39.6981V39.686V39.6738V39.6617V39.6495V39.6373V39.6251V39.6129V39.6007V39.5885V39.5763V39.564V36.8472C37.6139 36.5711 37.39 36.3472 37.1139 36.3472H34.6141ZM32.0745 17.1908C31.1279 16.8661 30.1002 16.8661 29.1536 17.1908C28.4406 17.4355 27.8034 17.9316 26.9117 18.6259L26.7769 18.7308L20.0269 23.9808L19.9426 24.0464C19.3631 24.4968 18.947 24.8202 18.6215 25.2207C18.1894 25.7526 17.8845 26.3761 17.73 27.0437C17.6136 27.5465 17.6138 28.0735 17.614 28.8074L17.6141 28.9143V38.4286L17.6141 38.4636C17.6141 39.2493 17.614 39.8894 17.6497 40.4117C17.6865 40.9507 17.7645 41.4369 17.9566 41.9007C18.4133 43.0033 19.2894 43.8794 20.392 44.3361C20.8557 44.5282 21.3419 44.6062 21.8809 44.643C22.4032 44.6786 23.0433 44.6786 23.829 44.6786H23.8291H23.8641H37.3641H37.399H37.3991C38.1848 44.6786 38.8249 44.6786 39.3472 44.643C39.8862 44.6062 40.3724 44.5282 40.8361 44.3361C41.9388 43.8794 42.8148 43.0033 43.2715 41.9007C43.4636 41.4369 43.5417 40.9507 43.5784 40.4117C43.6141 39.8894 43.6141 39.2494 43.6141 38.4637V38.4636V38.4286V28.9143L43.6141 28.8074C43.6143 28.0735 43.6145 27.5465 43.4982 27.0437C43.3437 26.3761 43.0387 25.7526 42.6066 25.2207C42.2812 24.8202 41.865 24.4968 41.2856 24.0464L41.2012 23.9808L34.4512 18.7308L34.3164 18.6259C33.4247 17.9316 32.7875 17.4355 32.0745 17.1908ZM25.8141 37.7316C25.2618 37.7316 24.8141 38.1793 24.8141 38.7316C24.8141 39.2839 25.2618 39.7316 25.8141 39.7316H27.4141C27.9663 39.7316 28.4141 39.2839 28.4141 38.7316C28.4141 38.1793 27.9663 37.7316 27.4141 37.7316H25.8141ZM32.8139 38.7316C32.8139 38.1793 33.2616 37.7316 33.8139 37.7316H35.4139C35.9662 37.7316 36.4139 38.1793 36.4139 38.7316C36.4139 39.2839 35.9662 39.7316 35.4139 39.7316H33.8139C33.2616 39.7316 32.8139 39.2839 32.8139 38.7316ZM29.8141 29.7316C29.2618 29.7316 28.8141 30.1793 28.8141 30.7316C28.8141 31.2839 29.2618 31.7316 29.8141 31.7316H31.4141C31.9663 31.7316 32.4141 31.2839 32.4141 30.7316C32.4141 30.1793 31.9663 29.7316 31.4141 29.7316H29.8141Z" fill="#313131"/>
</svg>
