<svg width="61" height="61" viewBox="0 0 61 61" fill="none" xmlns="http://www.w3.org/2000/svg">
<rect x="0.571289" y="0.302734" width="60.0852" height="60.0852" rx="7.95748" fill="#F3F4F6"/>
<path d="M19.2808 26.8357C19.2808 22.2051 19.2808 19.8891 20.6474 18.4504C22.0141 17.0117 24.2141 17.0117 28.6141 17.0117H32.6141C37.0141 17.0117 39.2141 17.0117 40.5808 18.4517C41.9474 19.8877 41.9474 22.2037 41.9474 26.8344V33.8531C41.9474 38.4837 41.9474 40.7997 40.5808 42.2384C39.2141 43.6771 37.0141 43.6784 32.6141 43.6784H28.6141C24.2141 43.6784 22.0141 43.6784 20.6474 42.2384C19.2808 40.8024 19.2808 38.4864 19.2808 33.8557V26.8357Z" stroke="#313131" stroke-width="2" stroke-linecap="round" stroke-linejoin="round"/>
<path d="M25.2808 17.0117L25.3901 17.6691C25.6568 19.2651 25.7901 20.0637 26.3501 20.5384C26.9074 21.0117 27.7168 21.0117 29.3354 21.0117H31.8914C33.5088 21.0117 34.3181 21.0117 34.8781 20.5384C35.4381 20.0637 35.5714 19.2651 35.8368 17.6691L35.9474 17.0117M25.2808 35.6784H30.6141M25.2808 29.0117H35.9474" stroke="#313131" stroke-width="2" stroke-linecap="round" stroke-linejoin="round"/>
</svg>
