<svg xmlns="http://www.w3.org/2000/svg" data-name="Layer 1" viewBox="0 0 512 640" x="0px" y="0px">
    <title>Grown Rupees</title>
    <path
        d="M256,213.5A120.836,120.836,0,1,0,376.836,334.332,120.973,120.973,0,0,0,256,213.5Zm0,229.671A108.836,108.836,0,1,1,364.836,334.332,108.958,108.958,0,0,1,256,443.167Z" />
    <path
        d="M364,223.675V170h23.5a6,6,0,0,0,4.44-10.036l-41.126-45.239a6,6,0,0,0-8.879,0l-41.126,45.239A6,6,0,0,0,305.246,170H327v26.906a153.5,153.5,0,0,0-46-15.253V106h39.885a6,6,0,0,0,4.439-10.036L260.439,24.591a6,6,0,0,0-8.878,0L186.676,95.964A6,6,0,0,0,191.115,106H229v75.986a153.537,153.537,0,0,0-46,15.976V170h23.754a6,6,0,0,0,4.439-10.036l-41.126-45.239a6,6,0,0,0-8.879,0l-41.126,45.239A6,6,0,0,0,124.5,170H146v55.659a154.2,154.2,0,0,0-44.709,108.673c0,85.307,69.4,154.709,154.709,154.709s154.709-69.4,154.709-154.709A154.243,154.243,0,0,0,364,223.675ZM333,158H318.81l27.562-30.319L373.935,158H358a6,6,0,0,0-6,6v49.1a155.452,155.452,0,0,0-13-9.274V164A6,6,0,0,0,333,158ZM235,94H204.679L256,37.546,307.321,94H275a6,6,0,0,0-6,6v80.174c-4.287-.358-8.621-.551-13-.551-5.061,0-10.062.252-15,.729V100A6,6,0,0,0,235,94Zm-96.935,64,27.563-30.319L193.19,158H177a6,6,0,0,0-6,6v41.133a155.559,155.559,0,0,0-13,9.578V164a6,6,0,0,0-6-6ZM256,477.041c-78.69,0-142.709-64.019-142.709-142.709S177.31,191.623,256,191.623s142.709,64.019,142.709,142.709S334.69,477.041,256,477.041Z" />
    <path
        d="M306.547,266a6,6,0,0,0-6-6H211.453a6,6,0,1,0,0,12h25.494A31.991,31.991,0,0,1,268.6,298H211.453a6,6,0,1,0,0,12H268.6c-2.821,15-15.938,27-31.657,27H211.453a5.8,5.8,0,0,0-4.121,10.074l63.72,60.165a6.019,6.019,0,0,0,8.482-.275,5.78,5.78,0,0,0-.24-8.3L226.538,349h10.409c22.35,0,40.869-17,43.808-39h19.792a6,6,0,0,0,0-12H280.755a45.023,45.023,0,0,0-13.566-26h33.358A6,6,0,0,0,306.547,266Z" />
</svg>