<svg xmlns="http://www.w3.org/2000/svg" xmlns:xlink="http://www.w3.org/1999/xlink" version="1.1"
    x="0px" y="0px" viewBox="0 0 64 80" style="enable-background:new 0 0 64 64;"
    xml:space="preserve"><g><g><path d="M63.929,36.646l0.006-0.002L55.689,15H40v2h14v17h2V21.434L61.549,36H2.451L8,21.434V34h2V17h14v-2H8.311L0.065,36.645    l0.006,0.002C0.029,36.757,0,36.875,0,37v26c0,0.553,0.448,1,1,1h62c0.553,0,1-0.447,1-1V37    C64,36.875,63.971,36.757,63.929,36.646z M62,62H2V38h60V62z"/><path d="M21,55h22c2.205,0,4-1.795,4-4v-6H17v6C17,53.205,18.794,55,21,55z M19,47h26v4c0,1.103-0.896,2-2,2H21    c-1.103,0-2-0.897-2-2V47z"/><rect x="11" y="49" width="2" height="2"/><rect x="51" y="49" width="2" height="2"/><rect x="23" y="49" width="18" height="2"/><path d="M20.076,21.617c-0.155,0.374-0.069,0.804,0.217,1.09l11,11C31.488,33.902,31.744,34,32,34s0.512-0.098,0.707-0.293l11-11    c0.286-0.286,0.371-0.716,0.217-1.09C43.77,21.244,43.404,21,43,21h-5V0h-2v22c0,0.553,0.447,1,1,1h3.586L32,31.586L23.414,23H27    c0.552,0,1-0.447,1-1V0h-2v21h-5C20.596,21,20.231,21.244,20.076,21.617z"/><rect x="31" y="21" width="2" height="2"/><rect x="31" y="17" width="2" height="2"/><rect x="31" y="13" width="2" height="2"/><rect x="31" y="9" width="2" height="2"/><rect x="31" y="5" width="2" height="2"/><rect x="31" y="1" width="2" height="2"/></g></g>
</svg>