<svg xmlns="http://www.w3.org/2000/svg" version="1.1" viewBox="-5.0 -10.0 110.0 135.0">
 <path d="m49.953 17.059h0.003906c0.31641 0 0.60938 0.085937 0.86328 0.23828 0.64844 0.38672 34.391 19.852 34.391 19.852 0.54297 0.28516 0.91406 0.85547 0.91406 1.5117 0 0.625-0.33594 1.1719-0.83203 1.4688l-34.527 19.977c-0.24219 0.12891-0.51953 0.20312-0.81641 0.20312s-0.57422-0.074219-0.82031-0.20703l-34.438-19.973c-0.5-0.29688-0.83203-0.83984-0.83203-1.4648 0-0.65625 0.37109-1.2266 0.91016-1.5117l34.297-19.852c0.25781-0.15625 0.55859-0.24219 0.88281-0.24219zm-0.007813-5.418h-0.003906c-1.4375 0-2.7773 0.42578-3.8945 1.1602l-34 19.668c-2.1445 1.2305-3.5898 3.543-3.5898 6.1953 0 2.5781 1.3633 4.8359 3.4062 6.0859l34.184 19.816c1.1211 0.73047 2.4609 1.1602 3.9023 1.1602 1.3086 0 2.5391-0.35547 3.5938-0.97266l34.582-20.008c2.0469-1.25 3.418-3.5078 3.418-6.0859 0-2.6523-1.4492-4.9648-3.6016-6.1914l-34.496-19.914c-1.0352-0.58594-2.2305-0.91406-3.5-0.91406zm40.895 35.246h-0.003906c-0.31641 0.24609-0.64453 0.47266-0.98828 0.68359l-3.7383 2.168c0.007813 0.074219 0.015625 0.15625 0.015625 0.23438 0 0.625-0.33594 1.1719-0.83203 1.4688l-34.527 19.977c-0.24219 0.12891-0.51953 0.20312-0.81641 0.20312s-0.57422-0.074219-0.82031-0.20703l-34.438-19.973c-0.5-0.29688-0.83203-0.83984-0.83203-1.4648 0-0.082031 0.003906-0.16016 0.015625-0.23828l-3.7383-2.168c-0.33984-0.20703-0.66797-0.42969-0.98047-0.67578v-0.003906c-0.44922 0.93359-0.69922 1.9805-0.69922 3.0859 0 2.5781 1.3633 4.832 3.4062 6.0859l34.184 19.816c1.1211 0.73047 2.4609 1.1602 3.9023 1.1602 1.3086 0 2.5391-0.35547 3.5938-0.97266l34.582-20.008c2.0469-1.25 3.418-3.5078 3.418-6.0859 0-1.1055-0.25391-2.1523-0.70312-3.0859zm0 11.312h-0.003906c-0.31641 0.24609-0.64453 0.47266-0.98828 0.67969l-3.7383 2.1719c0.007813 0.074219 0.015625 0.15625 0.015625 0.23438 0 0.625-0.33594 1.1719-0.83203 1.4648l-34.527 19.977c-0.24219 0.13281-0.51953 0.20703-0.81641 0.20703s-0.57422-0.074219-0.82031-0.20703l-34.438-19.973c-0.5-0.29688-0.83203-0.83984-0.83203-1.4648 0-0.082031 0.003906-0.16016 0.015625-0.23828l-3.7383-2.168c-0.33984-0.20703-0.66797-0.43359-0.98047-0.67578v-0.003906c-0.44922 0.93359-0.69922 1.9805-0.69922 3.0859 0 2.5742 1.3633 4.832 3.4062 6.0859l34.184 19.812c1.1211 0.73438 2.4609 1.1641 3.9023 1.1641 1.3086 0 2.5391-0.35547 3.5938-0.97266l34.582-20.008c2.0469-1.25 3.418-3.5078 3.418-6.0859 0-1.1055-0.25391-2.1523-0.70312-3.0859z"/>
</svg>
