<svg xmlns="http://www.w3.org/2000/svg" xmlns:xlink="http://www.w3.org/1999/xlink"
  xml:space="preserve"
  style="shape-rendering:geometricPrecision;text-rendering:geometricPrecision;image-rendering:optimizeQuality;"
  viewBox="0 0 173.397 216.74624999999997" x="0px" y="0px" fill-rule="evenodd" clip-rule="evenodd"><defs><style type="text/css">
   
    .fil1 {fill:none}
    .fil0 {fill:black}
   
  </style></defs><g><g><path class="fil0" d="M13.5026 159.895l6.3429 0 0 -143.221c0,-1.7491 -1.424,-3.1715 -3.1716,-3.1715l0 -0.0001c-1.7476,0 -3.1716,1.4231 -3.1716,3.172l0.0003 143.221zm8.0141 3.3424l-9.6852 0c-0.9228,0 -1.6714,-0.7477 -1.6714,-1.6707l0.0001 -144.893c0,-3.5914 2.9208,-6.5137 6.5137,-6.5137 3.5931,-0.0003 6.5137,2.9223 6.5137,6.5141l0 144.892c0,0.9229 -0.7486,1.6714 -1.6709,1.6709z"/><path class="fil0" d="M151.881 137.047l-130.364 0c-0.9228,0 -1.6713,-0.7478 -1.6713,-1.6707 0.0001,-0.9236 0.7485,-1.6711 1.671,-1.6711l130.364 -0.0006c0.9229,0 1.671,0.7488 1.671,1.6717 0.0003,0.9226 -0.7484,1.6711 -1.671,1.6707zm0 9.3951l-130.364 0c-0.9228,0 -1.6713,-0.748 -1.6713,-1.671 0.0001,-0.9234 0.7485,-1.671 1.671,-1.671l130.364 -0.0004c0.9229,0 1.671,0.7485 1.671,1.6714 0.0003,0.9229 -0.7484,1.6712 -1.671,1.671z"/><path class="fil0" d="M153.552 159.895l6.3429 0 0 -143.221c0,-1.7491 -1.424,-3.1715 -3.1717,-3.1715l0.0004 -0.0001c-1.7511,0 -3.1719,1.4231 -3.1719,3.172l0.0003 143.221zm8.014 3.3424l-9.6853 0c-0.9223,0 -1.6711,-0.7477 -1.6711,-1.6707l0 -144.893c0,-3.5914 2.9209,-6.5137 6.5136,-6.5137 3.5931,-0.0003 6.5137,2.9223 6.5137,6.5141l0.0003 144.892c0,0.9229 -0.7488,1.6714 -1.6712,1.6709z"/><path class="fil0" d="M23.1876 75.734l127.022 0 0 -6.0527 -127.022 0 0 6.0527zm128.693 3.3424l-130.364 0c-0.9228,0 -1.6713,-0.7483 -1.6713,-1.6709l0.0001 -9.395c0,-0.9227 0.7484,-1.6709 1.6709,-1.6709l130.364 -0.0007c0.9229,0 1.671,0.7489 1.671,1.6718l0.0003 9.3948c0,0.922 -0.7487,1.6711 -1.6713,1.6709z"/><path class="fil0" d="M34.645 137.047c-0.9227,0 -1.6712,-0.7478 -1.6712,-1.6707l0.0001 -32.4097c0,-0.9227 0.7483,-1.6703 1.6709,-1.6703 0.9226,-0.0005 1.671,0.7478 1.671,1.6707l0 32.4092c0,0.9227 -0.7485,1.6712 -1.6708,1.6708zm40.9901 0c-0.9229,0 -1.6715,-0.7478 -1.6715,-1.6707l0.0002 -32.4097c0,-0.9227 0.7483,-1.6703 1.6709,-1.6703 0.9227,-0.0005 1.671,0.7478 1.671,1.6707l0.0001 32.4092c0,0.9227 -0.7485,1.6712 -1.6707,1.6708z"/><path class="fil0" d="M32.2673 101.296l45.7455 0 0 -7.7383 -45.7455 0 0 7.7383zm47.4163 3.3417l-49.0875 0c-0.9227,0 -1.6713,-0.7477 -1.6713,-1.6705l0.0001 -11.0811c0,-0.9227 0.7485,-1.671 1.6711,-1.671l49.0876 -0.0007c0.9227,0 1.671,0.749 1.671,1.6719l0.0001 11.0805c0,0.9227 -0.7486,1.6715 -1.6711,1.6709z"/><path class="fil0" d="M49.5382 118.578c-0.2159,0 -0.4352,-0.0415 -0.644,-0.1286 -0.6195,-0.2607 -1.0271,-0.8679 -1.0271,-1.5418l0.0002 -13.941c0,-0.9227 0.7484,-1.6707 1.6709,-1.6707 0.9227,-0.0001 1.6711,0.7482 1.6711,1.6711l0.0001 9.9415 1.5909 -1.5698c0.6513,-0.6431 1.6989,-0.6424 2.3499,0l1.5878 1.5698 0 -9.9419c0,-0.9227 0.7482,-1.6707 1.6708,-1.6707 0.9228,-0.0001 1.671,0.7482 1.671,1.6711l0.0002 13.9403c0,0.6736 -0.404,1.282 -1.0272,1.5421 -0.6194,0.2595 -1.3368,0.1208 -1.8173,-0.353l-3.2618 -3.2202 -3.2586 3.2201c-0.3203,0.3149 -0.7452,0.4822 -1.1769,0.4817z"/><path class="fil0" d="M97.7624 137.047c-0.9223,0 -1.671,-0.7478 -1.671,-1.6707l0.0003 -32.4097c0,-0.9227 0.7481,-1.6703 1.6707,-1.6703 0.9228,-0.0005 1.6711,0.7478 1.6711,1.6707l0.0002 32.4092c0,0.9227 -0.7487,1.6712 -1.6713,1.6708zm40.9901 0c-0.9224,0 -1.6713,-0.7478 -1.6713,-1.6707l0.0004 -32.4097c0,-0.9227 0.7482,-1.6703 1.6707,-1.6703 0.9229,-0.0005 1.6711,0.7478 1.6711,1.6707l0.0002 32.4092c0,0.9227 -0.7487,1.6712 -1.6711,1.6708z"/><path class="fil0" d="M95.3847 101.296l45.7455 0 0 -7.7383 -45.7455 0 0 7.7383zm47.4167 3.3417l-49.0875 0c-0.9227,0 -1.6714,-0.7477 -1.6714,-1.6705l0.0002 -11.0811c0,-0.9227 0.7483,-1.671 1.6709,-1.671l49.0878 -0.0007c0.9223,0 1.6709,0.749 1.6709,1.6719l0.0003 11.0805c0,0.9227 -0.7489,1.6715 -1.6712,1.6709z"/><path class="fil0" d="M123.859 118.578c-0.432,0 -0.8568,-0.1665 -1.1771,-0.4816l-3.2584 -3.2202 -3.2621 3.2201c-0.4805,0.4731 -1.1978,0.6125 -1.8174,0.3531 -0.623,-0.2607 -1.027,-0.8679 -1.027,-1.5418l0.0002 -13.941c0,-0.9227 0.7483,-1.6707 1.6708,-1.6707 0.9227,-0.0001 1.6711,0.7482 1.6711,1.6711l0 9.9415 1.5879 -1.5698c0.6509,-0.6424 1.6986,-0.6427 2.3496,0l1.5912 1.5698 0 -9.9419c0,-0.9227 0.7448,-1.6707 1.6708,-1.6707 0.9227,-0.0001 1.6711,0.7482 1.6711,1.6711l0.0001 13.9403c0,0.6736 -0.4074,1.282 -1.0271,1.5421 -0.2086,0.0864 -0.4282,0.1291 -0.6437,0.1286z"/><path class="fil0" d="M34.645 69.6813c-0.9227,0 -1.6712,-0.7477 -1.6712,-1.6706l0.0001 -32.4098c0,-0.9227 0.7483,-1.6706 1.6709,-1.6706 0.9226,-0.0002 1.671,0.7482 1.671,1.671l0 32.4092c0,0.9227 -0.7485,1.6712 -1.6708,1.6708zm40.9901 0c-0.9229,0 -1.6715,-0.7477 -1.6715,-1.6706l0.0002 -32.4098c0,-0.9227 0.7483,-1.6706 1.6709,-1.6706 0.9227,-0.0002 1.671,0.7482 1.671,1.671l0.0001 32.4092c0,0.9227 -0.7485,1.6712 -1.6707,1.6708z"/><path class="fil0" d="M32.2673 33.9301l45.7455 0 0 -7.7391 -45.7455 0 0 7.7391zm47.4163 3.3417l-49.0875 0c-0.9227,0 -1.6713,-0.7476 -1.6713,-1.6705l0.0001 -11.0811c0,-0.9227 0.7485,-1.6709 1.6711,-1.6709l49.0876 0c0.9227,0 1.671,0.7483 1.671,1.6711l0.0001 11.0805c0,0.9227 -0.7486,1.6715 -1.6711,1.6709z"/><path class="fil0" d="M49.5382 51.2123c-0.2159,0 -0.4352,-0.0418 -0.644,-0.1288 -0.6195,-0.2605 -1.0271,-0.8679 -1.0271,-1.5419l0.0002 -13.9407c0,-0.9227 0.7484,-1.6706 1.6709,-1.6706 0.9227,-0.0002 1.6711,0.7482 1.6711,1.671l0.0001 9.9415 1.5909 -1.5706c0.6513,-0.6424 1.6989,-0.6418 2.3499,0.0006l1.5878 1.57 0 -9.9419c0,-0.9227 0.7482,-1.6706 1.6708,-1.6706 0.9228,-0.0002 1.671,0.7482 1.671,1.671l0.0002 13.9403c0,0.6736 -0.404,1.2821 -1.0272,1.5419 -0.6194,0.2597 -1.3368,0.1204 -1.8173,-0.3527l-3.2618 -3.2204 -3.2586 3.2202c-0.3203,0.3149 -0.7452,0.4823 -1.1769,0.4817z"/><path class="fil0" d="M97.7624 69.6813c-0.9223,0 -1.671,-0.7477 -1.671,-1.6706l0.0003 -32.4098c0,-0.9227 0.7481,-1.6706 1.6707,-1.6706 0.9228,-0.0002 1.6711,0.7482 1.6711,1.671l0.0002 32.4092c0,0.9227 -0.7487,1.6712 -1.6713,1.6708zm40.9901 0c-0.9224,0 -1.6713,-0.7477 -1.6713,-1.6706l0.0004 -32.4098c0,-0.9227 0.7482,-1.6706 1.6707,-1.6706 0.9229,-0.0002 1.6711,0.7482 1.6711,1.671l0.0002 32.4092c0,0.9227 -0.7487,1.6712 -1.6711,1.6708z"/><path class="fil0" d="M95.3847 33.9301l45.7455 0 0 -7.7391 -45.7455 0 0 7.7391zm47.4167 3.3417l-49.0875 0c-0.9227,0 -1.6714,-0.7476 -1.6714,-1.6705l0.0002 -11.0811c0,-0.9227 0.7483,-1.6709 1.6709,-1.6709l49.0878 0c0.9223,0 1.6709,0.7483 1.6709,1.6711l0.0003 11.0805c0,0.9227 -0.7489,1.6715 -1.6712,1.6709z"/><path class="fil0" d="M123.859 51.2123c-0.432,0 -0.8568,-0.1664 -1.1771,-0.4815l-3.2584 -3.2204 -3.2621 3.2202c-0.4805,0.4731 -1.1978,0.6126 -1.8174,0.3529 -0.623,-0.2605 -1.027,-0.8679 -1.027,-1.5419l0.0002 -13.9407c0,-0.9227 0.7483,-1.6706 1.6708,-1.6706 0.9227,-0.0002 1.6711,0.7482 1.6711,1.671l0 9.9415 1.5879 -1.5706c0.6509,-0.6424 1.6986,-0.642 2.3496,0.0006l1.5912 1.57 0 -9.9419c0,-0.9227 0.7448,-1.6706 1.6708,-1.6706 0.9227,-0.0002 1.6711,0.7482 1.6711,1.671l0.0001 13.9403c0,0.6736 -0.4074,1.2821 -1.0271,1.5419 -0.2086,0.0866 -0.4282,0.1294 -0.6437,0.1288z"/></g></g><rect class="fil1" width="173.397" height="173.397"/><text x="0" y="188.397" fill="#000000" font-size="5px" font-weight="bold" font-family="'Helvetica Neue', Helvetica, Arial-Unicode, Arial, Sans-serif">Created by Ehtisham Abid</text>
  </svg>