<svg width="15" height="15" viewBox="0 0 15 15" fill="none" xmlns="http://www.w3.org/2000/svg">
<path d="M3.715 6.8425C4.795 8.965 6.535 10.705 8.6575 11.785L10.3075 10.135C10.5175 9.925 10.81 9.865 11.0725 9.9475C11.9125 10.225 12.8125 10.375 13.75 10.375C13.9489 10.375 14.1397 10.454 14.2803 10.5947C14.421 10.7353 14.5 10.9261 14.5 11.125V13.75C14.5 13.9489 14.421 14.1397 14.2803 14.2803C14.1397 14.421 13.9489 14.5 13.75 14.5C10.3685 14.5 7.12548 13.1567 4.73439 10.7656C2.3433 8.37452 1 5.13151 1 1.75C1 1.55109 1.07902 1.36032 1.21967 1.21967C1.36032 1.07902 1.55109 1 1.75 1H4.375C4.57391 1 4.76468 1.07902 4.90533 1.21967C5.04598 1.36032 5.125 1.55109 5.125 1.75C5.125 2.6875 5.275 3.5875 5.5525 4.4275C5.635 4.69 5.575 4.9825 5.365 5.1925L3.715 6.8425Z" fill="white" stroke="white"/>
</svg>
