<svg xmlns="http://www.w3.org/2000/svg" viewBox="0 0 32 40" x="0px" y="0px"><g data-name="Layer 9"><path d="M5,6A1,1,0,0,1,6,5h6a1,1,0,0,1,0,2H6A1,1,0,0,1,5,6ZM16,7h2a1,1,0,0,0,0-2H16a1,1,0,0,0,0,2ZM6,12h6a1,1,0,0,0,0-2H6a1,1,0,0,0,0,2Zm10,0h2a1,1,0,0,0,0-2H16a1,1,0,0,0,0,2Zm-4,3H6a1,1,0,0,0,0,2h6a1,1,0,0,0,0-2ZM6,22h5a1,1,0,0,0,0-2H6a1,1,0,0,0,0,2Zm6,3H6a1,1,0,0,0,0,2h6a1,1,0,0,0,0-2Zm19-3a9,9,0,0,1-9,9H2a1,1,0,0,1-1-1V2A1,1,0,0,1,2,1H22a1,1,0,0,1,1,1V13.06A9,9,0,0,1,31,22ZM16.32,29c-.24-.2-.47-.4-.69-.62l-.11-.12c-.18-.19-.35-.37-.51-.57s-.13-.18-.2-.26-.24-.33-.35-.5l-.19-.31c-.1-.16-.19-.33-.28-.5l-.16-.34c-.08-.17-.15-.35-.22-.52s-.09-.24-.13-.37a5.18,5.18,0,0,1-.17-.56c0-.12-.07-.24-.09-.36s-.08-.42-.11-.64,0-.21,0-.31A8.22,8.22,0,0,1,13,22a8.69,8.69,0,0,1,.05-.89,1.45,1.45,0,0,1,0-.29c0-.19.05-.38.08-.57s.06-.23.08-.34.08-.34.13-.5l.12-.34c.05-.16.11-.31.17-.46l.15-.34c.07-.15.13-.29.21-.43l.18-.33.24-.4.21-.31.28-.37.24-.29.31-.34.27-.27.34-.31.28-.24.38-.29.3-.2.42-.26.3-.18.47-.22.29-.14c.19-.08.38-.14.58-.21l.23-.08a7.75,7.75,0,0,1,.83-.21.86.86,0,0,1,.17,0c.21,0,.43-.08.65-.1V3H3V29H16.35ZM29,22a7,7,0,1,0-7,7A7,7,0,0,0,29,22Zm-3-1H23V18a1,1,0,0,0-2,0v3H18a1,1,0,0,0-1,1c0,1,.61,1,2.25,1H21v3h0a1,1,0,0,0,1,1c1,0,1-.61,1-2.25V23h3a1,1,0,0,0,0-2Z"/></g><text x="0" y="47" fill="#000000" font-size="5px" font-weight="bold" font-family="'Helvetica Neue', Helvetica, Arial-Unicode, Arial, Sans-serif">Created by ZAK</text><text x="0" y="52" fill="#000000" font-size="5px" font-weight="bold" font-family="'Helvetica Neue', Helvetica, Arial-Unicode, Arial, Sans-serif">from the Noun Project</text></svg>