<svg xmlns="http://www.w3.org/2000/svg" version="1.1" viewBox="-5.0 -10.0 110.0 135.0">
 <path d="m54.641 7.5039h17.57c4.5703 0.019532 8.2695 3.7148 8.293 8.2852v25.852c1.4688 0.21484 2.6289 1.3516 2.875 2.8125l0.050782 0.39062 1.8828 0.76953 0.003906-0.003906c0.70703-0.60938 1.6328-0.91016 2.5664-0.83203 0.79688 0.070312 1.543 0.41797 2.1055 0.98047l2.6445 2.6641c1.168 1.168 1.3203 3.0117 0.35547 4.3555l-0.23047 0.29297 0.80078 1.8828v0.003906c0.92578 0.082031 1.7812 0.51953 2.3906 1.2227 0.51172 0.60937 0.79688 1.3789 0.79688 2.1797v3.7461c0 1.6562-1.1953 3.0703-2.832 3.3477h-0.35937l-0.80859 1.9141c1.1953 1.3398 1.1445 3.375-0.11328 4.6523l-2.6328 2.6211c-1.1758 1.1836-3.0391 1.3359-4.3906 0.35938l-0.29297-0.19922-1.8828 0.76953h-0.003906c-0.078126 0.92188-0.51563 1.7812-1.2188 2.3867-0.47656 0.42578-1.0703 0.69922-1.707 0.78125v11.578c0 4.582-3.707 8.3047-8.293 8.3164h-60.633c-4.582 0-8.3047-3.7109-8.3164-8.2969v-74.547c0.023437-4.5781 3.7383-8.2773 8.3164-8.2852h17.578c0.20312-3.457 3.0742-6.1523 6.5391-6.1367h12.41c3.457 0.003906 6.3164 2.6914 6.5352 6.1367zm23.539 44.613c3.2734-0.003907 6.2305 1.9648 7.4844 4.9922 1.2578 3.0234 0.56641 6.5078-1.75 8.8242-2.3164 2.3164-5.8008 3.0078-8.8281 1.7539-3.0234-1.2578-4.9961-4.2109-4.9922-7.4883-0.003906-2.1445 0.84375-4.2031 2.3633-5.7227 1.5156-1.5156 3.5742-2.3672 5.7227-2.3594zm2.3906 5.6719c-0.97266-0.96875-2.4297-1.2539-3.6953-0.73047-1.2656 0.52734-2.0898 1.7617-2.0898 3.1328 0 1.3672 0.82422 2.6016 2.0898 3.1289 1.2656 0.52344 2.7227 0.23828 3.6953-0.73047 1.3203-1.3281 1.3203-3.4727 0-4.8008zm-4.7812-16.148v-25.852c-0.003906-1.9961-1.6133-3.6133-3.6094-3.6328h-17.539v0.55859c0 1.1172-0.44141 2.1875-1.2305 2.9766-0.78906 0.79297-1.8633 1.2344-2.9805 1.2344h-17.125c-2.3242 0-4.2109-1.8828-4.2109-4.2109v-0.55859h-17.516c-2.0039 0-3.6289 1.6289-3.6289 3.6328v74.547c0 0.96094 0.38672 1.8828 1.0664 2.5586s1.6016 1.0547 2.5625 1.0547h60.633c1.9805-0.023438 3.5742-1.6328 3.5781-3.6133v-11.578c-1.4648-0.21484-2.6211-1.3516-2.8633-2.8086v-0.35938l-1.8828-0.76953c-0.71094 0.59375-1.6172 0.89063-2.5391 0.83203-0.80078-0.054688-1.5508-0.41016-2.1055-0.98828l-2.6523-2.6211c-1.1641-1.1836-1.3203-3.0312-0.36719-4.3906l0.24219-0.29297-0.80078-1.8828v-0.003906c-0.92187-0.058594-1.7852-0.48438-2.3906-1.1875-0.51563-0.62109-0.80469-1.4023-0.80859-2.2109v-3.7461c0.003906-0.32812 0.058594-0.64844 0.15625-0.96094h-28.02c-0.64844 0.042968-1.2852-0.18359-1.7617-0.625-0.47266-0.44531-0.74219-1.0664-0.74219-1.7148 0-0.65234 0.26953-1.2734 0.74219-1.7148 0.47656-0.44531 1.1133-0.67188 1.7617-0.62891h31.578c-0.90234-1.3281-0.74609-3.1133 0.37891-4.2617l2.6523-2.6328c1.1602-1.1836 3.0117-1.3438 4.3594-0.37891l0.29297 0.23047 1.8828-0.76953 0.003906 0.003906c0.070312-0.9375 0.50781-1.8086 1.2188-2.4219 0.48438-0.39844 1.0547-0.67578 1.6641-0.8125zm6.7773 7.8828c-1.168-0.48438-1.9688-0.48438-2.832-1.4297h0.003906c-0.44141-0.49609-0.71875-1.1172-0.78906-1.7773h-1.5391c-0.20312 1.3242-1.1602 2.4062-2.4531 2.7695-0.82422 0.25-1.625 0.58203-2.3867 0.98828-1.1602 0.67188-2.6055 0.57812-3.6641-0.24219l-1.0508 1.1055h-0.003907c0.57813 0.78906 0.78516 1.793 0.57031 2.7461 0.46094 0.65234 0.5625 1.4922 0.26562 2.2305-0.29688 0.74219-0.94531 1.2812-1.7305 1.4336-0.44531 1.1289-1.4609 1.9297-2.6641 2.1055v1.5469c1.332 0.17188 2.4258 1.1289 2.7812 2.4219 0.24609 0.82812 0.57812 1.6289 0.98828 2.3867 0.66406 1.1641 0.5625 2.6094-0.26172 3.6641l1.0508 1.0508v0.003906c1.0703-0.78906 2.5-0.88672 3.6641-0.24219 0.75781 0.41797 1.5586 0.75 2.3906 0.98828 1.2852 0.37109 2.2422 1.457 2.4531 2.7773h1.5898c0.18359-1.3242 1.1328-2.4141 2.418-2.7773 0.83203-0.23047 1.6289-0.5625 2.3789-0.98828 1.168-0.64062 2.6016-0.54688 3.6758 0.24219l1.0508-1.0508v-0.003906c-0.80469-1.0625-0.89844-2.5039-0.24219-3.6641 0.42578-0.75391 0.75781-1.5547 0.99219-2.3867 0.35938-1.2852 1.4453-2.2344 2.7656-2.4219v-1.5703c-1.3203-0.21094-2.3984-1.168-2.7656-2.4492-0.23828-0.83203-0.57031-1.6289-0.99219-2.3789-0.65625-1.1641-0.5625-2.6094 0.24219-3.6758l-1.0508-1.1055c-1.0625 0.82031-2.5156 0.91797-3.6758 0.24219-0.37109-0.20312-0.75781-0.38281-1.1562-0.53516zm-29.715 20.352v3.043-0.003907c-0.007812 0.80469-0.42187 1.5469-1.1055 1.9688l-3.6094 2.5352v0.003906c-0.84375 0.58203-1.9648 0.55469-2.7773-0.0625l-3.6641-2.5352v-0.003907c-0.65234-0.41406-1.0508-1.1328-1.0547-1.9062v-3.0391h-3.1562v15.84h18.473v-15.84zm-7.4961 0v1.8203l1.3984 0.94922 1.4102-0.94922 0.003907-1.8203zm-9.5664-4.6836h22.496c0.625-0.003906 1.2266 0.24219 1.668 0.6875 0.44531 0.44141 0.69141 1.043 0.6875 1.668v20.527c0 0.62109-0.25 1.2148-0.69531 1.6523-0.44141 0.4375-1.0391 0.67969-1.6602 0.67188h-45.652c-1.2891 0-2.332-1.0391-2.3398-2.3242v-20.527c0-0.62109 0.24219-1.2188 0.68359-1.6641 0.4375-0.44141 1.0312-0.69141 1.6562-0.69141zm-2.8633 20.527v-15.844h-2.6641v3.043-0.003907c-0.007813 0.80469-0.42188 1.5469-1.1055 1.9688l-3.6094 2.5352v0.003906c-0.84375 0.58203-1.9648 0.55469-2.7773-0.0625l-3.6641-2.5352v-0.003907c-0.65234-0.41406-1.0469-1.1328-1.0547-1.9062v-3.0391h-3.0625v15.84zm-10.156-15.844v1.8203l1.4414 0.9375 1.3789-0.94922v-1.8086zm-2.1992-18.148c1.3398-0.007812 2.5508 0.79297 3.0703 2.0312 0.51562 1.2344 0.23438 2.6641-0.71484 3.6094-0.94531 0.94922-2.375 1.2305-3.6094 0.71484-1.2383-0.51953-2.0391-1.7305-2.0312-3.0703 0-1.8164 1.4688-3.2852 3.2852-3.2852zm0-14.02c1.332-0.011719 2.543 0.78516 3.0625 2.0156 0.51953 1.2266 0.25 2.6484-0.68359 3.6016-0.9375 0.95312-2.3516 1.25-3.5898 0.75391s-2.0586-1.6914-2.0742-3.0273c-0.007812-0.875 0.33594-1.7148 0.95312-2.3359 0.61719-0.625 1.4531-0.97656 2.332-0.97656zm45.914 0.95703c0.64844-0.042968 1.2852 0.18359 1.7617 0.625 0.47266 0.44531 0.74219 1.0664 0.74219 1.7148 0 0.65234-0.26953 1.2734-0.74219 1.7148-0.47656 0.44531-1.1133 0.67188-1.7617 0.62891h-34.738c-0.64844 0.042969-1.2852-0.18359-1.7578-0.62891-0.47656-0.44141-0.74609-1.0625-0.74609-1.7148 0-0.64844 0.26953-1.2695 0.74609-1.7148 0.47266-0.44141 1.1094-0.66797 1.7578-0.625zm-45.914-14.949c1.3281 0 2.5273 0.80078 3.0352 2.0312 0.50781 1.2266 0.22266 2.6406-0.71875 3.5781-0.94141 0.94141-2.3555 1.2188-3.582 0.70703-1.2266-0.51172-2.0234-1.7109-2.0195-3.043-0.003906-0.87109 0.33984-1.707 0.95703-2.3203 0.61719-0.61328 1.457-0.95703 2.3281-0.95312zm45.914 0.92578c0.64844-0.042969 1.2852 0.18359 1.7617 0.62891 0.47266 0.44531 0.74219 1.0664 0.74219 1.7148s-0.26953 1.2695-0.74219 1.7148c-0.47656 0.44141-1.1133 0.67188-1.7617 0.62891h-34.738c-0.64844 0.042969-1.2852-0.1875-1.7578-0.62891-0.47656-0.44531-0.74609-1.0664-0.74609-1.7148s0.26953-1.2695 0.74609-1.7148c0.47266-0.44531 1.1094-0.67188 1.7578-0.62891zm-18.379-18.59h-12.41c-1.0234 0-1.8633 0.82031-1.8867 1.8438v4.3594h16.148v-4.3594c-0.011719-1.0156-0.83594-1.8359-1.8516-1.8438z"/>
</svg>