<svg width="16" height="14" viewBox="0 0 16 14" fill="none" xmlns="http://www.w3.org/2000/svg">
<path d="M1.25 0.25H14.75C14.9489 0.25 15.1397 0.329018 15.2803 0.46967C15.421 0.610322 15.5 0.801088 15.5 1V13C15.5 13.1989 15.421 13.3897 15.2803 13.5303C15.1397 13.671 14.9489 13.75 14.75 13.75H1.25C1.05109 13.75 0.860322 13.671 0.71967 13.5303C0.579018 13.3897 0.5 13.1989 0.5 13V1C0.5 0.801088 0.579018 0.610322 0.71967 0.46967C0.860322 0.329018 1.05109 0.25 1.25 0.25ZM14 3.4285L8.054 8.7535L2 3.412V12.25H14V3.4285ZM2.38325 1.75L8.04575 6.7465L13.6265 1.75H2.38325Z" fill="#546E7A"/>
</svg>
