<svg width="98" height="98" viewBox="0 0 98 98" fill="none" xmlns="http://www.w3.org/2000/svg">
<circle cx="49" cy="49" r="49" fill="#EFF0F5"/>
<circle cx="50" cy="32" r="5" fill="#BEC6CC"/>
<path d="M63.2222 33C64.2041 33 65 33.7959 65 34.7778V35.3975C65 36.0371 64.4815 36.5556 63.842 36.5556V36.5556C63.4548 36.5556 63.0932 36.7491 62.8784 37.0712L54.6692 49.385C54.4502 49.7136 54.3333 50.0996 54.3333 50.4944V63C54.3333 64.1046 53.4379 65 52.3333 65H45.6667C44.5621 65 43.6667 64.1046 43.6667 63V50.4944C43.6667 50.0996 43.5498 49.7136 43.3308 49.385L35.1216 37.0712C34.9068 36.7491 34.5452 36.5556 34.158 36.5556V36.5556C33.5185 36.5556 33 36.0371 33 35.3975V34.7778C33 33.7959 33.7959 33 34.7778 33H63.2222ZM55.223 36.5556C54.4998 36.5556 53.8334 36.9471 53.4813 37.5789L47.4751 48.3577C47.3093 48.6553 47.2222 48.9904 47.2222 49.3312V59.6667C47.2222 60.6485 48.0182 61.4444 49 61.4444V61.4444C49.9818 61.4444 50.7778 60.6485 50.7778 59.6667V49.4171C50.7778 49.0223 50.8947 48.6362 51.1137 48.3077L56.8819 39.6553C57.7653 38.3303 56.8154 36.5556 55.223 36.5556V36.5556Z" fill="#D3D9DD"/>
<circle cx="39" cy="23" r="5" fill="#BEC6CC"/>
<circle cx="56" cy="17" r="5" fill="#BEC6CC"/>
<circle cx="49" cy="75" r="5" fill="#BEC6CC"/>
</svg>