<svg width="40" height="40" viewBox="0 0 40 40" fill="none" xmlns="http://www.w3.org/2000/svg">
<rect width="40" height="40" fill="white"/>
<path d="M8.05509 31.5399C8.05509 25.2839 11.3204 22.9533 13.1352 21.8799L8.59826 21.4199C5.30464 23.0074 3.79899 24.2902 2.24653 27.8599C1.95389 29.0463 1.91869 31.4409 2.1575 31.5399C3.0783 31.9219 6.21553 31.5399 8.05509 31.5399Z" fill="#D4EDFB"/>
<path d="M19.3944 15.44C19.3944 18.4575 16.9853 20.88 14.0426 20.88C11.0999 20.88 8.69092 18.4575 8.69092 15.44C8.69092 12.4225 11.0999 10 14.0426 10C16.9853 10 19.3944 12.4225 19.3944 15.44Z" stroke="#546E7A" stroke-width="2" stroke-linecap="round"/>
<path d="M2.15723 31.2713C2.15723 24.68 8.50895 20.4091 13.3649 21.0187C15.8089 21.0187 18.1563 21.7197 20.0843 23" stroke="#546E7A" stroke-width="2" stroke-linecap="round"/>
<path d="M21.7582 31.5399C21.7582 25.2839 25.0236 22.9533 26.8383 21.8799L22.3014 21.4199C19.0078 23.0074 17.5021 24.2902 15.9497 27.8599C15.657 29.0463 15.6218 31.4409 15.8606 31.5399C16.7814 31.9219 19.9187 31.5399 21.7582 31.5399Z" fill="#D4EDFB"/>
<path d="M33.0975 15.44C33.0975 18.4575 30.6885 20.88 27.7458 20.88C24.8031 20.88 22.394 18.4575 22.394 15.44C22.394 12.4225 24.8031 10 27.7458 10C30.6885 10 33.0975 12.4225 33.0975 15.44Z" stroke="#546E7A" stroke-width="2" stroke-linecap="round"/>
<path d="M15.8604 31.2714C15.8604 24.6801 22.2121 20.4092 27.068 21.0187C33.1007 21.0187 38.5451 25.2902 38.5451 32.0009" stroke="#546E7A" stroke-width="2" stroke-linecap="round"/>
</svg>
