<svg width="17" height="17" viewBox="0 0 17 17" fill="none" xmlns="http://www.w3.org/2000/svg">
<path d="M0.5 16.5C0.5 14.9087 1.13214 13.3826 2.25736 12.2574C3.38258 11.1321 4.9087 10.5 6.5 10.5C8.0913 10.5 9.61742 11.1321 10.7426 12.2574C11.8679 13.3826 12.5 14.9087 12.5 16.5H11C11 15.3065 10.5259 14.1619 9.68198 13.318C8.83807 12.4741 7.69347 12 6.5 12C5.30653 12 4.16193 12.4741 3.31802 13.318C2.47411 14.1619 2 15.3065 2 16.5H0.5ZM6.5 9.75C4.01375 9.75 2 7.73625 2 5.25C2 2.76375 4.01375 0.75 6.5 0.75C8.98625 0.75 11 2.76375 11 5.25C11 7.73625 8.98625 9.75 6.5 9.75ZM6.5 8.25C8.1575 8.25 9.5 6.9075 9.5 5.25C9.5 3.5925 8.1575 2.25 6.5 2.25C4.8425 2.25 3.5 3.5925 3.5 5.25C3.5 6.9075 4.8425 8.25 6.5 8.25ZM12.713 11.0273C13.767 11.5019 14.6615 12.2709 15.2889 13.2418C15.9164 14.2126 16.2501 15.344 16.25 16.5H14.75C14.7502 15.633 14.4999 14.7844 14.0293 14.0562C13.5587 13.328 12.8878 12.7512 12.0972 12.3953L12.7123 11.0273H12.713ZM12.197 2.55975C12.9526 2.87122 13.5987 3.40015 14.0533 4.07942C14.5078 4.75869 14.7503 5.55768 14.75 6.375C14.7503 7.40425 14.3658 8.39642 13.6719 9.15662C12.978 9.91682 12.025 10.3901 11 10.4835V8.97375C11.5557 8.89416 12.0713 8.63851 12.471 8.24434C12.8707 7.85017 13.1335 7.33824 13.2209 6.7837C13.3082 6.22916 13.2155 5.66122 12.9563 5.16327C12.6971 4.66531 12.2851 4.26356 11.7808 4.017L12.197 2.55975Z" fill="#546E7A"/>
</svg>
