<svg width="20" height="18" viewBox="0 0 20 18" fill="none" xmlns="http://www.w3.org/2000/svg">
<path d="M1 7H0V1.003C0 0.449002 0.455 2.19659e-06 0.992 2.19659e-06H19.008C19.1393 -0.000274335 19.2693 0.0255614 19.3905 0.076006C19.5117 0.126451 19.6217 0.200497 19.714 0.293835C19.8063 0.387173 19.8791 0.497939 19.9282 0.619688C19.9773 0.741436 20.0017 0.871735 20 1.003V7H19V17.001C19.0004 17.1318 18.975 17.2614 18.9253 17.3824C18.8756 17.5034 18.8026 17.6134 18.7104 17.7062C18.6182 17.7989 18.5086 17.8726 18.3879 17.923C18.2672 17.9735 18.1378 17.9996 18.007 18H1.993C1.8622 17.9996 1.73276 17.9735 1.61207 17.923C1.49139 17.8726 1.38181 17.7989 1.2896 17.7062C1.19739 17.6134 1.12436 17.5034 1.07467 17.3824C1.02498 17.2614 0.999605 17.1318 1 17.001V7ZM17 7H3V16H17V7ZM2 2V5H18V2H2ZM7 9H13V11H7V9Z" fill="#0E90D9"/>
</svg>
